%TF.GenerationSoftware,KiCad,Pcbnew,7.0.1-0*%
%TF.CreationDate,2023-04-27T16:38:55+02:00*%
%TF.ProjectId,helicoprion,68656c69-636f-4707-9269-6f6e2e6b6963,rev?*%
%TF.SameCoordinates,Original*%
%TF.FileFunction,Legend,Bot*%
%TF.FilePolarity,Positive*%
%FSLAX46Y46*%
G04 Gerber Fmt 4.6, Leading zero omitted, Abs format (unit mm)*
G04 Created by KiCad (PCBNEW 7.0.1-0) date 2023-04-27 16:38:55*
%MOMM*%
%LPD*%
G01*
G04 APERTURE LIST*
G04 Aperture macros list*
%AMRotRect*
0 Rectangle, with rotation*
0 The origin of the aperture is its center*
0 $1 length*
0 $2 width*
0 $3 Rotation angle, in degrees counterclockwise*
0 Add horizontal line*
21,1,$1,$2,0,0,$3*%
G04 Aperture macros list end*
%ADD10C,0.150000*%
%ADD11C,0.225000*%
%ADD12C,0.800000*%
%ADD13O,2.000000X1.600000*%
%ADD14C,1.701800*%
%ADD15C,0.990600*%
%ADD16C,3.429000*%
%ADD17C,3.000000*%
%ADD18C,3.200000*%
%ADD19R,2.600000X2.600000*%
%ADD20R,1.600000X1.200000*%
%ADD21R,1.600000X1.600000*%
%ADD22C,1.600000*%
%ADD23R,1.200000X1.600000*%
%ADD24RotRect,1.600000X1.200000X40.000000*%
%ADD25RotRect,1.600000X1.600000X40.000000*%
%ADD26RotRect,1.600000X1.200000X140.000000*%
%ADD27RotRect,1.600000X1.600000X140.000000*%
%ADD28RotRect,1.600000X1.200000X30.000000*%
%ADD29RotRect,1.600000X1.600000X30.000000*%
%ADD30RotRect,1.600000X1.200000X50.000000*%
%ADD31RotRect,1.600000X1.600000X50.000000*%
%ADD32RotRect,1.600000X1.200000X330.000000*%
%ADD33RotRect,1.600000X1.600000X330.000000*%
%ADD34RotRect,2.600000X2.600000X300.000000*%
%ADD35C,1.800000*%
%ADD36C,2.100000*%
%ADD37C,2.200000*%
%ADD38RotRect,2.600000X2.600000X320.000000*%
%ADD39RotRect,2.600000X2.600000X310.000000*%
%ADD40C,1.524000*%
%ADD41RotRect,2.600000X2.600000X330.000000*%
%TA.AperFunction,Profile*%
%ADD42C,0.100000*%
%TD*%
G04 APERTURE END LIST*
D10*
X158948941Y-50852619D02*
X159148941Y-50376428D01*
X159291798Y-50852619D02*
X159291798Y-49852619D01*
X159291798Y-49852619D02*
X159063227Y-49852619D01*
X159063227Y-49852619D02*
X159006084Y-49900238D01*
X159006084Y-49900238D02*
X158977513Y-49947857D01*
X158977513Y-49947857D02*
X158948941Y-50043095D01*
X158948941Y-50043095D02*
X158948941Y-50185952D01*
X158948941Y-50185952D02*
X158977513Y-50281190D01*
X158977513Y-50281190D02*
X159006084Y-50328809D01*
X159006084Y-50328809D02*
X159063227Y-50376428D01*
X159063227Y-50376428D02*
X159291798Y-50376428D01*
X158748941Y-49852619D02*
X158348941Y-50852619D01*
X158348941Y-49852619D02*
X158748941Y-50852619D01*
X174120370Y-50852619D02*
X174320370Y-50376428D01*
X174463227Y-50852619D02*
X174463227Y-49852619D01*
X174463227Y-49852619D02*
X174234656Y-49852619D01*
X174234656Y-49852619D02*
X174177513Y-49900238D01*
X174177513Y-49900238D02*
X174148942Y-49947857D01*
X174148942Y-49947857D02*
X174120370Y-50043095D01*
X174120370Y-50043095D02*
X174120370Y-50185952D01*
X174120370Y-50185952D02*
X174148942Y-50281190D01*
X174148942Y-50281190D02*
X174177513Y-50328809D01*
X174177513Y-50328809D02*
X174234656Y-50376428D01*
X174234656Y-50376428D02*
X174463227Y-50376428D01*
X173920370Y-49852619D02*
X173520370Y-50852619D01*
X173520370Y-49852619D02*
X173920370Y-50852619D01*
X158977513Y-52440238D02*
X159034656Y-52392619D01*
X159034656Y-52392619D02*
X159120370Y-52392619D01*
X159120370Y-52392619D02*
X159206084Y-52440238D01*
X159206084Y-52440238D02*
X159263227Y-52535476D01*
X159263227Y-52535476D02*
X159291798Y-52630714D01*
X159291798Y-52630714D02*
X159320370Y-52821190D01*
X159320370Y-52821190D02*
X159320370Y-52964047D01*
X159320370Y-52964047D02*
X159291798Y-53154523D01*
X159291798Y-53154523D02*
X159263227Y-53249761D01*
X159263227Y-53249761D02*
X159206084Y-53345000D01*
X159206084Y-53345000D02*
X159120370Y-53392619D01*
X159120370Y-53392619D02*
X159063227Y-53392619D01*
X159063227Y-53392619D02*
X158977513Y-53345000D01*
X158977513Y-53345000D02*
X158948941Y-53297380D01*
X158948941Y-53297380D02*
X158948941Y-52964047D01*
X158948941Y-52964047D02*
X159063227Y-52964047D01*
X158691798Y-53392619D02*
X158691798Y-52392619D01*
X158691798Y-52392619D02*
X158348941Y-53392619D01*
X158348941Y-53392619D02*
X158348941Y-52392619D01*
X158063227Y-53392619D02*
X158063227Y-52392619D01*
X158063227Y-52392619D02*
X157920370Y-52392619D01*
X157920370Y-52392619D02*
X157834656Y-52440238D01*
X157834656Y-52440238D02*
X157777513Y-52535476D01*
X157777513Y-52535476D02*
X157748942Y-52630714D01*
X157748942Y-52630714D02*
X157720370Y-52821190D01*
X157720370Y-52821190D02*
X157720370Y-52964047D01*
X157720370Y-52964047D02*
X157748942Y-53154523D01*
X157748942Y-53154523D02*
X157777513Y-53249761D01*
X157777513Y-53249761D02*
X157834656Y-53345000D01*
X157834656Y-53345000D02*
X157920370Y-53392619D01*
X157920370Y-53392619D02*
X158063227Y-53392619D01*
X171963229Y-55225952D02*
X172648943Y-55511666D01*
X172648943Y-55511666D02*
X171963229Y-55797380D01*
X171534657Y-55511666D02*
X170848943Y-55511666D01*
X170420371Y-55511666D02*
X169734657Y-55511666D01*
X174548942Y-75252619D02*
X174206085Y-75252619D01*
X174377513Y-76252619D02*
X174377513Y-75252619D01*
X173720370Y-76252619D02*
X174006084Y-76252619D01*
X174006084Y-76252619D02*
X174006084Y-75252619D01*
X173177513Y-76252619D02*
X173377513Y-75776428D01*
X173520370Y-76252619D02*
X173520370Y-75252619D01*
X173520370Y-75252619D02*
X173291799Y-75252619D01*
X173291799Y-75252619D02*
X173234656Y-75300238D01*
X173234656Y-75300238D02*
X173206085Y-75347857D01*
X173206085Y-75347857D02*
X173177513Y-75443095D01*
X173177513Y-75443095D02*
X173177513Y-75585952D01*
X173177513Y-75585952D02*
X173206085Y-75681190D01*
X173206085Y-75681190D02*
X173234656Y-75728809D01*
X173234656Y-75728809D02*
X173291799Y-75776428D01*
X173291799Y-75776428D02*
X173520370Y-75776428D01*
X174148942Y-52440238D02*
X174206085Y-52392619D01*
X174206085Y-52392619D02*
X174291799Y-52392619D01*
X174291799Y-52392619D02*
X174377513Y-52440238D01*
X174377513Y-52440238D02*
X174434656Y-52535476D01*
X174434656Y-52535476D02*
X174463227Y-52630714D01*
X174463227Y-52630714D02*
X174491799Y-52821190D01*
X174491799Y-52821190D02*
X174491799Y-52964047D01*
X174491799Y-52964047D02*
X174463227Y-53154523D01*
X174463227Y-53154523D02*
X174434656Y-53249761D01*
X174434656Y-53249761D02*
X174377513Y-53345000D01*
X174377513Y-53345000D02*
X174291799Y-53392619D01*
X174291799Y-53392619D02*
X174234656Y-53392619D01*
X174234656Y-53392619D02*
X174148942Y-53345000D01*
X174148942Y-53345000D02*
X174120370Y-53297380D01*
X174120370Y-53297380D02*
X174120370Y-52964047D01*
X174120370Y-52964047D02*
X174234656Y-52964047D01*
X173863227Y-53392619D02*
X173863227Y-52392619D01*
X173863227Y-52392619D02*
X173520370Y-53392619D01*
X173520370Y-53392619D02*
X173520370Y-52392619D01*
X173234656Y-53392619D02*
X173234656Y-52392619D01*
X173234656Y-52392619D02*
X173091799Y-52392619D01*
X173091799Y-52392619D02*
X173006085Y-52440238D01*
X173006085Y-52440238D02*
X172948942Y-52535476D01*
X172948942Y-52535476D02*
X172920371Y-52630714D01*
X172920371Y-52630714D02*
X172891799Y-52821190D01*
X172891799Y-52821190D02*
X172891799Y-52964047D01*
X172891799Y-52964047D02*
X172920371Y-53154523D01*
X172920371Y-53154523D02*
X172948942Y-53249761D01*
X172948942Y-53249761D02*
X173006085Y-53345000D01*
X173006085Y-53345000D02*
X173091799Y-53392619D01*
X173091799Y-53392619D02*
X173234656Y-53392619D01*
D11*
X169035728Y-51409428D02*
X167535728Y-51409428D01*
X167535728Y-51409428D02*
X168607157Y-51709428D01*
X168607157Y-51709428D02*
X167535728Y-52009428D01*
X167535728Y-52009428D02*
X169035728Y-52009428D01*
X169035728Y-52823714D02*
X168250014Y-52823714D01*
X168250014Y-52823714D02*
X168107157Y-52780856D01*
X168107157Y-52780856D02*
X168035728Y-52695142D01*
X168035728Y-52695142D02*
X168035728Y-52523714D01*
X168035728Y-52523714D02*
X168107157Y-52437999D01*
X168964300Y-52823714D02*
X169035728Y-52737999D01*
X169035728Y-52737999D02*
X169035728Y-52523714D01*
X169035728Y-52523714D02*
X168964300Y-52437999D01*
X168964300Y-52437999D02*
X168821442Y-52395142D01*
X168821442Y-52395142D02*
X168678585Y-52395142D01*
X168678585Y-52395142D02*
X168535728Y-52437999D01*
X168535728Y-52437999D02*
X168464300Y-52523714D01*
X168464300Y-52523714D02*
X168464300Y-52737999D01*
X168464300Y-52737999D02*
X168392871Y-52823714D01*
X168035728Y-53123714D02*
X168035728Y-53466571D01*
X167535728Y-53252285D02*
X168821442Y-53252285D01*
X168821442Y-53252285D02*
X168964300Y-53295142D01*
X168964300Y-53295142D02*
X169035728Y-53380857D01*
X169035728Y-53380857D02*
X169035728Y-53466571D01*
X168964300Y-54152286D02*
X169035728Y-54066571D01*
X169035728Y-54066571D02*
X169035728Y-53895143D01*
X169035728Y-53895143D02*
X168964300Y-53809428D01*
X168964300Y-53809428D02*
X168892871Y-53766571D01*
X168892871Y-53766571D02*
X168750014Y-53723714D01*
X168750014Y-53723714D02*
X168321442Y-53723714D01*
X168321442Y-53723714D02*
X168178585Y-53766571D01*
X168178585Y-53766571D02*
X168107157Y-53809428D01*
X168107157Y-53809428D02*
X168035728Y-53895143D01*
X168035728Y-53895143D02*
X168035728Y-54066571D01*
X168035728Y-54066571D02*
X168107157Y-54152286D01*
X169035728Y-54538000D02*
X167535728Y-54538000D01*
X169035728Y-54923715D02*
X168250014Y-54923715D01*
X168250014Y-54923715D02*
X168107157Y-54880857D01*
X168107157Y-54880857D02*
X168035728Y-54795143D01*
X168035728Y-54795143D02*
X168035728Y-54666572D01*
X168035728Y-54666572D02*
X168107157Y-54580857D01*
X168107157Y-54580857D02*
X168178585Y-54538000D01*
X168035728Y-55952286D02*
X169035728Y-56123715D01*
X169035728Y-56123715D02*
X168321442Y-56295143D01*
X168321442Y-56295143D02*
X169035728Y-56466572D01*
X169035728Y-56466572D02*
X168035728Y-56638000D01*
X169035728Y-56980857D02*
X168035728Y-56980857D01*
X167535728Y-56980857D02*
X167607157Y-56938000D01*
X167607157Y-56938000D02*
X167678585Y-56980857D01*
X167678585Y-56980857D02*
X167607157Y-57023714D01*
X167607157Y-57023714D02*
X167535728Y-56980857D01*
X167535728Y-56980857D02*
X167678585Y-56980857D01*
X168035728Y-57280857D02*
X168035728Y-57623714D01*
X167535728Y-57409428D02*
X168821442Y-57409428D01*
X168821442Y-57409428D02*
X168964300Y-57452285D01*
X168964300Y-57452285D02*
X169035728Y-57538000D01*
X169035728Y-57538000D02*
X169035728Y-57623714D01*
X169035728Y-57923714D02*
X167535728Y-57923714D01*
X169035728Y-58309429D02*
X168250014Y-58309429D01*
X168250014Y-58309429D02*
X168107157Y-58266571D01*
X168107157Y-58266571D02*
X168035728Y-58180857D01*
X168035728Y-58180857D02*
X168035728Y-58052286D01*
X168035728Y-58052286D02*
X168107157Y-57966571D01*
X168107157Y-57966571D02*
X168178585Y-57923714D01*
X169035728Y-59423714D02*
X167535728Y-59423714D01*
X167535728Y-59423714D02*
X168607157Y-59723714D01*
X168607157Y-59723714D02*
X167535728Y-60023714D01*
X167535728Y-60023714D02*
X169035728Y-60023714D01*
X168892871Y-60966571D02*
X168964300Y-60923714D01*
X168964300Y-60923714D02*
X169035728Y-60795142D01*
X169035728Y-60795142D02*
X169035728Y-60709428D01*
X169035728Y-60709428D02*
X168964300Y-60580857D01*
X168964300Y-60580857D02*
X168821442Y-60495142D01*
X168821442Y-60495142D02*
X168678585Y-60452285D01*
X168678585Y-60452285D02*
X168392871Y-60409428D01*
X168392871Y-60409428D02*
X168178585Y-60409428D01*
X168178585Y-60409428D02*
X167892871Y-60452285D01*
X167892871Y-60452285D02*
X167750014Y-60495142D01*
X167750014Y-60495142D02*
X167607157Y-60580857D01*
X167607157Y-60580857D02*
X167535728Y-60709428D01*
X167535728Y-60709428D02*
X167535728Y-60795142D01*
X167535728Y-60795142D02*
X167607157Y-60923714D01*
X167607157Y-60923714D02*
X167678585Y-60966571D01*
X167535728Y-61352285D02*
X168750014Y-61352285D01*
X168750014Y-61352285D02*
X168892871Y-61395142D01*
X168892871Y-61395142D02*
X168964300Y-61438000D01*
X168964300Y-61438000D02*
X169035728Y-61523714D01*
X169035728Y-61523714D02*
X169035728Y-61695142D01*
X169035728Y-61695142D02*
X168964300Y-61780857D01*
X168964300Y-61780857D02*
X168892871Y-61823714D01*
X168892871Y-61823714D02*
X168750014Y-61866571D01*
X168750014Y-61866571D02*
X167535728Y-61866571D01*
X168035728Y-62980856D02*
X169535728Y-62980856D01*
X168107157Y-62980856D02*
X168035728Y-63066571D01*
X168035728Y-63066571D02*
X168035728Y-63237999D01*
X168035728Y-63237999D02*
X168107157Y-63323713D01*
X168107157Y-63323713D02*
X168178585Y-63366571D01*
X168178585Y-63366571D02*
X168321442Y-63409428D01*
X168321442Y-63409428D02*
X168750014Y-63409428D01*
X168750014Y-63409428D02*
X168892871Y-63366571D01*
X168892871Y-63366571D02*
X168964300Y-63323713D01*
X168964300Y-63323713D02*
X169035728Y-63237999D01*
X169035728Y-63237999D02*
X169035728Y-63066571D01*
X169035728Y-63066571D02*
X168964300Y-62980856D01*
X169035728Y-63795142D02*
X168035728Y-63795142D01*
X167535728Y-63795142D02*
X167607157Y-63752285D01*
X167607157Y-63752285D02*
X167678585Y-63795142D01*
X167678585Y-63795142D02*
X167607157Y-63837999D01*
X167607157Y-63837999D02*
X167535728Y-63795142D01*
X167535728Y-63795142D02*
X167678585Y-63795142D01*
X168035728Y-64223713D02*
X169035728Y-64223713D01*
X168178585Y-64223713D02*
X168107157Y-64266570D01*
X168107157Y-64266570D02*
X168035728Y-64352285D01*
X168035728Y-64352285D02*
X168035728Y-64480856D01*
X168035728Y-64480856D02*
X168107157Y-64566570D01*
X168107157Y-64566570D02*
X168250014Y-64609428D01*
X168250014Y-64609428D02*
X169035728Y-64609428D01*
X169035728Y-65852285D02*
X168964300Y-65766570D01*
X168964300Y-65766570D02*
X168821442Y-65723713D01*
X168821442Y-65723713D02*
X167535728Y-65723713D01*
X169035728Y-66580857D02*
X168250014Y-66580857D01*
X168250014Y-66580857D02*
X168107157Y-66537999D01*
X168107157Y-66537999D02*
X168035728Y-66452285D01*
X168035728Y-66452285D02*
X168035728Y-66280857D01*
X168035728Y-66280857D02*
X168107157Y-66195142D01*
X168964300Y-66580857D02*
X169035728Y-66495142D01*
X169035728Y-66495142D02*
X169035728Y-66280857D01*
X169035728Y-66280857D02*
X168964300Y-66195142D01*
X168964300Y-66195142D02*
X168821442Y-66152285D01*
X168821442Y-66152285D02*
X168678585Y-66152285D01*
X168678585Y-66152285D02*
X168535728Y-66195142D01*
X168535728Y-66195142D02*
X168464300Y-66280857D01*
X168464300Y-66280857D02*
X168464300Y-66495142D01*
X168464300Y-66495142D02*
X168392871Y-66580857D01*
X169035728Y-67009428D02*
X167535728Y-67009428D01*
X168107157Y-67009428D02*
X168035728Y-67095143D01*
X168035728Y-67095143D02*
X168035728Y-67266571D01*
X168035728Y-67266571D02*
X168107157Y-67352285D01*
X168107157Y-67352285D02*
X168178585Y-67395143D01*
X168178585Y-67395143D02*
X168321442Y-67438000D01*
X168321442Y-67438000D02*
X168750014Y-67438000D01*
X168750014Y-67438000D02*
X168892871Y-67395143D01*
X168892871Y-67395143D02*
X168964300Y-67352285D01*
X168964300Y-67352285D02*
X169035728Y-67266571D01*
X169035728Y-67266571D02*
X169035728Y-67095143D01*
X169035728Y-67095143D02*
X168964300Y-67009428D01*
X168964300Y-68166571D02*
X169035728Y-68080857D01*
X169035728Y-68080857D02*
X169035728Y-67909429D01*
X169035728Y-67909429D02*
X168964300Y-67823714D01*
X168964300Y-67823714D02*
X168821442Y-67780857D01*
X168821442Y-67780857D02*
X168250014Y-67780857D01*
X168250014Y-67780857D02*
X168107157Y-67823714D01*
X168107157Y-67823714D02*
X168035728Y-67909429D01*
X168035728Y-67909429D02*
X168035728Y-68080857D01*
X168035728Y-68080857D02*
X168107157Y-68166571D01*
X168107157Y-68166571D02*
X168250014Y-68209429D01*
X168250014Y-68209429D02*
X168392871Y-68209429D01*
X168392871Y-68209429D02*
X168535728Y-67780857D01*
X169035728Y-68723715D02*
X168964300Y-68638000D01*
X168964300Y-68638000D02*
X168821442Y-68595143D01*
X168821442Y-68595143D02*
X167535728Y-68595143D01*
X168964300Y-69023715D02*
X169035728Y-69109429D01*
X169035728Y-69109429D02*
X169035728Y-69280858D01*
X169035728Y-69280858D02*
X168964300Y-69366572D01*
X168964300Y-69366572D02*
X168821442Y-69409429D01*
X168821442Y-69409429D02*
X168750014Y-69409429D01*
X168750014Y-69409429D02*
X168607157Y-69366572D01*
X168607157Y-69366572D02*
X168535728Y-69280858D01*
X168535728Y-69280858D02*
X168535728Y-69152287D01*
X168535728Y-69152287D02*
X168464300Y-69066572D01*
X168464300Y-69066572D02*
X168321442Y-69023715D01*
X168321442Y-69023715D02*
X168250014Y-69023715D01*
X168250014Y-69023715D02*
X168107157Y-69066572D01*
X168107157Y-69066572D02*
X168035728Y-69152287D01*
X168035728Y-69152287D02*
X168035728Y-69280858D01*
X168035728Y-69280858D02*
X168107157Y-69366572D01*
D10*
X174548943Y-47312619D02*
X174206086Y-47312619D01*
X174377514Y-48312619D02*
X174377514Y-47312619D01*
X174063228Y-47312619D02*
X173663228Y-48312619D01*
X173663228Y-47312619D02*
X174063228Y-48312619D01*
X158948942Y-66092619D02*
X159148942Y-65616428D01*
X159291799Y-66092619D02*
X159291799Y-65092619D01*
X159291799Y-65092619D02*
X159063228Y-65092619D01*
X159063228Y-65092619D02*
X159006085Y-65140238D01*
X159006085Y-65140238D02*
X158977514Y-65187857D01*
X158977514Y-65187857D02*
X158948942Y-65283095D01*
X158948942Y-65283095D02*
X158948942Y-65425952D01*
X158948942Y-65425952D02*
X158977514Y-65521190D01*
X158977514Y-65521190D02*
X159006085Y-65568809D01*
X159006085Y-65568809D02*
X159063228Y-65616428D01*
X159063228Y-65616428D02*
X159291799Y-65616428D01*
X158577514Y-65092619D02*
X158463228Y-65092619D01*
X158463228Y-65092619D02*
X158406085Y-65140238D01*
X158406085Y-65140238D02*
X158348942Y-65235476D01*
X158348942Y-65235476D02*
X158320371Y-65425952D01*
X158320371Y-65425952D02*
X158320371Y-65759285D01*
X158320371Y-65759285D02*
X158348942Y-65949761D01*
X158348942Y-65949761D02*
X158406085Y-66045000D01*
X158406085Y-66045000D02*
X158463228Y-66092619D01*
X158463228Y-66092619D02*
X158577514Y-66092619D01*
X158577514Y-66092619D02*
X158634657Y-66045000D01*
X158634657Y-66045000D02*
X158691799Y-65949761D01*
X158691799Y-65949761D02*
X158720371Y-65759285D01*
X158720371Y-65759285D02*
X158720371Y-65425952D01*
X158720371Y-65425952D02*
X158691799Y-65235476D01*
X158691799Y-65235476D02*
X158634657Y-65140238D01*
X158634657Y-65140238D02*
X158577514Y-65092619D01*
X158120371Y-65092619D02*
X157977514Y-66092619D01*
X157977514Y-66092619D02*
X157863228Y-65378333D01*
X157863228Y-65378333D02*
X157748943Y-66092619D01*
X157748943Y-66092619D02*
X157606086Y-65092619D01*
X157434657Y-65092619D02*
X157063229Y-65092619D01*
X157063229Y-65092619D02*
X157263229Y-65473571D01*
X157263229Y-65473571D02*
X157177514Y-65473571D01*
X157177514Y-65473571D02*
X157120372Y-65521190D01*
X157120372Y-65521190D02*
X157091800Y-65568809D01*
X157091800Y-65568809D02*
X157063229Y-65664047D01*
X157063229Y-65664047D02*
X157063229Y-65902142D01*
X157063229Y-65902142D02*
X157091800Y-65997380D01*
X157091800Y-65997380D02*
X157120372Y-66045000D01*
X157120372Y-66045000D02*
X157177514Y-66092619D01*
X157177514Y-66092619D02*
X157348943Y-66092619D01*
X157348943Y-66092619D02*
X157406086Y-66045000D01*
X157406086Y-66045000D02*
X157434657Y-65997380D01*
X174548943Y-72712619D02*
X174206086Y-72712619D01*
X174377514Y-73712619D02*
X174377514Y-72712619D01*
X174006085Y-72712619D02*
X174006085Y-73522142D01*
X174006085Y-73522142D02*
X173977514Y-73617380D01*
X173977514Y-73617380D02*
X173948943Y-73665000D01*
X173948943Y-73665000D02*
X173891800Y-73712619D01*
X173891800Y-73712619D02*
X173777514Y-73712619D01*
X173777514Y-73712619D02*
X173720371Y-73665000D01*
X173720371Y-73665000D02*
X173691800Y-73617380D01*
X173691800Y-73617380D02*
X173663228Y-73522142D01*
X173663228Y-73522142D02*
X173663228Y-72712619D01*
X173034657Y-73712619D02*
X173234657Y-73236428D01*
X173377514Y-73712619D02*
X173377514Y-72712619D01*
X173377514Y-72712619D02*
X173148943Y-72712619D01*
X173148943Y-72712619D02*
X173091800Y-72760238D01*
X173091800Y-72760238D02*
X173063229Y-72807857D01*
X173063229Y-72807857D02*
X173034657Y-72903095D01*
X173034657Y-72903095D02*
X173034657Y-73045952D01*
X173034657Y-73045952D02*
X173063229Y-73141190D01*
X173063229Y-73141190D02*
X173091800Y-73188809D01*
X173091800Y-73188809D02*
X173148943Y-73236428D01*
X173148943Y-73236428D02*
X173377514Y-73236428D01*
X158977513Y-54980238D02*
X159034656Y-54932619D01*
X159034656Y-54932619D02*
X159120370Y-54932619D01*
X159120370Y-54932619D02*
X159206084Y-54980238D01*
X159206084Y-54980238D02*
X159263227Y-55075476D01*
X159263227Y-55075476D02*
X159291798Y-55170714D01*
X159291798Y-55170714D02*
X159320370Y-55361190D01*
X159320370Y-55361190D02*
X159320370Y-55504047D01*
X159320370Y-55504047D02*
X159291798Y-55694523D01*
X159291798Y-55694523D02*
X159263227Y-55789761D01*
X159263227Y-55789761D02*
X159206084Y-55885000D01*
X159206084Y-55885000D02*
X159120370Y-55932619D01*
X159120370Y-55932619D02*
X159063227Y-55932619D01*
X159063227Y-55932619D02*
X158977513Y-55885000D01*
X158977513Y-55885000D02*
X158948941Y-55837380D01*
X158948941Y-55837380D02*
X158948941Y-55504047D01*
X158948941Y-55504047D02*
X159063227Y-55504047D01*
X158691798Y-55932619D02*
X158691798Y-54932619D01*
X158691798Y-54932619D02*
X158348941Y-55932619D01*
X158348941Y-55932619D02*
X158348941Y-54932619D01*
X158063227Y-55932619D02*
X158063227Y-54932619D01*
X158063227Y-54932619D02*
X157920370Y-54932619D01*
X157920370Y-54932619D02*
X157834656Y-54980238D01*
X157834656Y-54980238D02*
X157777513Y-55075476D01*
X157777513Y-55075476D02*
X157748942Y-55170714D01*
X157748942Y-55170714D02*
X157720370Y-55361190D01*
X157720370Y-55361190D02*
X157720370Y-55504047D01*
X157720370Y-55504047D02*
X157748942Y-55694523D01*
X157748942Y-55694523D02*
X157777513Y-55789761D01*
X157777513Y-55789761D02*
X157834656Y-55885000D01*
X157834656Y-55885000D02*
X157920370Y-55932619D01*
X157920370Y-55932619D02*
X158063227Y-55932619D01*
X166816658Y-52971666D02*
X166130944Y-52971666D01*
X165702372Y-52971666D02*
X165016658Y-52971666D01*
X164588086Y-52971666D02*
X163902372Y-52971666D01*
X163473800Y-52685952D02*
X162788086Y-52971666D01*
X162788086Y-52971666D02*
X163473800Y-53257380D01*
X174148942Y-54980238D02*
X174206085Y-54932619D01*
X174206085Y-54932619D02*
X174291799Y-54932619D01*
X174291799Y-54932619D02*
X174377513Y-54980238D01*
X174377513Y-54980238D02*
X174434656Y-55075476D01*
X174434656Y-55075476D02*
X174463227Y-55170714D01*
X174463227Y-55170714D02*
X174491799Y-55361190D01*
X174491799Y-55361190D02*
X174491799Y-55504047D01*
X174491799Y-55504047D02*
X174463227Y-55694523D01*
X174463227Y-55694523D02*
X174434656Y-55789761D01*
X174434656Y-55789761D02*
X174377513Y-55885000D01*
X174377513Y-55885000D02*
X174291799Y-55932619D01*
X174291799Y-55932619D02*
X174234656Y-55932619D01*
X174234656Y-55932619D02*
X174148942Y-55885000D01*
X174148942Y-55885000D02*
X174120370Y-55837380D01*
X174120370Y-55837380D02*
X174120370Y-55504047D01*
X174120370Y-55504047D02*
X174234656Y-55504047D01*
X173863227Y-55932619D02*
X173863227Y-54932619D01*
X173863227Y-54932619D02*
X173520370Y-55932619D01*
X173520370Y-55932619D02*
X173520370Y-54932619D01*
X173234656Y-55932619D02*
X173234656Y-54932619D01*
X173234656Y-54932619D02*
X173091799Y-54932619D01*
X173091799Y-54932619D02*
X173006085Y-54980238D01*
X173006085Y-54980238D02*
X172948942Y-55075476D01*
X172948942Y-55075476D02*
X172920371Y-55170714D01*
X172920371Y-55170714D02*
X172891799Y-55361190D01*
X172891799Y-55361190D02*
X172891799Y-55504047D01*
X172891799Y-55504047D02*
X172920371Y-55694523D01*
X172920371Y-55694523D02*
X172948942Y-55789761D01*
X172948942Y-55789761D02*
X173006085Y-55885000D01*
X173006085Y-55885000D02*
X173091799Y-55932619D01*
X173091799Y-55932619D02*
X173234656Y-55932619D01*
X174120371Y-68632619D02*
X174320371Y-68156428D01*
X174463228Y-68632619D02*
X174463228Y-67632619D01*
X174463228Y-67632619D02*
X174234657Y-67632619D01*
X174234657Y-67632619D02*
X174177514Y-67680238D01*
X174177514Y-67680238D02*
X174148943Y-67727857D01*
X174148943Y-67727857D02*
X174120371Y-67823095D01*
X174120371Y-67823095D02*
X174120371Y-67965952D01*
X174120371Y-67965952D02*
X174148943Y-68061190D01*
X174148943Y-68061190D02*
X174177514Y-68108809D01*
X174177514Y-68108809D02*
X174234657Y-68156428D01*
X174234657Y-68156428D02*
X174463228Y-68156428D01*
X173748943Y-67632619D02*
X173634657Y-67632619D01*
X173634657Y-67632619D02*
X173577514Y-67680238D01*
X173577514Y-67680238D02*
X173520371Y-67775476D01*
X173520371Y-67775476D02*
X173491800Y-67965952D01*
X173491800Y-67965952D02*
X173491800Y-68299285D01*
X173491800Y-68299285D02*
X173520371Y-68489761D01*
X173520371Y-68489761D02*
X173577514Y-68585000D01*
X173577514Y-68585000D02*
X173634657Y-68632619D01*
X173634657Y-68632619D02*
X173748943Y-68632619D01*
X173748943Y-68632619D02*
X173806086Y-68585000D01*
X173806086Y-68585000D02*
X173863228Y-68489761D01*
X173863228Y-68489761D02*
X173891800Y-68299285D01*
X173891800Y-68299285D02*
X173891800Y-67965952D01*
X173891800Y-67965952D02*
X173863228Y-67775476D01*
X173863228Y-67775476D02*
X173806086Y-67680238D01*
X173806086Y-67680238D02*
X173748943Y-67632619D01*
X173291800Y-67632619D02*
X173148943Y-68632619D01*
X173148943Y-68632619D02*
X173034657Y-67918333D01*
X173034657Y-67918333D02*
X172920372Y-68632619D01*
X172920372Y-68632619D02*
X172777515Y-67632619D01*
X172291801Y-67965952D02*
X172291801Y-68632619D01*
X172434658Y-67585000D02*
X172577515Y-68299285D01*
X172577515Y-68299285D02*
X172206086Y-68299285D01*
X174548943Y-70172619D02*
X174206086Y-70172619D01*
X174377514Y-71172619D02*
X174377514Y-70172619D01*
X174006085Y-70172619D02*
X174006085Y-70982142D01*
X174006085Y-70982142D02*
X173977514Y-71077380D01*
X173977514Y-71077380D02*
X173948943Y-71125000D01*
X173948943Y-71125000D02*
X173891800Y-71172619D01*
X173891800Y-71172619D02*
X173777514Y-71172619D01*
X173777514Y-71172619D02*
X173720371Y-71125000D01*
X173720371Y-71125000D02*
X173691800Y-71077380D01*
X173691800Y-71077380D02*
X173663228Y-70982142D01*
X173663228Y-70982142D02*
X173663228Y-70172619D01*
X173377514Y-71172619D02*
X173377514Y-70172619D01*
X173377514Y-70172619D02*
X173177514Y-70886904D01*
X173177514Y-70886904D02*
X172977514Y-70172619D01*
X172977514Y-70172619D02*
X172977514Y-71172619D01*
X158948942Y-68632619D02*
X159148942Y-68156428D01*
X159291799Y-68632619D02*
X159291799Y-67632619D01*
X159291799Y-67632619D02*
X159063228Y-67632619D01*
X159063228Y-67632619D02*
X159006085Y-67680238D01*
X159006085Y-67680238D02*
X158977514Y-67727857D01*
X158977514Y-67727857D02*
X158948942Y-67823095D01*
X158948942Y-67823095D02*
X158948942Y-67965952D01*
X158948942Y-67965952D02*
X158977514Y-68061190D01*
X158977514Y-68061190D02*
X159006085Y-68108809D01*
X159006085Y-68108809D02*
X159063228Y-68156428D01*
X159063228Y-68156428D02*
X159291799Y-68156428D01*
X158577514Y-67632619D02*
X158463228Y-67632619D01*
X158463228Y-67632619D02*
X158406085Y-67680238D01*
X158406085Y-67680238D02*
X158348942Y-67775476D01*
X158348942Y-67775476D02*
X158320371Y-67965952D01*
X158320371Y-67965952D02*
X158320371Y-68299285D01*
X158320371Y-68299285D02*
X158348942Y-68489761D01*
X158348942Y-68489761D02*
X158406085Y-68585000D01*
X158406085Y-68585000D02*
X158463228Y-68632619D01*
X158463228Y-68632619D02*
X158577514Y-68632619D01*
X158577514Y-68632619D02*
X158634657Y-68585000D01*
X158634657Y-68585000D02*
X158691799Y-68489761D01*
X158691799Y-68489761D02*
X158720371Y-68299285D01*
X158720371Y-68299285D02*
X158720371Y-67965952D01*
X158720371Y-67965952D02*
X158691799Y-67775476D01*
X158691799Y-67775476D02*
X158634657Y-67680238D01*
X158634657Y-67680238D02*
X158577514Y-67632619D01*
X158120371Y-67632619D02*
X157977514Y-68632619D01*
X157977514Y-68632619D02*
X157863228Y-67918333D01*
X157863228Y-67918333D02*
X157748943Y-68632619D01*
X157748943Y-68632619D02*
X157606086Y-67632619D01*
X157120372Y-67965952D02*
X157120372Y-68632619D01*
X157263229Y-67585000D02*
X157406086Y-68299285D01*
X157406086Y-68299285D02*
X157034657Y-68299285D01*
X174120371Y-61012619D02*
X174320371Y-60536428D01*
X174463228Y-61012619D02*
X174463228Y-60012619D01*
X174463228Y-60012619D02*
X174234657Y-60012619D01*
X174234657Y-60012619D02*
X174177514Y-60060238D01*
X174177514Y-60060238D02*
X174148943Y-60107857D01*
X174148943Y-60107857D02*
X174120371Y-60203095D01*
X174120371Y-60203095D02*
X174120371Y-60345952D01*
X174120371Y-60345952D02*
X174148943Y-60441190D01*
X174148943Y-60441190D02*
X174177514Y-60488809D01*
X174177514Y-60488809D02*
X174234657Y-60536428D01*
X174234657Y-60536428D02*
X174463228Y-60536428D01*
X173748943Y-60012619D02*
X173634657Y-60012619D01*
X173634657Y-60012619D02*
X173577514Y-60060238D01*
X173577514Y-60060238D02*
X173520371Y-60155476D01*
X173520371Y-60155476D02*
X173491800Y-60345952D01*
X173491800Y-60345952D02*
X173491800Y-60679285D01*
X173491800Y-60679285D02*
X173520371Y-60869761D01*
X173520371Y-60869761D02*
X173577514Y-60965000D01*
X173577514Y-60965000D02*
X173634657Y-61012619D01*
X173634657Y-61012619D02*
X173748943Y-61012619D01*
X173748943Y-61012619D02*
X173806086Y-60965000D01*
X173806086Y-60965000D02*
X173863228Y-60869761D01*
X173863228Y-60869761D02*
X173891800Y-60679285D01*
X173891800Y-60679285D02*
X173891800Y-60345952D01*
X173891800Y-60345952D02*
X173863228Y-60155476D01*
X173863228Y-60155476D02*
X173806086Y-60060238D01*
X173806086Y-60060238D02*
X173748943Y-60012619D01*
X173291800Y-60012619D02*
X173148943Y-61012619D01*
X173148943Y-61012619D02*
X173034657Y-60298333D01*
X173034657Y-60298333D02*
X172920372Y-61012619D01*
X172920372Y-61012619D02*
X172777515Y-60012619D01*
X172234658Y-61012619D02*
X172577515Y-61012619D01*
X172406086Y-61012619D02*
X172406086Y-60012619D01*
X172406086Y-60012619D02*
X172463229Y-60155476D01*
X172463229Y-60155476D02*
X172520372Y-60250714D01*
X172520372Y-60250714D02*
X172577515Y-60298333D01*
X171833800Y-50145952D02*
X172519514Y-50431666D01*
X172519514Y-50431666D02*
X171833800Y-50717380D01*
X171405228Y-50431666D02*
X170719514Y-50431666D01*
X170290942Y-50431666D02*
X169605228Y-50431666D01*
X159377514Y-70172619D02*
X159034657Y-70172619D01*
X159206085Y-71172619D02*
X159206085Y-70172619D01*
X158834656Y-70172619D02*
X158834656Y-70982142D01*
X158834656Y-70982142D02*
X158806085Y-71077380D01*
X158806085Y-71077380D02*
X158777514Y-71125000D01*
X158777514Y-71125000D02*
X158720371Y-71172619D01*
X158720371Y-71172619D02*
X158606085Y-71172619D01*
X158606085Y-71172619D02*
X158548942Y-71125000D01*
X158548942Y-71125000D02*
X158520371Y-71077380D01*
X158520371Y-71077380D02*
X158491799Y-70982142D01*
X158491799Y-70982142D02*
X158491799Y-70172619D01*
X158206085Y-71172619D02*
X158206085Y-70172619D01*
X158206085Y-70172619D02*
X158006085Y-70886904D01*
X158006085Y-70886904D02*
X157806085Y-70172619D01*
X157806085Y-70172619D02*
X157806085Y-71172619D01*
X159377514Y-72712619D02*
X159034657Y-72712619D01*
X159206085Y-73712619D02*
X159206085Y-72712619D01*
X158834656Y-72712619D02*
X158834656Y-73522142D01*
X158834656Y-73522142D02*
X158806085Y-73617380D01*
X158806085Y-73617380D02*
X158777514Y-73665000D01*
X158777514Y-73665000D02*
X158720371Y-73712619D01*
X158720371Y-73712619D02*
X158606085Y-73712619D01*
X158606085Y-73712619D02*
X158548942Y-73665000D01*
X158548942Y-73665000D02*
X158520371Y-73617380D01*
X158520371Y-73617380D02*
X158491799Y-73522142D01*
X158491799Y-73522142D02*
X158491799Y-72712619D01*
X157863228Y-73712619D02*
X158063228Y-73236428D01*
X158206085Y-73712619D02*
X158206085Y-72712619D01*
X158206085Y-72712619D02*
X157977514Y-72712619D01*
X157977514Y-72712619D02*
X157920371Y-72760238D01*
X157920371Y-72760238D02*
X157891800Y-72807857D01*
X157891800Y-72807857D02*
X157863228Y-72903095D01*
X157863228Y-72903095D02*
X157863228Y-73045952D01*
X157863228Y-73045952D02*
X157891800Y-73141190D01*
X157891800Y-73141190D02*
X157920371Y-73188809D01*
X157920371Y-73188809D02*
X157977514Y-73236428D01*
X157977514Y-73236428D02*
X158206085Y-73236428D01*
X159377514Y-47312619D02*
X159034657Y-47312619D01*
X159206085Y-48312619D02*
X159206085Y-47312619D01*
X158891799Y-47312619D02*
X158491799Y-48312619D01*
X158491799Y-47312619D02*
X158891799Y-48312619D01*
X174120371Y-66092619D02*
X174320371Y-65616428D01*
X174463228Y-66092619D02*
X174463228Y-65092619D01*
X174463228Y-65092619D02*
X174234657Y-65092619D01*
X174234657Y-65092619D02*
X174177514Y-65140238D01*
X174177514Y-65140238D02*
X174148943Y-65187857D01*
X174148943Y-65187857D02*
X174120371Y-65283095D01*
X174120371Y-65283095D02*
X174120371Y-65425952D01*
X174120371Y-65425952D02*
X174148943Y-65521190D01*
X174148943Y-65521190D02*
X174177514Y-65568809D01*
X174177514Y-65568809D02*
X174234657Y-65616428D01*
X174234657Y-65616428D02*
X174463228Y-65616428D01*
X173748943Y-65092619D02*
X173634657Y-65092619D01*
X173634657Y-65092619D02*
X173577514Y-65140238D01*
X173577514Y-65140238D02*
X173520371Y-65235476D01*
X173520371Y-65235476D02*
X173491800Y-65425952D01*
X173491800Y-65425952D02*
X173491800Y-65759285D01*
X173491800Y-65759285D02*
X173520371Y-65949761D01*
X173520371Y-65949761D02*
X173577514Y-66045000D01*
X173577514Y-66045000D02*
X173634657Y-66092619D01*
X173634657Y-66092619D02*
X173748943Y-66092619D01*
X173748943Y-66092619D02*
X173806086Y-66045000D01*
X173806086Y-66045000D02*
X173863228Y-65949761D01*
X173863228Y-65949761D02*
X173891800Y-65759285D01*
X173891800Y-65759285D02*
X173891800Y-65425952D01*
X173891800Y-65425952D02*
X173863228Y-65235476D01*
X173863228Y-65235476D02*
X173806086Y-65140238D01*
X173806086Y-65140238D02*
X173748943Y-65092619D01*
X173291800Y-65092619D02*
X173148943Y-66092619D01*
X173148943Y-66092619D02*
X173034657Y-65378333D01*
X173034657Y-65378333D02*
X172920372Y-66092619D01*
X172920372Y-66092619D02*
X172777515Y-65092619D01*
X172606086Y-65092619D02*
X172234658Y-65092619D01*
X172234658Y-65092619D02*
X172434658Y-65473571D01*
X172434658Y-65473571D02*
X172348943Y-65473571D01*
X172348943Y-65473571D02*
X172291801Y-65521190D01*
X172291801Y-65521190D02*
X172263229Y-65568809D01*
X172263229Y-65568809D02*
X172234658Y-65664047D01*
X172234658Y-65664047D02*
X172234658Y-65902142D01*
X172234658Y-65902142D02*
X172263229Y-65997380D01*
X172263229Y-65997380D02*
X172291801Y-66045000D01*
X172291801Y-66045000D02*
X172348943Y-66092619D01*
X172348943Y-66092619D02*
X172520372Y-66092619D01*
X172520372Y-66092619D02*
X172577515Y-66045000D01*
X172577515Y-66045000D02*
X172606086Y-65997380D01*
X171963229Y-52633952D02*
X172648943Y-52919666D01*
X172648943Y-52919666D02*
X171963229Y-53205380D01*
X171534657Y-52919666D02*
X170848943Y-52919666D01*
X170420371Y-52919666D02*
X169734657Y-52919666D01*
X158948942Y-61012619D02*
X159148942Y-60536428D01*
X159291799Y-61012619D02*
X159291799Y-60012619D01*
X159291799Y-60012619D02*
X159063228Y-60012619D01*
X159063228Y-60012619D02*
X159006085Y-60060238D01*
X159006085Y-60060238D02*
X158977514Y-60107857D01*
X158977514Y-60107857D02*
X158948942Y-60203095D01*
X158948942Y-60203095D02*
X158948942Y-60345952D01*
X158948942Y-60345952D02*
X158977514Y-60441190D01*
X158977514Y-60441190D02*
X159006085Y-60488809D01*
X159006085Y-60488809D02*
X159063228Y-60536428D01*
X159063228Y-60536428D02*
X159291799Y-60536428D01*
X158577514Y-60012619D02*
X158463228Y-60012619D01*
X158463228Y-60012619D02*
X158406085Y-60060238D01*
X158406085Y-60060238D02*
X158348942Y-60155476D01*
X158348942Y-60155476D02*
X158320371Y-60345952D01*
X158320371Y-60345952D02*
X158320371Y-60679285D01*
X158320371Y-60679285D02*
X158348942Y-60869761D01*
X158348942Y-60869761D02*
X158406085Y-60965000D01*
X158406085Y-60965000D02*
X158463228Y-61012619D01*
X158463228Y-61012619D02*
X158577514Y-61012619D01*
X158577514Y-61012619D02*
X158634657Y-60965000D01*
X158634657Y-60965000D02*
X158691799Y-60869761D01*
X158691799Y-60869761D02*
X158720371Y-60679285D01*
X158720371Y-60679285D02*
X158720371Y-60345952D01*
X158720371Y-60345952D02*
X158691799Y-60155476D01*
X158691799Y-60155476D02*
X158634657Y-60060238D01*
X158634657Y-60060238D02*
X158577514Y-60012619D01*
X158120371Y-60012619D02*
X157977514Y-61012619D01*
X157977514Y-61012619D02*
X157863228Y-60298333D01*
X157863228Y-60298333D02*
X157748943Y-61012619D01*
X157748943Y-61012619D02*
X157606086Y-60012619D01*
X157063229Y-61012619D02*
X157406086Y-61012619D01*
X157234657Y-61012619D02*
X157234657Y-60012619D01*
X157234657Y-60012619D02*
X157291800Y-60155476D01*
X157291800Y-60155476D02*
X157348943Y-60250714D01*
X157348943Y-60250714D02*
X157406086Y-60298333D01*
X159377513Y-75252619D02*
X159034656Y-75252619D01*
X159206084Y-76252619D02*
X159206084Y-75252619D01*
X158548941Y-76252619D02*
X158834655Y-76252619D01*
X158834655Y-76252619D02*
X158834655Y-75252619D01*
X158006084Y-76252619D02*
X158206084Y-75776428D01*
X158348941Y-76252619D02*
X158348941Y-75252619D01*
X158348941Y-75252619D02*
X158120370Y-75252619D01*
X158120370Y-75252619D02*
X158063227Y-75300238D01*
X158063227Y-75300238D02*
X158034656Y-75347857D01*
X158034656Y-75347857D02*
X158006084Y-75443095D01*
X158006084Y-75443095D02*
X158006084Y-75585952D01*
X158006084Y-75585952D02*
X158034656Y-75681190D01*
X158034656Y-75681190D02*
X158063227Y-75728809D01*
X158063227Y-75728809D02*
X158120370Y-75776428D01*
X158120370Y-75776428D02*
X158348941Y-75776428D01*
X158948942Y-63552619D02*
X159148942Y-63076428D01*
X159291799Y-63552619D02*
X159291799Y-62552619D01*
X159291799Y-62552619D02*
X159063228Y-62552619D01*
X159063228Y-62552619D02*
X159006085Y-62600238D01*
X159006085Y-62600238D02*
X158977514Y-62647857D01*
X158977514Y-62647857D02*
X158948942Y-62743095D01*
X158948942Y-62743095D02*
X158948942Y-62885952D01*
X158948942Y-62885952D02*
X158977514Y-62981190D01*
X158977514Y-62981190D02*
X159006085Y-63028809D01*
X159006085Y-63028809D02*
X159063228Y-63076428D01*
X159063228Y-63076428D02*
X159291799Y-63076428D01*
X158577514Y-62552619D02*
X158463228Y-62552619D01*
X158463228Y-62552619D02*
X158406085Y-62600238D01*
X158406085Y-62600238D02*
X158348942Y-62695476D01*
X158348942Y-62695476D02*
X158320371Y-62885952D01*
X158320371Y-62885952D02*
X158320371Y-63219285D01*
X158320371Y-63219285D02*
X158348942Y-63409761D01*
X158348942Y-63409761D02*
X158406085Y-63505000D01*
X158406085Y-63505000D02*
X158463228Y-63552619D01*
X158463228Y-63552619D02*
X158577514Y-63552619D01*
X158577514Y-63552619D02*
X158634657Y-63505000D01*
X158634657Y-63505000D02*
X158691799Y-63409761D01*
X158691799Y-63409761D02*
X158720371Y-63219285D01*
X158720371Y-63219285D02*
X158720371Y-62885952D01*
X158720371Y-62885952D02*
X158691799Y-62695476D01*
X158691799Y-62695476D02*
X158634657Y-62600238D01*
X158634657Y-62600238D02*
X158577514Y-62552619D01*
X158120371Y-62552619D02*
X157977514Y-63552619D01*
X157977514Y-63552619D02*
X157863228Y-62838333D01*
X157863228Y-62838333D02*
X157748943Y-63552619D01*
X157748943Y-63552619D02*
X157606086Y-62552619D01*
X157406086Y-62647857D02*
X157377514Y-62600238D01*
X157377514Y-62600238D02*
X157320372Y-62552619D01*
X157320372Y-62552619D02*
X157177514Y-62552619D01*
X157177514Y-62552619D02*
X157120372Y-62600238D01*
X157120372Y-62600238D02*
X157091800Y-62647857D01*
X157091800Y-62647857D02*
X157063229Y-62743095D01*
X157063229Y-62743095D02*
X157063229Y-62838333D01*
X157063229Y-62838333D02*
X157091800Y-62981190D01*
X157091800Y-62981190D02*
X157434657Y-63552619D01*
X157434657Y-63552619D02*
X157063229Y-63552619D01*
X174120371Y-63552619D02*
X174320371Y-63076428D01*
X174463228Y-63552619D02*
X174463228Y-62552619D01*
X174463228Y-62552619D02*
X174234657Y-62552619D01*
X174234657Y-62552619D02*
X174177514Y-62600238D01*
X174177514Y-62600238D02*
X174148943Y-62647857D01*
X174148943Y-62647857D02*
X174120371Y-62743095D01*
X174120371Y-62743095D02*
X174120371Y-62885952D01*
X174120371Y-62885952D02*
X174148943Y-62981190D01*
X174148943Y-62981190D02*
X174177514Y-63028809D01*
X174177514Y-63028809D02*
X174234657Y-63076428D01*
X174234657Y-63076428D02*
X174463228Y-63076428D01*
X173748943Y-62552619D02*
X173634657Y-62552619D01*
X173634657Y-62552619D02*
X173577514Y-62600238D01*
X173577514Y-62600238D02*
X173520371Y-62695476D01*
X173520371Y-62695476D02*
X173491800Y-62885952D01*
X173491800Y-62885952D02*
X173491800Y-63219285D01*
X173491800Y-63219285D02*
X173520371Y-63409761D01*
X173520371Y-63409761D02*
X173577514Y-63505000D01*
X173577514Y-63505000D02*
X173634657Y-63552619D01*
X173634657Y-63552619D02*
X173748943Y-63552619D01*
X173748943Y-63552619D02*
X173806086Y-63505000D01*
X173806086Y-63505000D02*
X173863228Y-63409761D01*
X173863228Y-63409761D02*
X173891800Y-63219285D01*
X173891800Y-63219285D02*
X173891800Y-62885952D01*
X173891800Y-62885952D02*
X173863228Y-62695476D01*
X173863228Y-62695476D02*
X173806086Y-62600238D01*
X173806086Y-62600238D02*
X173748943Y-62552619D01*
X173291800Y-62552619D02*
X173148943Y-63552619D01*
X173148943Y-63552619D02*
X173034657Y-62838333D01*
X173034657Y-62838333D02*
X172920372Y-63552619D01*
X172920372Y-63552619D02*
X172777515Y-62552619D01*
X172577515Y-62647857D02*
X172548943Y-62600238D01*
X172548943Y-62600238D02*
X172491801Y-62552619D01*
X172491801Y-62552619D02*
X172348943Y-62552619D01*
X172348943Y-62552619D02*
X172291801Y-62600238D01*
X172291801Y-62600238D02*
X172263229Y-62647857D01*
X172263229Y-62647857D02*
X172234658Y-62743095D01*
X172234658Y-62743095D02*
X172234658Y-62838333D01*
X172234658Y-62838333D02*
X172263229Y-62981190D01*
X172263229Y-62981190D02*
X172606086Y-63552619D01*
X172606086Y-63552619D02*
X172234658Y-63552619D01*
X177199997Y-84349999D02*
X165099997Y-84349999D01*
X177199997Y-84099999D02*
X179199997Y-84099999D01*
X179199997Y-78499999D02*
X179199997Y-84099999D01*
X177199997Y-78499999D02*
X179199997Y-78499999D01*
X177199997Y-78249999D02*
X177199997Y-84349999D01*
X177199997Y-78249999D02*
X165099997Y-78249999D01*
X165099997Y-78249999D02*
X165099997Y-84349999D01*
X136500000Y-48000000D02*
X137500000Y-48000000D01*
X136500000Y-49000000D02*
X136500000Y-48000000D01*
X136500000Y-56500000D02*
X136500000Y-57000000D01*
X136500000Y-60600000D02*
X136500000Y-61200000D01*
X136500000Y-61200000D02*
X141000000Y-61200000D01*
X136500000Y-62000000D02*
X136500000Y-61000000D01*
X137500000Y-62000000D02*
X136500000Y-62000000D01*
X141000000Y-56500000D02*
X136500000Y-56500000D01*
X141000000Y-57200000D02*
X141000000Y-56500000D01*
X141500000Y-61700000D02*
X141500000Y-62500000D01*
X145000000Y-58700000D02*
X142500000Y-58700000D01*
X145500000Y-59200000D02*
X145000000Y-58700000D01*
X149500000Y-48000000D02*
X150500000Y-48000000D01*
X150500000Y-48000000D02*
X150500000Y-49000000D01*
X150500000Y-61000000D02*
X150500000Y-62000000D01*
X150500000Y-62000000D02*
X149500000Y-62000000D01*
X141500000Y-61700000D02*
G75*
G03*
X141000000Y-61200000I-500001J-1D01*
G01*
X141000000Y-57200000D02*
G75*
G03*
X142500000Y-58700000I1500001J1D01*
G01*
X118500000Y-45500000D02*
X119500000Y-45500000D01*
X118500000Y-46500000D02*
X118500000Y-45500000D01*
X118500000Y-54000000D02*
X118500000Y-54500000D01*
X118500000Y-58100000D02*
X118500000Y-58700000D01*
X118500000Y-58700000D02*
X123000000Y-58700000D01*
X118500000Y-59500000D02*
X118500000Y-58500000D01*
X119500000Y-59500000D02*
X118500000Y-59500000D01*
X123000000Y-54000000D02*
X118500000Y-54000000D01*
X123000000Y-54700000D02*
X123000000Y-54000000D01*
X123500000Y-59200000D02*
X123500000Y-60000000D01*
X127000000Y-56200000D02*
X124500000Y-56200000D01*
X127500000Y-56700000D02*
X127000000Y-56200000D01*
X131500000Y-45500000D02*
X132500000Y-45500000D01*
X132500000Y-45500000D02*
X132500000Y-46500000D01*
X132500000Y-58500000D02*
X132500000Y-59500000D01*
X132500000Y-59500000D02*
X131500000Y-59500000D01*
X123500000Y-59200000D02*
G75*
G03*
X123000000Y-58700000I-500001J-1D01*
G01*
X123000000Y-54700000D02*
G75*
G03*
X124500000Y-56200000I1500001J1D01*
G01*
X82500000Y-66000000D02*
X83500000Y-66000000D01*
X82500000Y-67000000D02*
X82500000Y-66000000D01*
X82500000Y-74500000D02*
X82500000Y-75000000D01*
X82500000Y-78600000D02*
X82500000Y-79200000D01*
X82500000Y-79200000D02*
X87000000Y-79200000D01*
X82500000Y-80000000D02*
X82500000Y-79000000D01*
X83500000Y-80000000D02*
X82500000Y-80000000D01*
X87000000Y-74500000D02*
X82500000Y-74500000D01*
X87000000Y-75200000D02*
X87000000Y-74500000D01*
X87500000Y-79700000D02*
X87500000Y-80500000D01*
X91000000Y-76700000D02*
X88500000Y-76700000D01*
X91500000Y-77200000D02*
X91000000Y-76700000D01*
X95500000Y-66000000D02*
X96500000Y-66000000D01*
X96500000Y-66000000D02*
X96500000Y-67000000D01*
X96500000Y-79000000D02*
X96500000Y-80000000D01*
X96500000Y-80000000D02*
X95500000Y-80000000D01*
X87500000Y-79700000D02*
G75*
G03*
X87000000Y-79200000I-500001J-1D01*
G01*
X87000000Y-75200000D02*
G75*
G03*
X88500000Y-76700000I1500001J1D01*
G01*
X64500000Y-56000000D02*
X65500000Y-56000000D01*
X64500000Y-57000000D02*
X64500000Y-56000000D01*
X64500000Y-64500000D02*
X64500000Y-65000000D01*
X64500000Y-68600000D02*
X64500000Y-69200000D01*
X64500000Y-69200000D02*
X69000000Y-69200000D01*
X64500000Y-70000000D02*
X64500000Y-69000000D01*
X65500000Y-70000000D02*
X64500000Y-70000000D01*
X69000000Y-64500000D02*
X64500000Y-64500000D01*
X69000000Y-65200000D02*
X69000000Y-64500000D01*
X69500000Y-69700000D02*
X69500000Y-70500000D01*
X73000000Y-66700000D02*
X70500000Y-66700000D01*
X73500000Y-67200000D02*
X73000000Y-66700000D01*
X77500000Y-56000000D02*
X78500000Y-56000000D01*
X78500000Y-56000000D02*
X78500000Y-57000000D01*
X78500000Y-69000000D02*
X78500000Y-70000000D01*
X78500000Y-70000000D02*
X77500000Y-70000000D01*
X69500000Y-69700000D02*
G75*
G03*
X69000000Y-69200000I-500001J-1D01*
G01*
X69000000Y-65200000D02*
G75*
G03*
X70500000Y-66700000I1500001J1D01*
G01*
X64500000Y-73000000D02*
X65500000Y-73000000D01*
X64500000Y-74000000D02*
X64500000Y-73000000D01*
X64500000Y-81500000D02*
X64500000Y-82000000D01*
X64500000Y-85600000D02*
X64500000Y-86200000D01*
X64500000Y-86200000D02*
X69000000Y-86200000D01*
X64500000Y-87000000D02*
X64500000Y-86000000D01*
X65500000Y-87000000D02*
X64500000Y-87000000D01*
X69000000Y-81500000D02*
X64500000Y-81500000D01*
X69000000Y-82200000D02*
X69000000Y-81500000D01*
X69500000Y-86700000D02*
X69500000Y-87500000D01*
X73000000Y-83700000D02*
X70500000Y-83700000D01*
X73500000Y-84200000D02*
X73000000Y-83700000D01*
X77500000Y-73000000D02*
X78500000Y-73000000D01*
X78500000Y-73000000D02*
X78500000Y-74000000D01*
X78500000Y-86000000D02*
X78500000Y-87000000D01*
X78500000Y-87000000D02*
X77500000Y-87000000D01*
X69500000Y-86700000D02*
G75*
G03*
X69000000Y-86200000I-500001J-1D01*
G01*
X69000000Y-82200000D02*
G75*
G03*
X70500000Y-83700000I1500001J1D01*
G01*
X186062178Y-117577822D02*
X186562178Y-118443848D01*
X185196152Y-118077822D02*
X186062178Y-117577822D01*
X178700962Y-121827822D02*
X178267949Y-122077822D01*
X175150258Y-123877822D02*
X174630642Y-124177822D01*
X174630642Y-124177822D02*
X176880642Y-128074936D01*
X173937822Y-124577822D02*
X174803848Y-124077822D01*
X174437822Y-125443848D02*
X173937822Y-124577822D01*
X180950962Y-125724936D02*
X178700962Y-121827822D01*
X180344744Y-126074936D02*
X180950962Y-125724936D01*
X176697630Y-128757949D02*
X176004809Y-129157949D01*
X181045706Y-130289038D02*
X179795706Y-128123975D01*
X180862693Y-130972051D02*
X181045706Y-130289038D01*
X192562178Y-128836152D02*
X193062178Y-129702178D01*
X193062178Y-129702178D02*
X192196152Y-130202178D01*
X181803848Y-136202178D02*
X180937822Y-136702178D01*
X180937822Y-136702178D02*
X180437822Y-135836152D01*
X176697630Y-128757949D02*
G75*
G03*
X176880642Y-128074936I-250002J433013D01*
G01*
X180344745Y-126074937D02*
G75*
G03*
X179795707Y-128123975I750000J-1299038D01*
G01*
X136500000Y-31000000D02*
X137500000Y-31000000D01*
X136500000Y-32000000D02*
X136500000Y-31000000D01*
X136500000Y-39500000D02*
X136500000Y-40000000D01*
X136500000Y-43600000D02*
X136500000Y-44200000D01*
X136500000Y-44200000D02*
X141000000Y-44200000D01*
X136500000Y-45000000D02*
X136500000Y-44000000D01*
X137500000Y-45000000D02*
X136500000Y-45000000D01*
X141000000Y-39500000D02*
X136500000Y-39500000D01*
X141000000Y-40200000D02*
X141000000Y-39500000D01*
X141500000Y-44700000D02*
X141500000Y-45500000D01*
X145000000Y-41700000D02*
X142500000Y-41700000D01*
X145500000Y-42200000D02*
X145000000Y-41700000D01*
X149500000Y-31000000D02*
X150500000Y-31000000D01*
X150500000Y-31000000D02*
X150500000Y-32000000D01*
X150500000Y-44000000D02*
X150500000Y-45000000D01*
X150500000Y-45000000D02*
X149500000Y-45000000D01*
X141500000Y-44700000D02*
G75*
G03*
X141000000Y-44200000I-500001J-1D01*
G01*
X141000000Y-40200000D02*
G75*
G03*
X142500000Y-41700000I1500001J1D01*
G01*
X100500000Y-24000000D02*
X101500000Y-24000000D01*
X100500000Y-25000000D02*
X100500000Y-24000000D01*
X100500000Y-32500000D02*
X100500000Y-33000000D01*
X100500000Y-36600000D02*
X100500000Y-37200000D01*
X100500000Y-37200000D02*
X105000000Y-37200000D01*
X100500000Y-38000000D02*
X100500000Y-37000000D01*
X101500000Y-38000000D02*
X100500000Y-38000000D01*
X105000000Y-32500000D02*
X100500000Y-32500000D01*
X105000000Y-33200000D02*
X105000000Y-32500000D01*
X105500000Y-37700000D02*
X105500000Y-38500000D01*
X109000000Y-34700000D02*
X106500000Y-34700000D01*
X109500000Y-35200000D02*
X109000000Y-34700000D01*
X113500000Y-24000000D02*
X114500000Y-24000000D01*
X114500000Y-24000000D02*
X114500000Y-25000000D01*
X114500000Y-37000000D02*
X114500000Y-38000000D01*
X114500000Y-38000000D02*
X113500000Y-38000000D01*
X105500000Y-37700000D02*
G75*
G03*
X105000000Y-37200000I-500001J-1D01*
G01*
X105000000Y-33200000D02*
G75*
G03*
X106500000Y-34700000I1500001J1D01*
G01*
X151170756Y-92798329D02*
G75*
G03*
X151355641Y-94911577I1149068J-964181D01*
G01*
X148661234Y-96566923D02*
G75*
G03*
X148599606Y-95862507I-383024J321394D01*
G01*
X155362798Y-102581824D02*
X154596753Y-101939037D01*
X156005585Y-101815780D02*
X155362798Y-102581824D01*
X164361824Y-91857202D02*
X163719037Y-92623247D01*
X163595780Y-91214415D02*
X164361824Y-91857202D01*
X153332381Y-97222962D02*
X153270753Y-96518546D01*
X153270753Y-96518546D02*
X151355641Y-94911577D01*
X148661234Y-96566923D02*
X148147004Y-97179758D01*
X151170756Y-92798329D02*
X151620707Y-92262098D01*
X151620707Y-92262098D02*
X148173507Y-89369553D01*
X145404220Y-94225585D02*
X144638176Y-93582798D01*
X144638176Y-93582798D02*
X145280963Y-92816753D01*
X145152406Y-92969962D02*
X148599606Y-95862507D01*
X145538078Y-92510336D02*
X145152406Y-92969962D01*
X148173507Y-89369553D02*
X147852114Y-89752576D01*
X152994415Y-83624220D02*
X153637202Y-82858176D01*
X153637202Y-82858176D02*
X154403247Y-83500963D01*
X171392798Y-98748176D02*
X172035585Y-99514220D01*
X170626753Y-99390963D02*
X171392798Y-98748176D01*
X164881420Y-104211870D02*
X164498398Y-104533264D01*
X161740638Y-106847300D02*
X161281011Y-107232972D01*
X161281011Y-107232972D02*
X164173555Y-110680172D01*
X160668176Y-107747202D02*
X161434220Y-107104415D01*
X161310963Y-108513247D02*
X160668176Y-107747202D01*
X167773964Y-107659070D02*
X164881420Y-104211870D01*
X167237733Y-108109022D02*
X167773964Y-107659070D01*
X164111927Y-111384588D02*
X163499091Y-111898818D01*
X168659817Y-112137381D02*
X167052848Y-110222270D01*
X168598189Y-112841797D02*
X168659817Y-112137381D01*
X179749037Y-108706753D02*
X180391824Y-109472798D01*
X180391824Y-109472798D02*
X179625780Y-110115585D01*
X170433247Y-117829037D02*
X169667202Y-118471824D01*
X169667202Y-118471824D02*
X169024415Y-117705780D01*
X164111927Y-111384588D02*
G75*
G03*
X164173554Y-110680172I-321395J383022D01*
G01*
X167237733Y-108109022D02*
G75*
G03*
X167052848Y-110222270I964183J-1149066D01*
G01*
X82500000Y-49000000D02*
X83500000Y-49000000D01*
X82500000Y-50000000D02*
X82500000Y-49000000D01*
X82500000Y-57500000D02*
X82500000Y-58000000D01*
X82500000Y-61600000D02*
X82500000Y-62200000D01*
X82500000Y-62200000D02*
X87000000Y-62200000D01*
X82500000Y-63000000D02*
X82500000Y-62000000D01*
X83500000Y-63000000D02*
X82500000Y-63000000D01*
X87000000Y-57500000D02*
X82500000Y-57500000D01*
X87000000Y-58200000D02*
X87000000Y-57500000D01*
X87500000Y-62700000D02*
X87500000Y-63500000D01*
X91000000Y-59700000D02*
X88500000Y-59700000D01*
X91500000Y-60200000D02*
X91000000Y-59700000D01*
X95500000Y-49000000D02*
X96500000Y-49000000D01*
X96500000Y-49000000D02*
X96500000Y-50000000D01*
X96500000Y-62000000D02*
X96500000Y-63000000D01*
X96500000Y-63000000D02*
X95500000Y-63000000D01*
X87500000Y-62700000D02*
G75*
G03*
X87000000Y-62200000I-500001J-1D01*
G01*
X87000000Y-58200000D02*
G75*
G03*
X88500000Y-59700000I1500001J1D01*
G01*
X136500000Y-65000000D02*
X137500000Y-65000000D01*
X136500000Y-66000000D02*
X136500000Y-65000000D01*
X136500000Y-73500000D02*
X136500000Y-74000000D01*
X136500000Y-77600000D02*
X136500000Y-78200000D01*
X136500000Y-78200000D02*
X141000000Y-78200000D01*
X136500000Y-79000000D02*
X136500000Y-78000000D01*
X137500000Y-79000000D02*
X136500000Y-79000000D01*
X141000000Y-73500000D02*
X136500000Y-73500000D01*
X141000000Y-74200000D02*
X141000000Y-73500000D01*
X141500000Y-78700000D02*
X141500000Y-79500000D01*
X145000000Y-75700000D02*
X142500000Y-75700000D01*
X145500000Y-76200000D02*
X145000000Y-75700000D01*
X149500000Y-65000000D02*
X150500000Y-65000000D01*
X150500000Y-65000000D02*
X150500000Y-66000000D01*
X150500000Y-78000000D02*
X150500000Y-79000000D01*
X150500000Y-79000000D02*
X149500000Y-79000000D01*
X141500000Y-78700000D02*
G75*
G03*
X141000000Y-78200000I-500001J-1D01*
G01*
X141000000Y-74200000D02*
G75*
G03*
X142500000Y-75700000I1500001J1D01*
G01*
X171252178Y-126107822D02*
X171752178Y-126973848D01*
X170386152Y-126607822D02*
X171252178Y-126107822D01*
X163890962Y-130357822D02*
X163457949Y-130607822D01*
X160340258Y-132407822D02*
X159820642Y-132707822D01*
X159820642Y-132707822D02*
X162070642Y-136604936D01*
X159127822Y-133107822D02*
X159993848Y-132607822D01*
X159627822Y-133973848D02*
X159127822Y-133107822D01*
X166140962Y-134254936D02*
X163890962Y-130357822D01*
X165534744Y-134604936D02*
X166140962Y-134254936D01*
X161887630Y-137287949D02*
X161194809Y-137687949D01*
X166235706Y-138819038D02*
X164985706Y-136653975D01*
X166052693Y-139502051D02*
X166235706Y-138819038D01*
X177752178Y-137366152D02*
X178252178Y-138232178D01*
X178252178Y-138232178D02*
X177386152Y-138732178D01*
X166993848Y-144732178D02*
X166127822Y-145232178D01*
X166127822Y-145232178D02*
X165627822Y-144366152D01*
X161887630Y-137287949D02*
G75*
G03*
X162070642Y-136604936I-250002J433013D01*
G01*
X165534745Y-134604937D02*
G75*
G03*
X164985707Y-136653975I750000J-1299038D01*
G01*
X100500000Y-41000000D02*
X101500000Y-41000000D01*
X100500000Y-42000000D02*
X100500000Y-41000000D01*
X100500000Y-49500000D02*
X100500000Y-50000000D01*
X100500000Y-53600000D02*
X100500000Y-54200000D01*
X100500000Y-54200000D02*
X105000000Y-54200000D01*
X100500000Y-55000000D02*
X100500000Y-54000000D01*
X101500000Y-55000000D02*
X100500000Y-55000000D01*
X105000000Y-49500000D02*
X100500000Y-49500000D01*
X105000000Y-50200000D02*
X105000000Y-49500000D01*
X105500000Y-54700000D02*
X105500000Y-55500000D01*
X109000000Y-51700000D02*
X106500000Y-51700000D01*
X109500000Y-52200000D02*
X109000000Y-51700000D01*
X113500000Y-41000000D02*
X114500000Y-41000000D01*
X114500000Y-41000000D02*
X114500000Y-42000000D01*
X114500000Y-54000000D02*
X114500000Y-55000000D01*
X114500000Y-55000000D02*
X113500000Y-55000000D01*
X105500000Y-54700000D02*
G75*
G03*
X105000000Y-54200000I-500001J-1D01*
G01*
X105000000Y-50200000D02*
G75*
G03*
X106500000Y-51700000I1500001J1D01*
G01*
X159531800Y-46580000D02*
X162071800Y-46580000D01*
X159531800Y-77060000D02*
X159531800Y-46580000D01*
X162071800Y-46580000D02*
X162071800Y-77060000D01*
X162071800Y-77060000D02*
X159531800Y-77060000D01*
X174771800Y-46580000D02*
X177311800Y-46580000D01*
X174771800Y-77060000D02*
X174771800Y-46580000D01*
X177311800Y-46580000D02*
X177311800Y-77060000D01*
X177311800Y-77060000D02*
X174771800Y-77060000D01*
X100500000Y-58000000D02*
X101500000Y-58000000D01*
X100500000Y-59000000D02*
X100500000Y-58000000D01*
X100500000Y-66500000D02*
X100500000Y-67000000D01*
X100500000Y-70600000D02*
X100500000Y-71200000D01*
X100500000Y-71200000D02*
X105000000Y-71200000D01*
X100500000Y-72000000D02*
X100500000Y-71000000D01*
X101500000Y-72000000D02*
X100500000Y-72000000D01*
X105000000Y-66500000D02*
X100500000Y-66500000D01*
X105000000Y-67200000D02*
X105000000Y-66500000D01*
X105500000Y-71700000D02*
X105500000Y-72500000D01*
X109000000Y-68700000D02*
X106500000Y-68700000D01*
X109500000Y-69200000D02*
X109000000Y-68700000D01*
X113500000Y-58000000D02*
X114500000Y-58000000D01*
X114500000Y-58000000D02*
X114500000Y-59000000D01*
X114500000Y-71000000D02*
X114500000Y-72000000D01*
X114500000Y-72000000D02*
X113500000Y-72000000D01*
X105500000Y-71700000D02*
G75*
G03*
X105000000Y-71200000I-500001J-1D01*
G01*
X105000000Y-67200000D02*
G75*
G03*
X106500000Y-68700000I1500001J1D01*
G01*
X118500000Y-62500000D02*
X119500000Y-62500000D01*
X118500000Y-63500000D02*
X118500000Y-62500000D01*
X118500000Y-71000000D02*
X118500000Y-71500000D01*
X118500000Y-75100000D02*
X118500000Y-75700000D01*
X118500000Y-75700000D02*
X123000000Y-75700000D01*
X118500000Y-76500000D02*
X118500000Y-75500000D01*
X119500000Y-76500000D02*
X118500000Y-76500000D01*
X123000000Y-71000000D02*
X118500000Y-71000000D01*
X123000000Y-71700000D02*
X123000000Y-71000000D01*
X123500000Y-76200000D02*
X123500000Y-77000000D01*
X127000000Y-73200000D02*
X124500000Y-73200000D01*
X127500000Y-73700000D02*
X127000000Y-73200000D01*
X131500000Y-62500000D02*
X132500000Y-62500000D01*
X132500000Y-62500000D02*
X132500000Y-63500000D01*
X132500000Y-75500000D02*
X132500000Y-76500000D01*
X132500000Y-76500000D02*
X131500000Y-76500000D01*
X123500000Y-76200000D02*
G75*
G03*
X123000000Y-75700000I-500001J-1D01*
G01*
X123000000Y-71700000D02*
G75*
G03*
X124500000Y-73200000I1500001J1D01*
G01*
X128754682Y-80437822D02*
X129620708Y-80937822D01*
X128254682Y-81303848D02*
X128754682Y-80437822D01*
X124504682Y-87799038D02*
X124254682Y-88232051D01*
X122454682Y-91349742D02*
X122154682Y-91869358D01*
X122154682Y-91869358D02*
X126051796Y-94119358D01*
X121754682Y-92562178D02*
X122254682Y-91696152D01*
X122620708Y-93062178D02*
X121754682Y-92562178D01*
X128401796Y-90049038D02*
X124504682Y-87799038D01*
X128051796Y-90655256D02*
X128401796Y-90049038D01*
X126234809Y-94802370D02*
X125834809Y-95495191D01*
X130765898Y-93954294D02*
X128600835Y-92704294D01*
X130948911Y-94637307D02*
X130765898Y-93954294D01*
X140013012Y-86937822D02*
X140879038Y-87437822D01*
X140879038Y-87437822D02*
X140379038Y-88303848D01*
X134379038Y-98696152D02*
X133879038Y-99562178D01*
X133879038Y-99562178D02*
X133013012Y-99062178D01*
X126234808Y-94802370D02*
G75*
G03*
X126051796Y-94119359I-433013J249999D01*
G01*
X128051797Y-90655257D02*
G75*
G03*
X128600835Y-92704294I1299039J-749999D01*
G01*
X82500000Y-32000000D02*
X83500000Y-32000000D01*
X82500000Y-33000000D02*
X82500000Y-32000000D01*
X82500000Y-40500000D02*
X82500000Y-41000000D01*
X82500000Y-44600000D02*
X82500000Y-45200000D01*
X82500000Y-45200000D02*
X87000000Y-45200000D01*
X82500000Y-46000000D02*
X82500000Y-45000000D01*
X83500000Y-46000000D02*
X82500000Y-46000000D01*
X87000000Y-40500000D02*
X82500000Y-40500000D01*
X87000000Y-41200000D02*
X87000000Y-40500000D01*
X87500000Y-45700000D02*
X87500000Y-46500000D01*
X91000000Y-42700000D02*
X88500000Y-42700000D01*
X91500000Y-43200000D02*
X91000000Y-42700000D01*
X95500000Y-32000000D02*
X96500000Y-32000000D01*
X96500000Y-32000000D02*
X96500000Y-33000000D01*
X96500000Y-45000000D02*
X96500000Y-46000000D01*
X96500000Y-46000000D02*
X95500000Y-46000000D01*
X87500000Y-45700000D02*
G75*
G03*
X87000000Y-45200000I-500001J-1D01*
G01*
X87000000Y-41200000D02*
G75*
G03*
X88500000Y-42700000I1500001J1D01*
G01*
X64500000Y-39000000D02*
X65500000Y-39000000D01*
X64500000Y-40000000D02*
X64500000Y-39000000D01*
X64500000Y-47500000D02*
X64500000Y-48000000D01*
X64500000Y-51600000D02*
X64500000Y-52200000D01*
X64500000Y-52200000D02*
X69000000Y-52200000D01*
X64500000Y-53000000D02*
X64500000Y-52000000D01*
X65500000Y-53000000D02*
X64500000Y-53000000D01*
X69000000Y-47500000D02*
X64500000Y-47500000D01*
X69000000Y-48200000D02*
X69000000Y-47500000D01*
X69500000Y-52700000D02*
X69500000Y-53500000D01*
X73000000Y-49700000D02*
X70500000Y-49700000D01*
X73500000Y-50200000D02*
X73000000Y-49700000D01*
X77500000Y-39000000D02*
X78500000Y-39000000D01*
X78500000Y-39000000D02*
X78500000Y-40000000D01*
X78500000Y-52000000D02*
X78500000Y-53000000D01*
X78500000Y-53000000D02*
X77500000Y-53000000D01*
X69500000Y-52700000D02*
G75*
G03*
X69000000Y-52200000I-500001J-1D01*
G01*
X69000000Y-48200000D02*
G75*
G03*
X70500000Y-49700000I1500001J1D01*
G01*
X118500000Y-28500000D02*
X119500000Y-28500000D01*
X118500000Y-29500000D02*
X118500000Y-28500000D01*
X118500000Y-37000000D02*
X118500000Y-37500000D01*
X118500000Y-41100000D02*
X118500000Y-41700000D01*
X118500000Y-41700000D02*
X123000000Y-41700000D01*
X118500000Y-42500000D02*
X118500000Y-41500000D01*
X119500000Y-42500000D02*
X118500000Y-42500000D01*
X123000000Y-37000000D02*
X118500000Y-37000000D01*
X123000000Y-37700000D02*
X123000000Y-37000000D01*
X123500000Y-42200000D02*
X123500000Y-43000000D01*
X127000000Y-39200000D02*
X124500000Y-39200000D01*
X127500000Y-39700000D02*
X127000000Y-39200000D01*
X131500000Y-28500000D02*
X132500000Y-28500000D01*
X132500000Y-28500000D02*
X132500000Y-29500000D01*
X132500000Y-41500000D02*
X132500000Y-42500000D01*
X132500000Y-42500000D02*
X131500000Y-42500000D01*
X123500000Y-42200000D02*
G75*
G03*
X123000000Y-41700000I-500001J-1D01*
G01*
X123000000Y-37700000D02*
G75*
G03*
X124500000Y-39200000I1500001J1D01*
G01*
X142707202Y-95898176D02*
X143473247Y-96540963D01*
X142064415Y-96664220D02*
X142707202Y-95898176D01*
X137243507Y-102409553D02*
X136922114Y-102792576D01*
X134608078Y-105550336D02*
X134222406Y-106009962D01*
X134222406Y-106009962D02*
X137669606Y-108902507D01*
X133708176Y-106622798D02*
X134350963Y-105856753D01*
X134474220Y-107265585D02*
X133708176Y-106622798D01*
X140690707Y-105302098D02*
X137243507Y-102409553D01*
X140240756Y-105838329D02*
X140690707Y-105302098D01*
X137731234Y-109606923D02*
X137217004Y-110219758D01*
X142340753Y-109558546D02*
X140425641Y-107951577D01*
X142402381Y-110262962D02*
X142340753Y-109558546D01*
X152665780Y-104254415D02*
X153431824Y-104897202D01*
X153431824Y-104897202D02*
X152789037Y-105663247D01*
X145075585Y-114855780D02*
X144432798Y-115621824D01*
X144432798Y-115621824D02*
X143666753Y-114979037D01*
X137731234Y-109606923D02*
G75*
G03*
X137669606Y-108902507I-383024J321394D01*
G01*
X140240756Y-105838329D02*
G75*
G03*
X140425641Y-107951577I1149068J-964181D01*
G01*
X158282798Y-109728176D02*
X158925585Y-110494220D01*
X157516753Y-110370963D02*
X158282798Y-109728176D01*
X151771420Y-115191870D02*
X151388398Y-115513264D01*
X148630638Y-117827300D02*
X148171011Y-118212972D01*
X148171011Y-118212972D02*
X151063555Y-121660172D01*
X147558176Y-118727202D02*
X148324220Y-118084415D01*
X148200963Y-119493247D02*
X147558176Y-118727202D01*
X154663964Y-118639070D02*
X151771420Y-115191870D01*
X154127733Y-119089022D02*
X154663964Y-118639070D01*
X151001927Y-122364588D02*
X150389091Y-122878818D01*
X155549817Y-123117381D02*
X153942848Y-121202270D01*
X155488189Y-123821797D02*
X155549817Y-123117381D01*
X166639037Y-119686753D02*
X167281824Y-120452798D01*
X167281824Y-120452798D02*
X166515780Y-121095585D01*
X157323247Y-128809037D02*
X156557202Y-129451824D01*
X156557202Y-129451824D02*
X155914415Y-128685780D01*
X151001927Y-122364588D02*
G75*
G03*
X151063554Y-121660172I-321395J383022D01*
G01*
X154127733Y-119089022D02*
G75*
G03*
X153942848Y-121202270I964183J-1149066D01*
G01*
%LPC*%
D12*
X175599997Y-81299999D03*
X168599997Y-81299999D03*
D13*
X165899997Y-83599999D03*
X166999997Y-78999999D03*
X170999997Y-78999999D03*
X173999997Y-78999999D03*
D14*
X138000000Y-55000000D03*
D15*
X138280000Y-50800000D03*
D16*
X143500000Y-55000000D03*
D17*
X143500000Y-60950000D03*
D15*
X148720000Y-50800000D03*
D14*
X149000000Y-55000000D03*
D18*
X138500000Y-58750000D03*
D19*
X146775000Y-60950000D03*
D18*
X148500000Y-58750000D03*
D19*
X135225000Y-58750000D03*
D14*
X120000000Y-52500000D03*
D15*
X120280000Y-48300000D03*
D16*
X125500000Y-52500000D03*
D17*
X125500000Y-58450000D03*
D15*
X130720000Y-48300000D03*
D14*
X131000000Y-52500000D03*
D18*
X120500000Y-56250000D03*
D19*
X128775000Y-58450000D03*
D18*
X130500000Y-56250000D03*
D19*
X117225000Y-56250000D03*
D14*
X84000000Y-73000000D03*
D15*
X84280000Y-68800000D03*
D16*
X89500000Y-73000000D03*
D17*
X89500000Y-78950000D03*
D15*
X94720000Y-68800000D03*
D14*
X95000000Y-73000000D03*
D18*
X84500000Y-76750000D03*
D19*
X92775000Y-78950000D03*
D18*
X94500000Y-76750000D03*
D19*
X81225000Y-76750000D03*
D14*
X66000000Y-63000000D03*
D15*
X66280000Y-58800000D03*
D16*
X71500000Y-63000000D03*
D17*
X71500000Y-68950000D03*
D15*
X76720000Y-58800000D03*
D14*
X77000000Y-63000000D03*
D18*
X66500000Y-66750000D03*
D19*
X74775000Y-68950000D03*
D18*
X76500000Y-66750000D03*
D19*
X63225000Y-66750000D03*
D20*
X79730000Y-88740000D03*
D21*
X82230000Y-88740000D03*
D22*
X74430000Y-88740000D03*
D20*
X76930000Y-88740000D03*
X78540000Y-71570000D03*
D21*
X81040000Y-71570000D03*
D22*
X73240000Y-71570000D03*
D20*
X75740000Y-71570000D03*
X78550000Y-54510000D03*
D21*
X81050000Y-54510000D03*
D22*
X73250000Y-54510000D03*
D20*
X75750000Y-54510000D03*
X89990000Y-82120000D03*
D21*
X92490000Y-82120000D03*
D22*
X84690000Y-82120000D03*
D20*
X87190000Y-82120000D03*
X96370000Y-64640000D03*
D21*
X98870000Y-64640000D03*
D22*
X91070000Y-64640000D03*
D20*
X93570000Y-64640000D03*
X96320000Y-47430000D03*
D21*
X98820000Y-47430000D03*
D22*
X91020000Y-47430000D03*
D20*
X93520000Y-47430000D03*
X108380000Y-74600000D03*
D21*
X110880000Y-74600000D03*
D22*
X103080000Y-74600000D03*
D20*
X105580000Y-74600000D03*
X100530000Y-56530000D03*
D21*
X98030000Y-56530000D03*
D22*
X105830000Y-56530000D03*
D20*
X103330000Y-56530000D03*
X100450000Y-39620000D03*
D21*
X97950000Y-39620000D03*
D22*
X105750000Y-39620000D03*
D20*
X103250000Y-39620000D03*
X121430000Y-79220000D03*
D21*
X118930000Y-79220000D03*
D22*
X126730000Y-79220000D03*
D20*
X124230000Y-79220000D03*
D23*
X134510000Y-67270000D03*
D21*
X134510000Y-69770000D03*
D22*
X134510000Y-61970000D03*
D23*
X134510000Y-64470000D03*
X134580000Y-50430000D03*
D21*
X134580000Y-52930000D03*
D22*
X134580000Y-45130000D03*
D23*
X134580000Y-47630000D03*
D20*
X142155000Y-81755000D03*
D21*
X139655000Y-81755000D03*
D22*
X147455000Y-81755000D03*
D20*
X144955000Y-81755000D03*
D23*
X152170000Y-66940000D03*
D21*
X152170000Y-69440000D03*
D22*
X152170000Y-61640000D03*
D23*
X152170000Y-64140000D03*
X152470000Y-49590000D03*
D21*
X152470000Y-52090000D03*
D22*
X152470000Y-44290000D03*
D23*
X152470000Y-46790000D03*
D24*
X167572462Y-123240097D03*
D25*
X169487573Y-121633128D03*
D22*
X163512427Y-126646872D03*
D24*
X165427538Y-125039903D03*
D26*
X159635995Y-83963436D03*
D22*
X161551106Y-85570405D03*
D27*
X155575960Y-80556661D03*
D26*
X157491071Y-82163630D03*
D24*
X179702462Y-112190097D03*
D25*
X181617573Y-110583128D03*
D22*
X175642427Y-115596872D03*
D24*
X177557538Y-113989903D03*
D28*
X182852436Y-117060000D03*
D29*
X185017499Y-115810000D03*
D22*
X178262501Y-119710000D03*
D28*
X180427564Y-118460000D03*
D30*
X154659903Y-106907538D03*
D31*
X156266872Y-104992427D03*
D22*
X151253128Y-110967573D03*
D30*
X152860097Y-109052462D03*
D32*
X129552436Y-99930000D03*
D33*
X131717499Y-101180000D03*
D22*
X124962501Y-97280000D03*
D32*
X127127564Y-98530000D03*
D30*
X164606564Y-98055995D03*
D22*
X162999595Y-99971106D03*
D31*
X168013339Y-93995960D03*
D30*
X166406370Y-95911071D03*
D14*
X66000000Y-80000000D03*
D15*
X66280000Y-75800000D03*
D16*
X71500000Y-80000000D03*
D17*
X71500000Y-85950000D03*
D15*
X76720000Y-75800000D03*
D14*
X77000000Y-80000000D03*
D18*
X66500000Y-83750000D03*
D19*
X74775000Y-85950000D03*
D18*
X76500000Y-83750000D03*
D19*
X63225000Y-83750000D03*
D14*
X180750000Y-122376860D03*
D15*
X184527307Y-120519347D03*
D16*
X183500000Y-127140000D03*
D17*
X178347149Y-130115000D03*
D15*
X189747307Y-129560653D03*
D14*
X186250000Y-131903140D03*
D18*
X177752405Y-124684873D03*
D34*
X179984649Y-132951233D03*
D18*
X182752405Y-133345127D03*
D34*
X176114905Y-121848640D03*
D35*
X174870000Y-94550000D03*
X174870000Y-89550000D03*
D36*
X172370000Y-88550000D03*
X172370000Y-95550000D03*
D14*
X138000000Y-38000000D03*
D15*
X138280000Y-33800000D03*
D16*
X143500000Y-38000000D03*
D17*
X143500000Y-43950000D03*
D15*
X148720000Y-33800000D03*
D14*
X149000000Y-38000000D03*
D18*
X138500000Y-41750000D03*
D19*
X146775000Y-43950000D03*
D18*
X148500000Y-41750000D03*
D19*
X135225000Y-41750000D03*
D37*
X179680000Y-137820000D03*
D14*
X102000000Y-31000000D03*
D15*
X102280000Y-26800000D03*
D16*
X107500000Y-31000000D03*
D17*
X107500000Y-36950000D03*
D15*
X112720000Y-26800000D03*
D14*
X113000000Y-31000000D03*
D18*
X102500000Y-34750000D03*
D19*
X110775000Y-36950000D03*
D18*
X112500000Y-34750000D03*
D19*
X99225000Y-34750000D03*
D38*
X145750529Y-90273599D03*
D18*
X155919769Y-98806605D03*
D38*
X153184209Y-99383094D03*
D18*
X148259324Y-92378729D03*
D14*
X158713244Y-96255332D03*
D15*
X161198460Y-92857965D03*
D17*
X150675414Y-97277964D03*
D16*
X154500000Y-92720000D03*
D15*
X153200956Y-86147262D03*
D14*
X150286756Y-89184668D03*
X166994668Y-104396756D03*
D15*
X170392035Y-101911540D03*
D16*
X170530000Y-108610000D03*
D17*
X165972036Y-112434586D03*
D15*
X177102738Y-109909044D03*
D14*
X174065332Y-112823244D03*
D18*
X164443395Y-107190231D03*
D39*
X168077165Y-114943382D03*
D18*
X170871271Y-114850676D03*
D39*
X162338266Y-104681436D03*
D14*
X84000000Y-56000000D03*
D15*
X84280000Y-51800000D03*
D16*
X89500000Y-56000000D03*
D17*
X89500000Y-61950000D03*
D15*
X94720000Y-51800000D03*
D14*
X95000000Y-56000000D03*
D18*
X84500000Y-59750000D03*
D19*
X92775000Y-61950000D03*
D18*
X94500000Y-59750000D03*
D19*
X81225000Y-59750000D03*
D14*
X138000000Y-72000000D03*
D15*
X138280000Y-67800000D03*
D16*
X143500000Y-72000000D03*
D17*
X143500000Y-77950000D03*
D15*
X148720000Y-67800000D03*
D14*
X149000000Y-72000000D03*
D18*
X138500000Y-75750000D03*
D19*
X146775000Y-77950000D03*
D18*
X148500000Y-75750000D03*
D19*
X135225000Y-75750000D03*
D37*
X153240000Y-32980000D03*
X63870000Y-71660000D03*
D14*
X165940000Y-130906860D03*
D15*
X169717307Y-129049347D03*
D16*
X168690000Y-135670000D03*
D17*
X163537149Y-138645000D03*
D15*
X174937307Y-138090653D03*
D14*
X171440000Y-140433140D03*
D18*
X162942405Y-133214873D03*
D34*
X165174649Y-141481233D03*
D18*
X167942405Y-141875127D03*
D34*
X161304905Y-130378640D03*
D14*
X102000000Y-48000000D03*
D15*
X102280000Y-43800000D03*
D16*
X107500000Y-48000000D03*
D17*
X107500000Y-53950000D03*
D15*
X112720000Y-43800000D03*
D14*
X113000000Y-48000000D03*
D18*
X102500000Y-51750000D03*
D19*
X110775000Y-53950000D03*
D18*
X112500000Y-51750000D03*
D19*
X99225000Y-51750000D03*
D40*
X177348200Y-46580000D03*
X177348200Y-49120000D03*
X177348200Y-51660000D03*
X177348200Y-54200000D03*
X177348200Y-56740000D03*
X177348200Y-59280000D03*
X177348200Y-61820000D03*
X177348200Y-64360000D03*
X177348200Y-66900000D03*
X177348200Y-69440000D03*
X177348200Y-71980000D03*
X177348200Y-74520000D03*
X162128200Y-74520000D03*
X162128200Y-71980000D03*
X162128200Y-69440000D03*
X162128200Y-66900000D03*
X162128200Y-64360000D03*
X162128200Y-61820000D03*
X162128200Y-59280000D03*
X162128200Y-56740000D03*
X162128200Y-54200000D03*
X162128200Y-51660000D03*
X162128200Y-49120000D03*
X162128200Y-46580000D03*
D14*
X102000000Y-65000000D03*
D15*
X102280000Y-60800000D03*
D16*
X107500000Y-65000000D03*
D17*
X107500000Y-70950000D03*
D15*
X112720000Y-60800000D03*
D14*
X113000000Y-65000000D03*
D18*
X102500000Y-68750000D03*
D19*
X110775000Y-70950000D03*
D18*
X112500000Y-68750000D03*
D19*
X99225000Y-68750000D03*
D14*
X120000000Y-69500000D03*
D15*
X120280000Y-65300000D03*
D16*
X125500000Y-69500000D03*
D17*
X125500000Y-75450000D03*
D15*
X130720000Y-65300000D03*
D14*
X131000000Y-69500000D03*
D18*
X120500000Y-73250000D03*
D19*
X128775000Y-75450000D03*
D18*
X130500000Y-73250000D03*
D19*
X117225000Y-73250000D03*
D37*
X121610000Y-83360000D03*
D12*
X175600000Y-83300000D03*
X168600000Y-83300000D03*
D13*
X165900000Y-81000000D03*
X167000000Y-85600000D03*
X171000000Y-85600000D03*
X174000000Y-85600000D03*
D14*
X126553720Y-87250000D03*
D15*
X128896207Y-83752693D03*
D16*
X131316860Y-90000000D03*
D17*
X128341860Y-95152851D03*
D15*
X137937513Y-88972693D03*
D14*
X136080000Y-92750000D03*
D18*
X125111733Y-90747595D03*
D41*
X131178093Y-96790351D03*
D18*
X133771987Y-95747595D03*
D41*
X122275500Y-89110095D03*
D14*
X84000000Y-39000000D03*
D15*
X84280000Y-34800000D03*
D16*
X89500000Y-39000000D03*
D17*
X89500000Y-44950000D03*
D15*
X94720000Y-34800000D03*
D14*
X95000000Y-39000000D03*
D18*
X84500000Y-42750000D03*
D19*
X92775000Y-44950000D03*
D18*
X94500000Y-42750000D03*
D19*
X81225000Y-42750000D03*
D14*
X66000000Y-46000000D03*
D15*
X66280000Y-41800000D03*
D16*
X71500000Y-46000000D03*
D17*
X71500000Y-51950000D03*
D15*
X76720000Y-41800000D03*
D14*
X77000000Y-46000000D03*
D18*
X66500000Y-49750000D03*
D19*
X74775000Y-51950000D03*
D18*
X76500000Y-49750000D03*
D19*
X63225000Y-49750000D03*
D14*
X120000000Y-35500000D03*
D15*
X120280000Y-31300000D03*
D16*
X125500000Y-35500000D03*
D17*
X125500000Y-41450000D03*
D15*
X130720000Y-31300000D03*
D14*
X131000000Y-35500000D03*
D18*
X120500000Y-39250000D03*
D19*
X128775000Y-41450000D03*
D18*
X130500000Y-39250000D03*
D19*
X117225000Y-39250000D03*
D37*
X80470000Y-39450000D03*
D14*
X139356756Y-102224668D03*
D15*
X142270956Y-99187262D03*
D16*
X143570000Y-105760000D03*
D17*
X139745414Y-110317964D03*
D15*
X150268460Y-105897965D03*
D14*
X147783244Y-109295332D03*
D18*
X137329324Y-105418729D03*
D38*
X142254209Y-112423094D03*
D18*
X144989769Y-111846605D03*
D38*
X134820529Y-103313599D03*
D14*
X153884668Y-115376756D03*
D15*
X157282035Y-112891540D03*
D16*
X157420000Y-119590000D03*
D17*
X152862036Y-123414586D03*
D15*
X163992738Y-120889044D03*
D14*
X160955332Y-123803244D03*
D18*
X151333395Y-118170231D03*
D39*
X154967165Y-125923382D03*
D18*
X157761271Y-125830676D03*
D39*
X149228266Y-115661436D03*
D42*
X186206846Y-114001309D02*
X179280000Y-99580000D01*
X155890000Y-132490000D02*
X164471272Y-147860366D01*
X144380000Y-118530000D02*
X155890000Y-132490000D01*
X130300000Y-106620000D02*
X144380000Y-118530000D01*
X106247734Y-84836978D02*
G75*
G03*
X105579997Y-84629995I-587179J-713700D01*
G01*
X130300000Y-106620000D02*
X106247735Y-84836977D01*
X85029996Y-84610000D02*
X105579997Y-84629994D01*
X85029996Y-84609998D02*
G75*
G03*
X84029997Y-85609994I-3J-999996D01*
G01*
X84029039Y-89166652D02*
X84029997Y-85609994D01*
X83120000Y-90250002D02*
G75*
G03*
X84029039Y-89166652I-87156J996195D01*
G01*
X61238061Y-88001939D02*
G75*
G03*
X63498061Y-90261939I2260000J0D01*
G01*
X83120000Y-90250000D02*
X63498061Y-90261939D01*
X61238061Y-88001939D02*
X61257107Y-38497107D01*
X79500000Y-37500000D02*
G75*
G03*
X80500000Y-36500000I0J1000000D01*
G01*
X178310000Y-42700000D02*
X157452107Y-42742893D01*
X195149465Y-131707616D02*
X166560366Y-148228728D01*
X155952107Y-41242893D02*
G75*
G03*
X157452107Y-42742893I1500000J0D01*
G01*
X179310000Y-43700000D02*
X179280000Y-99580000D01*
X80500000Y-31500000D02*
X80500000Y-36500000D01*
X79500000Y-37500000D02*
X62257107Y-37497107D01*
X81500000Y-30500000D02*
G75*
G03*
X80500000Y-31500000I0J-1000000D01*
G01*
X195633153Y-130378690D02*
X186206846Y-114001309D01*
X133500000Y-27000000D02*
X117500000Y-27000000D01*
X116500000Y-23500000D02*
G75*
G03*
X115500000Y-22500000I-1000000J0D01*
G01*
X134500000Y-28500000D02*
G75*
G03*
X135500000Y-29500000I1000000J0D01*
G01*
X134500000Y-28500000D02*
X134500000Y-28000000D01*
X155952107Y-41242893D02*
X155987893Y-31477107D01*
X116500000Y-26000000D02*
X116500000Y-23500000D01*
X97500000Y-30500000D02*
X81500000Y-30500000D01*
X62257107Y-37497107D02*
G75*
G03*
X61257107Y-38497107I0J-1000000D01*
G01*
X134500000Y-28000000D02*
G75*
G03*
X133500000Y-27000000I-1000000J0D01*
G01*
X164471273Y-147860366D02*
G75*
G03*
X166560366Y-148228727I1228727J860366D01*
G01*
X115500000Y-22500000D02*
X99500000Y-22500000D01*
X195149465Y-131707615D02*
G75*
G03*
X195633152Y-130378690I-422619J906306D01*
G01*
X155987893Y-31477107D02*
G75*
G03*
X153987893Y-29477107I-1999986J14D01*
G01*
X153987893Y-29477107D02*
X135500000Y-29500000D01*
X116500000Y-26000000D02*
G75*
G03*
X117500000Y-27000000I1000000J0D01*
G01*
X179310000Y-43700000D02*
G75*
G03*
X178310000Y-42700000I-1000000J0D01*
G01*
X98500000Y-23500000D02*
X98500000Y-29500000D01*
X97500000Y-30500000D02*
G75*
G03*
X98500000Y-29500000I0J1000000D01*
G01*
X99500000Y-22500000D02*
G75*
G03*
X98500000Y-23500000I0J-1000000D01*
G01*
M02*
