M48
; DRILL file {KiCad 7.0.1-0} date 2023 April 27, Thursday 21:51:41
; FORMAT={-:-/ absolute / metric / decimal}
; #@! TF.CreationDate,2023-04-27T21:51:41+02:00
; #@! TF.GenerationSoftware,Kicad,Pcbnew,7.0.1-0
; #@! TF.FileFunction,NonPlated,1,2,NPTH
FMAT,2
METRIC
; #@! TA.AperFunction,NonPlated,NPTH,ComponentDrill
T1C0.800
; #@! TA.AperFunction,NonPlated,NPTH,ComponentDrill
T2C0.991
; #@! TA.AperFunction,NonPlated,NPTH,ComponentDrill
T3C1.702
; #@! TA.AperFunction,NonPlated,NPTH,ComponentDrill
T4C2.200
; #@! TA.AperFunction,NonPlated,NPTH,ComponentDrill
T5C3.000
; #@! TA.AperFunction,NonPlated,NPTH,ComponentDrill
T6C3.429
%
G90
G05
T1
X168.6Y-81.3
X168.6Y-83.3
X175.6Y-81.3
X175.6Y-83.3
T2
X66.28Y-41.8
X66.28Y-58.8
X66.28Y-75.8
X76.72Y-41.8
X76.72Y-58.8
X76.72Y-75.8
X84.28Y-34.8
X84.28Y-51.8
X84.28Y-68.8
X94.72Y-34.8
X94.72Y-51.8
X94.72Y-68.8
X102.28Y-26.8
X102.28Y-43.8
X102.28Y-60.8
X112.72Y-26.8
X112.72Y-43.8
X112.72Y-60.8
X120.28Y-31.3
X120.28Y-48.3
X120.28Y-65.3
X128.896Y-83.753
X130.72Y-31.3
X130.72Y-48.3
X130.72Y-65.3
X137.938Y-88.973
X138.28Y-33.8
X138.28Y-50.8
X138.28Y-67.8
X142.271Y-99.187
X148.72Y-33.8
X148.72Y-50.8
X148.72Y-67.8
X150.268Y-105.898
X153.201Y-86.147
X157.282Y-112.892
X161.198Y-92.858
X163.993Y-120.889
X169.717Y-129.049
X170.392Y-101.912
X174.937Y-138.091
X177.103Y-109.909
X184.527Y-120.519
X189.747Y-129.561
T3
X66.0Y-46.0
X66.0Y-63.0
X66.0Y-80.0
X77.0Y-46.0
X77.0Y-63.0
X77.0Y-80.0
X84.0Y-39.0
X84.0Y-56.0
X84.0Y-73.0
X95.0Y-39.0
X95.0Y-56.0
X95.0Y-73.0
X102.0Y-31.0
X102.0Y-48.0
X102.0Y-65.0
X113.0Y-31.0
X113.0Y-48.0
X113.0Y-65.0
X120.0Y-35.5
X120.0Y-52.5
X120.0Y-69.5
X126.554Y-87.25
X131.0Y-35.5
X131.0Y-52.5
X131.0Y-69.5
X136.08Y-92.75
X138.0Y-38.0
X138.0Y-55.0
X138.0Y-72.0
X139.357Y-102.225
X147.783Y-109.295
X149.0Y-38.0
X149.0Y-55.0
X149.0Y-72.0
X150.287Y-89.185
X153.885Y-115.377
X158.713Y-96.255
X160.955Y-123.803
X165.94Y-130.907
X166.995Y-104.397
X171.44Y-140.433
X174.065Y-112.823
X180.75Y-122.377
X186.25Y-131.903
T4
X63.87Y-71.66
X80.47Y-39.45
X121.61Y-83.36
X153.24Y-32.98
X179.68Y-137.82
T5
X71.5Y-51.95
X71.5Y-68.95
X71.5Y-85.95
X89.5Y-44.95
X89.5Y-61.95
X89.5Y-78.95
X107.5Y-36.95
X107.5Y-53.95
X107.5Y-70.95
X125.5Y-41.45
X125.5Y-58.45
X125.5Y-75.45
X128.342Y-95.153
X139.745Y-110.318
X143.5Y-43.95
X143.5Y-60.95
X143.5Y-77.95
X150.675Y-97.278
X152.862Y-123.415
X163.537Y-138.645
X165.972Y-112.435
X178.347Y-130.115
T6
X71.5Y-46.0
X71.5Y-63.0
X71.5Y-80.0
X89.5Y-39.0
X89.5Y-56.0
X89.5Y-73.0
X107.5Y-31.0
X107.5Y-48.0
X107.5Y-65.0
X125.5Y-35.5
X125.5Y-52.5
X125.5Y-69.5
X131.317Y-90.0
X143.5Y-38.0
X143.5Y-55.0
X143.5Y-72.0
X143.57Y-105.76
X154.5Y-92.72
X157.42Y-119.59
X168.69Y-135.67
X170.53Y-108.61
X183.5Y-127.14
T0
M30
