%TF.GenerationSoftware,KiCad,Pcbnew,7.0.1-0*%
%TF.CreationDate,2023-04-27T16:38:55+02:00*%
%TF.ProjectId,helicoprion,68656c69-636f-4707-9269-6f6e2e6b6963,rev?*%
%TF.SameCoordinates,Original*%
%TF.FileFunction,Copper,L2,Bot*%
%TF.FilePolarity,Positive*%
%FSLAX46Y46*%
G04 Gerber Fmt 4.6, Leading zero omitted, Abs format (unit mm)*
G04 Created by KiCad (PCBNEW 7.0.1-0) date 2023-04-27 16:38:55*
%MOMM*%
%LPD*%
G01*
G04 APERTURE LIST*
G04 Aperture macros list*
%AMRotRect*
0 Rectangle, with rotation*
0 The origin of the aperture is its center*
0 $1 length*
0 $2 width*
0 $3 Rotation angle, in degrees counterclockwise*
0 Add horizontal line*
21,1,$1,$2,0,0,$3*%
G04 Aperture macros list end*
%TA.AperFunction,ComponentPad*%
%ADD10O,2.000000X1.600000*%
%TD*%
%TA.AperFunction,ComponentPad*%
%ADD11C,3.200000*%
%TD*%
%TA.AperFunction,SMDPad,CuDef*%
%ADD12R,2.600000X2.600000*%
%TD*%
%TA.AperFunction,SMDPad,CuDef*%
%ADD13R,1.600000X1.200000*%
%TD*%
%TA.AperFunction,SMDPad,CuDef*%
%ADD14R,2.900000X0.500000*%
%TD*%
%TA.AperFunction,ComponentPad*%
%ADD15R,1.600000X1.600000*%
%TD*%
%TA.AperFunction,ComponentPad*%
%ADD16C,1.600000*%
%TD*%
%TA.AperFunction,SMDPad,CuDef*%
%ADD17R,1.200000X1.600000*%
%TD*%
%TA.AperFunction,SMDPad,CuDef*%
%ADD18R,0.500000X2.900000*%
%TD*%
%TA.AperFunction,SMDPad,CuDef*%
%ADD19RotRect,1.600000X1.200000X40.000000*%
%TD*%
%TA.AperFunction,SMDPad,CuDef*%
%ADD20RotRect,2.900000X0.500000X40.000000*%
%TD*%
%TA.AperFunction,ComponentPad*%
%ADD21RotRect,1.600000X1.600000X40.000000*%
%TD*%
%TA.AperFunction,SMDPad,CuDef*%
%ADD22RotRect,1.600000X1.200000X140.000000*%
%TD*%
%TA.AperFunction,SMDPad,CuDef*%
%ADD23RotRect,2.900000X0.500000X140.000000*%
%TD*%
%TA.AperFunction,ComponentPad*%
%ADD24RotRect,1.600000X1.600000X140.000000*%
%TD*%
%TA.AperFunction,SMDPad,CuDef*%
%ADD25RotRect,1.600000X1.200000X30.000000*%
%TD*%
%TA.AperFunction,SMDPad,CuDef*%
%ADD26RotRect,2.900000X0.500000X30.000000*%
%TD*%
%TA.AperFunction,ComponentPad*%
%ADD27RotRect,1.600000X1.600000X30.000000*%
%TD*%
%TA.AperFunction,SMDPad,CuDef*%
%ADD28RotRect,1.600000X1.200000X50.000000*%
%TD*%
%TA.AperFunction,SMDPad,CuDef*%
%ADD29RotRect,2.900000X0.500000X50.000000*%
%TD*%
%TA.AperFunction,ComponentPad*%
%ADD30RotRect,1.600000X1.600000X50.000000*%
%TD*%
%TA.AperFunction,SMDPad,CuDef*%
%ADD31RotRect,1.600000X1.200000X330.000000*%
%TD*%
%TA.AperFunction,SMDPad,CuDef*%
%ADD32RotRect,2.900000X0.500000X330.000000*%
%TD*%
%TA.AperFunction,ComponentPad*%
%ADD33RotRect,1.600000X1.600000X330.000000*%
%TD*%
%TA.AperFunction,SMDPad,CuDef*%
%ADD34RotRect,2.600000X2.600000X300.000000*%
%TD*%
%TA.AperFunction,ComponentPad*%
%ADD35C,1.800000*%
%TD*%
%TA.AperFunction,ComponentPad*%
%ADD36C,2.100000*%
%TD*%
%TA.AperFunction,SMDPad,CuDef*%
%ADD37RotRect,2.600000X2.600000X320.000000*%
%TD*%
%TA.AperFunction,SMDPad,CuDef*%
%ADD38RotRect,2.600000X2.600000X310.000000*%
%TD*%
%TA.AperFunction,ComponentPad*%
%ADD39C,1.524000*%
%TD*%
%TA.AperFunction,SMDPad,CuDef*%
%ADD40RotRect,2.600000X2.600000X330.000000*%
%TD*%
%TA.AperFunction,ViaPad*%
%ADD41C,0.800000*%
%TD*%
%TA.AperFunction,Conductor*%
%ADD42C,0.250000*%
%TD*%
%TA.AperFunction,Conductor*%
%ADD43C,0.500000*%
%TD*%
%TA.AperFunction,Profile*%
%ADD44C,0.100000*%
%TD*%
G04 APERTURE END LIST*
D10*
X165899997Y-83599999D03*
X166999997Y-78999999D03*
X170999997Y-78999999D03*
X173999997Y-78999999D03*
D11*
X138500000Y-58750000D03*
D12*
X146775000Y-60950000D03*
D11*
X148500000Y-58750000D03*
D12*
X135225000Y-58750000D03*
D11*
X120500000Y-56250000D03*
D12*
X128775000Y-58450000D03*
D11*
X130500000Y-56250000D03*
D12*
X117225000Y-56250000D03*
D11*
X84500000Y-76750000D03*
D12*
X92775000Y-78950000D03*
D11*
X94500000Y-76750000D03*
D12*
X81225000Y-76750000D03*
D11*
X66500000Y-66750000D03*
D12*
X74775000Y-68950000D03*
D11*
X76500000Y-66750000D03*
D12*
X63225000Y-66750000D03*
D13*
X79730000Y-88740000D03*
D14*
X80830000Y-88740000D03*
D15*
X82230000Y-88740000D03*
D16*
X74430000Y-88740000D03*
D14*
X75830000Y-88740000D03*
D13*
X76930000Y-88740000D03*
X78540000Y-71570000D03*
D14*
X79640000Y-71570000D03*
D15*
X81040000Y-71570000D03*
D16*
X73240000Y-71570000D03*
D14*
X74640000Y-71570000D03*
D13*
X75740000Y-71570000D03*
X78550000Y-54510000D03*
D14*
X79650000Y-54510000D03*
D15*
X81050000Y-54510000D03*
D16*
X73250000Y-54510000D03*
D14*
X74650000Y-54510000D03*
D13*
X75750000Y-54510000D03*
X89990000Y-82120000D03*
D14*
X91090000Y-82120000D03*
D15*
X92490000Y-82120000D03*
D16*
X84690000Y-82120000D03*
D14*
X86090000Y-82120000D03*
D13*
X87190000Y-82120000D03*
X96370000Y-64640000D03*
D14*
X97470000Y-64640000D03*
D15*
X98870000Y-64640000D03*
D16*
X91070000Y-64640000D03*
D14*
X92470000Y-64640000D03*
D13*
X93570000Y-64640000D03*
X96320000Y-47430000D03*
D14*
X97420000Y-47430000D03*
D15*
X98820000Y-47430000D03*
D16*
X91020000Y-47430000D03*
D14*
X92420000Y-47430000D03*
D13*
X93520000Y-47430000D03*
X108380000Y-74600000D03*
D14*
X109480000Y-74600000D03*
D15*
X110880000Y-74600000D03*
D16*
X103080000Y-74600000D03*
D14*
X104480000Y-74600000D03*
D13*
X105580000Y-74600000D03*
X100530000Y-56530000D03*
D14*
X99430000Y-56530000D03*
D15*
X98030000Y-56530000D03*
D16*
X105830000Y-56530000D03*
D14*
X104430000Y-56530000D03*
D13*
X103330000Y-56530000D03*
X100450000Y-39620000D03*
D14*
X99350000Y-39620000D03*
D15*
X97950000Y-39620000D03*
D16*
X105750000Y-39620000D03*
D14*
X104350000Y-39620000D03*
D13*
X103250000Y-39620000D03*
X121430000Y-79220000D03*
D14*
X120330000Y-79220000D03*
D15*
X118930000Y-79220000D03*
D16*
X126730000Y-79220000D03*
D14*
X125330000Y-79220000D03*
D13*
X124230000Y-79220000D03*
D17*
X134510000Y-67270000D03*
D18*
X134510000Y-68370000D03*
D15*
X134510000Y-69770000D03*
D16*
X134510000Y-61970000D03*
D18*
X134510000Y-63370000D03*
D17*
X134510000Y-64470000D03*
X134580000Y-50430000D03*
D18*
X134580000Y-51530000D03*
D15*
X134580000Y-52930000D03*
D16*
X134580000Y-45130000D03*
D18*
X134580000Y-46530000D03*
D17*
X134580000Y-47630000D03*
D13*
X142155000Y-81755000D03*
D14*
X141055000Y-81755000D03*
D15*
X139655000Y-81755000D03*
D16*
X147455000Y-81755000D03*
D14*
X146055000Y-81755000D03*
D13*
X144955000Y-81755000D03*
D17*
X152170000Y-66940000D03*
D18*
X152170000Y-68040000D03*
D15*
X152170000Y-69440000D03*
D16*
X152170000Y-61640000D03*
D18*
X152170000Y-63040000D03*
D17*
X152170000Y-64140000D03*
X152470000Y-49590000D03*
D18*
X152470000Y-50690000D03*
D15*
X152470000Y-52090000D03*
D16*
X152470000Y-44290000D03*
D18*
X152470000Y-45690000D03*
D17*
X152470000Y-46790000D03*
D19*
X167572462Y-123240097D03*
D20*
X168415111Y-122533031D03*
D21*
X169487573Y-121633128D03*
D16*
X163512427Y-126646872D03*
D20*
X164584889Y-125746969D03*
D19*
X165427538Y-125039903D03*
D22*
X159635995Y-83963436D03*
D23*
X160478644Y-84670502D03*
D16*
X161551106Y-85570405D03*
D24*
X155575960Y-80556661D03*
D23*
X156648422Y-81456564D03*
D22*
X157491071Y-82163630D03*
D19*
X179702462Y-112190097D03*
D20*
X180545111Y-111483031D03*
D21*
X181617573Y-110583128D03*
D16*
X175642427Y-115596872D03*
D20*
X176714889Y-114696969D03*
D19*
X177557538Y-113989903D03*
D25*
X182852436Y-117060000D03*
D26*
X183805064Y-116510000D03*
D27*
X185017499Y-115810000D03*
D16*
X178262501Y-119710000D03*
D26*
X179474936Y-119010000D03*
D25*
X180427564Y-118460000D03*
D28*
X154659903Y-106907538D03*
D29*
X155366969Y-106064889D03*
D30*
X156266872Y-104992427D03*
D16*
X151253128Y-110967573D03*
D29*
X152153031Y-109895111D03*
D28*
X152860097Y-109052462D03*
D31*
X129552436Y-99930000D03*
D32*
X130505064Y-100480000D03*
D33*
X131717499Y-101180000D03*
D16*
X124962501Y-97280000D03*
D32*
X126174936Y-97980000D03*
D31*
X127127564Y-98530000D03*
D28*
X164606564Y-98055995D03*
D29*
X163899498Y-98898644D03*
D16*
X162999595Y-99971106D03*
D30*
X168013339Y-93995960D03*
D29*
X167113436Y-95068422D03*
D28*
X166406370Y-95911071D03*
D11*
X66500000Y-83750000D03*
D12*
X74775000Y-85950000D03*
D11*
X76500000Y-83750000D03*
D12*
X63225000Y-83750000D03*
D11*
X177752405Y-124684873D03*
D34*
X179984649Y-132951233D03*
D11*
X182752405Y-133345127D03*
D34*
X176114905Y-121848640D03*
D35*
X174870000Y-94550000D03*
X174870000Y-89550000D03*
D36*
X172370000Y-88550000D03*
X172370000Y-95550000D03*
D11*
X138500000Y-41750000D03*
D12*
X146775000Y-43950000D03*
D11*
X148500000Y-41750000D03*
D12*
X135225000Y-41750000D03*
D11*
X102500000Y-34750000D03*
D12*
X110775000Y-36950000D03*
D11*
X112500000Y-34750000D03*
D12*
X99225000Y-34750000D03*
D37*
X145750529Y-90273599D03*
D11*
X155919769Y-98806605D03*
D37*
X153184209Y-99383094D03*
D11*
X148259324Y-92378729D03*
X164443395Y-107190231D03*
D38*
X168077165Y-114943382D03*
D11*
X170871271Y-114850676D03*
D38*
X162338266Y-104681436D03*
D11*
X84500000Y-59750000D03*
D12*
X92775000Y-61950000D03*
D11*
X94500000Y-59750000D03*
D12*
X81225000Y-59750000D03*
D11*
X138500000Y-75750000D03*
D12*
X146775000Y-77950000D03*
D11*
X148500000Y-75750000D03*
D12*
X135225000Y-75750000D03*
D11*
X162942405Y-133214873D03*
D34*
X165174649Y-141481233D03*
D11*
X167942405Y-141875127D03*
D34*
X161304905Y-130378640D03*
D11*
X102500000Y-51750000D03*
D12*
X110775000Y-53950000D03*
D11*
X112500000Y-51750000D03*
D12*
X99225000Y-51750000D03*
D39*
X160801800Y-47850000D03*
X177348200Y-46580000D03*
X160801800Y-50390000D03*
X177348200Y-49120000D03*
X160801800Y-52930000D03*
X177348200Y-51660000D03*
X160801800Y-55470000D03*
X177348200Y-54200000D03*
X160801800Y-58010000D03*
X177348200Y-56740000D03*
X160801800Y-60550000D03*
X177348200Y-59280000D03*
X160801800Y-63090000D03*
X177348200Y-61820000D03*
X160801800Y-65630000D03*
X177348200Y-64360000D03*
X160801800Y-68170000D03*
X177348200Y-66900000D03*
X160801800Y-70710000D03*
X177348200Y-69440000D03*
X160801800Y-73250000D03*
X177348200Y-71980000D03*
X160801800Y-75790000D03*
X177348200Y-74520000D03*
X162128200Y-74520000D03*
X176041800Y-75790000D03*
X162128200Y-71980000D03*
X176041800Y-73250000D03*
X162128200Y-69440000D03*
X176041800Y-70710000D03*
X162128200Y-66900000D03*
X176041800Y-68170000D03*
X162128200Y-64360000D03*
X176041800Y-65630000D03*
X162128200Y-61820000D03*
X176041800Y-63090000D03*
X162128200Y-59280000D03*
X176041800Y-60550000D03*
X162128200Y-56740000D03*
X176041800Y-58010000D03*
X162128200Y-54200000D03*
X176041800Y-55470000D03*
X162128200Y-51660000D03*
X176041800Y-52930000D03*
X162128200Y-49120000D03*
X176041800Y-50390000D03*
X162128200Y-46580000D03*
X176041800Y-47850000D03*
D11*
X102500000Y-68750000D03*
D12*
X110775000Y-70950000D03*
D11*
X112500000Y-68750000D03*
D12*
X99225000Y-68750000D03*
D11*
X120500000Y-73250000D03*
D12*
X128775000Y-75450000D03*
D11*
X130500000Y-73250000D03*
D12*
X117225000Y-73250000D03*
D10*
X165900000Y-81000000D03*
X167000000Y-85600000D03*
X171000000Y-85600000D03*
X174000000Y-85600000D03*
D11*
X125111733Y-90747595D03*
D40*
X131178093Y-96790351D03*
D11*
X133771987Y-95747595D03*
D40*
X122275500Y-89110095D03*
D11*
X84500000Y-42750000D03*
D12*
X92775000Y-44950000D03*
D11*
X94500000Y-42750000D03*
D12*
X81225000Y-42750000D03*
D11*
X66500000Y-49750000D03*
D12*
X74775000Y-51950000D03*
D11*
X76500000Y-49750000D03*
D12*
X63225000Y-49750000D03*
D11*
X120500000Y-39250000D03*
D12*
X128775000Y-41450000D03*
D11*
X130500000Y-39250000D03*
D12*
X117225000Y-39250000D03*
D11*
X137329324Y-105418729D03*
D37*
X142254209Y-112423094D03*
D11*
X144989769Y-111846605D03*
D37*
X134820529Y-103313599D03*
D11*
X151333395Y-118170231D03*
D38*
X154967165Y-125923382D03*
D11*
X157761271Y-125830676D03*
D38*
X149228266Y-115661436D03*
D41*
X163900000Y-102960000D03*
X169990000Y-82450000D03*
X166270000Y-88450000D03*
X165860000Y-109390000D03*
X154080000Y-96850000D03*
X123495676Y-86324324D03*
X168140000Y-51760000D03*
X163307250Y-52982750D03*
X180570000Y-129970000D03*
X178160000Y-121570000D03*
X166200000Y-138670000D03*
X163220000Y-130030000D03*
X156030000Y-123240000D03*
X151180000Y-114590000D03*
X143440000Y-109600000D03*
X136560000Y-102030000D03*
X147220000Y-88700000D03*
X174040000Y-66900000D03*
X173820000Y-69420000D03*
X174020000Y-71980000D03*
X174190000Y-74570000D03*
X146720000Y-46570000D03*
X146850000Y-63560000D03*
X128660000Y-61180000D03*
X128820000Y-43980000D03*
X151610000Y-39610000D03*
X151620000Y-56450000D03*
X151730000Y-73560000D03*
X133710000Y-37030000D03*
X132870000Y-54170000D03*
X132880000Y-70870000D03*
X115820000Y-66490000D03*
X115780000Y-49750000D03*
X115740000Y-32350000D03*
X96350000Y-40470000D03*
X96310000Y-57580000D03*
X97970000Y-74420000D03*
X79800000Y-47310000D03*
X79740000Y-64730000D03*
X79760000Y-81380000D03*
D42*
X163900000Y-102960000D02*
X163460000Y-102960000D01*
X163460000Y-102960000D02*
X160510000Y-100010000D01*
X160510000Y-100010000D02*
X160510000Y-99100000D01*
X163170000Y-96440000D02*
X163170000Y-84481249D01*
X163170000Y-84481249D02*
X163030000Y-84341249D01*
X163030000Y-75421800D02*
X162128200Y-74520000D01*
X160510000Y-99100000D02*
X163170000Y-96440000D01*
X163030000Y-84341249D02*
X163030000Y-75421800D01*
X163900000Y-102960000D02*
X163900000Y-103119702D01*
X163900000Y-103119702D02*
X162338266Y-104681436D01*
X166200000Y-138670000D02*
X166200000Y-133410000D01*
X166200000Y-133410000D02*
X164330000Y-131540000D01*
X164330000Y-131540000D02*
X164330000Y-129990000D01*
X164330000Y-129990000D02*
X176190102Y-118129898D01*
X176190102Y-118129898D02*
X176190102Y-116144547D01*
X176190102Y-116144547D02*
X175642427Y-115596872D01*
X168013339Y-93995960D02*
X164980000Y-90962621D01*
X163540000Y-84130000D02*
X163540000Y-69229697D01*
X164980000Y-90962621D02*
X164980000Y-85570000D01*
X163540000Y-69229697D02*
X162480303Y-68170000D01*
X164980000Y-85570000D02*
X163540000Y-84130000D01*
X162480303Y-68170000D02*
X160801800Y-68170000D01*
X185017499Y-115810000D02*
X184512046Y-115304547D01*
X184512046Y-115304547D02*
X184512046Y-113442046D01*
X177280000Y-103490000D02*
X177280000Y-78948752D01*
X177280000Y-78948752D02*
X172980000Y-74648752D01*
X172980000Y-74648752D02*
X172980000Y-69149842D01*
X183490000Y-112420000D02*
X183490000Y-109700000D01*
X183490000Y-109700000D02*
X177280000Y-103490000D01*
X174872000Y-68635000D02*
X175677000Y-69440000D01*
X184512046Y-113442046D02*
X183490000Y-112420000D01*
X172980000Y-69149842D02*
X173494842Y-68635000D01*
X173494842Y-68635000D02*
X174872000Y-68635000D01*
X175677000Y-69440000D02*
X177348200Y-69440000D01*
X170935000Y-99440000D02*
X170935000Y-93115000D01*
X181617573Y-110583128D02*
X170935000Y-99900555D01*
X170935000Y-99900555D02*
X170935000Y-99440000D01*
X180570000Y-129970000D02*
X180570000Y-124330000D01*
X180570000Y-124330000D02*
X179120000Y-122880000D01*
X179120000Y-122880000D02*
X179120000Y-120567499D01*
X179120000Y-120567499D02*
X178262501Y-119710000D01*
X131178093Y-96790351D02*
X130418444Y-97550000D01*
X130418444Y-97550000D02*
X125232501Y-97550000D01*
X125232501Y-97550000D02*
X124962501Y-97280000D01*
X157552427Y-82073128D02*
X157552427Y-76677573D01*
X157552427Y-76677573D02*
X158440000Y-75790000D01*
X158440000Y-75790000D02*
X160801800Y-75790000D01*
X154080000Y-96850000D02*
X154080000Y-96534445D01*
X154080000Y-96534445D02*
X161551106Y-89063339D01*
X161551106Y-89063339D02*
X161551106Y-85570405D01*
X139655000Y-81755000D02*
X141720000Y-83820000D01*
X141720000Y-83820000D02*
X149080000Y-83820000D01*
X149080000Y-83820000D02*
X159650000Y-73250000D01*
X159650000Y-73250000D02*
X160801800Y-73250000D01*
X135225000Y-75750000D02*
X137435429Y-73539571D01*
X137435429Y-73539571D02*
X140679571Y-73539571D01*
X141670000Y-74530000D02*
X145760000Y-74530000D01*
X145760000Y-74530000D02*
X146730000Y-73560000D01*
X140679571Y-73539571D02*
X141670000Y-74530000D01*
X146730000Y-73560000D02*
X151730000Y-73560000D01*
X135225000Y-58750000D02*
X137525000Y-56450000D01*
X139780500Y-56450000D02*
X140960500Y-57630000D01*
X137525000Y-56450000D02*
X139780500Y-56450000D01*
X145310000Y-57630000D02*
X146490000Y-56450000D01*
X140960500Y-57630000D02*
X145310000Y-57630000D01*
X146490000Y-56450000D02*
X151620000Y-56450000D01*
X117225000Y-56250000D02*
X119515000Y-53960000D01*
X119515000Y-53960000D02*
X122920000Y-53960000D01*
X122920000Y-53960000D02*
X123860000Y-54900000D01*
X123860000Y-54900000D02*
X127700000Y-54900000D01*
X128430000Y-54170000D02*
X132870000Y-54170000D01*
X127700000Y-54900000D02*
X128430000Y-54170000D01*
X135225000Y-41750000D02*
X137555000Y-39420000D01*
X137555000Y-39420000D02*
X139860000Y-39420000D01*
X139860000Y-39420000D02*
X140870000Y-40430000D01*
X140870000Y-40430000D02*
X145730000Y-40430000D01*
X145730000Y-40430000D02*
X146550000Y-39610000D01*
X146550000Y-39610000D02*
X151610000Y-39610000D01*
X99225000Y-51750000D02*
X101525000Y-49450000D01*
X101525000Y-49450000D02*
X104800000Y-49450000D01*
X110060000Y-50570000D02*
X110880000Y-49750000D01*
X105920000Y-50570000D02*
X110060000Y-50570000D01*
X104800000Y-49450000D02*
X105920000Y-50570000D01*
X110880000Y-49750000D02*
X115780000Y-49750000D01*
X98030000Y-56530000D02*
X99540000Y-58040000D01*
X133460000Y-69770000D02*
X134510000Y-69770000D01*
X127454100Y-63764100D02*
X133460000Y-69770000D01*
X104710000Y-58040000D02*
X110434100Y-63764100D01*
X110434100Y-63764100D02*
X127454100Y-63764100D01*
X99540000Y-58040000D02*
X104710000Y-58040000D01*
X99225000Y-68750000D02*
X101405000Y-66570000D01*
X101405000Y-66570000D02*
X105040000Y-66570000D01*
X105040000Y-66570000D02*
X105920000Y-67450000D01*
X110900000Y-66490000D02*
X115820000Y-66490000D01*
X105920000Y-67450000D02*
X109940000Y-67450000D01*
X109940000Y-67450000D02*
X110900000Y-66490000D01*
X87910000Y-75450000D02*
X90770000Y-75450000D01*
X83485000Y-74490000D02*
X86950000Y-74490000D01*
X81225000Y-76750000D02*
X83485000Y-74490000D01*
X86950000Y-74490000D02*
X87910000Y-75450000D01*
X90770000Y-75450000D02*
X91800000Y-74420000D01*
X91800000Y-74420000D02*
X97970000Y-74420000D01*
X63225000Y-83750000D02*
X65385000Y-81590000D01*
X65385000Y-81590000D02*
X68890000Y-81590000D01*
X68890000Y-81590000D02*
X69920000Y-82620000D01*
X69920000Y-82620000D02*
X74000000Y-82620000D01*
X74000000Y-82620000D02*
X75240000Y-81380000D01*
X75240000Y-81380000D02*
X79760000Y-81380000D01*
X69030000Y-64510000D02*
X69980000Y-65460000D01*
X65465000Y-64510000D02*
X69030000Y-64510000D01*
X63225000Y-66750000D02*
X65465000Y-64510000D01*
X69980000Y-65460000D02*
X74120000Y-65460000D01*
X74120000Y-65460000D02*
X75160000Y-64420000D01*
X75160000Y-64420000D02*
X79430000Y-64420000D01*
X79430000Y-64420000D02*
X79740000Y-64730000D01*
X63225000Y-49750000D02*
X65515000Y-47460000D01*
X68200141Y-47460000D02*
X69270141Y-48530000D01*
X74912173Y-47540000D02*
X79570000Y-47540000D01*
X69270141Y-48530000D02*
X73922173Y-48530000D01*
X65515000Y-47460000D02*
X68200141Y-47460000D01*
X73922173Y-48530000D02*
X74912173Y-47540000D01*
X79570000Y-47540000D02*
X79800000Y-47310000D01*
X81225000Y-42750000D02*
X83555000Y-40420000D01*
X83555000Y-40420000D02*
X87040000Y-40420000D01*
X87040000Y-40420000D02*
X88100000Y-41480000D01*
X88100000Y-41480000D02*
X92250000Y-41480000D01*
X92250000Y-41480000D02*
X93260000Y-40470000D01*
X93260000Y-40470000D02*
X96350000Y-40470000D01*
X117225000Y-39250000D02*
X119545000Y-36930000D01*
X119545000Y-36930000D02*
X121720000Y-36930000D01*
X121720000Y-36930000D02*
X122810000Y-38020000D01*
X122810000Y-38020000D02*
X127920000Y-38020000D01*
X127920000Y-38020000D02*
X129030000Y-36910000D01*
X129030000Y-36910000D02*
X133590000Y-36910000D01*
X133590000Y-36910000D02*
X133710000Y-37030000D01*
X152470000Y-44290000D02*
X150630000Y-44290000D01*
X150630000Y-44290000D02*
X148350000Y-46570000D01*
X148350000Y-46570000D02*
X146720000Y-46570000D01*
X147980000Y-63560000D02*
X149900000Y-61640000D01*
X149900000Y-61640000D02*
X152170000Y-61640000D01*
X146850000Y-63560000D02*
X147980000Y-63560000D01*
X170935000Y-93115000D02*
X166270000Y-88450000D01*
X143440000Y-109600000D02*
X145830000Y-109600000D01*
X145830000Y-109600000D02*
X147197573Y-110967573D01*
X147197573Y-110967573D02*
X151253128Y-110967573D01*
X156030000Y-123240000D02*
X158340000Y-123240000D01*
X161746872Y-126646872D02*
X163512427Y-126646872D01*
X158340000Y-123240000D02*
X161746872Y-126646872D01*
X168077165Y-111607165D02*
X165860000Y-109390000D01*
X168077165Y-114943382D02*
X168077165Y-111607165D01*
X154080000Y-96850000D02*
X154080000Y-98487303D01*
X154080000Y-98487303D02*
X153184209Y-99383094D01*
X122275500Y-89110095D02*
X122275500Y-87544500D01*
X122275500Y-87544500D02*
X123495676Y-86324324D01*
X163307250Y-52982750D02*
X162128200Y-51803700D01*
X162128200Y-51803700D02*
X162128200Y-51660000D01*
X131717499Y-101180000D02*
X132303139Y-100594360D01*
X132303139Y-100594360D02*
X146324360Y-100594360D01*
X146324360Y-100594360D02*
X150722427Y-104992427D01*
X150722427Y-104992427D02*
X156266872Y-104992427D01*
D43*
X165900000Y-81000000D02*
X164730000Y-79830000D01*
X164730000Y-79830000D02*
X164730000Y-56801800D01*
X164730000Y-56801800D02*
X162128200Y-54200000D01*
D42*
X177348200Y-51660000D02*
X177311800Y-51660000D01*
X177311800Y-51660000D02*
X176041800Y-50390000D01*
X177348200Y-54200000D02*
X177348200Y-51660000D01*
X174870000Y-89550000D02*
X176680000Y-87740000D01*
X176680000Y-87740000D02*
X176680000Y-79070000D01*
X176680000Y-79070000D02*
X174914999Y-77304999D01*
X174914999Y-77304999D02*
X174594999Y-77304999D01*
X174594999Y-77304999D02*
X172160000Y-74870000D01*
X172160000Y-74870000D02*
X172160000Y-56811800D01*
X172160000Y-56811800D02*
X176041800Y-52930000D01*
X156266872Y-104992427D02*
X156266872Y-108412427D01*
X156266872Y-108412427D02*
X169487573Y-121633128D01*
X180570000Y-129970000D02*
X180570000Y-132365882D01*
X180570000Y-132365882D02*
X179984649Y-132951233D01*
X178160000Y-121570000D02*
X176393545Y-121570000D01*
X176393545Y-121570000D02*
X176114905Y-121848640D01*
X166200000Y-138670000D02*
X165174649Y-139695351D01*
X165174649Y-139695351D02*
X165174649Y-141481233D01*
X163220000Y-130030000D02*
X161653545Y-130030000D01*
X161653545Y-130030000D02*
X161304905Y-130378640D01*
X156030000Y-124860547D02*
X154967165Y-125923382D01*
X156030000Y-123240000D02*
X156030000Y-124860547D01*
X151180000Y-114590000D02*
X150299702Y-114590000D01*
X150299702Y-114590000D02*
X149228266Y-115661436D01*
X142254209Y-112423094D02*
X143440000Y-111237303D01*
X143440000Y-111237303D02*
X143440000Y-109600000D01*
X136560000Y-102030000D02*
X136104128Y-102030000D01*
X136104128Y-102030000D02*
X134820529Y-103313599D01*
X147220000Y-88804128D02*
X145750529Y-90273599D01*
X147220000Y-88700000D02*
X147220000Y-88804128D01*
X174000000Y-80690000D02*
X174505001Y-80184999D01*
X174690840Y-77814999D02*
X173034999Y-77814999D01*
X173034999Y-77814999D02*
X171650000Y-76430000D01*
X171650000Y-76430000D02*
X171650000Y-53159697D01*
X174505001Y-80184999D02*
X174690840Y-80184999D01*
X174000000Y-85600000D02*
X174000000Y-80690000D01*
X174690840Y-80184999D02*
X175384997Y-79490842D01*
X175384997Y-79490842D02*
X175384997Y-78509156D01*
X175384997Y-78509156D02*
X174690840Y-77814999D01*
X171650000Y-53159697D02*
X175689697Y-49120000D01*
X175689697Y-49120000D02*
X177348200Y-49120000D01*
X173999997Y-78999999D02*
X173159999Y-78999999D01*
X173159999Y-78999999D02*
X171140000Y-76980000D01*
X171140000Y-51129697D02*
X175689697Y-46580000D01*
X171140000Y-76980000D02*
X171140000Y-51129697D01*
X175689697Y-46580000D02*
X177348200Y-46580000D01*
X171000000Y-85600000D02*
X171000000Y-81999996D01*
X171000000Y-81999996D02*
X173999997Y-78999999D01*
X174040000Y-66900000D02*
X174771800Y-66900000D01*
X174771800Y-66900000D02*
X176041800Y-68170000D01*
X173820000Y-69420000D02*
X174751800Y-69420000D01*
X174751800Y-69420000D02*
X176041800Y-70710000D01*
X174771800Y-71980000D02*
X176041800Y-73250000D01*
X174020000Y-71980000D02*
X174771800Y-71980000D01*
X174190000Y-74570000D02*
X174821800Y-74570000D01*
X174821800Y-74570000D02*
X176041800Y-75790000D01*
X146720000Y-46570000D02*
X146775000Y-46515000D01*
X146775000Y-46515000D02*
X146775000Y-43950000D01*
X146775000Y-63485000D02*
X146775000Y-60950000D01*
X146850000Y-63560000D02*
X146775000Y-63485000D01*
X146775000Y-77950000D02*
X146775000Y-81075000D01*
X146775000Y-81075000D02*
X147455000Y-81755000D01*
X128775000Y-75450000D02*
X128775000Y-77175000D01*
X128775000Y-77175000D02*
X126730000Y-79220000D01*
X128660000Y-61180000D02*
X129450000Y-61970000D01*
X129450000Y-61970000D02*
X134510000Y-61970000D01*
X128775000Y-61065000D02*
X128775000Y-58450000D01*
X128660000Y-61180000D02*
X128775000Y-61065000D01*
X128820000Y-43980000D02*
X129970000Y-45130000D01*
X129970000Y-45130000D02*
X134580000Y-45130000D01*
X128775000Y-43935000D02*
X128775000Y-41450000D01*
X128820000Y-43980000D02*
X128775000Y-43935000D01*
X123870430Y-70839570D02*
X124630359Y-71599500D01*
X128906027Y-70870000D02*
X132880000Y-70870000D01*
X124630359Y-71599500D02*
X128176527Y-71599500D01*
X117225000Y-73250000D02*
X119635430Y-70839570D01*
X119635430Y-70839570D02*
X123870430Y-70839570D01*
X128176527Y-71599500D02*
X128906027Y-70870000D01*
X110792786Y-33650000D02*
X112092786Y-32350000D01*
X107230000Y-33650000D02*
X110792786Y-33650000D01*
X112092786Y-32350000D02*
X115740000Y-32350000D01*
X106345000Y-32765000D02*
X107230000Y-33650000D01*
X101210000Y-32765000D02*
X106345000Y-32765000D01*
X99225000Y-34750000D02*
X101210000Y-32765000D01*
X118930000Y-79220000D02*
X121300000Y-79220000D01*
X121300000Y-79220000D02*
X123835000Y-81755000D01*
X123835000Y-81755000D02*
X139655000Y-81755000D01*
X110880000Y-74600000D02*
X114310000Y-74600000D01*
X114310000Y-74600000D02*
X118930000Y-79220000D01*
X152170000Y-69440000D02*
X159531800Y-69440000D01*
X159531800Y-69440000D02*
X160801800Y-70710000D01*
X134510000Y-69770000D02*
X151840000Y-69770000D01*
X151840000Y-69770000D02*
X152170000Y-69440000D01*
X152470000Y-52090000D02*
X153355000Y-52975000D01*
X153355000Y-52975000D02*
X153355000Y-60723200D01*
X153355000Y-60723200D02*
X160801800Y-68170000D01*
X134580000Y-52930000D02*
X135420000Y-52090000D01*
X135420000Y-52090000D02*
X152470000Y-52090000D01*
X97950000Y-39620000D02*
X101249700Y-42919700D01*
X101249700Y-42919700D02*
X123519700Y-42919700D01*
X123519700Y-42919700D02*
X133530000Y-52930000D01*
X133530000Y-52930000D02*
X134580000Y-52930000D01*
X110775000Y-36950000D02*
X108105000Y-39620000D01*
X108105000Y-39620000D02*
X105750000Y-39620000D01*
X98820000Y-47430000D02*
X98820000Y-40490000D01*
X98820000Y-40490000D02*
X97950000Y-39620000D01*
X110775000Y-53950000D02*
X108195000Y-56530000D01*
X108195000Y-56530000D02*
X105830000Y-56530000D01*
X91480000Y-57580000D02*
X96310000Y-57580000D01*
X81225000Y-59750000D02*
X83739100Y-57235900D01*
X83739100Y-57235900D02*
X87034241Y-57235900D01*
X90960500Y-58099500D02*
X91480000Y-57580000D01*
X87897841Y-58099500D02*
X90960500Y-58099500D01*
X87034241Y-57235900D02*
X87897841Y-58099500D01*
X98870000Y-64640000D02*
X98870000Y-62190000D01*
X98870000Y-62190000D02*
X98030000Y-61350000D01*
X98030000Y-61350000D02*
X98030000Y-56530000D01*
X110775000Y-70950000D02*
X108890000Y-72835000D01*
X108890000Y-72835000D02*
X104845000Y-72835000D01*
X104845000Y-72835000D02*
X103080000Y-74600000D01*
X92490000Y-82120000D02*
X103360000Y-82120000D01*
X103360000Y-82120000D02*
X110880000Y-74600000D01*
X74775000Y-51950000D02*
X74775000Y-52985000D01*
X74775000Y-52985000D02*
X73250000Y-54510000D01*
X92775000Y-44950000D02*
X92775000Y-45675000D01*
X92775000Y-45675000D02*
X91020000Y-47430000D01*
X81050000Y-54510000D02*
X81659500Y-53900500D01*
X97845068Y-47430000D02*
X98820000Y-47430000D01*
X81659500Y-53900500D02*
X91374568Y-53900500D01*
X91374568Y-53900500D02*
X97845068Y-47430000D01*
X92775000Y-61950000D02*
X92775000Y-62935000D01*
X92775000Y-62935000D02*
X91070000Y-64640000D01*
X81040000Y-71570000D02*
X82090000Y-70520000D01*
X82090000Y-70520000D02*
X91755068Y-70520000D01*
X91755068Y-70520000D02*
X97635068Y-64640000D01*
X97635068Y-64640000D02*
X98870000Y-64640000D01*
X82230000Y-88740000D02*
X82230000Y-86447643D01*
X82230000Y-86447643D02*
X84452798Y-84224845D01*
X84452798Y-84224845D02*
X90385155Y-84224845D01*
X90385155Y-84224845D02*
X92490000Y-82120000D01*
X74775000Y-68950000D02*
X74775000Y-70035000D01*
X74775000Y-70035000D02*
X73240000Y-71570000D01*
X92775000Y-78950000D02*
X90590000Y-81135000D01*
X90590000Y-81135000D02*
X88175000Y-81135000D01*
X88175000Y-81135000D02*
X87190000Y-82120000D01*
X74775000Y-86025000D02*
X74410000Y-86390000D01*
X74775000Y-85950000D02*
X74775000Y-86025000D01*
X74430000Y-86410000D02*
X74430000Y-88740000D01*
X74410000Y-86390000D02*
X74430000Y-86410000D01*
%TA.AperFunction,Conductor*%
G36*
X114530187Y-22579961D02*
G01*
X114586537Y-22593587D01*
X115726357Y-23177175D01*
X115744139Y-23186279D01*
X115792713Y-23230828D01*
X115811598Y-23293975D01*
X115880000Y-26460000D01*
X115880000Y-26460001D01*
X116579999Y-27250000D01*
X116579999Y-27249999D01*
X116580000Y-27250000D01*
X133547631Y-27170199D01*
X133587755Y-27176672D01*
X133623632Y-27195770D01*
X134073446Y-27540433D01*
X134315284Y-27725737D01*
X134349242Y-27765746D01*
X134363610Y-27816218D01*
X134430000Y-28850000D01*
X134670000Y-29320000D01*
X135049999Y-29487646D01*
X135349999Y-29620000D01*
X135471092Y-29620453D01*
X153998399Y-29689881D01*
X154057688Y-29705228D01*
X154607555Y-30007655D01*
X155010525Y-30229289D01*
X155044542Y-30256809D01*
X155769649Y-31094919D01*
X155792131Y-31132918D01*
X155799874Y-31176386D01*
X155770607Y-41966249D01*
X155770000Y-42190000D01*
X155770001Y-42190001D01*
X156729998Y-42929999D01*
X156729999Y-42930000D01*
X156729999Y-42929999D01*
X156730000Y-42930000D01*
X178413516Y-42910051D01*
X178464927Y-42921161D01*
X178507110Y-42952585D01*
X179038728Y-43562639D01*
X179049359Y-43574838D01*
X179072053Y-43612963D01*
X179079874Y-43656637D01*
X178930000Y-99310002D01*
X179169999Y-100070000D01*
X183034527Y-108007492D01*
X183046306Y-108075233D01*
X183020185Y-108138835D01*
X182964194Y-108178743D01*
X182895550Y-108182687D01*
X182835358Y-108149453D01*
X177949819Y-103263914D01*
X177922939Y-103223686D01*
X177913500Y-103176233D01*
X177913500Y-79032380D01*
X177915788Y-79011644D01*
X177915700Y-79008846D01*
X177915701Y-79008843D01*
X177913560Y-78940752D01*
X177913500Y-78936858D01*
X177913500Y-78908898D01*
X177912981Y-78904791D01*
X177912064Y-78893140D01*
X177910673Y-78848862D01*
X177904978Y-78829263D01*
X177901033Y-78810214D01*
X177898474Y-78789955D01*
X177882654Y-78749999D01*
X177882162Y-78748756D01*
X177878377Y-78737702D01*
X177866018Y-78695159D01*
X177863007Y-78690068D01*
X177855624Y-78677583D01*
X177847064Y-78660109D01*
X177839552Y-78641136D01*
X177839552Y-78641135D01*
X177813510Y-78605292D01*
X177807095Y-78595525D01*
X177784544Y-78557391D01*
X177777905Y-78550752D01*
X177770101Y-78542948D01*
X177757469Y-78528157D01*
X177745474Y-78511647D01*
X177744449Y-78510799D01*
X177711324Y-78483395D01*
X177702696Y-78475543D01*
X176422913Y-77195760D01*
X176390819Y-77140171D01*
X176390820Y-77075982D01*
X176422916Y-77020395D01*
X176468621Y-76994009D01*
X176468163Y-76993025D01*
X176477994Y-76988440D01*
X176477996Y-76988440D01*
X176679477Y-76894488D01*
X176861581Y-76766977D01*
X177018777Y-76609781D01*
X177146288Y-76427677D01*
X177240240Y-76226196D01*
X177297778Y-76011463D01*
X177307373Y-75901783D01*
X177325362Y-75847494D01*
X177365804Y-75807052D01*
X177420094Y-75789063D01*
X177569663Y-75775978D01*
X177784396Y-75718440D01*
X177985877Y-75624488D01*
X178167981Y-75496977D01*
X178325177Y-75339781D01*
X178452688Y-75157677D01*
X178546640Y-74956196D01*
X178604178Y-74741463D01*
X178623553Y-74520000D01*
X178604178Y-74298537D01*
X178546640Y-74083804D01*
X178452688Y-73882324D01*
X178325177Y-73700219D01*
X178167981Y-73543023D01*
X177985877Y-73415512D01*
X177985876Y-73415511D01*
X177985874Y-73415510D01*
X177871939Y-73362381D01*
X177819763Y-73316623D01*
X177800344Y-73249998D01*
X177819764Y-73183373D01*
X177871938Y-73137618D01*
X177985877Y-73084488D01*
X178167981Y-72956977D01*
X178325177Y-72799781D01*
X178452688Y-72617677D01*
X178546640Y-72416196D01*
X178604178Y-72201463D01*
X178623553Y-71980000D01*
X178604178Y-71758537D01*
X178546640Y-71543804D01*
X178452688Y-71342324D01*
X178325177Y-71160219D01*
X178167981Y-71003023D01*
X177985877Y-70875512D01*
X177871938Y-70822381D01*
X177819763Y-70776625D01*
X177800344Y-70710000D01*
X177819763Y-70643375D01*
X177871939Y-70597618D01*
X177985877Y-70544488D01*
X178167981Y-70416977D01*
X178325177Y-70259781D01*
X178452688Y-70077677D01*
X178546640Y-69876196D01*
X178604178Y-69661463D01*
X178623553Y-69440000D01*
X178604178Y-69218537D01*
X178546640Y-69003804D01*
X178452688Y-68802324D01*
X178325177Y-68620219D01*
X178167981Y-68463023D01*
X177985877Y-68335512D01*
X177871938Y-68282381D01*
X177819763Y-68236625D01*
X177800344Y-68170000D01*
X177819763Y-68103375D01*
X177871939Y-68057618D01*
X177872728Y-68057250D01*
X177985877Y-68004488D01*
X178167981Y-67876977D01*
X178325177Y-67719781D01*
X178452688Y-67537677D01*
X178546640Y-67336196D01*
X178604178Y-67121463D01*
X178623553Y-66900000D01*
X178604178Y-66678537D01*
X178546640Y-66463804D01*
X178452688Y-66262324D01*
X178325177Y-66080219D01*
X178167981Y-65923023D01*
X177985877Y-65795512D01*
X177871938Y-65742381D01*
X177819763Y-65696625D01*
X177800344Y-65630000D01*
X177819763Y-65563375D01*
X177871939Y-65517618D01*
X177985877Y-65464488D01*
X178167981Y-65336977D01*
X178325177Y-65179781D01*
X178452688Y-64997677D01*
X178546640Y-64796196D01*
X178604178Y-64581463D01*
X178623553Y-64360000D01*
X178622887Y-64352393D01*
X178612029Y-64228280D01*
X178604178Y-64138537D01*
X178546640Y-63923804D01*
X178452688Y-63722324D01*
X178325177Y-63540219D01*
X178167981Y-63383023D01*
X177985877Y-63255512D01*
X177871938Y-63202381D01*
X177819763Y-63156625D01*
X177800344Y-63090000D01*
X177819763Y-63023375D01*
X177871939Y-62977618D01*
X177874984Y-62976198D01*
X177985877Y-62924488D01*
X178167981Y-62796977D01*
X178325177Y-62639781D01*
X178452688Y-62457677D01*
X178546640Y-62256196D01*
X178604178Y-62041463D01*
X178623553Y-61820000D01*
X178604178Y-61598537D01*
X178546640Y-61383804D01*
X178452688Y-61182324D01*
X178325177Y-61000219D01*
X178167981Y-60843023D01*
X177985877Y-60715512D01*
X177871938Y-60662381D01*
X177819763Y-60616625D01*
X177800344Y-60550000D01*
X177819763Y-60483375D01*
X177871939Y-60437618D01*
X177985877Y-60384488D01*
X178167981Y-60256977D01*
X178325177Y-60099781D01*
X178452688Y-59917677D01*
X178546640Y-59716196D01*
X178604178Y-59501463D01*
X178623553Y-59280000D01*
X178604178Y-59058537D01*
X178546640Y-58843804D01*
X178452688Y-58642324D01*
X178325177Y-58460219D01*
X178167981Y-58303023D01*
X177985877Y-58175512D01*
X177871938Y-58122381D01*
X177819763Y-58076625D01*
X177800344Y-58010000D01*
X177819763Y-57943375D01*
X177871939Y-57897618D01*
X177985877Y-57844488D01*
X178167981Y-57716977D01*
X178325177Y-57559781D01*
X178452688Y-57377677D01*
X178546640Y-57176196D01*
X178604178Y-56961463D01*
X178623553Y-56740000D01*
X178604178Y-56518537D01*
X178546640Y-56303804D01*
X178452688Y-56102324D01*
X178325177Y-55920219D01*
X178167981Y-55763023D01*
X177985877Y-55635512D01*
X177933234Y-55610964D01*
X177861883Y-55577692D01*
X177809707Y-55531934D01*
X177790288Y-55465309D01*
X177809708Y-55398684D01*
X177861884Y-55352927D01*
X177981612Y-55297097D01*
X178046386Y-55251740D01*
X177082327Y-54287681D01*
X177050233Y-54232093D01*
X177050233Y-54199999D01*
X177701753Y-54199999D01*
X178399940Y-54898186D01*
X178445300Y-54833408D01*
X178538620Y-54633281D01*
X178595775Y-54419978D01*
X178615021Y-54199999D01*
X178595775Y-53980021D01*
X178538621Y-53766720D01*
X178445298Y-53566589D01*
X178399940Y-53501811D01*
X177701753Y-54199998D01*
X177701753Y-54199999D01*
X177050233Y-54199999D01*
X177050233Y-54167906D01*
X177082327Y-54112319D01*
X177348200Y-53846447D01*
X178046387Y-53148258D01*
X177981607Y-53102898D01*
X177851827Y-53042382D01*
X177799651Y-52996625D01*
X177780231Y-52930000D01*
X177799651Y-52863374D01*
X177851827Y-52817618D01*
X177981608Y-52757100D01*
X178046387Y-52711740D01*
X177348200Y-52013553D01*
X176994649Y-51660001D01*
X177701753Y-51660001D01*
X178399940Y-52358186D01*
X178445300Y-52293408D01*
X178538620Y-52093281D01*
X178595775Y-51879978D01*
X178615021Y-51659999D01*
X178595775Y-51440021D01*
X178538621Y-51226720D01*
X178445298Y-51026589D01*
X178399940Y-50961811D01*
X177701753Y-51660000D01*
X177701753Y-51660001D01*
X176994649Y-51660001D01*
X176800161Y-51465513D01*
X176771383Y-51459789D01*
X176731155Y-51432909D01*
X176041801Y-50743553D01*
X176041800Y-50743553D01*
X175343612Y-51441740D01*
X175408392Y-51487100D01*
X175528116Y-51542928D01*
X175580292Y-51588684D01*
X175599712Y-51655309D01*
X175580293Y-51721934D01*
X175528118Y-51767692D01*
X175404121Y-51825513D01*
X175222018Y-51953023D01*
X175064823Y-52110218D01*
X174937312Y-52292323D01*
X174843360Y-52493802D01*
X174785821Y-52708539D01*
X174766446Y-52929999D01*
X174785821Y-53151461D01*
X174796584Y-53191629D01*
X174796584Y-53255816D01*
X174764490Y-53311403D01*
X172495181Y-55580714D01*
X172445818Y-55610964D01*
X172388102Y-55615506D01*
X172334615Y-55593351D01*
X172297015Y-55549328D01*
X172283500Y-55493033D01*
X172283500Y-53473463D01*
X172292939Y-53426010D01*
X172319819Y-53385782D01*
X172923811Y-52781790D01*
X174736001Y-50969599D01*
X174786389Y-50939023D01*
X174845208Y-50935168D01*
X174899162Y-50958907D01*
X174936058Y-51004877D01*
X174944699Y-51023407D01*
X174990058Y-51088187D01*
X175954118Y-50124127D01*
X176009705Y-50092033D01*
X176073893Y-50092033D01*
X176129480Y-50124127D01*
X176589836Y-50584483D01*
X176618614Y-50590208D01*
X176658842Y-50617088D01*
X177348200Y-51306446D01*
X177348201Y-51306446D01*
X178046387Y-50608258D01*
X177981606Y-50562898D01*
X177861883Y-50507071D01*
X177809706Y-50461314D01*
X177790287Y-50394689D01*
X177809707Y-50328064D01*
X177861882Y-50282307D01*
X177985877Y-50224488D01*
X178167981Y-50096977D01*
X178325177Y-49939781D01*
X178452688Y-49757677D01*
X178546640Y-49556196D01*
X178604178Y-49341463D01*
X178623553Y-49120000D01*
X178604178Y-48898537D01*
X178546640Y-48683804D01*
X178452688Y-48482324D01*
X178325177Y-48300219D01*
X178167981Y-48143023D01*
X177985877Y-48015512D01*
X177871938Y-47962381D01*
X177819763Y-47916625D01*
X177800344Y-47850000D01*
X177819763Y-47783375D01*
X177871939Y-47737618D01*
X177873723Y-47736786D01*
X177985877Y-47684488D01*
X178167981Y-47556977D01*
X178325177Y-47399781D01*
X178452688Y-47217677D01*
X178546640Y-47016196D01*
X178604178Y-46801463D01*
X178623553Y-46580000D01*
X178604178Y-46358537D01*
X178546640Y-46143804D01*
X178452688Y-45942324D01*
X178325177Y-45760219D01*
X178167981Y-45603023D01*
X177985877Y-45475512D01*
X177892981Y-45432194D01*
X177784397Y-45381560D01*
X177569660Y-45324021D01*
X177348200Y-45304646D01*
X177126739Y-45324021D01*
X176912002Y-45381560D01*
X176710523Y-45475512D01*
X176528418Y-45603023D01*
X176371226Y-45760215D01*
X176371223Y-45760218D01*
X176371223Y-45760219D01*
X176365621Y-45768220D01*
X176277812Y-45893624D01*
X176233494Y-45932489D01*
X176176237Y-45946500D01*
X175773330Y-45946500D01*
X175752588Y-45944210D01*
X175749788Y-45944298D01*
X175681680Y-45946439D01*
X175677784Y-45946500D01*
X175649841Y-45946500D01*
X175645739Y-45947018D01*
X175634100Y-45947934D01*
X175589807Y-45949326D01*
X175570204Y-45955022D01*
X175551152Y-45958967D01*
X175530896Y-45961526D01*
X175489694Y-45977838D01*
X175478648Y-45981621D01*
X175436099Y-45993983D01*
X175418528Y-46004374D01*
X175401067Y-46012929D01*
X175382080Y-46020447D01*
X175346239Y-46046487D01*
X175336477Y-46052899D01*
X175298336Y-46075455D01*
X175283893Y-46089898D01*
X175269106Y-46102527D01*
X175252589Y-46114528D01*
X175224349Y-46148663D01*
X175216489Y-46157301D01*
X170751180Y-50622610D01*
X170734896Y-50635658D01*
X170686339Y-50687365D01*
X170683633Y-50690158D01*
X170663861Y-50709930D01*
X170661321Y-50713205D01*
X170653752Y-50722066D01*
X170623414Y-50754374D01*
X170613582Y-50772260D01*
X170602901Y-50788520D01*
X170590385Y-50804656D01*
X170572786Y-50845325D01*
X170567648Y-50855814D01*
X170546303Y-50894640D01*
X170541226Y-50914415D01*
X170534925Y-50932820D01*
X170526818Y-50951553D01*
X170519888Y-50995307D01*
X170517520Y-51006743D01*
X170506500Y-51049667D01*
X170506500Y-51070081D01*
X170504973Y-51089480D01*
X170501780Y-51109638D01*
X170505950Y-51153754D01*
X170506500Y-51165423D01*
X170506500Y-76896367D01*
X170504210Y-76917108D01*
X170506439Y-76988017D01*
X170506500Y-76991913D01*
X170506500Y-77019855D01*
X170507018Y-77023956D01*
X170507934Y-77035597D01*
X170509326Y-77079888D01*
X170515022Y-77099492D01*
X170518967Y-77118544D01*
X170521525Y-77138798D01*
X170537838Y-77180001D01*
X170541621Y-77191049D01*
X170553982Y-77233593D01*
X170564374Y-77251166D01*
X170572931Y-77268633D01*
X170580448Y-77287618D01*
X170606491Y-77323463D01*
X170612905Y-77333227D01*
X170635458Y-77371362D01*
X170649890Y-77385794D01*
X170662526Y-77400589D01*
X170674526Y-77417105D01*
X170708667Y-77445349D01*
X170717308Y-77453212D01*
X170750448Y-77486352D01*
X170783828Y-77547194D01*
X170779289Y-77616444D01*
X170738253Y-77672409D01*
X170673574Y-77697561D01*
X170571912Y-77706455D01*
X170350750Y-77765716D01*
X170143252Y-77862473D01*
X169955693Y-77993804D01*
X169793802Y-78155695D01*
X169793799Y-78155698D01*
X169793799Y-78155699D01*
X169784408Y-78169111D01*
X169662471Y-78343254D01*
X169565714Y-78550752D01*
X169506453Y-78771914D01*
X169486498Y-78999999D01*
X169506453Y-79228083D01*
X169517384Y-79268877D01*
X169564931Y-79446325D01*
X169565714Y-79449245D01*
X169662471Y-79656743D01*
X169662473Y-79656745D01*
X169662474Y-79656748D01*
X169793799Y-79844299D01*
X169955697Y-80006197D01*
X170143248Y-80137522D01*
X170350754Y-80234283D01*
X170571910Y-80293542D01*
X170630158Y-80298638D01*
X170742868Y-80308499D01*
X170742870Y-80308499D01*
X171257124Y-80308499D01*
X171257126Y-80308499D01*
X171325507Y-80302516D01*
X171428084Y-80293542D01*
X171503534Y-80273325D01*
X171567720Y-80273325D01*
X171623308Y-80305418D01*
X171655402Y-80361006D01*
X171655402Y-80425193D01*
X171623308Y-80480781D01*
X170611180Y-81492909D01*
X170594896Y-81505957D01*
X170546339Y-81557664D01*
X170543633Y-81560457D01*
X170523861Y-81580229D01*
X170521321Y-81583504D01*
X170513752Y-81592365D01*
X170483414Y-81624673D01*
X170473582Y-81642559D01*
X170462901Y-81658819D01*
X170450385Y-81674955D01*
X170432786Y-81715624D01*
X170427648Y-81726113D01*
X170406303Y-81764939D01*
X170401226Y-81784714D01*
X170394925Y-81803119D01*
X170386818Y-81821852D01*
X170379888Y-81865606D01*
X170377520Y-81877042D01*
X170366500Y-81919966D01*
X170366500Y-81940380D01*
X170364973Y-81959779D01*
X170361780Y-81979937D01*
X170365950Y-82024053D01*
X170366500Y-82035722D01*
X170366500Y-84279378D01*
X170347081Y-84346003D01*
X170294905Y-84391760D01*
X170157594Y-84455789D01*
X170143251Y-84462477D01*
X169997966Y-84564207D01*
X169955696Y-84593805D01*
X169793805Y-84755696D01*
X169662474Y-84943255D01*
X169565717Y-85150753D01*
X169506456Y-85371915D01*
X169486501Y-85600000D01*
X169506456Y-85828084D01*
X169512898Y-85852124D01*
X169564934Y-86046326D01*
X169565717Y-86049246D01*
X169662474Y-86256744D01*
X169662475Y-86256745D01*
X169662477Y-86256749D01*
X169793802Y-86444300D01*
X169955700Y-86606198D01*
X170143251Y-86737523D01*
X170350757Y-86834284D01*
X170571913Y-86893543D01*
X170645717Y-86900000D01*
X170742871Y-86908500D01*
X170742873Y-86908500D01*
X171257127Y-86908500D01*
X171257129Y-86908500D01*
X171325511Y-86902517D01*
X171428087Y-86893543D01*
X171649243Y-86834284D01*
X171856749Y-86737523D01*
X172044300Y-86606198D01*
X172206198Y-86444300D01*
X172337523Y-86256749D01*
X172387618Y-86149318D01*
X172433375Y-86097143D01*
X172500000Y-86077723D01*
X172566625Y-86097143D01*
X172612381Y-86149318D01*
X172662477Y-86256749D01*
X172793802Y-86444300D01*
X172955700Y-86606198D01*
X173143251Y-86737523D01*
X173350757Y-86834284D01*
X173571913Y-86893543D01*
X173645717Y-86900000D01*
X173742871Y-86908500D01*
X173742873Y-86908500D01*
X174257127Y-86908500D01*
X174257129Y-86908500D01*
X174325511Y-86902517D01*
X174428087Y-86893543D01*
X174649243Y-86834284D01*
X174856749Y-86737523D01*
X175044300Y-86606198D01*
X175206198Y-86444300D01*
X175337523Y-86256749D01*
X175434284Y-86049243D01*
X175493543Y-85828087D01*
X175513498Y-85600000D01*
X175493543Y-85371913D01*
X175434284Y-85150757D01*
X175337523Y-84943251D01*
X175206198Y-84755700D01*
X175044300Y-84593802D01*
X174856749Y-84462477D01*
X174705095Y-84391760D01*
X174652919Y-84346003D01*
X174633500Y-84279378D01*
X174633500Y-81003767D01*
X174642939Y-80956315D01*
X174669817Y-80916087D01*
X174683379Y-80902525D01*
X174739325Y-80846577D01*
X174792402Y-80815185D01*
X174810330Y-80809976D01*
X174829371Y-80806032D01*
X174849637Y-80803473D01*
X174873388Y-80794068D01*
X174932551Y-80786100D01*
X174988584Y-80806701D01*
X175028495Y-80851099D01*
X175043034Y-80909001D01*
X175028832Y-80966987D01*
X174977882Y-81064063D01*
X174960068Y-81136341D01*
X174939497Y-81219800D01*
X174939497Y-81380198D01*
X174956515Y-81449243D01*
X174977883Y-81535937D01*
X175052424Y-81677961D01*
X175158786Y-81798020D01*
X175248526Y-81859963D01*
X175290793Y-81889138D01*
X175440768Y-81946016D01*
X175560046Y-81960499D01*
X175639947Y-81960499D01*
X175639948Y-81960499D01*
X175759226Y-81946016D01*
X175878530Y-81900769D01*
X175937446Y-81893616D01*
X175992940Y-81914662D01*
X176032297Y-81959086D01*
X176046500Y-82016712D01*
X176046500Y-82583285D01*
X176032297Y-82640911D01*
X175992940Y-82685335D01*
X175937447Y-82706381D01*
X175878529Y-82699227D01*
X175759229Y-82653983D01*
X175702468Y-82647091D01*
X175639951Y-82639500D01*
X175560049Y-82639500D01*
X175500410Y-82646741D01*
X175440770Y-82653983D01*
X175290796Y-82710860D01*
X175158789Y-82801978D01*
X175052427Y-82922037D01*
X174977886Y-83064061D01*
X174964854Y-83116934D01*
X174939500Y-83219801D01*
X174939500Y-83380199D01*
X174943787Y-83397592D01*
X174977886Y-83535938D01*
X175052427Y-83677962D01*
X175158789Y-83798021D01*
X175202346Y-83828086D01*
X175290796Y-83889139D01*
X175440771Y-83946017D01*
X175560049Y-83960500D01*
X175639950Y-83960500D01*
X175639951Y-83960500D01*
X175759229Y-83946017D01*
X175838231Y-83916055D01*
X175878529Y-83900773D01*
X175937447Y-83893619D01*
X175992940Y-83914665D01*
X176032297Y-83959089D01*
X176046500Y-84016715D01*
X176046500Y-87426234D01*
X176037061Y-87473687D01*
X176010181Y-87513915D01*
X175366394Y-88157700D01*
X175306662Y-88190828D01*
X175238450Y-88187300D01*
X175216953Y-88179919D01*
X174986712Y-88141500D01*
X174753288Y-88141500D01*
X174523046Y-88179919D01*
X174302274Y-88255712D01*
X174090062Y-88370554D01*
X174035784Y-88385408D01*
X173980531Y-88374744D01*
X173935681Y-88340756D01*
X173910472Y-88290448D01*
X173856805Y-88066908D01*
X173853575Y-88059111D01*
X173821669Y-87982082D01*
X173762927Y-87840268D01*
X173634752Y-87631104D01*
X173475433Y-87444567D01*
X173288896Y-87285248D01*
X173079732Y-87157073D01*
X172979227Y-87115442D01*
X172853092Y-87063194D01*
X172614558Y-87005928D01*
X172370000Y-86986681D01*
X172125441Y-87005928D01*
X171886907Y-87063194D01*
X171660268Y-87157073D01*
X171451103Y-87285248D01*
X171264567Y-87444567D01*
X171105248Y-87631103D01*
X170977073Y-87840268D01*
X170883194Y-88066907D01*
X170825928Y-88305441D01*
X170806681Y-88550000D01*
X170825928Y-88794558D01*
X170883194Y-89033092D01*
X170946649Y-89186282D01*
X170977073Y-89259732D01*
X171105248Y-89468896D01*
X171264567Y-89655433D01*
X171451104Y-89814752D01*
X171660268Y-89942927D01*
X171802841Y-90001983D01*
X171886907Y-90036805D01*
X171962265Y-90054896D01*
X172125443Y-90094072D01*
X172370000Y-90113319D01*
X172614557Y-90094072D01*
X172853092Y-90036805D01*
X173079732Y-89942927D01*
X173288896Y-89814752D01*
X173297628Y-89807294D01*
X173353588Y-89780043D01*
X173415743Y-89783417D01*
X173468427Y-89816569D01*
X173498364Y-89871143D01*
X173502663Y-89888118D01*
X173533251Y-90008908D01*
X173627016Y-90222669D01*
X173754684Y-90418081D01*
X173832166Y-90502248D01*
X173912780Y-90589818D01*
X174096983Y-90733190D01*
X174302273Y-90844287D01*
X174357466Y-90863235D01*
X174523046Y-90920080D01*
X174753288Y-90958500D01*
X174986712Y-90958500D01*
X175216953Y-90920080D01*
X175336647Y-90878988D01*
X175437727Y-90844287D01*
X175643017Y-90733190D01*
X175827220Y-90589818D01*
X175985314Y-90418083D01*
X176112984Y-90222669D01*
X176206749Y-90008907D01*
X176264051Y-89782626D01*
X176283327Y-89550000D01*
X176264051Y-89317374D01*
X176227694Y-89173804D01*
X176228349Y-89110447D01*
X176260219Y-89055684D01*
X176434819Y-88881085D01*
X176484182Y-88850835D01*
X176541898Y-88846293D01*
X176595385Y-88868448D01*
X176632985Y-88912471D01*
X176646500Y-88968766D01*
X176646500Y-103406367D01*
X176644210Y-103427108D01*
X176646439Y-103498017D01*
X176646500Y-103501913D01*
X176646500Y-103529855D01*
X176647018Y-103533956D01*
X176647934Y-103545597D01*
X176649326Y-103589888D01*
X176655022Y-103609492D01*
X176658967Y-103628544D01*
X176661525Y-103648798D01*
X176677838Y-103690001D01*
X176681621Y-103701049D01*
X176693982Y-103743593D01*
X176704374Y-103761166D01*
X176712931Y-103778633D01*
X176720448Y-103797618D01*
X176746491Y-103833463D01*
X176752905Y-103843227D01*
X176775458Y-103881362D01*
X176789890Y-103895794D01*
X176802526Y-103910589D01*
X176814526Y-103927105D01*
X176848667Y-103955349D01*
X176857308Y-103963212D01*
X181646991Y-108752895D01*
X181678425Y-108806113D01*
X181680263Y-108867895D01*
X181652050Y-108922888D01*
X181600795Y-108957431D01*
X181477157Y-109001323D01*
X181426579Y-109035265D01*
X181262972Y-109172546D01*
X181208341Y-109198994D01*
X181147703Y-109196347D01*
X181095586Y-109165237D01*
X171604819Y-99674469D01*
X171577939Y-99634241D01*
X171568500Y-99586788D01*
X171568500Y-97090495D01*
X171583142Y-97032042D01*
X171623609Y-96987393D01*
X171680346Y-96967092D01*
X171739953Y-96975934D01*
X171886907Y-97036805D01*
X171949846Y-97051915D01*
X172125443Y-97094072D01*
X172370000Y-97113319D01*
X172614557Y-97094072D01*
X172853092Y-97036805D01*
X173079732Y-96942927D01*
X173288896Y-96814752D01*
X173475433Y-96655433D01*
X173634752Y-96468896D01*
X173762927Y-96259732D01*
X173856805Y-96033092D01*
X173912549Y-95800899D01*
X173941127Y-95746704D01*
X173992165Y-95712807D01*
X174053203Y-95707484D01*
X174091054Y-95724037D01*
X174092612Y-95721159D01*
X174305703Y-95836478D01*
X174525140Y-95911811D01*
X174753993Y-95950000D01*
X174986007Y-95950000D01*
X175214859Y-95911811D01*
X175434296Y-95836478D01*
X175638353Y-95726048D01*
X175668798Y-95702351D01*
X174516448Y-94550001D01*
X175223553Y-94550001D01*
X176021186Y-95347634D01*
X176105483Y-95218607D01*
X176198680Y-95006138D01*
X176255638Y-94781217D01*
X176274798Y-94550000D01*
X176255638Y-94318782D01*
X176198680Y-94093860D01*
X176105484Y-93881392D01*
X176021186Y-93752364D01*
X175223553Y-94550000D01*
X175223553Y-94550001D01*
X174516448Y-94550001D01*
X173718812Y-93752365D01*
X173634516Y-93881390D01*
X173541317Y-94093865D01*
X173505573Y-94235013D01*
X173475637Y-94289587D01*
X173422954Y-94322738D01*
X173360800Y-94326114D01*
X173304837Y-94298863D01*
X173288896Y-94285248D01*
X173206919Y-94235013D01*
X173079732Y-94157073D01*
X173000047Y-94124066D01*
X172853092Y-94063194D01*
X172614558Y-94005928D01*
X172370000Y-93986681D01*
X172125441Y-94005928D01*
X171886907Y-94063194D01*
X171739953Y-94124066D01*
X171680346Y-94132908D01*
X171623609Y-94112607D01*
X171583142Y-94067958D01*
X171568500Y-94009505D01*
X171568500Y-93397647D01*
X174071200Y-93397647D01*
X174870000Y-94196447D01*
X174870001Y-94196447D01*
X175668799Y-93397648D01*
X175668799Y-93397647D01*
X175638349Y-93373948D01*
X175434299Y-93263522D01*
X175214859Y-93188188D01*
X174986007Y-93150000D01*
X174753993Y-93150000D01*
X174525140Y-93188188D01*
X174305703Y-93263521D01*
X174101645Y-93373952D01*
X174071200Y-93397646D01*
X174071200Y-93397647D01*
X171568500Y-93397647D01*
X171568500Y-93198633D01*
X171570789Y-93177891D01*
X171570701Y-93175094D01*
X171570702Y-93175091D01*
X171568560Y-93106982D01*
X171568500Y-93103087D01*
X171568500Y-93075146D01*
X171568500Y-93075144D01*
X171567981Y-93071041D01*
X171567064Y-93059390D01*
X171566560Y-93043352D01*
X171565673Y-93015110D01*
X171559978Y-92995511D01*
X171556033Y-92976462D01*
X171553474Y-92956203D01*
X171537162Y-92915004D01*
X171533377Y-92903950D01*
X171521018Y-92861407D01*
X171517876Y-92856095D01*
X171510624Y-92843831D01*
X171502064Y-92826357D01*
X171494552Y-92807384D01*
X171494552Y-92807383D01*
X171468510Y-92771540D01*
X171462095Y-92761773D01*
X171439544Y-92723639D01*
X171435904Y-92719999D01*
X171425101Y-92709196D01*
X171412469Y-92694405D01*
X171400474Y-92677895D01*
X171400472Y-92677893D01*
X171366324Y-92649643D01*
X171357696Y-92641791D01*
X167216620Y-88500715D01*
X167192380Y-88466417D01*
X167180981Y-88426000D01*
X167163542Y-88260072D01*
X167115897Y-88113436D01*
X167104527Y-88078443D01*
X167009042Y-87913058D01*
X166943501Y-87840268D01*
X166881253Y-87771134D01*
X166774807Y-87693796D01*
X166726751Y-87658881D01*
X166552285Y-87581204D01*
X166365489Y-87541500D01*
X166365487Y-87541500D01*
X166174513Y-87541500D01*
X166174511Y-87541500D01*
X165987714Y-87581204D01*
X165813245Y-87658882D01*
X165810385Y-87660961D01*
X165747229Y-87684261D01*
X165681205Y-87671128D01*
X165631773Y-87625433D01*
X165613500Y-87560643D01*
X165613500Y-86551340D01*
X165627015Y-86495045D01*
X165664615Y-86451022D01*
X165718102Y-86428867D01*
X165775818Y-86433409D01*
X165825181Y-86463659D01*
X165961180Y-86599658D01*
X166147519Y-86730134D01*
X166353673Y-86826266D01*
X166573397Y-86885141D01*
X166743235Y-86900000D01*
X166750000Y-86900000D01*
X166750000Y-85850000D01*
X167250000Y-85850000D01*
X167250000Y-86900000D01*
X167256765Y-86900000D01*
X167426602Y-86885141D01*
X167646326Y-86826266D01*
X167852480Y-86730134D01*
X168038819Y-86599658D01*
X168199658Y-86438819D01*
X168330134Y-86252480D01*
X168426266Y-86046326D01*
X168478872Y-85850000D01*
X167250000Y-85850000D01*
X166750000Y-85850000D01*
X166750000Y-85474000D01*
X166766613Y-85412000D01*
X166812000Y-85366613D01*
X166874000Y-85350000D01*
X168478872Y-85350000D01*
X168478871Y-85349999D01*
X168426266Y-85153673D01*
X168330134Y-84947519D01*
X168199658Y-84761180D01*
X168038819Y-84600341D01*
X167852480Y-84469865D01*
X167646326Y-84373733D01*
X167426602Y-84314858D01*
X167395310Y-84312120D01*
X167339493Y-84293172D01*
X167298731Y-84250591D01*
X167282237Y-84194000D01*
X167293736Y-84136191D01*
X167334281Y-84049242D01*
X167393540Y-83828086D01*
X167413495Y-83599999D01*
X167394265Y-83380199D01*
X167939500Y-83380199D01*
X167943787Y-83397592D01*
X167977886Y-83535938D01*
X168052427Y-83677962D01*
X168158789Y-83798021D01*
X168202346Y-83828086D01*
X168290796Y-83889139D01*
X168440771Y-83946017D01*
X168560049Y-83960500D01*
X168639950Y-83960500D01*
X168639951Y-83960500D01*
X168759229Y-83946017D01*
X168909204Y-83889139D01*
X169041209Y-83798022D01*
X169041214Y-83798017D01*
X169075449Y-83759373D01*
X169147573Y-83677962D01*
X169222114Y-83535937D01*
X169260500Y-83380199D01*
X169260500Y-83219801D01*
X169222114Y-83064063D01*
X169147573Y-82922038D01*
X169135146Y-82908011D01*
X169041210Y-82801978D01*
X168909203Y-82710860D01*
X168759229Y-82653983D01*
X168702468Y-82647091D01*
X168639951Y-82639500D01*
X168560049Y-82639500D01*
X168500410Y-82646741D01*
X168440770Y-82653983D01*
X168290796Y-82710860D01*
X168158789Y-82801978D01*
X168052427Y-82922037D01*
X167977886Y-83064061D01*
X167964854Y-83116934D01*
X167939500Y-83219801D01*
X167939500Y-83380199D01*
X167394265Y-83380199D01*
X167393540Y-83371912D01*
X167334281Y-83150756D01*
X167245410Y-82960170D01*
X167237522Y-82943254D01*
X167237521Y-82943253D01*
X167237520Y-82943250D01*
X167106195Y-82755699D01*
X166944297Y-82593801D01*
X166756746Y-82462476D01*
X166756743Y-82462475D01*
X166756741Y-82462473D01*
X166649319Y-82412382D01*
X166597142Y-82366625D01*
X166577723Y-82300000D01*
X166597143Y-82233375D01*
X166649319Y-82187618D01*
X166756749Y-82137523D01*
X166944300Y-82006198D01*
X167106198Y-81844300D01*
X167237523Y-81656749D01*
X167334284Y-81449243D01*
X167352785Y-81380198D01*
X167939497Y-81380198D01*
X167956515Y-81449243D01*
X167977883Y-81535937D01*
X168052424Y-81677961D01*
X168158786Y-81798020D01*
X168248526Y-81859963D01*
X168290793Y-81889138D01*
X168440768Y-81946016D01*
X168560046Y-81960499D01*
X168639947Y-81960499D01*
X168639948Y-81960499D01*
X168759226Y-81946016D01*
X168909201Y-81889138D01*
X169041206Y-81798021D01*
X169147570Y-81677961D01*
X169222111Y-81535936D01*
X169260497Y-81380198D01*
X169260497Y-81219800D01*
X169222111Y-81064062D01*
X169147570Y-80922037D01*
X169125206Y-80896793D01*
X169041207Y-80801977D01*
X168909200Y-80710859D01*
X168759226Y-80653982D01*
X168706723Y-80647607D01*
X168639948Y-80639499D01*
X168560046Y-80639499D01*
X168502388Y-80646500D01*
X168440767Y-80653982D01*
X168290793Y-80710859D01*
X168158786Y-80801977D01*
X168052424Y-80922036D01*
X167977883Y-81064060D01*
X167960068Y-81136341D01*
X167939497Y-81219800D01*
X167939497Y-81380198D01*
X167352785Y-81380198D01*
X167393543Y-81228087D01*
X167413498Y-81000000D01*
X167393543Y-80771913D01*
X167334284Y-80550757D01*
X167313863Y-80506964D01*
X167293740Y-80463809D01*
X167282240Y-80405995D01*
X167298736Y-80349404D01*
X167339498Y-80306823D01*
X167395317Y-80287877D01*
X167426599Y-80285140D01*
X167646323Y-80226265D01*
X167852477Y-80130133D01*
X168038816Y-79999657D01*
X168199655Y-79838818D01*
X168330131Y-79652479D01*
X168426263Y-79446325D01*
X168478869Y-79249999D01*
X166873997Y-79249999D01*
X166811997Y-79233386D01*
X166766610Y-79187999D01*
X166749997Y-79125999D01*
X166749997Y-77699999D01*
X167249997Y-77699999D01*
X167249997Y-78749999D01*
X168478869Y-78749999D01*
X168478868Y-78749998D01*
X168426263Y-78553672D01*
X168330131Y-78347518D01*
X168199655Y-78161179D01*
X168038816Y-78000340D01*
X167852477Y-77869864D01*
X167646323Y-77773732D01*
X167426599Y-77714857D01*
X167256762Y-77699999D01*
X167249997Y-77699999D01*
X166749997Y-77699999D01*
X166743232Y-77699999D01*
X166573394Y-77714857D01*
X166353670Y-77773732D01*
X166147516Y-77869864D01*
X165961177Y-78000340D01*
X165800338Y-78161179D01*
X165714075Y-78284376D01*
X165666858Y-78324703D01*
X165606010Y-78337082D01*
X165546790Y-78318410D01*
X165504047Y-78273368D01*
X165488500Y-78213252D01*
X165488500Y-56866095D01*
X165489809Y-56848125D01*
X165490977Y-56840148D01*
X165493341Y-56824011D01*
X165488971Y-56774073D01*
X165488500Y-56763267D01*
X165488500Y-56757624D01*
X165488035Y-56753644D01*
X165484851Y-56726408D01*
X165484499Y-56722961D01*
X165477887Y-56647374D01*
X165477785Y-56646207D01*
X165473481Y-56626794D01*
X165473079Y-56625690D01*
X165473079Y-56625687D01*
X165447120Y-56554366D01*
X165445981Y-56551090D01*
X165422114Y-56479062D01*
X165422113Y-56479061D01*
X165421742Y-56477940D01*
X165413078Y-56460045D01*
X165370754Y-56395695D01*
X165368815Y-56392652D01*
X165328412Y-56327147D01*
X165315849Y-56311725D01*
X165259826Y-56258871D01*
X165257238Y-56256357D01*
X163428134Y-54427253D01*
X163399293Y-54381982D01*
X163392287Y-54328766D01*
X163403553Y-54200000D01*
X163399296Y-54151346D01*
X163386581Y-54006004D01*
X163395687Y-53947411D01*
X163430958Y-53899745D01*
X163484329Y-53873907D01*
X163589535Y-53851545D01*
X163589536Y-53851544D01*
X163589538Y-53851544D01*
X163764002Y-53773868D01*
X163918503Y-53661616D01*
X164046290Y-53519694D01*
X164054000Y-53506341D01*
X164141777Y-53354306D01*
X164148284Y-53334280D01*
X164200792Y-53172678D01*
X164220754Y-52982750D01*
X164200792Y-52792822D01*
X164157274Y-52658888D01*
X164141777Y-52611193D01*
X164046292Y-52445808D01*
X164026692Y-52424041D01*
X163918503Y-52303884D01*
X163781412Y-52204281D01*
X163764001Y-52191631D01*
X163589535Y-52113954D01*
X163464118Y-52087296D01*
X163405331Y-52056693D01*
X163370702Y-52000184D01*
X163370124Y-51933912D01*
X163370600Y-51932137D01*
X163384178Y-51881463D01*
X163403553Y-51660000D01*
X163384178Y-51438537D01*
X163326640Y-51223804D01*
X163232688Y-51022324D01*
X163105177Y-50840219D01*
X162947981Y-50683023D01*
X162765877Y-50555512D01*
X162681062Y-50515962D01*
X162641883Y-50497692D01*
X162589707Y-50451934D01*
X162570288Y-50385309D01*
X162589708Y-50318684D01*
X162641884Y-50272927D01*
X162761612Y-50217097D01*
X162826386Y-50171740D01*
X161862327Y-49207681D01*
X161830233Y-49152093D01*
X161830233Y-49120001D01*
X162481753Y-49120001D01*
X163179940Y-49818186D01*
X163225300Y-49753408D01*
X163318620Y-49553281D01*
X163375775Y-49339978D01*
X163395021Y-49120000D01*
X163375775Y-48900021D01*
X163318621Y-48686720D01*
X163225298Y-48486589D01*
X163179940Y-48421811D01*
X162481753Y-49120000D01*
X162481753Y-49120001D01*
X161830233Y-49120001D01*
X161830233Y-49087906D01*
X161862327Y-49032319D01*
X162128200Y-48766447D01*
X162826387Y-48068258D01*
X162761606Y-48022898D01*
X162641883Y-47967071D01*
X162589706Y-47921314D01*
X162570287Y-47854689D01*
X162589707Y-47788064D01*
X162641882Y-47742307D01*
X162765877Y-47684488D01*
X162947981Y-47556977D01*
X163105177Y-47399781D01*
X163232688Y-47217677D01*
X163326640Y-47016196D01*
X163384178Y-46801463D01*
X163403553Y-46580000D01*
X163384178Y-46358537D01*
X163326640Y-46143804D01*
X163232688Y-45942324D01*
X163105177Y-45760219D01*
X162947981Y-45603023D01*
X162765877Y-45475512D01*
X162672981Y-45432194D01*
X162564397Y-45381560D01*
X162349660Y-45324021D01*
X162128200Y-45304646D01*
X161906739Y-45324021D01*
X161692002Y-45381560D01*
X161490523Y-45475512D01*
X161308418Y-45603023D01*
X161151223Y-45760218D01*
X161023712Y-45942323D01*
X160929760Y-46143802D01*
X160872221Y-46358539D01*
X160862780Y-46466451D01*
X160844790Y-46520741D01*
X160804349Y-46561182D01*
X160750060Y-46579172D01*
X160580339Y-46594021D01*
X160365602Y-46651560D01*
X160164123Y-46745512D01*
X159982018Y-46873023D01*
X159824823Y-47030218D01*
X159697312Y-47212323D01*
X159603360Y-47413802D01*
X159545821Y-47628539D01*
X159526446Y-47849999D01*
X159545821Y-48071460D01*
X159603360Y-48286197D01*
X159640180Y-48365157D01*
X159697312Y-48487677D01*
X159824823Y-48669781D01*
X159982019Y-48826977D01*
X160164123Y-48954488D01*
X160232492Y-48986369D01*
X160278060Y-49007618D01*
X160330236Y-49053375D01*
X160349655Y-49120000D01*
X160330236Y-49186625D01*
X160278060Y-49232382D01*
X160164123Y-49285512D01*
X159982018Y-49413023D01*
X159824823Y-49570218D01*
X159697312Y-49752323D01*
X159603360Y-49953802D01*
X159545821Y-50168539D01*
X159526446Y-50389999D01*
X159545821Y-50611460D01*
X159603360Y-50826197D01*
X159641511Y-50908011D01*
X159697312Y-51027677D01*
X159824823Y-51209781D01*
X159982019Y-51366977D01*
X160164123Y-51494488D01*
X160266532Y-51542242D01*
X160288116Y-51552307D01*
X160340292Y-51598064D01*
X160359711Y-51664689D01*
X160340292Y-51731314D01*
X160288116Y-51777071D01*
X160168389Y-51832900D01*
X160103611Y-51878258D01*
X161067672Y-52842319D01*
X161099766Y-52897906D01*
X161099766Y-52962094D01*
X161067672Y-53017681D01*
X160103612Y-53981740D01*
X160168392Y-54027100D01*
X160298172Y-54087617D01*
X160350348Y-54133373D01*
X160369768Y-54199998D01*
X160350349Y-54266624D01*
X160298173Y-54312381D01*
X160168389Y-54372900D01*
X160103611Y-54418258D01*
X161067672Y-55382319D01*
X161099766Y-55437906D01*
X161099766Y-55502094D01*
X161067672Y-55557681D01*
X160103612Y-56521740D01*
X160168392Y-56567100D01*
X160288116Y-56622928D01*
X160340292Y-56668684D01*
X160359712Y-56735309D01*
X160340293Y-56801934D01*
X160288118Y-56847692D01*
X160164121Y-56905513D01*
X159982018Y-57033023D01*
X159824823Y-57190218D01*
X159697312Y-57372323D01*
X159603360Y-57573802D01*
X159545821Y-57788539D01*
X159526446Y-58009999D01*
X159545821Y-58231460D01*
X159603360Y-58446197D01*
X159637150Y-58518660D01*
X159697312Y-58647677D01*
X159824823Y-58829781D01*
X159982019Y-58986977D01*
X160164123Y-59114488D01*
X160245093Y-59152245D01*
X160278060Y-59167618D01*
X160330236Y-59213375D01*
X160349655Y-59280000D01*
X160330236Y-59346625D01*
X160278060Y-59392382D01*
X160164123Y-59445512D01*
X159982018Y-59573023D01*
X159824823Y-59730218D01*
X159697312Y-59912323D01*
X159603360Y-60113802D01*
X159545821Y-60328539D01*
X159526446Y-60550000D01*
X159545821Y-60771460D01*
X159603360Y-60986197D01*
X159641171Y-61067283D01*
X159697312Y-61187677D01*
X159824823Y-61369781D01*
X159982019Y-61526977D01*
X160164123Y-61654488D01*
X160245093Y-61692245D01*
X160278060Y-61707618D01*
X160330236Y-61753375D01*
X160349655Y-61820000D01*
X160330236Y-61886625D01*
X160278060Y-61932382D01*
X160164123Y-61985512D01*
X159982018Y-62113023D01*
X159824823Y-62270218D01*
X159697312Y-62452323D01*
X159603360Y-62653802D01*
X159545821Y-62868539D01*
X159526446Y-63090000D01*
X159545821Y-63311460D01*
X159603360Y-63526197D01*
X159632586Y-63588871D01*
X159697312Y-63727677D01*
X159824823Y-63909781D01*
X159982019Y-64066977D01*
X160164123Y-64194488D01*
X160236590Y-64228280D01*
X160278060Y-64247618D01*
X160330236Y-64293375D01*
X160349655Y-64360000D01*
X160330236Y-64426625D01*
X160278060Y-64472382D01*
X160164123Y-64525512D01*
X159982018Y-64653023D01*
X159824823Y-64810218D01*
X159697312Y-64992323D01*
X159603360Y-65193802D01*
X159545821Y-65408539D01*
X159526446Y-65630000D01*
X159532107Y-65694707D01*
X159522721Y-65753964D01*
X159486614Y-65801879D01*
X159432239Y-65827235D01*
X159372325Y-65824095D01*
X159320898Y-65793194D01*
X156797204Y-63269500D01*
X154024819Y-60497114D01*
X153997939Y-60456886D01*
X153988500Y-60409433D01*
X153988500Y-55470000D01*
X159534978Y-55470000D01*
X159554224Y-55689978D01*
X159611379Y-55903281D01*
X159704698Y-56103406D01*
X159750058Y-56168187D01*
X160448246Y-55470001D01*
X160448246Y-55470000D01*
X159750058Y-54771811D01*
X159750058Y-54771812D01*
X159704700Y-54836589D01*
X159611378Y-55036719D01*
X159554224Y-55250021D01*
X159534978Y-55470000D01*
X153988500Y-55470000D01*
X153988500Y-53058633D01*
X153990789Y-53037891D01*
X153990701Y-53035094D01*
X153990702Y-53035091D01*
X153988560Y-52966982D01*
X153988500Y-52963087D01*
X153988500Y-52935146D01*
X153987982Y-52931049D01*
X153987899Y-52929999D01*
X159534978Y-52929999D01*
X159554224Y-53149978D01*
X159611379Y-53363281D01*
X159704698Y-53563406D01*
X159750058Y-53628187D01*
X160448246Y-52930000D01*
X160448246Y-52929998D01*
X159750058Y-52231812D01*
X159704700Y-52296589D01*
X159611378Y-52496719D01*
X159554224Y-52710021D01*
X159534978Y-52929999D01*
X153987899Y-52929999D01*
X153987064Y-52919390D01*
X153986389Y-52897906D01*
X153985673Y-52875111D01*
X153979978Y-52855512D01*
X153976033Y-52836464D01*
X153973474Y-52816203D01*
X153957164Y-52775009D01*
X153953380Y-52763956D01*
X153941626Y-52723500D01*
X153941018Y-52721407D01*
X153930622Y-52703829D01*
X153922069Y-52686371D01*
X153914552Y-52667383D01*
X153888503Y-52631530D01*
X153882099Y-52621780D01*
X153859542Y-52583638D01*
X153845107Y-52569203D01*
X153832469Y-52554406D01*
X153811264Y-52525219D01*
X153811550Y-52525011D01*
X153790302Y-52497618D01*
X153778500Y-52444821D01*
X153778500Y-51241366D01*
X153777559Y-51232609D01*
X153771989Y-51180799D01*
X153771988Y-51180797D01*
X153771988Y-51180794D01*
X153720889Y-51043796D01*
X153633261Y-50926738D01*
X153521129Y-50842798D01*
X153481451Y-50792343D01*
X153472316Y-50728809D01*
X153496171Y-50669222D01*
X153520889Y-50636204D01*
X153533885Y-50601362D01*
X153571988Y-50499205D01*
X153571988Y-50499203D01*
X153571989Y-50499201D01*
X153578500Y-50438638D01*
X153578500Y-48741362D01*
X153571989Y-48680799D01*
X153571988Y-48680797D01*
X153571988Y-48680794D01*
X153520889Y-48543796D01*
X153433261Y-48426738D01*
X153316203Y-48339110D01*
X153227917Y-48306180D01*
X153178707Y-48272530D01*
X153150888Y-48219805D01*
X153150888Y-48160191D01*
X153178709Y-48107466D01*
X153227915Y-48073819D01*
X153316204Y-48040889D01*
X153433261Y-47953261D01*
X153520889Y-47836204D01*
X153557660Y-47737618D01*
X153571988Y-47699205D01*
X153571988Y-47699203D01*
X153571989Y-47699201D01*
X153578500Y-47638638D01*
X153578500Y-45941362D01*
X153571989Y-45880799D01*
X153571988Y-45880797D01*
X153571988Y-45880794D01*
X153520889Y-45743796D01*
X153433261Y-45626738D01*
X153316203Y-45539110D01*
X153309648Y-45536665D01*
X153255818Y-45497520D01*
X153229983Y-45436180D01*
X153239587Y-45370318D01*
X153281861Y-45318911D01*
X153314300Y-45296198D01*
X153476198Y-45134300D01*
X153607523Y-44946749D01*
X153704284Y-44739243D01*
X153763543Y-44518087D01*
X153783498Y-44290000D01*
X153763543Y-44061913D01*
X153704284Y-43840757D01*
X153619682Y-43659326D01*
X153607525Y-43633255D01*
X153607524Y-43633254D01*
X153607523Y-43633251D01*
X153476198Y-43445700D01*
X153314300Y-43283802D01*
X153126749Y-43152477D01*
X153126746Y-43152476D01*
X153126744Y-43152474D01*
X152919246Y-43055717D01*
X152919243Y-43055716D01*
X152745040Y-43009038D01*
X152698084Y-42996456D01*
X152470000Y-42976501D01*
X152241915Y-42996456D01*
X152020753Y-43055717D01*
X151813255Y-43152474D01*
X151730386Y-43210500D01*
X151638324Y-43274963D01*
X151625696Y-43283805D01*
X151463801Y-43445700D01*
X151353221Y-43603624D01*
X151308904Y-43642490D01*
X151251647Y-43656500D01*
X150713633Y-43656500D01*
X150692890Y-43654210D01*
X150621969Y-43656439D01*
X150618074Y-43656500D01*
X150590141Y-43656500D01*
X150586037Y-43657018D01*
X150574405Y-43657933D01*
X150530110Y-43659325D01*
X150510501Y-43665022D01*
X150491461Y-43668965D01*
X150471205Y-43671525D01*
X150430005Y-43687836D01*
X150418961Y-43691617D01*
X150376410Y-43703981D01*
X150376407Y-43703982D01*
X150358827Y-43714377D01*
X150341370Y-43722930D01*
X150322378Y-43730449D01*
X150286534Y-43756491D01*
X150276777Y-43762901D01*
X150238638Y-43785457D01*
X150224200Y-43799895D01*
X150209411Y-43812525D01*
X150192894Y-43824525D01*
X150164644Y-43858673D01*
X150156783Y-43867311D01*
X148795181Y-45228914D01*
X148745818Y-45259164D01*
X148688102Y-45263706D01*
X148634615Y-45241551D01*
X148597015Y-45197528D01*
X148583500Y-45141233D01*
X148583500Y-43974969D01*
X148597402Y-43917921D01*
X148635992Y-43873665D01*
X148690615Y-43852124D01*
X148773345Y-43840753D01*
X148929989Y-43819223D01*
X149207744Y-43741400D01*
X149472314Y-43626481D01*
X149718772Y-43476606D01*
X149942526Y-43294568D01*
X150139409Y-43083758D01*
X150305753Y-42848103D01*
X150438459Y-42591992D01*
X150535055Y-42320196D01*
X150593742Y-42037778D01*
X150613427Y-41750000D01*
X150593742Y-41462222D01*
X150569506Y-41345594D01*
X150535055Y-41179804D01*
X150471387Y-41000659D01*
X150438459Y-40908008D01*
X150360484Y-40757523D01*
X150305753Y-40651896D01*
X150155480Y-40439009D01*
X150133073Y-40375962D01*
X150146686Y-40310452D01*
X150192356Y-40261552D01*
X150256784Y-40243500D01*
X150902691Y-40243500D01*
X150953127Y-40254221D01*
X150994841Y-40284528D01*
X150998747Y-40288866D01*
X151081879Y-40349265D01*
X151153248Y-40401118D01*
X151327714Y-40478795D01*
X151514511Y-40518500D01*
X151514513Y-40518500D01*
X151705487Y-40518500D01*
X151705489Y-40518500D01*
X151892285Y-40478795D01*
X151892286Y-40478794D01*
X151892288Y-40478794D01*
X152066752Y-40401118D01*
X152221253Y-40288866D01*
X152349040Y-40146944D01*
X152377605Y-40097469D01*
X152444527Y-39981556D01*
X152453310Y-39954525D01*
X152503542Y-39799928D01*
X152523504Y-39610000D01*
X152503542Y-39420072D01*
X152456914Y-39276567D01*
X152444527Y-39238443D01*
X152349042Y-39073058D01*
X152318682Y-39039340D01*
X152221253Y-38931134D01*
X152110151Y-38850413D01*
X152066751Y-38818881D01*
X151892285Y-38741204D01*
X151705489Y-38701500D01*
X151705487Y-38701500D01*
X151514513Y-38701500D01*
X151514511Y-38701500D01*
X151327714Y-38741204D01*
X151153248Y-38818881D01*
X150998746Y-38931134D01*
X150994842Y-38935471D01*
X150953127Y-38965779D01*
X150902691Y-38976500D01*
X149895972Y-38976500D01*
X149828933Y-38956815D01*
X149783178Y-38904012D01*
X149773234Y-38834853D01*
X149802259Y-38771297D01*
X149813348Y-38758500D01*
X149909437Y-38647607D01*
X150015563Y-38463792D01*
X150084984Y-38263214D01*
X150115190Y-38053123D01*
X150105091Y-37841112D01*
X150055051Y-37634843D01*
X149966878Y-37441773D01*
X149959962Y-37432061D01*
X149843761Y-37268878D01*
X149783049Y-37210989D01*
X149690147Y-37122407D01*
X149657709Y-37101560D01*
X149511591Y-37007655D01*
X149330231Y-36935050D01*
X149314542Y-36928769D01*
X149314541Y-36928768D01*
X149314539Y-36928768D01*
X149106127Y-36888600D01*
X149106126Y-36888600D01*
X148947062Y-36888600D01*
X148848091Y-36898050D01*
X148788707Y-36903721D01*
X148585057Y-36963518D01*
X148396396Y-37060779D01*
X148229560Y-37191982D01*
X148090561Y-37352394D01*
X147984437Y-37536206D01*
X147915015Y-37736785D01*
X147887413Y-37928769D01*
X147884810Y-37946877D01*
X147894909Y-38158888D01*
X147944949Y-38365157D01*
X147944950Y-38365159D01*
X148033122Y-38558228D01*
X148156238Y-38731121D01*
X148189417Y-38762757D01*
X148221027Y-38811944D01*
X148226585Y-38870147D01*
X148204854Y-38924427D01*
X148160667Y-38962716D01*
X148103847Y-38976500D01*
X146633633Y-38976500D01*
X146612891Y-38974210D01*
X146610091Y-38974298D01*
X146541983Y-38976439D01*
X146538087Y-38976500D01*
X146510144Y-38976500D01*
X146506042Y-38977018D01*
X146494403Y-38977934D01*
X146450110Y-38979326D01*
X146430507Y-38985022D01*
X146411455Y-38988967D01*
X146391203Y-38991525D01*
X146349999Y-39007839D01*
X146338953Y-39011620D01*
X146296407Y-39023982D01*
X146278827Y-39034377D01*
X146261370Y-39042930D01*
X146242378Y-39050449D01*
X146206534Y-39076491D01*
X146196777Y-39082901D01*
X146158638Y-39105457D01*
X146144200Y-39119895D01*
X146129411Y-39132525D01*
X146112894Y-39144525D01*
X146084644Y-39178673D01*
X146076783Y-39187311D01*
X145503914Y-39760181D01*
X145463686Y-39787061D01*
X145416233Y-39796500D01*
X144768352Y-39796500D01*
X144708925Y-39781332D01*
X144664037Y-39739540D01*
X144644668Y-39681346D01*
X144655557Y-39620989D01*
X144694041Y-39573233D01*
X144697544Y-39570611D01*
X144796654Y-39496418D01*
X144996418Y-39296654D01*
X145165720Y-39070493D01*
X145301112Y-38822540D01*
X145399839Y-38557843D01*
X145459891Y-38281790D01*
X145480045Y-38000000D01*
X145459891Y-37718210D01*
X145399839Y-37442157D01*
X145335209Y-37268877D01*
X145301112Y-37177459D01*
X145165721Y-36929508D01*
X145098768Y-36840070D01*
X144996418Y-36703346D01*
X144796654Y-36503582D01*
X144635443Y-36382901D01*
X144570491Y-36334278D01*
X144322540Y-36198887D01*
X144057841Y-36100160D01*
X143781790Y-36040109D01*
X143570539Y-36025000D01*
X143570538Y-36025000D01*
X143429462Y-36025000D01*
X143429461Y-36025000D01*
X143218209Y-36040109D01*
X142942158Y-36100160D01*
X142677459Y-36198887D01*
X142429508Y-36334278D01*
X142203343Y-36503584D01*
X142003584Y-36703343D01*
X141834278Y-36929508D01*
X141698887Y-37177459D01*
X141600160Y-37442158D01*
X141540109Y-37718209D01*
X141519954Y-37999999D01*
X141540109Y-38281790D01*
X141600160Y-38557841D01*
X141698887Y-38822540D01*
X141834278Y-39070491D01*
X141889702Y-39144528D01*
X142003582Y-39296654D01*
X142203346Y-39496418D01*
X142302456Y-39570611D01*
X142305959Y-39573233D01*
X142344443Y-39620989D01*
X142355332Y-39681346D01*
X142335963Y-39739540D01*
X142291075Y-39781332D01*
X142231648Y-39796500D01*
X141183766Y-39796500D01*
X141136313Y-39787061D01*
X141096085Y-39760181D01*
X140367091Y-39031187D01*
X140354044Y-39014901D01*
X140302332Y-38966341D01*
X140299564Y-38963659D01*
X140279770Y-38943865D01*
X140279769Y-38943864D01*
X140279768Y-38943863D01*
X140276495Y-38941324D01*
X140267622Y-38933745D01*
X140235321Y-38903414D01*
X140217433Y-38893580D01*
X140201169Y-38882896D01*
X140185040Y-38870385D01*
X140144377Y-38852789D01*
X140133883Y-38847648D01*
X140095062Y-38826305D01*
X140080396Y-38822540D01*
X140075284Y-38821227D01*
X140056879Y-38814926D01*
X140041195Y-38808139D01*
X140038145Y-38806819D01*
X140038143Y-38806818D01*
X140038142Y-38806818D01*
X139994383Y-38799887D01*
X139982943Y-38797518D01*
X139940031Y-38786500D01*
X139940030Y-38786500D01*
X139919616Y-38786500D01*
X139900217Y-38784973D01*
X139880058Y-38781780D01*
X139880057Y-38781780D01*
X139847318Y-38784874D01*
X139835943Y-38785950D01*
X139824274Y-38786500D01*
X139044021Y-38786500D01*
X138982021Y-38769887D01*
X138936634Y-38724500D01*
X138920021Y-38662500D01*
X138936634Y-38600500D01*
X138942316Y-38590659D01*
X139015563Y-38463792D01*
X139084984Y-38263214D01*
X139115190Y-38053123D01*
X139105091Y-37841112D01*
X139055051Y-37634843D01*
X138966878Y-37441773D01*
X138959962Y-37432061D01*
X138843761Y-37268878D01*
X138783049Y-37210989D01*
X138690147Y-37122407D01*
X138657709Y-37101560D01*
X138511591Y-37007655D01*
X138330231Y-36935050D01*
X138314542Y-36928769D01*
X138314541Y-36928768D01*
X138314539Y-36928768D01*
X138106127Y-36888600D01*
X138106126Y-36888600D01*
X137947062Y-36888600D01*
X137848091Y-36898050D01*
X137788707Y-36903721D01*
X137585057Y-36963518D01*
X137396396Y-37060779D01*
X137229560Y-37191982D01*
X137090561Y-37352394D01*
X136984437Y-37536206D01*
X136915015Y-37736785D01*
X136887413Y-37928769D01*
X136884810Y-37946877D01*
X136894909Y-38158888D01*
X136944949Y-38365157D01*
X136944950Y-38365159D01*
X137033122Y-38558228D01*
X137122772Y-38684123D01*
X137156240Y-38731123D01*
X137162483Y-38737076D01*
X137196165Y-38792830D01*
X137196939Y-38857964D01*
X137164592Y-38914503D01*
X137149200Y-38929894D01*
X137134411Y-38942525D01*
X137117894Y-38954525D01*
X137089644Y-38988673D01*
X137081783Y-38997311D01*
X136173915Y-39905181D01*
X136133687Y-39932061D01*
X136086234Y-39941500D01*
X133876362Y-39941500D01*
X133849445Y-39944393D01*
X133815794Y-39948011D01*
X133678796Y-39999110D01*
X133561738Y-40086738D01*
X133474110Y-40203796D01*
X133423011Y-40340794D01*
X133421796Y-40352098D01*
X133416500Y-40401362D01*
X133416500Y-43098638D01*
X133418072Y-43113261D01*
X133423011Y-43159205D01*
X133474110Y-43296203D01*
X133561738Y-43413261D01*
X133678796Y-43500889D01*
X133815794Y-43551988D01*
X133815797Y-43551988D01*
X133815799Y-43551989D01*
X133876362Y-43558500D01*
X136573634Y-43558500D01*
X136573638Y-43558500D01*
X136634201Y-43551989D01*
X136634203Y-43551988D01*
X136634205Y-43551988D01*
X136737677Y-43513394D01*
X136771204Y-43500889D01*
X136888261Y-43413261D01*
X136930158Y-43357292D01*
X136982151Y-43316967D01*
X137047454Y-43308920D01*
X137107679Y-43335413D01*
X137281228Y-43476606D01*
X137527686Y-43626481D01*
X137792256Y-43741400D01*
X138070011Y-43819223D01*
X138355775Y-43858500D01*
X138644225Y-43858500D01*
X138929989Y-43819223D01*
X139207744Y-43741400D01*
X139472314Y-43626481D01*
X139718772Y-43476606D01*
X139942526Y-43294568D01*
X140139409Y-43083758D01*
X140305753Y-42848103D01*
X140438459Y-42591992D01*
X140535055Y-42320196D01*
X140593742Y-42037778D01*
X140613427Y-41750000D01*
X140593742Y-41462222D01*
X140536891Y-41188639D01*
X140539068Y-41129345D01*
X140568545Y-41077850D01*
X140618572Y-41045946D01*
X140677695Y-41040938D01*
X140691854Y-41043180D01*
X140691855Y-41043181D01*
X140719932Y-41047627D01*
X140735617Y-41050112D01*
X140747041Y-41052477D01*
X140789970Y-41063500D01*
X140810384Y-41063500D01*
X140829783Y-41065027D01*
X140849943Y-41068220D01*
X140894056Y-41064050D01*
X140905726Y-41063500D01*
X145646367Y-41063500D01*
X145667108Y-41065789D01*
X145669905Y-41065701D01*
X145669909Y-41065702D01*
X145738017Y-41063560D01*
X145741913Y-41063500D01*
X145769854Y-41063500D01*
X145769856Y-41063500D01*
X145773956Y-41062981D01*
X145785606Y-41062064D01*
X145829889Y-41060673D01*
X145849498Y-41054975D01*
X145868531Y-41051033D01*
X145888797Y-41048474D01*
X145930006Y-41032157D01*
X145941037Y-41028380D01*
X145983593Y-41016018D01*
X146001160Y-41005628D01*
X146018632Y-40997068D01*
X146037617Y-40989552D01*
X146073475Y-40963498D01*
X146083223Y-40957096D01*
X146121362Y-40934542D01*
X146135800Y-40920103D01*
X146150588Y-40907472D01*
X146167107Y-40895472D01*
X146195359Y-40861319D01*
X146203203Y-40852699D01*
X146440261Y-40615642D01*
X146501057Y-40582273D01*
X146570263Y-40586770D01*
X146626231Y-40627725D01*
X146651453Y-40692329D01*
X146638039Y-40760371D01*
X146561540Y-40908008D01*
X146464944Y-41179804D01*
X146406258Y-41462217D01*
X146386572Y-41750000D01*
X146404292Y-42009038D01*
X146390679Y-42074548D01*
X146345009Y-42123448D01*
X146280581Y-42141500D01*
X145426362Y-42141500D01*
X145399445Y-42144393D01*
X145365794Y-42148011D01*
X145228796Y-42199110D01*
X145111738Y-42286738D01*
X145024110Y-42403796D01*
X144973011Y-42540794D01*
X144971943Y-42550732D01*
X144967508Y-42591992D01*
X144966500Y-42601366D01*
X144966500Y-42626251D01*
X144952561Y-42683371D01*
X144913876Y-42727648D01*
X144859145Y-42749129D01*
X144800671Y-42742983D01*
X144751602Y-42710593D01*
X144700802Y-42655843D01*
X144694567Y-42650871D01*
X144494505Y-42491326D01*
X144265994Y-42359396D01*
X144020372Y-42262996D01*
X143763122Y-42204280D01*
X143565886Y-42189500D01*
X143565881Y-42189500D01*
X143434119Y-42189500D01*
X143434114Y-42189500D01*
X143236877Y-42204280D01*
X142979627Y-42262996D01*
X142734005Y-42359396D01*
X142505494Y-42491326D01*
X142299198Y-42655843D01*
X142119727Y-42849265D01*
X142019375Y-42996456D01*
X141978972Y-43055717D01*
X141971086Y-43067283D01*
X141856601Y-43305013D01*
X141778825Y-43557153D01*
X141739500Y-43818068D01*
X141739500Y-44081931D01*
X141778825Y-44342846D01*
X141820085Y-44476606D01*
X141856601Y-44594987D01*
X141871768Y-44626481D01*
X141971085Y-44832715D01*
X141971086Y-44832717D01*
X141971087Y-44832718D01*
X142119726Y-45050732D01*
X142299198Y-45244157D01*
X142505494Y-45408673D01*
X142734006Y-45540604D01*
X142979628Y-45637004D01*
X143236875Y-45695719D01*
X143287744Y-45699531D01*
X143434114Y-45710500D01*
X143434119Y-45710500D01*
X143565881Y-45710500D01*
X143565886Y-45710500D01*
X143694134Y-45700889D01*
X143763125Y-45695719D01*
X144020372Y-45637004D01*
X144265994Y-45540604D01*
X144494506Y-45408673D01*
X144700802Y-45244157D01*
X144751602Y-45189406D01*
X144800671Y-45157017D01*
X144859145Y-45150871D01*
X144913876Y-45172352D01*
X144952561Y-45216629D01*
X144966500Y-45273749D01*
X144966500Y-45298638D01*
X144968680Y-45318911D01*
X144973011Y-45359205D01*
X145024110Y-45496203D01*
X145111738Y-45613261D01*
X145228796Y-45700889D01*
X145365794Y-45751988D01*
X145365797Y-45751988D01*
X145365799Y-45751989D01*
X145426362Y-45758500D01*
X145949662Y-45758500D01*
X146004797Y-45771432D01*
X146048432Y-45807530D01*
X146071466Y-45859265D01*
X146069094Y-45915846D01*
X146041812Y-45965472D01*
X145980959Y-46033055D01*
X145885472Y-46198443D01*
X145826458Y-46380070D01*
X145806496Y-46570000D01*
X145826458Y-46759929D01*
X145885472Y-46941556D01*
X145980957Y-47106941D01*
X145980960Y-47106944D01*
X146108747Y-47248866D01*
X146263248Y-47361118D01*
X146437714Y-47438795D01*
X146624511Y-47478500D01*
X146624513Y-47478500D01*
X146815487Y-47478500D01*
X146815489Y-47478500D01*
X147002285Y-47438795D01*
X147002286Y-47438794D01*
X147002288Y-47438794D01*
X147176752Y-47361118D01*
X147331253Y-47248866D01*
X147335158Y-47244528D01*
X147376873Y-47214221D01*
X147427309Y-47203500D01*
X148266367Y-47203500D01*
X148287108Y-47205789D01*
X148289905Y-47205701D01*
X148289909Y-47205702D01*
X148358017Y-47203560D01*
X148361913Y-47203500D01*
X148389854Y-47203500D01*
X148389856Y-47203500D01*
X148393956Y-47202981D01*
X148405606Y-47202064D01*
X148449889Y-47200673D01*
X148469498Y-47194975D01*
X148488531Y-47191033D01*
X148508797Y-47188474D01*
X148550006Y-47172157D01*
X148561037Y-47168380D01*
X148603593Y-47156018D01*
X148621160Y-47145628D01*
X148638632Y-47137068D01*
X148657617Y-47129552D01*
X148693475Y-47103498D01*
X148703223Y-47097096D01*
X148741362Y-47074542D01*
X148755800Y-47060103D01*
X148770588Y-47047472D01*
X148787107Y-47035472D01*
X148815359Y-47001319D01*
X148823203Y-46992699D01*
X150856085Y-44959819D01*
X150896314Y-44932939D01*
X150943767Y-44923500D01*
X151251647Y-44923500D01*
X151308904Y-44937510D01*
X151353221Y-44976376D01*
X151463801Y-45134299D01*
X151625700Y-45296198D01*
X151658137Y-45318911D01*
X151700412Y-45370318D01*
X151710016Y-45436180D01*
X151684182Y-45497519D01*
X151630352Y-45536665D01*
X151623796Y-45539110D01*
X151506738Y-45626738D01*
X151419110Y-45743796D01*
X151368011Y-45880794D01*
X151366900Y-45891134D01*
X151363339Y-45924262D01*
X151361500Y-45941366D01*
X151361500Y-47638634D01*
X151368011Y-47699205D01*
X151419110Y-47836203D01*
X151506738Y-47953261D01*
X151623795Y-48040889D01*
X151712082Y-48073819D01*
X151761291Y-48107468D01*
X151789111Y-48160193D01*
X151789111Y-48219807D01*
X151761291Y-48272532D01*
X151712082Y-48306181D01*
X151623795Y-48339110D01*
X151506738Y-48426738D01*
X151419110Y-48543796D01*
X151368011Y-48680794D01*
X151367374Y-48686720D01*
X151361500Y-48741362D01*
X151361500Y-50438638D01*
X151363938Y-50461314D01*
X151368011Y-50499205D01*
X151419110Y-50636203D01*
X151443826Y-50669219D01*
X151467683Y-50728808D01*
X151458549Y-50792342D01*
X151418871Y-50842797D01*
X151306737Y-50926739D01*
X151219110Y-51043796D01*
X151168011Y-51180794D01*
X151161500Y-51241366D01*
X151161500Y-51332500D01*
X151144887Y-51394500D01*
X151099500Y-51439887D01*
X151037500Y-51456500D01*
X149427169Y-51456500D01*
X149371517Y-51443310D01*
X149327704Y-51406546D01*
X149305052Y-51354029D01*
X149308380Y-51296931D01*
X149325046Y-51268066D01*
X149323125Y-51266957D01*
X149332681Y-51250406D01*
X149418712Y-51101395D01*
X149469385Y-50932137D01*
X149479658Y-50755755D01*
X149448977Y-50581759D01*
X149378998Y-50419528D01*
X149273491Y-50277808D01*
X149231512Y-50242583D01*
X149138148Y-50164241D01*
X148980255Y-50084944D01*
X148808342Y-50044200D01*
X148808340Y-50044200D01*
X148675981Y-50044200D01*
X148577380Y-50055724D01*
X148544513Y-50059566D01*
X148378489Y-50119994D01*
X148230872Y-50217083D01*
X148109628Y-50345594D01*
X148021288Y-50498603D01*
X148008862Y-50540109D01*
X147970615Y-50667863D01*
X147970614Y-50667865D01*
X147970615Y-50667865D01*
X147960341Y-50844244D01*
X147981073Y-50961811D01*
X147991023Y-51018241D01*
X148061002Y-51180472D01*
X148119057Y-51258454D01*
X148143122Y-51321692D01*
X148130405Y-51388151D01*
X148084691Y-51438038D01*
X148019594Y-51456500D01*
X138987169Y-51456500D01*
X138931517Y-51443310D01*
X138887704Y-51406546D01*
X138865052Y-51354029D01*
X138868380Y-51296931D01*
X138885046Y-51268066D01*
X138883125Y-51266957D01*
X138892681Y-51250406D01*
X138978712Y-51101395D01*
X139029385Y-50932137D01*
X139039658Y-50755755D01*
X139008977Y-50581759D01*
X138938998Y-50419528D01*
X138833491Y-50277808D01*
X138791512Y-50242583D01*
X138698148Y-50164241D01*
X138540255Y-50084944D01*
X138368342Y-50044200D01*
X138368340Y-50044200D01*
X138235981Y-50044200D01*
X138137380Y-50055724D01*
X138104513Y-50059566D01*
X137938489Y-50119994D01*
X137790872Y-50217083D01*
X137669628Y-50345594D01*
X137581288Y-50498603D01*
X137568862Y-50540109D01*
X137530615Y-50667863D01*
X137530614Y-50667865D01*
X137530615Y-50667865D01*
X137520341Y-50844244D01*
X137541073Y-50961811D01*
X137551023Y-51018241D01*
X137621002Y-51180472D01*
X137679057Y-51258454D01*
X137703122Y-51321692D01*
X137690405Y-51388151D01*
X137644691Y-51438038D01*
X137579594Y-51456500D01*
X135807424Y-51456500D01*
X135741631Y-51437606D01*
X135695888Y-51386682D01*
X135684134Y-51319246D01*
X135685664Y-51305013D01*
X135688500Y-51278638D01*
X135688500Y-49581362D01*
X135681989Y-49520799D01*
X135681988Y-49520797D01*
X135681988Y-49520794D01*
X135630889Y-49383796D01*
X135543261Y-49266738D01*
X135426203Y-49179110D01*
X135337918Y-49146181D01*
X135288708Y-49112532D01*
X135260888Y-49059807D01*
X135260888Y-49000193D01*
X135288708Y-48947468D01*
X135337918Y-48913819D01*
X135395152Y-48892470D01*
X135426204Y-48880889D01*
X135543261Y-48793261D01*
X135630889Y-48676204D01*
X135659013Y-48600802D01*
X135681988Y-48539205D01*
X135681988Y-48539203D01*
X135681989Y-48539201D01*
X135688500Y-48478638D01*
X135688500Y-46781362D01*
X135681989Y-46720799D01*
X135681988Y-46720797D01*
X135681988Y-46720794D01*
X135630889Y-46583796D01*
X135543261Y-46466738D01*
X135426203Y-46379110D01*
X135419648Y-46376665D01*
X135365818Y-46337520D01*
X135339983Y-46276180D01*
X135349587Y-46210318D01*
X135391861Y-46158911D01*
X135424300Y-46136198D01*
X135586198Y-45974300D01*
X135717523Y-45786749D01*
X135814284Y-45579243D01*
X135873543Y-45358087D01*
X135893498Y-45130000D01*
X135873543Y-44901913D01*
X135814284Y-44680757D01*
X135737016Y-44515054D01*
X135717525Y-44473255D01*
X135717524Y-44473254D01*
X135717523Y-44473251D01*
X135586198Y-44285700D01*
X135424300Y-44123802D01*
X135236749Y-43992477D01*
X135236746Y-43992476D01*
X135236744Y-43992474D01*
X135029246Y-43895717D01*
X135029243Y-43895716D01*
X134855887Y-43849265D01*
X134808084Y-43836456D01*
X134579999Y-43816501D01*
X134351915Y-43836456D01*
X134130753Y-43895717D01*
X133923255Y-43992474D01*
X133917624Y-43996417D01*
X133767701Y-44101395D01*
X133735696Y-44123805D01*
X133573801Y-44285700D01*
X133463221Y-44443624D01*
X133418904Y-44482490D01*
X133361647Y-44496500D01*
X130283766Y-44496500D01*
X130236313Y-44487061D01*
X130196085Y-44460181D01*
X129766620Y-44030715D01*
X129742380Y-43996417D01*
X129730981Y-43956000D01*
X129713542Y-43790072D01*
X129679210Y-43684410D01*
X129654527Y-43608443D01*
X129559874Y-43444500D01*
X129543261Y-43382500D01*
X129559874Y-43320500D01*
X129605261Y-43275113D01*
X129667261Y-43258500D01*
X130123634Y-43258500D01*
X130123638Y-43258500D01*
X130184201Y-43251989D01*
X130184203Y-43251988D01*
X130184205Y-43251988D01*
X130262124Y-43222924D01*
X130321204Y-43200889D01*
X130438261Y-43113261D01*
X130525889Y-42996204D01*
X130576989Y-42859201D01*
X130583500Y-42798638D01*
X130583500Y-41474969D01*
X130597402Y-41417921D01*
X130635992Y-41373665D01*
X130690615Y-41352124D01*
X130738124Y-41345594D01*
X130929989Y-41319223D01*
X131207744Y-41241400D01*
X131472314Y-41126481D01*
X131718772Y-40976606D01*
X131942526Y-40794568D01*
X132139409Y-40583758D01*
X132305753Y-40348103D01*
X132438459Y-40091992D01*
X132535055Y-39820196D01*
X132593742Y-39537778D01*
X132613427Y-39250000D01*
X132593742Y-38962222D01*
X132588939Y-38939111D01*
X132535055Y-38679804D01*
X132450596Y-38442158D01*
X132438459Y-38408008D01*
X132333678Y-38205790D01*
X132305753Y-38151896D01*
X132205488Y-38009855D01*
X132139409Y-37916242D01*
X131986144Y-37752135D01*
X131957834Y-37702583D01*
X131954718Y-37645597D01*
X131977455Y-37593251D01*
X132021229Y-37556633D01*
X132076768Y-37543500D01*
X132894643Y-37543500D01*
X132945078Y-37554220D01*
X132986792Y-37584527D01*
X133098747Y-37708866D01*
X133253247Y-37821117D01*
X133253248Y-37821118D01*
X133427714Y-37898795D01*
X133614511Y-37938500D01*
X133614513Y-37938500D01*
X133805487Y-37938500D01*
X133805489Y-37938500D01*
X133992285Y-37898795D01*
X133992286Y-37898794D01*
X133992288Y-37898794D01*
X134166752Y-37821118D01*
X134321253Y-37708866D01*
X134449040Y-37566944D01*
X134462576Y-37543500D01*
X134544527Y-37401556D01*
X134563472Y-37343249D01*
X134603542Y-37219928D01*
X134623504Y-37030000D01*
X134603542Y-36840072D01*
X134559116Y-36703343D01*
X134544527Y-36658443D01*
X134449042Y-36493058D01*
X134413752Y-36453865D01*
X134321253Y-36351134D01*
X134220250Y-36277751D01*
X134166751Y-36238881D01*
X133992285Y-36161204D01*
X133805489Y-36121500D01*
X133805487Y-36121500D01*
X133614513Y-36121500D01*
X133614511Y-36121500D01*
X133427714Y-36161204D01*
X133253246Y-36238882D01*
X133234066Y-36252818D01*
X133199499Y-36270431D01*
X133161181Y-36276500D01*
X132049795Y-36276500D01*
X131987795Y-36259887D01*
X131942408Y-36214500D01*
X131925795Y-36152500D01*
X131942408Y-36090500D01*
X132015562Y-35963793D01*
X132015563Y-35963792D01*
X132084984Y-35763214D01*
X132115190Y-35553123D01*
X132105091Y-35341112D01*
X132055051Y-35134843D01*
X131966878Y-34941773D01*
X131960016Y-34932137D01*
X131843761Y-34768878D01*
X131763117Y-34691984D01*
X131690147Y-34622407D01*
X131626899Y-34581760D01*
X131511591Y-34507655D01*
X131354083Y-34444599D01*
X131314542Y-34428769D01*
X131314541Y-34428768D01*
X131314539Y-34428768D01*
X131106127Y-34388600D01*
X131106126Y-34388600D01*
X130947062Y-34388600D01*
X130848091Y-34398050D01*
X130788707Y-34403721D01*
X130585057Y-34463518D01*
X130396396Y-34560779D01*
X130229560Y-34691982D01*
X130090561Y-34852394D01*
X129984437Y-35036206D01*
X129915015Y-35236785D01*
X129886408Y-35435760D01*
X129884810Y-35446877D01*
X129894909Y-35658888D01*
X129944949Y-35865157D01*
X129944950Y-35865159D01*
X130033120Y-36058225D01*
X130049034Y-36080572D01*
X130071711Y-36143653D01*
X130058243Y-36209320D01*
X130012565Y-36258381D01*
X129948027Y-36276500D01*
X129113633Y-36276500D01*
X129092891Y-36274210D01*
X129090091Y-36274298D01*
X129021983Y-36276439D01*
X129018087Y-36276500D01*
X128990144Y-36276500D01*
X128986042Y-36277018D01*
X128974403Y-36277934D01*
X128930111Y-36279326D01*
X128910508Y-36285022D01*
X128891456Y-36288967D01*
X128871204Y-36291525D01*
X128830000Y-36307838D01*
X128818955Y-36311619D01*
X128776410Y-36323980D01*
X128772400Y-36326351D01*
X128758827Y-36334377D01*
X128741370Y-36342930D01*
X128722378Y-36350449D01*
X128686534Y-36376491D01*
X128676777Y-36382901D01*
X128638638Y-36405457D01*
X128624200Y-36419895D01*
X128609411Y-36432525D01*
X128592894Y-36444525D01*
X128564644Y-36478673D01*
X128556783Y-36487311D01*
X127693914Y-37350181D01*
X127653686Y-37377061D01*
X127606233Y-37386500D01*
X126648126Y-37386500D01*
X126588699Y-37371332D01*
X126543811Y-37329540D01*
X126524442Y-37271346D01*
X126535332Y-37210989D01*
X126573815Y-37163233D01*
X126628352Y-37122407D01*
X126796654Y-36996418D01*
X126996418Y-36796654D01*
X127165720Y-36570493D01*
X127301112Y-36322540D01*
X127399839Y-36057843D01*
X127459891Y-35781790D01*
X127480045Y-35500000D01*
X127459891Y-35218210D01*
X127399839Y-34942157D01*
X127328168Y-34750000D01*
X127301112Y-34677459D01*
X127165721Y-34429508D01*
X127102904Y-34345595D01*
X126996418Y-34203346D01*
X126796654Y-34003582D01*
X126668982Y-33908008D01*
X126583804Y-33844244D01*
X137520341Y-33844244D01*
X137535840Y-33932137D01*
X137551023Y-34018241D01*
X137601930Y-34136258D01*
X137621002Y-34180472D01*
X137726509Y-34322192D01*
X137861851Y-34435758D01*
X137861852Y-34435758D01*
X137861854Y-34435760D01*
X138019741Y-34515054D01*
X138019742Y-34515054D01*
X138019744Y-34515055D01*
X138191658Y-34555800D01*
X138191660Y-34555800D01*
X138324016Y-34555800D01*
X138324019Y-34555800D01*
X138455486Y-34540434D01*
X138621511Y-34480005D01*
X138769126Y-34382918D01*
X138890372Y-34254405D01*
X138978712Y-34101395D01*
X139029385Y-33932137D01*
X139034504Y-33844244D01*
X147960341Y-33844244D01*
X147975840Y-33932137D01*
X147991023Y-34018241D01*
X148041930Y-34136258D01*
X148061002Y-34180472D01*
X148166509Y-34322192D01*
X148301851Y-34435758D01*
X148301852Y-34435758D01*
X148301854Y-34435760D01*
X148459741Y-34515054D01*
X148459742Y-34515054D01*
X148459744Y-34515055D01*
X148631658Y-34555800D01*
X148631660Y-34555800D01*
X148764016Y-34555800D01*
X148764019Y-34555800D01*
X148895486Y-34540434D01*
X149061511Y-34480005D01*
X149209126Y-34382918D01*
X149330372Y-34254405D01*
X149418712Y-34101395D01*
X149469385Y-33932137D01*
X149479658Y-33755755D01*
X149448977Y-33581759D01*
X149378998Y-33419528D01*
X149273491Y-33277808D01*
X149250481Y-33258500D01*
X149138148Y-33164241D01*
X148980255Y-33084944D01*
X148808342Y-33044200D01*
X148808340Y-33044200D01*
X148675981Y-33044200D01*
X148577380Y-33055724D01*
X148544513Y-33059566D01*
X148378489Y-33119994D01*
X148230872Y-33217083D01*
X148109628Y-33345594D01*
X148021288Y-33498603D01*
X148008862Y-33540109D01*
X147970615Y-33667863D01*
X147970614Y-33667865D01*
X147970615Y-33667865D01*
X147960341Y-33844244D01*
X139034504Y-33844244D01*
X139039658Y-33755755D01*
X139008977Y-33581759D01*
X138938998Y-33419528D01*
X138833491Y-33277808D01*
X138810481Y-33258500D01*
X138698148Y-33164241D01*
X138540255Y-33084944D01*
X138368342Y-33044200D01*
X138368340Y-33044200D01*
X138235981Y-33044200D01*
X138137380Y-33055724D01*
X138104513Y-33059566D01*
X137938489Y-33119994D01*
X137790872Y-33217083D01*
X137669628Y-33345594D01*
X137581288Y-33498603D01*
X137568862Y-33540109D01*
X137530615Y-33667863D01*
X137530614Y-33667865D01*
X137530615Y-33667865D01*
X137520341Y-33844244D01*
X126583804Y-33844244D01*
X126570491Y-33834278D01*
X126322540Y-33698887D01*
X126057841Y-33600160D01*
X125781790Y-33540109D01*
X125570539Y-33525000D01*
X125570538Y-33525000D01*
X125429462Y-33525000D01*
X125429461Y-33525000D01*
X125218209Y-33540109D01*
X124942158Y-33600160D01*
X124677459Y-33698887D01*
X124429508Y-33834278D01*
X124203343Y-34003584D01*
X124003584Y-34203343D01*
X123834278Y-34429508D01*
X123698887Y-34677459D01*
X123600160Y-34942158D01*
X123540109Y-35218209D01*
X123519954Y-35499999D01*
X123540109Y-35781790D01*
X123600160Y-36057841D01*
X123698887Y-36322540D01*
X123834278Y-36570491D01*
X123900119Y-36658444D01*
X124003582Y-36796654D01*
X124203346Y-36996418D01*
X124371648Y-37122407D01*
X124426185Y-37163233D01*
X124464668Y-37210989D01*
X124475558Y-37271346D01*
X124456189Y-37329540D01*
X124411301Y-37371332D01*
X124351874Y-37386500D01*
X123123766Y-37386500D01*
X123076313Y-37377061D01*
X123036085Y-37350181D01*
X122227091Y-36541187D01*
X122214044Y-36524901D01*
X122162332Y-36476341D01*
X122159564Y-36473659D01*
X122139770Y-36453865D01*
X122139769Y-36453864D01*
X122139768Y-36453863D01*
X122136495Y-36451324D01*
X122127622Y-36443745D01*
X122095321Y-36413414D01*
X122077433Y-36403580D01*
X122061169Y-36392896D01*
X122045040Y-36380385D01*
X122004377Y-36362789D01*
X121993883Y-36357648D01*
X121955062Y-36336305D01*
X121943386Y-36333307D01*
X121935284Y-36331227D01*
X121916879Y-36324926D01*
X121898145Y-36316819D01*
X121898143Y-36316818D01*
X121898142Y-36316818D01*
X121854383Y-36309887D01*
X121842943Y-36307518D01*
X121800031Y-36296500D01*
X121800030Y-36296500D01*
X121779616Y-36296500D01*
X121760217Y-36294973D01*
X121740058Y-36291780D01*
X121740057Y-36291780D01*
X121710574Y-36294567D01*
X121695943Y-36295950D01*
X121684274Y-36296500D01*
X121038248Y-36296500D01*
X120976248Y-36279887D01*
X120930861Y-36234500D01*
X120914248Y-36172500D01*
X120930861Y-36110500D01*
X121015562Y-35963793D01*
X121015563Y-35963792D01*
X121084984Y-35763214D01*
X121115190Y-35553123D01*
X121105091Y-35341112D01*
X121055051Y-35134843D01*
X120966878Y-34941773D01*
X120960016Y-34932137D01*
X120843761Y-34768878D01*
X120763117Y-34691984D01*
X120690147Y-34622407D01*
X120626899Y-34581760D01*
X120511591Y-34507655D01*
X120354083Y-34444599D01*
X120314542Y-34428769D01*
X120314541Y-34428768D01*
X120314539Y-34428768D01*
X120106127Y-34388600D01*
X120106126Y-34388600D01*
X119947062Y-34388600D01*
X119848091Y-34398050D01*
X119788707Y-34403721D01*
X119585057Y-34463518D01*
X119396396Y-34560779D01*
X119229560Y-34691982D01*
X119090561Y-34852394D01*
X118984437Y-35036206D01*
X118915015Y-35236785D01*
X118886408Y-35435760D01*
X118884810Y-35446877D01*
X118894909Y-35658888D01*
X118944949Y-35865157D01*
X118944950Y-35865159D01*
X119033122Y-36058228D01*
X119156239Y-36231122D01*
X119162485Y-36237078D01*
X119196164Y-36292832D01*
X119196938Y-36357964D01*
X119164593Y-36414502D01*
X119139198Y-36439896D01*
X119124409Y-36452527D01*
X119107892Y-36464528D01*
X119079652Y-36498663D01*
X119071792Y-36507301D01*
X118173914Y-37405181D01*
X118133686Y-37432061D01*
X118086233Y-37441500D01*
X115876362Y-37441500D01*
X115849445Y-37444393D01*
X115815794Y-37448011D01*
X115678796Y-37499110D01*
X115561738Y-37586738D01*
X115474110Y-37703796D01*
X115423011Y-37840794D01*
X115422977Y-37841111D01*
X115416500Y-37901362D01*
X115416500Y-40598638D01*
X115419463Y-40626198D01*
X115423011Y-40659205D01*
X115474110Y-40796203D01*
X115561738Y-40913261D01*
X115678796Y-41000889D01*
X115815794Y-41051988D01*
X115815797Y-41051988D01*
X115815799Y-41051989D01*
X115876362Y-41058500D01*
X118573634Y-41058500D01*
X118573638Y-41058500D01*
X118634201Y-41051989D01*
X118634203Y-41051988D01*
X118634205Y-41051988D01*
X118730642Y-41016018D01*
X118771204Y-41000889D01*
X118888261Y-40913261D01*
X118930158Y-40857292D01*
X118982151Y-40816967D01*
X119047454Y-40808920D01*
X119107679Y-40835413D01*
X119281228Y-40976606D01*
X119527686Y-41126481D01*
X119792256Y-41241400D01*
X120070011Y-41319223D01*
X120355775Y-41358500D01*
X120644225Y-41358500D01*
X120929989Y-41319223D01*
X121207744Y-41241400D01*
X121472314Y-41126481D01*
X121718772Y-40976606D01*
X121942526Y-40794568D01*
X122139409Y-40583758D01*
X122305753Y-40348103D01*
X122438459Y-40091992D01*
X122535055Y-39820196D01*
X122593742Y-39537778D01*
X122613427Y-39250000D01*
X122593742Y-38962222D01*
X122558778Y-38793966D01*
X122561791Y-38731874D01*
X122594562Y-38679045D01*
X122648855Y-38648762D01*
X122711022Y-38648635D01*
X122729969Y-38653500D01*
X122729970Y-38653500D01*
X122750384Y-38653500D01*
X122769783Y-38655027D01*
X122789943Y-38658220D01*
X122834056Y-38654050D01*
X122845726Y-38653500D01*
X127836367Y-38653500D01*
X127857108Y-38655789D01*
X127859905Y-38655701D01*
X127859909Y-38655702D01*
X127928017Y-38653560D01*
X127931913Y-38653500D01*
X127959854Y-38653500D01*
X127959856Y-38653500D01*
X127963956Y-38652981D01*
X127975606Y-38652064D01*
X128019889Y-38650673D01*
X128039498Y-38644975D01*
X128058531Y-38641033D01*
X128078797Y-38638474D01*
X128120006Y-38622157D01*
X128131037Y-38618380D01*
X128173593Y-38606018D01*
X128191160Y-38595628D01*
X128208632Y-38587068D01*
X128227617Y-38579552D01*
X128263475Y-38553498D01*
X128273203Y-38547107D01*
X128281607Y-38542138D01*
X128335787Y-38525194D01*
X128391847Y-38534175D01*
X128438027Y-38567200D01*
X128464648Y-38617346D01*
X128466130Y-38674100D01*
X128406257Y-38962224D01*
X128386572Y-39250000D01*
X128404292Y-39509038D01*
X128390679Y-39574548D01*
X128345009Y-39623448D01*
X128280581Y-39641500D01*
X127426362Y-39641500D01*
X127399445Y-39644393D01*
X127365794Y-39648011D01*
X127228796Y-39699110D01*
X127111738Y-39786738D01*
X127024110Y-39903796D01*
X126973011Y-40040794D01*
X126969819Y-40070491D01*
X126967508Y-40091992D01*
X126966500Y-40101366D01*
X126966500Y-40126251D01*
X126952561Y-40183371D01*
X126913876Y-40227648D01*
X126859145Y-40249129D01*
X126800671Y-40242983D01*
X126751602Y-40210593D01*
X126700802Y-40155843D01*
X126697875Y-40153509D01*
X126494505Y-39991326D01*
X126265994Y-39859396D01*
X126020372Y-39762996D01*
X125763122Y-39704280D01*
X125565886Y-39689500D01*
X125565881Y-39689500D01*
X125434119Y-39689500D01*
X125434114Y-39689500D01*
X125236877Y-39704280D01*
X124979627Y-39762996D01*
X124734005Y-39859396D01*
X124505494Y-39991326D01*
X124299198Y-40155843D01*
X124119727Y-40349265D01*
X123971086Y-40567283D01*
X123856601Y-40805013D01*
X123778825Y-41057153D01*
X123739500Y-41318068D01*
X123739500Y-41581931D01*
X123778825Y-41842846D01*
X123819854Y-41975856D01*
X123851981Y-42080010D01*
X123856602Y-42094989D01*
X123882240Y-42148228D01*
X123893644Y-42216739D01*
X123866421Y-42280636D01*
X123809111Y-42319871D01*
X123739694Y-42322136D01*
X123734999Y-42320931D01*
X123716579Y-42314626D01*
X123697845Y-42306519D01*
X123697843Y-42306518D01*
X123697842Y-42306518D01*
X123654083Y-42299587D01*
X123642643Y-42297218D01*
X123599731Y-42286200D01*
X123599730Y-42286200D01*
X123579316Y-42286200D01*
X123559917Y-42284673D01*
X123539758Y-42281480D01*
X123539757Y-42281480D01*
X123507018Y-42284574D01*
X123495643Y-42285650D01*
X123483974Y-42286200D01*
X101563467Y-42286200D01*
X101516014Y-42276761D01*
X101475786Y-42249881D01*
X100166086Y-40940181D01*
X100135836Y-40890818D01*
X100131294Y-40833102D01*
X100153449Y-40779615D01*
X100197472Y-40742015D01*
X100253767Y-40728500D01*
X101298634Y-40728500D01*
X101298638Y-40728500D01*
X101359201Y-40721989D01*
X101359203Y-40721988D01*
X101359205Y-40721988D01*
X101438722Y-40692329D01*
X101496204Y-40670889D01*
X101613261Y-40583261D01*
X101700889Y-40466204D01*
X101725165Y-40401118D01*
X101733819Y-40377918D01*
X101767468Y-40328708D01*
X101820193Y-40300888D01*
X101879807Y-40300888D01*
X101932532Y-40328708D01*
X101966181Y-40377918D01*
X101999110Y-40466203D01*
X102086738Y-40583261D01*
X102203796Y-40670889D01*
X102340794Y-40721988D01*
X102340797Y-40721988D01*
X102340799Y-40721989D01*
X102401362Y-40728500D01*
X104098634Y-40728500D01*
X104098638Y-40728500D01*
X104159201Y-40721989D01*
X104159203Y-40721988D01*
X104159205Y-40721988D01*
X104238722Y-40692329D01*
X104296204Y-40670889D01*
X104413261Y-40583261D01*
X104500889Y-40466204D01*
X104503332Y-40459651D01*
X104542476Y-40405821D01*
X104603816Y-40379984D01*
X104669679Y-40389586D01*
X104721087Y-40431860D01*
X104743802Y-40464300D01*
X104905700Y-40626198D01*
X105093251Y-40757523D01*
X105093254Y-40757524D01*
X105093255Y-40757525D01*
X105192581Y-40803841D01*
X105300757Y-40854284D01*
X105521913Y-40913543D01*
X105750000Y-40933498D01*
X105978087Y-40913543D01*
X106199243Y-40854284D01*
X106406749Y-40757523D01*
X106594300Y-40626198D01*
X106756198Y-40464300D01*
X106800439Y-40401118D01*
X106866779Y-40306376D01*
X106911096Y-40267510D01*
X106968353Y-40253500D01*
X108021367Y-40253500D01*
X108042108Y-40255789D01*
X108044905Y-40255701D01*
X108044909Y-40255702D01*
X108113017Y-40253560D01*
X108116913Y-40253500D01*
X108144854Y-40253500D01*
X108144856Y-40253500D01*
X108148956Y-40252981D01*
X108160606Y-40252064D01*
X108204889Y-40250673D01*
X108224498Y-40244975D01*
X108243531Y-40241033D01*
X108263797Y-40238474D01*
X108305006Y-40222157D01*
X108316037Y-40218380D01*
X108358593Y-40206018D01*
X108376160Y-40195628D01*
X108393632Y-40187068D01*
X108412617Y-40179552D01*
X108448475Y-40153498D01*
X108458223Y-40147096D01*
X108496362Y-40124542D01*
X108510800Y-40110103D01*
X108525588Y-40097472D01*
X108542107Y-40085472D01*
X108570359Y-40051319D01*
X108578203Y-40042699D01*
X109826084Y-38794819D01*
X109866313Y-38767939D01*
X109913766Y-38758500D01*
X112123634Y-38758500D01*
X112123638Y-38758500D01*
X112184201Y-38751989D01*
X112184203Y-38751988D01*
X112184205Y-38751988D01*
X112277494Y-38717192D01*
X112321204Y-38700889D01*
X112438261Y-38613261D01*
X112525889Y-38496204D01*
X112558785Y-38408008D01*
X112576988Y-38359205D01*
X112576988Y-38359203D01*
X112576989Y-38359201D01*
X112583500Y-38298638D01*
X112583500Y-36974969D01*
X112597402Y-36917921D01*
X112635992Y-36873665D01*
X112690615Y-36852124D01*
X112737585Y-36845668D01*
X112929989Y-36819223D01*
X113207744Y-36741400D01*
X113472314Y-36626481D01*
X113718772Y-36476606D01*
X113942526Y-36294568D01*
X114139409Y-36083758D01*
X114305753Y-35848103D01*
X114438459Y-35591992D01*
X114535055Y-35320196D01*
X114593742Y-35037778D01*
X114613427Y-34750000D01*
X114593742Y-34462222D01*
X114577262Y-34382918D01*
X114535055Y-34179804D01*
X114438460Y-33908011D01*
X114438459Y-33908008D01*
X114330102Y-33698888D01*
X114305753Y-33651896D01*
X114139407Y-33416239D01*
X114044861Y-33315006D01*
X113942526Y-33205432D01*
X113940378Y-33203684D01*
X113938310Y-33200918D01*
X113936737Y-33199234D01*
X113936921Y-33199061D01*
X113904238Y-33155342D01*
X113895204Y-33095660D01*
X113915418Y-33038785D01*
X113960091Y-32998191D01*
X114018637Y-32983500D01*
X115032691Y-32983500D01*
X115083127Y-32994221D01*
X115124841Y-33024528D01*
X115128747Y-33028866D01*
X115205934Y-33084946D01*
X115283248Y-33141118D01*
X115457714Y-33218795D01*
X115644511Y-33258500D01*
X115644513Y-33258500D01*
X115835487Y-33258500D01*
X115835489Y-33258500D01*
X116022285Y-33218795D01*
X116022286Y-33218794D01*
X116022288Y-33218794D01*
X116196752Y-33141118D01*
X116351253Y-33028866D01*
X116447427Y-32922054D01*
X151875811Y-32922054D01*
X151885639Y-33153429D01*
X151885640Y-33153433D01*
X151927054Y-33345594D01*
X151934433Y-33379829D01*
X152020497Y-33594009D01*
X152020782Y-33594717D01*
X152142207Y-33791923D01*
X152265611Y-33932137D01*
X152295218Y-33965777D01*
X152475396Y-34111261D01*
X152677582Y-34224209D01*
X152895946Y-34301362D01*
X153124202Y-34340500D01*
X153124204Y-34340500D01*
X153297795Y-34340500D01*
X153297798Y-34340500D01*
X153401572Y-34331667D01*
X153470757Y-34325779D01*
X153694875Y-34267423D01*
X153905908Y-34172030D01*
X154097784Y-34042345D01*
X154181383Y-33962221D01*
X154264979Y-33882101D01*
X154264979Y-33882100D01*
X154264982Y-33882098D01*
X154402694Y-33695899D01*
X154506957Y-33489105D01*
X154574772Y-33267665D01*
X154604189Y-33037950D01*
X154594360Y-32806567D01*
X154545568Y-32580174D01*
X154459218Y-32365283D01*
X154337793Y-32168077D01*
X154184786Y-31994227D01*
X154184783Y-31994225D01*
X154184781Y-31994222D01*
X154004603Y-31848738D01*
X153802417Y-31735790D01*
X153584053Y-31658637D01*
X153355798Y-31619500D01*
X153355796Y-31619500D01*
X153182205Y-31619500D01*
X153182202Y-31619500D01*
X153009244Y-31634220D01*
X152785123Y-31692577D01*
X152574092Y-31787969D01*
X152382212Y-31917657D01*
X152215020Y-32077898D01*
X152077306Y-32264100D01*
X151973043Y-32470894D01*
X151913378Y-32665720D01*
X151905228Y-32692335D01*
X151875811Y-32922050D01*
X151875811Y-32922053D01*
X151875811Y-32922054D01*
X116447427Y-32922054D01*
X116479040Y-32886944D01*
X116574527Y-32721556D01*
X116633542Y-32539928D01*
X116653504Y-32350000D01*
X116633542Y-32160072D01*
X116586423Y-32015055D01*
X116574527Y-31978443D01*
X116479042Y-31813058D01*
X116444212Y-31774376D01*
X116351253Y-31671134D01*
X116196752Y-31558882D01*
X116196751Y-31558881D01*
X116022285Y-31481204D01*
X115835489Y-31441500D01*
X115835487Y-31441500D01*
X115644513Y-31441500D01*
X115644511Y-31441500D01*
X115457714Y-31481204D01*
X115283248Y-31558881D01*
X115128746Y-31671134D01*
X115124842Y-31675471D01*
X115083127Y-31705779D01*
X115032691Y-31716500D01*
X114084436Y-31716500D01*
X114022436Y-31699887D01*
X113977049Y-31654500D01*
X113960436Y-31592500D01*
X113977049Y-31530500D01*
X113984128Y-31518239D01*
X114015563Y-31463792D01*
X114056939Y-31344244D01*
X119520341Y-31344244D01*
X119535840Y-31432137D01*
X119551023Y-31518241D01*
X119611584Y-31658639D01*
X119621002Y-31680472D01*
X119726509Y-31822192D01*
X119861851Y-31935758D01*
X119861852Y-31935758D01*
X119861854Y-31935760D01*
X120019741Y-32015054D01*
X120019742Y-32015054D01*
X120019744Y-32015055D01*
X120191658Y-32055800D01*
X120191660Y-32055800D01*
X120324016Y-32055800D01*
X120324019Y-32055800D01*
X120455486Y-32040434D01*
X120621511Y-31980005D01*
X120769126Y-31882918D01*
X120890372Y-31754405D01*
X120978712Y-31601395D01*
X121029385Y-31432137D01*
X121034504Y-31344244D01*
X129960341Y-31344244D01*
X129975840Y-31432137D01*
X129991023Y-31518241D01*
X130051584Y-31658639D01*
X130061002Y-31680472D01*
X130166509Y-31822192D01*
X130301851Y-31935758D01*
X130301852Y-31935758D01*
X130301854Y-31935760D01*
X130459741Y-32015054D01*
X130459742Y-32015054D01*
X130459744Y-32015055D01*
X130631658Y-32055800D01*
X130631660Y-32055800D01*
X130764016Y-32055800D01*
X130764019Y-32055800D01*
X130895486Y-32040434D01*
X131061511Y-31980005D01*
X131209126Y-31882918D01*
X131330372Y-31754405D01*
X131418712Y-31601395D01*
X131469385Y-31432137D01*
X131479658Y-31255755D01*
X131448977Y-31081759D01*
X131378998Y-30919528D01*
X131273491Y-30777808D01*
X131266679Y-30772092D01*
X131138148Y-30664241D01*
X130980255Y-30584944D01*
X130808342Y-30544200D01*
X130808340Y-30544200D01*
X130675981Y-30544200D01*
X130577380Y-30555724D01*
X130544513Y-30559566D01*
X130378489Y-30619994D01*
X130230872Y-30717083D01*
X130109628Y-30845594D01*
X130021288Y-30998603D01*
X130017053Y-31012750D01*
X129970615Y-31167863D01*
X129970614Y-31167865D01*
X129970615Y-31167865D01*
X129960341Y-31344244D01*
X121034504Y-31344244D01*
X121039658Y-31255755D01*
X121008977Y-31081759D01*
X120938998Y-30919528D01*
X120833491Y-30777808D01*
X120826679Y-30772092D01*
X120698148Y-30664241D01*
X120540255Y-30584944D01*
X120368342Y-30544200D01*
X120368340Y-30544200D01*
X120235981Y-30544200D01*
X120137380Y-30555724D01*
X120104513Y-30559566D01*
X119938489Y-30619994D01*
X119790872Y-30717083D01*
X119669628Y-30845594D01*
X119581288Y-30998603D01*
X119577053Y-31012750D01*
X119530615Y-31167863D01*
X119530614Y-31167865D01*
X119530615Y-31167865D01*
X119520341Y-31344244D01*
X114056939Y-31344244D01*
X114084984Y-31263214D01*
X114115190Y-31053123D01*
X114105091Y-30841112D01*
X114055051Y-30634843D01*
X113966878Y-30441773D01*
X113897213Y-30343942D01*
X113843761Y-30268878D01*
X113763117Y-30191984D01*
X113690147Y-30122407D01*
X113657709Y-30101560D01*
X113511591Y-30007655D01*
X113330231Y-29935050D01*
X113314542Y-29928769D01*
X113314541Y-29928768D01*
X113314539Y-29928768D01*
X113106127Y-29888600D01*
X113106126Y-29888600D01*
X112947062Y-29888600D01*
X112848092Y-29898050D01*
X112788707Y-29903721D01*
X112585057Y-29963518D01*
X112396396Y-30060779D01*
X112229560Y-30191982D01*
X112090561Y-30352394D01*
X111984437Y-30536206D01*
X111915015Y-30736785D01*
X111888742Y-30919527D01*
X111884810Y-30946877D01*
X111894909Y-31158888D01*
X111944949Y-31365157D01*
X111944950Y-31365159D01*
X112032485Y-31556834D01*
X112043592Y-31613300D01*
X112028013Y-31668698D01*
X111989103Y-31711098D01*
X111935244Y-31731367D01*
X111933992Y-31731525D01*
X111892802Y-31747832D01*
X111881756Y-31751613D01*
X111839193Y-31763979D01*
X111821614Y-31774376D01*
X111804150Y-31782932D01*
X111795406Y-31786394D01*
X111785168Y-31790448D01*
X111749325Y-31816489D01*
X111739568Y-31822898D01*
X111701424Y-31845457D01*
X111686986Y-31859895D01*
X111672197Y-31872525D01*
X111655680Y-31884525D01*
X111627430Y-31918673D01*
X111619569Y-31927311D01*
X110566700Y-32980181D01*
X110526472Y-33007061D01*
X110479019Y-33016500D01*
X108413915Y-33016500D01*
X108351405Y-32999591D01*
X108305942Y-32953475D01*
X108289928Y-32890729D01*
X108307728Y-32828467D01*
X108354488Y-32783668D01*
X108570491Y-32665721D01*
X108570490Y-32665721D01*
X108570493Y-32665720D01*
X108796654Y-32496418D01*
X108996418Y-32296654D01*
X109165720Y-32070493D01*
X109301112Y-31822540D01*
X109399839Y-31557843D01*
X109459891Y-31281790D01*
X109480045Y-31000000D01*
X109459891Y-30718210D01*
X109399839Y-30442157D01*
X109330708Y-30256809D01*
X109301112Y-30177459D01*
X109165721Y-29929508D01*
X109123394Y-29872966D01*
X108996418Y-29703346D01*
X108796654Y-29503582D01*
X108679297Y-29415730D01*
X108570491Y-29334278D01*
X108322540Y-29198887D01*
X108057841Y-29100160D01*
X107781790Y-29040109D01*
X107570539Y-29025000D01*
X107570538Y-29025000D01*
X107429462Y-29025000D01*
X107429461Y-29025000D01*
X107218209Y-29040109D01*
X106942158Y-29100160D01*
X106677459Y-29198887D01*
X106429508Y-29334278D01*
X106203343Y-29503584D01*
X106003584Y-29703343D01*
X105834278Y-29929508D01*
X105698887Y-30177459D01*
X105600160Y-30442158D01*
X105540109Y-30718209D01*
X105519954Y-31000000D01*
X105540109Y-31281790D01*
X105600160Y-31557841D01*
X105698887Y-31822540D01*
X105767434Y-31948073D01*
X105782582Y-32009713D01*
X105765244Y-32070773D01*
X105719962Y-32115254D01*
X105658602Y-32131500D01*
X102717374Y-32131500D01*
X102658466Y-32116614D01*
X102613702Y-32075530D01*
X102593829Y-32018112D01*
X102603619Y-31958146D01*
X102640722Y-31910030D01*
X102681968Y-31877593D01*
X102770442Y-31808016D01*
X102909437Y-31647607D01*
X103015563Y-31463792D01*
X103084984Y-31263214D01*
X103115190Y-31053123D01*
X103105091Y-30841112D01*
X103055051Y-30634843D01*
X102966878Y-30441773D01*
X102897213Y-30343942D01*
X102843761Y-30268878D01*
X102763117Y-30191984D01*
X102690147Y-30122407D01*
X102657709Y-30101560D01*
X102511591Y-30007655D01*
X102330231Y-29935050D01*
X102314542Y-29928769D01*
X102314541Y-29928768D01*
X102314539Y-29928768D01*
X102106127Y-29888600D01*
X102106126Y-29888600D01*
X101947062Y-29888600D01*
X101848092Y-29898050D01*
X101788707Y-29903721D01*
X101585057Y-29963518D01*
X101396396Y-30060779D01*
X101229560Y-30191982D01*
X101090561Y-30352394D01*
X100984437Y-30536206D01*
X100915015Y-30736785D01*
X100888742Y-30919527D01*
X100884810Y-30946877D01*
X100894909Y-31158888D01*
X100944949Y-31365157D01*
X100944950Y-31365159D01*
X101033122Y-31558228D01*
X101156238Y-31731121D01*
X101156239Y-31731122D01*
X101156240Y-31731123D01*
X101309853Y-31877593D01*
X101344712Y-31899995D01*
X101345732Y-31900651D01*
X101387996Y-31946411D01*
X101402676Y-32006949D01*
X101386068Y-32066986D01*
X101342361Y-32111372D01*
X101282588Y-32128905D01*
X101212434Y-32131110D01*
X101201967Y-32131439D01*
X101198074Y-32131500D01*
X101170141Y-32131500D01*
X101166037Y-32132018D01*
X101154405Y-32132933D01*
X101110110Y-32134325D01*
X101090501Y-32140022D01*
X101071461Y-32143965D01*
X101051205Y-32146525D01*
X101010005Y-32162836D01*
X100998961Y-32166617D01*
X100956410Y-32178981D01*
X100956407Y-32178982D01*
X100938827Y-32189377D01*
X100921370Y-32197930D01*
X100902378Y-32205449D01*
X100866534Y-32231491D01*
X100856777Y-32237901D01*
X100818638Y-32260457D01*
X100804200Y-32274895D01*
X100789411Y-32287525D01*
X100772894Y-32299525D01*
X100744644Y-32333673D01*
X100736783Y-32342311D01*
X100173915Y-32905181D01*
X100133687Y-32932061D01*
X100086234Y-32941500D01*
X97876362Y-32941500D01*
X97849445Y-32944393D01*
X97815794Y-32948011D01*
X97678796Y-32999110D01*
X97561738Y-33086738D01*
X97474110Y-33203796D01*
X97423011Y-33340794D01*
X97422495Y-33345594D01*
X97416500Y-33401362D01*
X97416500Y-36098638D01*
X97418958Y-36121500D01*
X97423011Y-36159205D01*
X97474110Y-36296203D01*
X97561738Y-36413261D01*
X97678796Y-36500889D01*
X97815794Y-36551988D01*
X97815797Y-36551988D01*
X97815799Y-36551989D01*
X97876362Y-36558500D01*
X100573634Y-36558500D01*
X100573638Y-36558500D01*
X100634201Y-36551989D01*
X100634203Y-36551988D01*
X100634205Y-36551988D01*
X100712124Y-36522924D01*
X100771204Y-36500889D01*
X100888261Y-36413261D01*
X100915787Y-36376491D01*
X100930159Y-36357292D01*
X100982151Y-36316967D01*
X101047454Y-36308920D01*
X101107679Y-36335413D01*
X101281228Y-36476606D01*
X101527686Y-36626481D01*
X101792256Y-36741400D01*
X102070011Y-36819223D01*
X102355775Y-36858500D01*
X102644225Y-36858500D01*
X102929989Y-36819223D01*
X103207744Y-36741400D01*
X103472314Y-36626481D01*
X103718772Y-36476606D01*
X103942526Y-36294568D01*
X104139409Y-36083758D01*
X104305753Y-35848103D01*
X104438459Y-35591992D01*
X104535055Y-35320196D01*
X104593742Y-35037778D01*
X104613427Y-34750000D01*
X104593742Y-34462222D01*
X104577262Y-34382918D01*
X104535055Y-34179804D01*
X104438460Y-33908011D01*
X104438459Y-33908008D01*
X104305753Y-33651897D01*
X104264890Y-33594008D01*
X104242484Y-33530962D01*
X104256097Y-33465452D01*
X104301766Y-33416552D01*
X104366195Y-33398500D01*
X106031234Y-33398500D01*
X106078687Y-33407939D01*
X106118915Y-33434819D01*
X106722909Y-34038813D01*
X106735958Y-34055100D01*
X106737999Y-34057016D01*
X106738000Y-34057018D01*
X106787685Y-34103675D01*
X106790449Y-34106354D01*
X106810230Y-34126135D01*
X106813511Y-34128680D01*
X106822370Y-34136247D01*
X106854679Y-34166586D01*
X106864582Y-34172030D01*
X106872564Y-34176418D01*
X106888825Y-34187099D01*
X106904959Y-34199614D01*
X106945625Y-34217210D01*
X106956112Y-34222348D01*
X106994940Y-34243695D01*
X107014708Y-34248770D01*
X107033119Y-34255073D01*
X107051855Y-34263181D01*
X107095626Y-34270113D01*
X107107041Y-34272477D01*
X107149970Y-34283500D01*
X107170384Y-34283500D01*
X107189783Y-34285027D01*
X107209943Y-34288220D01*
X107254056Y-34284050D01*
X107265726Y-34283500D01*
X110290981Y-34283500D01*
X110344237Y-34295519D01*
X110387170Y-34329246D01*
X110411456Y-34378142D01*
X110412386Y-34432727D01*
X110411757Y-34435760D01*
X110406258Y-34462221D01*
X110386572Y-34750000D01*
X110404292Y-35009038D01*
X110390679Y-35074548D01*
X110345009Y-35123448D01*
X110280581Y-35141500D01*
X109426362Y-35141500D01*
X109399445Y-35144393D01*
X109365794Y-35148011D01*
X109228796Y-35199110D01*
X109111738Y-35286738D01*
X109024110Y-35403796D01*
X108973011Y-35540794D01*
X108971686Y-35553123D01*
X108967508Y-35591992D01*
X108966500Y-35601366D01*
X108966500Y-35626251D01*
X108952561Y-35683371D01*
X108913876Y-35727648D01*
X108859145Y-35749129D01*
X108800671Y-35742983D01*
X108751602Y-35710593D01*
X108700802Y-35655843D01*
X108575352Y-35555800D01*
X108494505Y-35491326D01*
X108265994Y-35359396D01*
X108020372Y-35262996D01*
X107763122Y-35204280D01*
X107565886Y-35189500D01*
X107565881Y-35189500D01*
X107434119Y-35189500D01*
X107434114Y-35189500D01*
X107236877Y-35204280D01*
X106979627Y-35262996D01*
X106734005Y-35359396D01*
X106505494Y-35491326D01*
X106299198Y-35655843D01*
X106119727Y-35849265D01*
X106041644Y-35963793D01*
X105977260Y-36058228D01*
X105971086Y-36067283D01*
X105856601Y-36305013D01*
X105778825Y-36557153D01*
X105739500Y-36818068D01*
X105739500Y-37081931D01*
X105778825Y-37342846D01*
X105825555Y-37494339D01*
X105856601Y-37594987D01*
X105884951Y-37653856D01*
X105971085Y-37832715D01*
X105971086Y-37832717D01*
X105971087Y-37832718D01*
X106119726Y-38050732D01*
X106214325Y-38152686D01*
X106244107Y-38208530D01*
X106242450Y-38271799D01*
X106209786Y-38326009D01*
X106154623Y-38357038D01*
X106091332Y-38356801D01*
X105978084Y-38326456D01*
X105750000Y-38306501D01*
X105521915Y-38326456D01*
X105300753Y-38385717D01*
X105093255Y-38482474D01*
X105073745Y-38496135D01*
X104905835Y-38613708D01*
X104905696Y-38613805D01*
X104743802Y-38775699D01*
X104721087Y-38808139D01*
X104669678Y-38850413D01*
X104603816Y-38860015D01*
X104542477Y-38834179D01*
X104503333Y-38780348D01*
X104500889Y-38773795D01*
X104413261Y-38656738D01*
X104296203Y-38569110D01*
X104159205Y-38518011D01*
X104128919Y-38514755D01*
X104098638Y-38511500D01*
X102401362Y-38511500D01*
X102374445Y-38514393D01*
X102340794Y-38518011D01*
X102203796Y-38569110D01*
X102086738Y-38656738D01*
X101999110Y-38773795D01*
X101966181Y-38862082D01*
X101932532Y-38911291D01*
X101879807Y-38939111D01*
X101820193Y-38939111D01*
X101767468Y-38911291D01*
X101733819Y-38862082D01*
X101700889Y-38773795D01*
X101613261Y-38656738D01*
X101496203Y-38569110D01*
X101359205Y-38518011D01*
X101328919Y-38514755D01*
X101298638Y-38511500D01*
X99601362Y-38511500D01*
X99574445Y-38514393D01*
X99540794Y-38518011D01*
X99403796Y-38569110D01*
X99370777Y-38593828D01*
X99311188Y-38617683D01*
X99247655Y-38608548D01*
X99197201Y-38568870D01*
X99188946Y-38557843D01*
X99153036Y-38509872D01*
X99113261Y-38456738D01*
X98996203Y-38369110D01*
X98859205Y-38318011D01*
X98828919Y-38314755D01*
X98798638Y-38311500D01*
X97101362Y-38311500D01*
X97074445Y-38314393D01*
X97040794Y-38318011D01*
X96903796Y-38369110D01*
X96786738Y-38456738D01*
X96699110Y-38573796D01*
X96648011Y-38710794D01*
X96641500Y-38771366D01*
X96641500Y-39450037D01*
X96629420Y-39503421D01*
X96595535Y-39546403D01*
X96546447Y-39570611D01*
X96491719Y-39571326D01*
X96445487Y-39561500D01*
X96254513Y-39561500D01*
X96215248Y-39569846D01*
X96174862Y-39578430D01*
X96110202Y-39574886D01*
X96056146Y-39539230D01*
X96027436Y-39481185D01*
X96031901Y-39416584D01*
X96084984Y-39263214D01*
X96115190Y-39053123D01*
X96105091Y-38841112D01*
X96055051Y-38634843D01*
X95966878Y-38441773D01*
X95942836Y-38408011D01*
X95843761Y-38268878D01*
X95763117Y-38191984D01*
X95690147Y-38122407D01*
X95638943Y-38089500D01*
X95511591Y-38007655D01*
X95338849Y-37938500D01*
X95314542Y-37928769D01*
X95314541Y-37928768D01*
X95314539Y-37928768D01*
X95106127Y-37888600D01*
X95106126Y-37888600D01*
X94947062Y-37888600D01*
X94848091Y-37898050D01*
X94788707Y-37903721D01*
X94585057Y-37963518D01*
X94396396Y-38060779D01*
X94229560Y-38191982D01*
X94090561Y-38352394D01*
X93984437Y-38536206D01*
X93915015Y-38736785D01*
X93885243Y-38943863D01*
X93884810Y-38946877D01*
X93894909Y-39158888D01*
X93944949Y-39365157D01*
X93944950Y-39365159D01*
X94033120Y-39558224D01*
X94033121Y-39558226D01*
X94033122Y-39558227D01*
X94069989Y-39610000D01*
X94091760Y-39640573D01*
X94114436Y-39703654D01*
X94100967Y-39769320D01*
X94055290Y-39818381D01*
X93990752Y-39836500D01*
X93343634Y-39836500D01*
X93322891Y-39834210D01*
X93251970Y-39836439D01*
X93248075Y-39836500D01*
X93220141Y-39836500D01*
X93216037Y-39837018D01*
X93204405Y-39837933D01*
X93160110Y-39839325D01*
X93140501Y-39845022D01*
X93121461Y-39848965D01*
X93101205Y-39851525D01*
X93060005Y-39867836D01*
X93048961Y-39871617D01*
X93006410Y-39883981D01*
X93006407Y-39883982D01*
X92988827Y-39894377D01*
X92971371Y-39902929D01*
X92968377Y-39904114D01*
X92952378Y-39910449D01*
X92916534Y-39936491D01*
X92906777Y-39942901D01*
X92868638Y-39965457D01*
X92854200Y-39979895D01*
X92839411Y-39992525D01*
X92822894Y-40004525D01*
X92794644Y-40038673D01*
X92786783Y-40047311D01*
X92023914Y-40810181D01*
X91983686Y-40837061D01*
X91936233Y-40846500D01*
X90701560Y-40846500D01*
X90642133Y-40831332D01*
X90597245Y-40789540D01*
X90577876Y-40731346D01*
X90588766Y-40670989D01*
X90627249Y-40623233D01*
X90660109Y-40598634D01*
X90796654Y-40496418D01*
X90996418Y-40296654D01*
X91165720Y-40070493D01*
X91301112Y-39822540D01*
X91399839Y-39557843D01*
X91459891Y-39281790D01*
X91480045Y-39000000D01*
X91459891Y-38718210D01*
X91399839Y-38442157D01*
X91311679Y-38205790D01*
X91301112Y-38177459D01*
X91165721Y-37929508D01*
X91099548Y-37841112D01*
X90996418Y-37703346D01*
X90796654Y-37503582D01*
X90633037Y-37381100D01*
X90570491Y-37334278D01*
X90322540Y-37198887D01*
X90057841Y-37100160D01*
X89781790Y-37040109D01*
X89570539Y-37025000D01*
X89570538Y-37025000D01*
X89429462Y-37025000D01*
X89429461Y-37025000D01*
X89218209Y-37040109D01*
X88942158Y-37100160D01*
X88677459Y-37198887D01*
X88429508Y-37334278D01*
X88203343Y-37503584D01*
X88003584Y-37703343D01*
X87834278Y-37929508D01*
X87698887Y-38177459D01*
X87600160Y-38442158D01*
X87540109Y-38718209D01*
X87519954Y-39000000D01*
X87540109Y-39281790D01*
X87600160Y-39557841D01*
X87698887Y-39822540D01*
X87716179Y-39854207D01*
X87731084Y-39921702D01*
X87707540Y-39986691D01*
X87652863Y-40028978D01*
X87584043Y-40035424D01*
X87522464Y-40004027D01*
X87482349Y-39966357D01*
X87479551Y-39963645D01*
X87459773Y-39943867D01*
X87456495Y-39941324D01*
X87447622Y-39933745D01*
X87415321Y-39903414D01*
X87397433Y-39893580D01*
X87381169Y-39882896D01*
X87365040Y-39870385D01*
X87324377Y-39852789D01*
X87313883Y-39847648D01*
X87275062Y-39826305D01*
X87260396Y-39822540D01*
X87255284Y-39821227D01*
X87236879Y-39814926D01*
X87218145Y-39806819D01*
X87218143Y-39806818D01*
X87218142Y-39806818D01*
X87174383Y-39799887D01*
X87162943Y-39797518D01*
X87120031Y-39786500D01*
X87120030Y-39786500D01*
X87099616Y-39786500D01*
X87080217Y-39784973D01*
X87060058Y-39781780D01*
X87060057Y-39781780D01*
X87027318Y-39784874D01*
X87015943Y-39785950D01*
X87004274Y-39786500D01*
X85044021Y-39786500D01*
X84982021Y-39769887D01*
X84936634Y-39724500D01*
X84920021Y-39662500D01*
X84936634Y-39600500D01*
X84949376Y-39578430D01*
X85015563Y-39463792D01*
X85084984Y-39263214D01*
X85115190Y-39053123D01*
X85105091Y-38841112D01*
X85055051Y-38634843D01*
X84966878Y-38441773D01*
X84942836Y-38408011D01*
X84843761Y-38268878D01*
X84763117Y-38191984D01*
X84690147Y-38122407D01*
X84638943Y-38089500D01*
X84511591Y-38007655D01*
X84338849Y-37938500D01*
X84314542Y-37928769D01*
X84314541Y-37928768D01*
X84314539Y-37928768D01*
X84106127Y-37888600D01*
X84106126Y-37888600D01*
X83947062Y-37888600D01*
X83848091Y-37898050D01*
X83788707Y-37903721D01*
X83585057Y-37963518D01*
X83396396Y-38060779D01*
X83229560Y-38191982D01*
X83090561Y-38352394D01*
X82984437Y-38536206D01*
X82915015Y-38736785D01*
X82885243Y-38943863D01*
X82884810Y-38946877D01*
X82894909Y-39158888D01*
X82944949Y-39365157D01*
X82944950Y-39365159D01*
X83033122Y-39558228D01*
X83133444Y-39699110D01*
X83156240Y-39731123D01*
X83162483Y-39737076D01*
X83196165Y-39792830D01*
X83196939Y-39857964D01*
X83164592Y-39914503D01*
X83149200Y-39929894D01*
X83134411Y-39942525D01*
X83117894Y-39954525D01*
X83089644Y-39988673D01*
X83081783Y-39997311D01*
X82173915Y-40905181D01*
X82133687Y-40932061D01*
X82086234Y-40941500D01*
X81048767Y-40941500D01*
X80984652Y-40923638D01*
X80939008Y-40875197D01*
X80924986Y-40810134D01*
X80946625Y-40747193D01*
X80997691Y-40704508D01*
X81024634Y-40692329D01*
X81135908Y-40642030D01*
X81327784Y-40512345D01*
X81494982Y-40352098D01*
X81632694Y-40165899D01*
X81736957Y-39959105D01*
X81804772Y-39737665D01*
X81834189Y-39507950D01*
X81824360Y-39276567D01*
X81775568Y-39050174D01*
X81689218Y-38835283D01*
X81567793Y-38638077D01*
X81414786Y-38464227D01*
X81414783Y-38464225D01*
X81414781Y-38464222D01*
X81234603Y-38318738D01*
X81032417Y-38205790D01*
X80814053Y-38128637D01*
X80585798Y-38089500D01*
X80585796Y-38089500D01*
X80412205Y-38089500D01*
X80412202Y-38089500D01*
X80239244Y-38104220D01*
X80015123Y-38162577D01*
X79804092Y-38257969D01*
X79612212Y-38387657D01*
X79445020Y-38547898D01*
X79307306Y-38734100D01*
X79203043Y-38940894D01*
X79136283Y-39158888D01*
X79135228Y-39162335D01*
X79105811Y-39392050D01*
X79105811Y-39392053D01*
X79105811Y-39392054D01*
X79115639Y-39623429D01*
X79115640Y-39623433D01*
X79164246Y-39848965D01*
X79164433Y-39849829D01*
X79245402Y-40051330D01*
X79250782Y-40064717D01*
X79372207Y-40261923D01*
X79525214Y-40435773D01*
X79525218Y-40435777D01*
X79705396Y-40581261D01*
X79766943Y-40615643D01*
X79907582Y-40694209D01*
X79925623Y-40700583D01*
X79981448Y-40740423D01*
X80007558Y-40803841D01*
X79995968Y-40871437D01*
X79950221Y-40922534D01*
X79884313Y-40941500D01*
X79876362Y-40941500D01*
X79849445Y-40944393D01*
X79815794Y-40948011D01*
X79678796Y-40999110D01*
X79561738Y-41086738D01*
X79474110Y-41203796D01*
X79423011Y-41340794D01*
X79422495Y-41345594D01*
X79416500Y-41401362D01*
X79416500Y-44098638D01*
X79416797Y-44101396D01*
X79423011Y-44159205D01*
X79474110Y-44296203D01*
X79561738Y-44413261D01*
X79678796Y-44500889D01*
X79815794Y-44551988D01*
X79815797Y-44551988D01*
X79815799Y-44551989D01*
X79876362Y-44558500D01*
X82573634Y-44558500D01*
X82573638Y-44558500D01*
X82634201Y-44551989D01*
X82634203Y-44551988D01*
X82634205Y-44551988D01*
X82733224Y-44515055D01*
X82771204Y-44500889D01*
X82888261Y-44413261D01*
X82930158Y-44357292D01*
X82982151Y-44316967D01*
X83047454Y-44308920D01*
X83107679Y-44335413D01*
X83281228Y-44476606D01*
X83527686Y-44626481D01*
X83792256Y-44741400D01*
X84070011Y-44819223D01*
X84355775Y-44858500D01*
X84644225Y-44858500D01*
X84929989Y-44819223D01*
X85207744Y-44741400D01*
X85472314Y-44626481D01*
X85718772Y-44476606D01*
X85942526Y-44294568D01*
X86139409Y-44083758D01*
X86305753Y-43848103D01*
X86438459Y-43591992D01*
X86535055Y-43320196D01*
X86593742Y-43037778D01*
X86613427Y-42750000D01*
X86593742Y-42462222D01*
X86577262Y-42382918D01*
X86535055Y-42179804D01*
X86473434Y-42006419D01*
X86438459Y-41908008D01*
X86309075Y-41658308D01*
X86305753Y-41651896D01*
X86165170Y-41452737D01*
X86139409Y-41416242D01*
X85995482Y-41262134D01*
X85967174Y-41212583D01*
X85964058Y-41155597D01*
X85986795Y-41103251D01*
X86030569Y-41066633D01*
X86086108Y-41053500D01*
X86726234Y-41053500D01*
X86773687Y-41062939D01*
X86813915Y-41089819D01*
X87592910Y-41868814D01*
X87605959Y-41885101D01*
X87607999Y-41887016D01*
X87608000Y-41887018D01*
X87657701Y-41933690D01*
X87660434Y-41936338D01*
X87680230Y-41956134D01*
X87683493Y-41958665D01*
X87692369Y-41966245D01*
X87724679Y-41996586D01*
X87742572Y-42006422D01*
X87758831Y-42017103D01*
X87774959Y-42029613D01*
X87815625Y-42047210D01*
X87826106Y-42052346D01*
X87847567Y-42064144D01*
X87864940Y-42073695D01*
X87884710Y-42078771D01*
X87903115Y-42085071D01*
X87921855Y-42093181D01*
X87965618Y-42100111D01*
X87977045Y-42102478D01*
X88019970Y-42113500D01*
X88040391Y-42113500D01*
X88059788Y-42115026D01*
X88068555Y-42116415D01*
X88079942Y-42118219D01*
X88079942Y-42118218D01*
X88079943Y-42118219D01*
X88124049Y-42114049D01*
X88135718Y-42113500D01*
X92166367Y-42113500D01*
X92187108Y-42115789D01*
X92189905Y-42115701D01*
X92189909Y-42115702D01*
X92258017Y-42113560D01*
X92261913Y-42113500D01*
X92289854Y-42113500D01*
X92289856Y-42113500D01*
X92293956Y-42112981D01*
X92305596Y-42112064D01*
X92322835Y-42111522D01*
X92377330Y-42122255D01*
X92421676Y-42155703D01*
X92446970Y-42205156D01*
X92448136Y-42260689D01*
X92406258Y-42462217D01*
X92386572Y-42750000D01*
X92404292Y-43009038D01*
X92390679Y-43074548D01*
X92345009Y-43123448D01*
X92280581Y-43141500D01*
X91426362Y-43141500D01*
X91399445Y-43144393D01*
X91365794Y-43148011D01*
X91228796Y-43199110D01*
X91111738Y-43286738D01*
X91024110Y-43403796D01*
X90973011Y-43540794D01*
X90971253Y-43557153D01*
X90967508Y-43591992D01*
X90966500Y-43601366D01*
X90966500Y-43626251D01*
X90952561Y-43683371D01*
X90913876Y-43727648D01*
X90859145Y-43749129D01*
X90800671Y-43742983D01*
X90751602Y-43710593D01*
X90700802Y-43655843D01*
X90698754Y-43654210D01*
X90494505Y-43491326D01*
X90265994Y-43359396D01*
X90020372Y-43262996D01*
X89763122Y-43204280D01*
X89565886Y-43189500D01*
X89565881Y-43189500D01*
X89434119Y-43189500D01*
X89434114Y-43189500D01*
X89236877Y-43204280D01*
X88979627Y-43262996D01*
X88734005Y-43359396D01*
X88505494Y-43491326D01*
X88299198Y-43655843D01*
X88119727Y-43849265D01*
X88019737Y-43995925D01*
X87974746Y-44061915D01*
X87971086Y-44067283D01*
X87856601Y-44305013D01*
X87778825Y-44557153D01*
X87739500Y-44818068D01*
X87739500Y-45081931D01*
X87778825Y-45342846D01*
X87809459Y-45442157D01*
X87856601Y-45594987D01*
X87897356Y-45679615D01*
X87971085Y-45832715D01*
X87971086Y-45832717D01*
X87971087Y-45832718D01*
X88119726Y-46050732D01*
X88299198Y-46244157D01*
X88505494Y-46408673D01*
X88734006Y-46540604D01*
X88979628Y-46637004D01*
X89236875Y-46695719D01*
X89286863Y-46699465D01*
X89434114Y-46710500D01*
X89434119Y-46710500D01*
X89565881Y-46710500D01*
X89565885Y-46710500D01*
X89713138Y-46699465D01*
X89775857Y-46711231D01*
X89824420Y-46752628D01*
X89845965Y-46812695D01*
X89834787Y-46875521D01*
X89785716Y-46980755D01*
X89726456Y-47201915D01*
X89706501Y-47430000D01*
X89726456Y-47658084D01*
X89739957Y-47708470D01*
X89777061Y-47846944D01*
X89785717Y-47879246D01*
X89882474Y-48086744D01*
X89882476Y-48086746D01*
X89882477Y-48086749D01*
X90013802Y-48274300D01*
X90175700Y-48436198D01*
X90363251Y-48567523D01*
X90363254Y-48567524D01*
X90363255Y-48567525D01*
X90435890Y-48601395D01*
X90570757Y-48664284D01*
X90791913Y-48723543D01*
X91020000Y-48743498D01*
X91248087Y-48723543D01*
X91469243Y-48664284D01*
X91676749Y-48567523D01*
X91864300Y-48436198D01*
X92026198Y-48274300D01*
X92048911Y-48241861D01*
X92100318Y-48199587D01*
X92166180Y-48189983D01*
X92227520Y-48215818D01*
X92266665Y-48269648D01*
X92269110Y-48276203D01*
X92356738Y-48393261D01*
X92473796Y-48480889D01*
X92610794Y-48531988D01*
X92610797Y-48531988D01*
X92610799Y-48531989D01*
X92671362Y-48538500D01*
X94368634Y-48538500D01*
X94368638Y-48538500D01*
X94429201Y-48531989D01*
X94429203Y-48531988D01*
X94429205Y-48531988D01*
X94541326Y-48490168D01*
X94566204Y-48480889D01*
X94683261Y-48393261D01*
X94770889Y-48276204D01*
X94790640Y-48223251D01*
X94803819Y-48187918D01*
X94837468Y-48138708D01*
X94890193Y-48110888D01*
X94949807Y-48110888D01*
X95002532Y-48138708D01*
X95036181Y-48187918D01*
X95069110Y-48276203D01*
X95156738Y-48393261D01*
X95273796Y-48480889D01*
X95410794Y-48531988D01*
X95410797Y-48531988D01*
X95410799Y-48531989D01*
X95471362Y-48538500D01*
X95541302Y-48538500D01*
X95597597Y-48552015D01*
X95641620Y-48589615D01*
X95663775Y-48643102D01*
X95659233Y-48700818D01*
X95628983Y-48750180D01*
X93383856Y-50995307D01*
X91148482Y-53230681D01*
X91108254Y-53257561D01*
X91060801Y-53267000D01*
X82139728Y-53267000D01*
X82096394Y-53259182D01*
X82080519Y-53253261D01*
X81959201Y-53208011D01*
X81898638Y-53201500D01*
X80201362Y-53201500D01*
X80174445Y-53204393D01*
X80140794Y-53208011D01*
X80003796Y-53259110D01*
X79886739Y-53346737D01*
X79802797Y-53458871D01*
X79752342Y-53498549D01*
X79688808Y-53507683D01*
X79629219Y-53483826D01*
X79619574Y-53476606D01*
X79610610Y-53469895D01*
X79596203Y-53459110D01*
X79459205Y-53408011D01*
X79428919Y-53404755D01*
X79398638Y-53401500D01*
X77701362Y-53401500D01*
X77674445Y-53404393D01*
X77640794Y-53408011D01*
X77503796Y-53459110D01*
X77386738Y-53546738D01*
X77299110Y-53663795D01*
X77266181Y-53752082D01*
X77232532Y-53801291D01*
X77179807Y-53829111D01*
X77120193Y-53829111D01*
X77067468Y-53801291D01*
X77033819Y-53752082D01*
X77000889Y-53663795D01*
X76913261Y-53546738D01*
X76796203Y-53459110D01*
X76664166Y-53409862D01*
X76621930Y-53383424D01*
X76593512Y-53342493D01*
X76583500Y-53293681D01*
X76583500Y-51974969D01*
X76597402Y-51917921D01*
X76635992Y-51873665D01*
X76690615Y-51852124D01*
X76747946Y-51844244D01*
X83520341Y-51844244D01*
X83535840Y-51932137D01*
X83551023Y-52018241D01*
X83601320Y-52134843D01*
X83621002Y-52180472D01*
X83726509Y-52322192D01*
X83861851Y-52435758D01*
X83861852Y-52435758D01*
X83861854Y-52435760D01*
X84019741Y-52515054D01*
X84019742Y-52515054D01*
X84019744Y-52515055D01*
X84191658Y-52555800D01*
X84191660Y-52555800D01*
X84324016Y-52555800D01*
X84324019Y-52555800D01*
X84455486Y-52540434D01*
X84621511Y-52480005D01*
X84769126Y-52382918D01*
X84890372Y-52254405D01*
X84978712Y-52101395D01*
X85029385Y-51932137D01*
X85039658Y-51755755D01*
X85008977Y-51581759D01*
X84938998Y-51419528D01*
X84833491Y-51277808D01*
X84821881Y-51268066D01*
X84698148Y-51164241D01*
X84546712Y-51088187D01*
X84540259Y-51084946D01*
X84540258Y-51084945D01*
X84540255Y-51084944D01*
X84368342Y-51044200D01*
X84368340Y-51044200D01*
X84235981Y-51044200D01*
X84137380Y-51055724D01*
X84104513Y-51059566D01*
X83938489Y-51119994D01*
X83790872Y-51217083D01*
X83669628Y-51345594D01*
X83581288Y-51498603D01*
X83563760Y-51557153D01*
X83530615Y-51667863D01*
X83530614Y-51667865D01*
X83530615Y-51667865D01*
X83520341Y-51844244D01*
X76747946Y-51844244D01*
X76772057Y-51840930D01*
X76929989Y-51819223D01*
X77207744Y-51741400D01*
X77472314Y-51626481D01*
X77718772Y-51476606D01*
X77942526Y-51294568D01*
X78139409Y-51083758D01*
X78305753Y-50848103D01*
X78438459Y-50591992D01*
X78535055Y-50320196D01*
X78593742Y-50037778D01*
X78613427Y-49750000D01*
X78593742Y-49462222D01*
X78535055Y-49179804D01*
X78438459Y-48908008D01*
X78350627Y-48738500D01*
X78305753Y-48651896D01*
X78139407Y-48416239D01*
X78107557Y-48382136D01*
X78079247Y-48332582D01*
X78076131Y-48275597D01*
X78098868Y-48223251D01*
X78142642Y-48186633D01*
X78198181Y-48173500D01*
X79479772Y-48173500D01*
X79505553Y-48176210D01*
X79704511Y-48218500D01*
X79704513Y-48218500D01*
X79895487Y-48218500D01*
X79895489Y-48218500D01*
X80082285Y-48178795D01*
X80082286Y-48178794D01*
X80082288Y-48178794D01*
X80256752Y-48101118D01*
X80411253Y-47988866D01*
X80539040Y-47846944D01*
X80539820Y-47845594D01*
X80634527Y-47681556D01*
X80637371Y-47672802D01*
X80693542Y-47499928D01*
X80713504Y-47310000D01*
X80693542Y-47120072D01*
X80658718Y-47012895D01*
X80634527Y-46938443D01*
X80539042Y-46773058D01*
X80501283Y-46731123D01*
X80411253Y-46631134D01*
X80256752Y-46518882D01*
X80256751Y-46518881D01*
X80082285Y-46441204D01*
X79895489Y-46401500D01*
X79895487Y-46401500D01*
X79704513Y-46401500D01*
X79704511Y-46401500D01*
X79517714Y-46441204D01*
X79343248Y-46518881D01*
X79188748Y-46631133D01*
X79188747Y-46631134D01*
X79173915Y-46647607D01*
X79060959Y-46773057D01*
X79056162Y-46781366D01*
X79019711Y-46844500D01*
X78974325Y-46889887D01*
X78912325Y-46906500D01*
X77956627Y-46906500D01*
X77889588Y-46886815D01*
X77843833Y-46834011D01*
X77833889Y-46764853D01*
X77862914Y-46701297D01*
X77909437Y-46647607D01*
X78015563Y-46463792D01*
X78084984Y-46263214D01*
X78115190Y-46053123D01*
X78105091Y-45841112D01*
X78055051Y-45634843D01*
X77966878Y-45441773D01*
X77962895Y-45436180D01*
X77843761Y-45268878D01*
X77763117Y-45191984D01*
X77690147Y-45122407D01*
X77627165Y-45081931D01*
X77511591Y-45007655D01*
X77324958Y-44932939D01*
X77314542Y-44928769D01*
X77314541Y-44928768D01*
X77314539Y-44928768D01*
X77106127Y-44888600D01*
X77106126Y-44888600D01*
X76947062Y-44888600D01*
X76849261Y-44897939D01*
X76788707Y-44903721D01*
X76585057Y-44963518D01*
X76396396Y-45060779D01*
X76229560Y-45191982D01*
X76090561Y-45352394D01*
X75984437Y-45536206D01*
X75915015Y-45736785D01*
X75884873Y-45946439D01*
X75884810Y-45946877D01*
X75894909Y-46158888D01*
X75944949Y-46365157D01*
X75944950Y-46365159D01*
X76033122Y-46558228D01*
X76141606Y-46710573D01*
X76164283Y-46773654D01*
X76150815Y-46839320D01*
X76105137Y-46888381D01*
X76040599Y-46906500D01*
X74995801Y-46906500D01*
X74975065Y-46904211D01*
X74972264Y-46904299D01*
X74904174Y-46906439D01*
X74900279Y-46906500D01*
X74872317Y-46906500D01*
X74868205Y-46907019D01*
X74856574Y-46907934D01*
X74812283Y-46909326D01*
X74792680Y-46915022D01*
X74773629Y-46918967D01*
X74753376Y-46921525D01*
X74712181Y-46937835D01*
X74701135Y-46941616D01*
X74658578Y-46953981D01*
X74641000Y-46964376D01*
X74623533Y-46972933D01*
X74604557Y-46980446D01*
X74568717Y-47006485D01*
X74558959Y-47012895D01*
X74520810Y-47035457D01*
X74506369Y-47049898D01*
X74491582Y-47062527D01*
X74475065Y-47074528D01*
X74446825Y-47108663D01*
X74438965Y-47117301D01*
X73696087Y-47860181D01*
X73655859Y-47887061D01*
X73608406Y-47896500D01*
X72633679Y-47896500D01*
X72571169Y-47879591D01*
X72525707Y-47833476D01*
X72509692Y-47770732D01*
X72527490Y-47708470D01*
X72564716Y-47672802D01*
X72563393Y-47671035D01*
X72580689Y-47658087D01*
X72796654Y-47496418D01*
X72996418Y-47296654D01*
X73165720Y-47070493D01*
X73301112Y-46822540D01*
X73399839Y-46557843D01*
X73459891Y-46281790D01*
X73480045Y-46000000D01*
X73459891Y-45718210D01*
X73399839Y-45442157D01*
X73325017Y-45241551D01*
X73301112Y-45177459D01*
X73165721Y-44929508D01*
X73105299Y-44848794D01*
X72996418Y-44703346D01*
X72796654Y-44503582D01*
X72635463Y-44382916D01*
X72570491Y-44334278D01*
X72322540Y-44198887D01*
X72057841Y-44100160D01*
X71781790Y-44040109D01*
X71570539Y-44025000D01*
X71570538Y-44025000D01*
X71429462Y-44025000D01*
X71429461Y-44025000D01*
X71218209Y-44040109D01*
X70942158Y-44100160D01*
X70677459Y-44198887D01*
X70429508Y-44334278D01*
X70203343Y-44503584D01*
X70003584Y-44703343D01*
X69834278Y-44929508D01*
X69698887Y-45177459D01*
X69600160Y-45442158D01*
X69540109Y-45718209D01*
X69519954Y-45999999D01*
X69540109Y-46281790D01*
X69600160Y-46557841D01*
X69698887Y-46822540D01*
X69834278Y-47070491D01*
X69898302Y-47156017D01*
X70003582Y-47296654D01*
X70203346Y-47496418D01*
X70419311Y-47658087D01*
X70436607Y-47671035D01*
X70435283Y-47672802D01*
X70472510Y-47708470D01*
X70490308Y-47770732D01*
X70474293Y-47833476D01*
X70428831Y-47879591D01*
X70366321Y-47896500D01*
X69583907Y-47896500D01*
X69536454Y-47887061D01*
X69496226Y-47860181D01*
X68707232Y-47071187D01*
X68694185Y-47054901D01*
X68642473Y-47006341D01*
X68639705Y-47003659D01*
X68619911Y-46983865D01*
X68619910Y-46983864D01*
X68619909Y-46983863D01*
X68616636Y-46981324D01*
X68607763Y-46973745D01*
X68575462Y-46943414D01*
X68557574Y-46933580D01*
X68541310Y-46922896D01*
X68525181Y-46910385D01*
X68484518Y-46892789D01*
X68474024Y-46887648D01*
X68435203Y-46866305D01*
X68423527Y-46863307D01*
X68415425Y-46861227D01*
X68397020Y-46854926D01*
X68378286Y-46846819D01*
X68378284Y-46846818D01*
X68378283Y-46846818D01*
X68334524Y-46839887D01*
X68323084Y-46837518D01*
X68280172Y-46826500D01*
X68280171Y-46826500D01*
X68259757Y-46826500D01*
X68240358Y-46824973D01*
X68220199Y-46821780D01*
X68220198Y-46821780D01*
X68187459Y-46824874D01*
X68176084Y-46825950D01*
X68164415Y-46826500D01*
X67020927Y-46826500D01*
X66958927Y-46809887D01*
X66913540Y-46764500D01*
X66896927Y-46702500D01*
X66913540Y-46640500D01*
X67015563Y-46463792D01*
X67084984Y-46263214D01*
X67115190Y-46053123D01*
X67105091Y-45841112D01*
X67055051Y-45634843D01*
X66966878Y-45441773D01*
X66962895Y-45436180D01*
X66843761Y-45268878D01*
X66763117Y-45191984D01*
X66690147Y-45122407D01*
X66627165Y-45081931D01*
X66511591Y-45007655D01*
X66324958Y-44932939D01*
X66314542Y-44928769D01*
X66314541Y-44928768D01*
X66314539Y-44928768D01*
X66106127Y-44888600D01*
X66106126Y-44888600D01*
X65947062Y-44888600D01*
X65849261Y-44897939D01*
X65788707Y-44903721D01*
X65585057Y-44963518D01*
X65396396Y-45060779D01*
X65229560Y-45191982D01*
X65090561Y-45352394D01*
X64984437Y-45536206D01*
X64915015Y-45736785D01*
X64884873Y-45946439D01*
X64884810Y-45946877D01*
X64894909Y-46158888D01*
X64944949Y-46365157D01*
X64944950Y-46365159D01*
X65033122Y-46558228D01*
X65156240Y-46731124D01*
X65170386Y-46744612D01*
X65201395Y-46792100D01*
X65208015Y-46848429D01*
X65188861Y-46901812D01*
X65147941Y-46941084D01*
X65123638Y-46955457D01*
X65109200Y-46969895D01*
X65094411Y-46982525D01*
X65077894Y-46994525D01*
X65049644Y-47028673D01*
X65041783Y-47037311D01*
X64173915Y-47905181D01*
X64133687Y-47932061D01*
X64086234Y-47941500D01*
X61876362Y-47941500D01*
X61849445Y-47944393D01*
X61815794Y-47948011D01*
X61678796Y-47999110D01*
X61561739Y-48086737D01*
X61502181Y-48166298D01*
X61454416Y-48204786D01*
X61394048Y-48215670D01*
X61335850Y-48196287D01*
X61294063Y-48151380D01*
X61278914Y-48091942D01*
X61281318Y-41844244D01*
X65520341Y-41844244D01*
X65540071Y-41956133D01*
X65551023Y-42018241D01*
X65610318Y-42155703D01*
X65621002Y-42180472D01*
X65726509Y-42322192D01*
X65861851Y-42435758D01*
X65861852Y-42435758D01*
X65861854Y-42435760D01*
X66019741Y-42515054D01*
X66019742Y-42515054D01*
X66019744Y-42515055D01*
X66191658Y-42555800D01*
X66191660Y-42555800D01*
X66324016Y-42555800D01*
X66324019Y-42555800D01*
X66455486Y-42540434D01*
X66621511Y-42480005D01*
X66769126Y-42382918D01*
X66890372Y-42254405D01*
X66978712Y-42101395D01*
X67029385Y-41932137D01*
X67034504Y-41844244D01*
X75960341Y-41844244D01*
X75980071Y-41956133D01*
X75991023Y-42018241D01*
X76050318Y-42155703D01*
X76061002Y-42180472D01*
X76166509Y-42322192D01*
X76301851Y-42435758D01*
X76301852Y-42435758D01*
X76301854Y-42435760D01*
X76459741Y-42515054D01*
X76459742Y-42515054D01*
X76459744Y-42515055D01*
X76631658Y-42555800D01*
X76631660Y-42555800D01*
X76764016Y-42555800D01*
X76764019Y-42555800D01*
X76895486Y-42540434D01*
X77061511Y-42480005D01*
X77209126Y-42382918D01*
X77330372Y-42254405D01*
X77418712Y-42101395D01*
X77469385Y-41932137D01*
X77479658Y-41755755D01*
X77448977Y-41581759D01*
X77378998Y-41419528D01*
X77273491Y-41277808D01*
X77230102Y-41241400D01*
X77138148Y-41164241D01*
X76980255Y-41084944D01*
X76808342Y-41044200D01*
X76808340Y-41044200D01*
X76675981Y-41044200D01*
X76577380Y-41055724D01*
X76544513Y-41059566D01*
X76378489Y-41119994D01*
X76230872Y-41217083D01*
X76109628Y-41345594D01*
X76021288Y-41498603D01*
X76000515Y-41567990D01*
X75970615Y-41667863D01*
X75970614Y-41667865D01*
X75970615Y-41667865D01*
X75960341Y-41844244D01*
X67034504Y-41844244D01*
X67039658Y-41755755D01*
X67008977Y-41581759D01*
X66938998Y-41419528D01*
X66833491Y-41277808D01*
X66790102Y-41241400D01*
X66698148Y-41164241D01*
X66540255Y-41084944D01*
X66368342Y-41044200D01*
X66368340Y-41044200D01*
X66235981Y-41044200D01*
X66137380Y-41055724D01*
X66104513Y-41059566D01*
X65938489Y-41119994D01*
X65790872Y-41217083D01*
X65669628Y-41345594D01*
X65581288Y-41498603D01*
X65560515Y-41567990D01*
X65530615Y-41667863D01*
X65530614Y-41667865D01*
X65530615Y-41667865D01*
X65520341Y-41844244D01*
X61281318Y-41844244D01*
X61282593Y-38530038D01*
X61282607Y-38529974D01*
X61282607Y-38502519D01*
X61283079Y-38491713D01*
X61292352Y-38385716D01*
X61296465Y-38338690D01*
X61300217Y-38317413D01*
X61338570Y-38174272D01*
X61345956Y-38153982D01*
X61408580Y-38019683D01*
X61419383Y-38000972D01*
X61504373Y-37879595D01*
X61518265Y-37863039D01*
X61540510Y-37840794D01*
X61575297Y-37806006D01*
X61604788Y-37784190D01*
X61639364Y-37771959D01*
X62308389Y-37642250D01*
X62331822Y-37639986D01*
X79199967Y-37620023D01*
X79220001Y-37620000D01*
X79536196Y-37530216D01*
X79570067Y-37525500D01*
X79589720Y-37525500D01*
X79766433Y-37494340D01*
X79935050Y-37432969D01*
X79976287Y-37409160D01*
X80004404Y-37397267D01*
X80030000Y-37390000D01*
X80030001Y-37389996D01*
X80040160Y-37381100D01*
X80041762Y-37378593D01*
X80072335Y-37353706D01*
X80090449Y-37343249D01*
X80227908Y-37227908D01*
X80343249Y-37090449D01*
X80432969Y-36935050D01*
X80494340Y-36766433D01*
X80525500Y-36589720D01*
X80525500Y-36500000D01*
X80525500Y-36491715D01*
X80525500Y-34844244D01*
X83520341Y-34844244D01*
X83535840Y-34932137D01*
X83551023Y-35018241D01*
X83601320Y-35134843D01*
X83621002Y-35180472D01*
X83726509Y-35322192D01*
X83861851Y-35435758D01*
X83861852Y-35435758D01*
X83861854Y-35435760D01*
X84019741Y-35515054D01*
X84019742Y-35515054D01*
X84019744Y-35515055D01*
X84191658Y-35555800D01*
X84191660Y-35555800D01*
X84324016Y-35555800D01*
X84324019Y-35555800D01*
X84455486Y-35540434D01*
X84621511Y-35480005D01*
X84769126Y-35382918D01*
X84890372Y-35254405D01*
X84978712Y-35101395D01*
X85029385Y-34932137D01*
X85034504Y-34844244D01*
X93960341Y-34844244D01*
X93975840Y-34932137D01*
X93991023Y-35018241D01*
X94041320Y-35134843D01*
X94061002Y-35180472D01*
X94166509Y-35322192D01*
X94301851Y-35435758D01*
X94301852Y-35435758D01*
X94301854Y-35435760D01*
X94459741Y-35515054D01*
X94459742Y-35515054D01*
X94459744Y-35515055D01*
X94631658Y-35555800D01*
X94631660Y-35555800D01*
X94764016Y-35555800D01*
X94764019Y-35555800D01*
X94895486Y-35540434D01*
X95061511Y-35480005D01*
X95209126Y-35382918D01*
X95330372Y-35254405D01*
X95418712Y-35101395D01*
X95469385Y-34932137D01*
X95479658Y-34755755D01*
X95448977Y-34581759D01*
X95378998Y-34419528D01*
X95273491Y-34277808D01*
X95261115Y-34267423D01*
X95138148Y-34164241D01*
X94980255Y-34084944D01*
X94808342Y-34044200D01*
X94808340Y-34044200D01*
X94675981Y-34044200D01*
X94582724Y-34055100D01*
X94544513Y-34059566D01*
X94378489Y-34119994D01*
X94230872Y-34217083D01*
X94109628Y-34345594D01*
X94021288Y-34498603D01*
X94016363Y-34515054D01*
X93970615Y-34667863D01*
X93970614Y-34667865D01*
X93970615Y-34667865D01*
X93960341Y-34844244D01*
X85034504Y-34844244D01*
X85039658Y-34755755D01*
X85008977Y-34581759D01*
X84938998Y-34419528D01*
X84833491Y-34277808D01*
X84821115Y-34267423D01*
X84698148Y-34164241D01*
X84540255Y-34084944D01*
X84368342Y-34044200D01*
X84368340Y-34044200D01*
X84235981Y-34044200D01*
X84142724Y-34055100D01*
X84104513Y-34059566D01*
X83938489Y-34119994D01*
X83790872Y-34217083D01*
X83669628Y-34345594D01*
X83581288Y-34498603D01*
X83576363Y-34515054D01*
X83530615Y-34667863D01*
X83530614Y-34667865D01*
X83530615Y-34667865D01*
X83520341Y-34844244D01*
X80525500Y-34844244D01*
X80525500Y-31505412D01*
X80525972Y-31494605D01*
X80527509Y-31477040D01*
X80539359Y-31341587D01*
X80543112Y-31320303D01*
X80566353Y-31233567D01*
X80581464Y-31177169D01*
X80588849Y-31156880D01*
X80651481Y-31022564D01*
X80662274Y-31003871D01*
X80747271Y-30882485D01*
X80761158Y-30865934D01*
X80865934Y-30761158D01*
X80882485Y-30747271D01*
X81001063Y-30664241D01*
X81003871Y-30662274D01*
X81022564Y-30651481D01*
X81151020Y-30591581D01*
X81203338Y-30579966D01*
X97170000Y-30570000D01*
X97295855Y-30531044D01*
X97332519Y-30525500D01*
X97589720Y-30525500D01*
X97766433Y-30494340D01*
X97935050Y-30432969D01*
X98090449Y-30343249D01*
X98227908Y-30227908D01*
X98343249Y-30090449D01*
X98432969Y-29935050D01*
X98494340Y-29766433D01*
X98525500Y-29589720D01*
X98525500Y-29500000D01*
X98525500Y-29491715D01*
X98525500Y-26844244D01*
X101520341Y-26844244D01*
X101535840Y-26932137D01*
X101551023Y-27018241D01*
X101610471Y-27156058D01*
X101621002Y-27180472D01*
X101726509Y-27322192D01*
X101861851Y-27435758D01*
X101861852Y-27435758D01*
X101861854Y-27435760D01*
X102019741Y-27515054D01*
X102019742Y-27515054D01*
X102019744Y-27515055D01*
X102191658Y-27555800D01*
X102191660Y-27555800D01*
X102324016Y-27555800D01*
X102324019Y-27555800D01*
X102455486Y-27540434D01*
X102621511Y-27480005D01*
X102769126Y-27382918D01*
X102890372Y-27254405D01*
X102978712Y-27101395D01*
X103029385Y-26932137D01*
X103034504Y-26844244D01*
X111960341Y-26844244D01*
X111975840Y-26932137D01*
X111991023Y-27018241D01*
X112050471Y-27156058D01*
X112061002Y-27180472D01*
X112166509Y-27322192D01*
X112301851Y-27435758D01*
X112301852Y-27435758D01*
X112301854Y-27435760D01*
X112459741Y-27515054D01*
X112459742Y-27515054D01*
X112459744Y-27515055D01*
X112631658Y-27555800D01*
X112631660Y-27555800D01*
X112764016Y-27555800D01*
X112764019Y-27555800D01*
X112895486Y-27540434D01*
X113061511Y-27480005D01*
X113209126Y-27382918D01*
X113330372Y-27254405D01*
X113418712Y-27101395D01*
X113469385Y-26932137D01*
X113479658Y-26755755D01*
X113448977Y-26581759D01*
X113378998Y-26419528D01*
X113273491Y-26277808D01*
X113201121Y-26217082D01*
X113138148Y-26164241D01*
X112980255Y-26084944D01*
X112808342Y-26044200D01*
X112808340Y-26044200D01*
X112675981Y-26044200D01*
X112577380Y-26055724D01*
X112544513Y-26059566D01*
X112378489Y-26119994D01*
X112230872Y-26217083D01*
X112109628Y-26345594D01*
X112021288Y-26498603D01*
X111996393Y-26581759D01*
X111970615Y-26667863D01*
X111970614Y-26667865D01*
X111970615Y-26667865D01*
X111960341Y-26844244D01*
X103034504Y-26844244D01*
X103039658Y-26755755D01*
X103008977Y-26581759D01*
X102938998Y-26419528D01*
X102833491Y-26277808D01*
X102761121Y-26217082D01*
X102698148Y-26164241D01*
X102540255Y-26084944D01*
X102368342Y-26044200D01*
X102368340Y-26044200D01*
X102235981Y-26044200D01*
X102137380Y-26055724D01*
X102104513Y-26059566D01*
X101938489Y-26119994D01*
X101790872Y-26217083D01*
X101669628Y-26345594D01*
X101581288Y-26498603D01*
X101556393Y-26581759D01*
X101530615Y-26667863D01*
X101530614Y-26667865D01*
X101530615Y-26667865D01*
X101520341Y-26844244D01*
X98525500Y-26844244D01*
X98525500Y-23505412D01*
X98525972Y-23494605D01*
X98539359Y-23341587D01*
X98543112Y-23320303D01*
X98581463Y-23177175D01*
X98588849Y-23156880D01*
X98651481Y-23022564D01*
X98662274Y-23003871D01*
X98747271Y-22882485D01*
X98761158Y-22865934D01*
X98865934Y-22761158D01*
X98882485Y-22747271D01*
X98916628Y-22723362D01*
X99003871Y-22662274D01*
X99022564Y-22651481D01*
X99156885Y-22588846D01*
X99177170Y-22581464D01*
X99240824Y-22564408D01*
X99273060Y-22560185D01*
X114530187Y-22579961D01*
G37*
%TD.AperFunction*%
D44*
X186206846Y-114001309D02*
X179280000Y-99580000D01*
X155890000Y-132490000D02*
X164471272Y-147860366D01*
X144380000Y-118530000D02*
X155890000Y-132490000D01*
X130300000Y-106620000D02*
X144380000Y-118530000D01*
X106247734Y-84836978D02*
G75*
G03*
X105579997Y-84629995I-587179J-713700D01*
G01*
X130300000Y-106620000D02*
X106247735Y-84836977D01*
X85029996Y-84610000D02*
X105579997Y-84629994D01*
X85029996Y-84609998D02*
G75*
G03*
X84029997Y-85609994I-3J-999996D01*
G01*
X84029039Y-89166652D02*
X84029997Y-85609994D01*
X83120000Y-90250002D02*
G75*
G03*
X84029039Y-89166652I-87156J996195D01*
G01*
X61238061Y-88001939D02*
G75*
G03*
X63498061Y-90261939I2260000J0D01*
G01*
X83120000Y-90250000D02*
X63498061Y-90261939D01*
X61238061Y-88001939D02*
X61257107Y-38497107D01*
X79500000Y-37500000D02*
G75*
G03*
X80500000Y-36500000I0J1000000D01*
G01*
X178310000Y-42700000D02*
X157452107Y-42742893D01*
X195149465Y-131707616D02*
X166560366Y-148228728D01*
X155952107Y-41242893D02*
G75*
G03*
X157452107Y-42742893I1500000J0D01*
G01*
X179310000Y-43700000D02*
X179280000Y-99580000D01*
X80500000Y-31500000D02*
X80500000Y-36500000D01*
X79500000Y-37500000D02*
X62257107Y-37497107D01*
X81500000Y-30500000D02*
G75*
G03*
X80500000Y-31500000I0J-1000000D01*
G01*
X195633153Y-130378690D02*
X186206846Y-114001309D01*
X133500000Y-27000000D02*
X117500000Y-27000000D01*
X116500000Y-23500000D02*
G75*
G03*
X115500000Y-22500000I-1000000J0D01*
G01*
X134500000Y-28500000D02*
G75*
G03*
X135500000Y-29500000I1000000J0D01*
G01*
X134500000Y-28500000D02*
X134500000Y-28000000D01*
X155952107Y-41242893D02*
X155987893Y-31477107D01*
X116500000Y-26000000D02*
X116500000Y-23500000D01*
X97500000Y-30500000D02*
X81500000Y-30500000D01*
X62257107Y-37497107D02*
G75*
G03*
X61257107Y-38497107I0J-1000000D01*
G01*
X134500000Y-28000000D02*
G75*
G03*
X133500000Y-27000000I-1000000J0D01*
G01*
X164471273Y-147860366D02*
G75*
G03*
X166560366Y-148228727I1228727J860366D01*
G01*
X115500000Y-22500000D02*
X99500000Y-22500000D01*
X195149465Y-131707615D02*
G75*
G03*
X195633152Y-130378690I-422619J906306D01*
G01*
X155987893Y-31477107D02*
G75*
G03*
X153987893Y-29477107I-1999986J14D01*
G01*
X153987893Y-29477107D02*
X135500000Y-29500000D01*
X116500000Y-26000000D02*
G75*
G03*
X117500000Y-27000000I1000000J0D01*
G01*
X179310000Y-43700000D02*
G75*
G03*
X178310000Y-42700000I-1000000J0D01*
G01*
X98500000Y-23500000D02*
X98500000Y-29500000D01*
X97500000Y-30500000D02*
G75*
G03*
X98500000Y-29500000I0J1000000D01*
G01*
X99500000Y-22500000D02*
G75*
G03*
X98500000Y-23500000I0J-1000000D01*
G01*
M02*
