G04 #@! TF.GenerationSoftware,KiCad,Pcbnew,7.0.1-0*
G04 #@! TF.CreationDate,2023-07-03T15:41:13+02:00*
G04 #@! TF.ProjectId,helicoprion,68656c69-636f-4707-9269-6f6e2e6b6963,rev?*
G04 #@! TF.SameCoordinates,Original*
G04 #@! TF.FileFunction,Profile,NP*
%FSLAX46Y46*%
G04 Gerber Fmt 4.6, Leading zero omitted, Abs format (unit mm)*
G04 Created by KiCad (PCBNEW 7.0.1-0) date 2023-07-03 15:41:13*
%MOMM*%
%LPD*%
G01*
G04 APERTURE LIST*
G04 #@! TA.AperFunction,Profile*
%ADD10C,0.100000*%
G04 #@! TD*
G04 APERTURE END LIST*
D10*
X79500000Y-37500000D02*
G75*
G03*
X80500000Y-36500000I0J1000000D01*
G01*
X61238061Y-88001939D02*
X61257107Y-38497107D01*
X174872893Y-42710000D02*
X157452107Y-42742893D01*
X195149465Y-131707616D02*
X166560366Y-148228728D01*
X155952107Y-41242893D02*
G75*
G03*
X157452107Y-42742893I1499993J-7D01*
G01*
X175872893Y-43710000D02*
X175880000Y-96460000D01*
X144380000Y-118530000D02*
X112830000Y-90550000D01*
X80500000Y-31500000D02*
X80500000Y-36500000D01*
X79500000Y-37500000D02*
X62257107Y-37497107D01*
X81500000Y-30500000D02*
G75*
G03*
X80500000Y-31500000I0J-1000000D01*
G01*
X195633153Y-130378690D02*
X175880000Y-96460000D01*
X133500000Y-27000000D02*
X117500000Y-27000000D01*
X112169983Y-90289083D02*
X63498061Y-90261939D01*
X116500000Y-23500000D02*
G75*
G03*
X115500000Y-22500000I-1000000J0D01*
G01*
X134500000Y-28500000D02*
G75*
G03*
X135500000Y-29500000I1000000J0D01*
G01*
X134500000Y-28500000D02*
X134500000Y-28000000D01*
X155952107Y-41242893D02*
X155987893Y-31477107D01*
X116500000Y-26000000D02*
X116500000Y-23500000D01*
X97500000Y-30500000D02*
X81500000Y-30500000D01*
X62257107Y-37497107D02*
G75*
G03*
X61257107Y-38497107I-7J-999993D01*
G01*
X134500000Y-28000000D02*
G75*
G03*
X133500000Y-27000000I-1000000J0D01*
G01*
X164471273Y-147860366D02*
G75*
G03*
X166560366Y-148228727I1228727J860366D01*
G01*
X155890000Y-132490000D02*
X164471272Y-147860366D01*
X115500000Y-22500000D02*
X99500000Y-22500000D01*
X112829999Y-90550001D02*
G75*
G03*
X112169983Y-90289084I-643599J-662799D01*
G01*
X144380000Y-118530000D02*
X155890000Y-132490000D01*
X195149469Y-131707625D02*
G75*
G03*
X195633153Y-130378690I-422669J906325D01*
G01*
X155987893Y-31477107D02*
G75*
G03*
X153987893Y-29477107I-1999993J7D01*
G01*
X153987893Y-29477107D02*
X135500000Y-29500000D01*
X116500000Y-26000000D02*
G75*
G03*
X117500000Y-27000000I1000000J0D01*
G01*
X175872900Y-43710000D02*
G75*
G03*
X174872893Y-42710000I-1000000J0D01*
G01*
X61238061Y-88001939D02*
G75*
G03*
X63498061Y-90261939I2260039J39D01*
G01*
X98500000Y-23500000D02*
X98500000Y-29500000D01*
X97500000Y-30500000D02*
G75*
G03*
X98500000Y-29500000I0J1000000D01*
G01*
X99500000Y-22500000D02*
G75*
G03*
X98500000Y-23500000I0J-1000000D01*
G01*
M02*
