G04 #@! TF.GenerationSoftware,KiCad,Pcbnew,7.0.1-0*
G04 #@! TF.CreationDate,2023-04-27T21:51:22+02:00*
G04 #@! TF.ProjectId,helicoprion,68656c69-636f-4707-9269-6f6e2e6b6963,rev?*
G04 #@! TF.SameCoordinates,Original*
G04 #@! TF.FileFunction,Legend,Top*
G04 #@! TF.FilePolarity,Positive*
%FSLAX46Y46*%
G04 Gerber Fmt 4.6, Leading zero omitted, Abs format (unit mm)*
G04 Created by KiCad (PCBNEW 7.0.1-0) date 2023-04-27 21:51:22*
%MOMM*%
%LPD*%
G01*
G04 APERTURE LIST*
G04 Aperture macros list*
%AMRotRect*
0 Rectangle, with rotation*
0 The origin of the aperture is its center*
0 $1 length*
0 $2 width*
0 $3 Rotation angle, in degrees counterclockwise*
0 Add horizontal line*
21,1,$1,$2,0,0,$3*%
G04 Aperture macros list end*
%ADD10C,0.150000*%
%ADD11C,0.225000*%
%ADD12C,0.120000*%
%ADD13RotRect,1.600000X1.600000X140.000000*%
%ADD14C,1.600000*%
%ADD15R,1.600000X1.600000*%
%ADD16RotRect,1.600000X1.600000X50.000000*%
%ADD17RotRect,1.600000X1.600000X330.000000*%
%ADD18RotRect,1.600000X1.600000X30.000000*%
%ADD19RotRect,1.600000X1.600000X40.000000*%
%ADD20C,1.701800*%
%ADD21C,0.990600*%
%ADD22C,3.429000*%
%ADD23C,3.000000*%
%ADD24C,3.200000*%
%ADD25R,2.600000X2.600000*%
%ADD26RotRect,2.600000X2.600000X300.000000*%
%ADD27C,2.100000*%
%ADD28RotRect,1.600000X1.200000X140.000000*%
%ADD29R,1.600000X1.200000*%
%ADD30C,2.200000*%
%ADD31R,1.200000X1.600000*%
%ADD32RotRect,2.600000X2.600000X320.000000*%
%ADD33RotRect,1.600000X1.200000X50.000000*%
%ADD34RotRect,2.600000X2.600000X310.000000*%
%ADD35RotRect,1.600000X1.200000X330.000000*%
%ADD36C,1.524000*%
%ADD37RotRect,1.600000X1.200000X30.000000*%
%ADD38C,0.800000*%
%ADD39O,2.000000X1.600000*%
%ADD40RotRect,2.600000X2.600000X330.000000*%
%ADD41RotRect,1.600000X1.200000X40.000000*%
G04 #@! TA.AperFunction,Profile*
%ADD42C,0.100000*%
G04 #@! TD*
G04 APERTURE END LIST*
D10*
X157934657Y-48630238D02*
X157877515Y-48582619D01*
X157877515Y-48582619D02*
X157791800Y-48582619D01*
X157791800Y-48582619D02*
X157706086Y-48630238D01*
X157706086Y-48630238D02*
X157648943Y-48725476D01*
X157648943Y-48725476D02*
X157620372Y-48820714D01*
X157620372Y-48820714D02*
X157591800Y-49011190D01*
X157591800Y-49011190D02*
X157591800Y-49154047D01*
X157591800Y-49154047D02*
X157620372Y-49344523D01*
X157620372Y-49344523D02*
X157648943Y-49439761D01*
X157648943Y-49439761D02*
X157706086Y-49535000D01*
X157706086Y-49535000D02*
X157791800Y-49582619D01*
X157791800Y-49582619D02*
X157848943Y-49582619D01*
X157848943Y-49582619D02*
X157934657Y-49535000D01*
X157934657Y-49535000D02*
X157963229Y-49487380D01*
X157963229Y-49487380D02*
X157963229Y-49154047D01*
X157963229Y-49154047D02*
X157848943Y-49154047D01*
X158220372Y-49582619D02*
X158220372Y-48582619D01*
X158220372Y-48582619D02*
X158563229Y-49582619D01*
X158563229Y-49582619D02*
X158563229Y-48582619D01*
X158848943Y-49582619D02*
X158848943Y-48582619D01*
X158848943Y-48582619D02*
X158991800Y-48582619D01*
X158991800Y-48582619D02*
X159077514Y-48630238D01*
X159077514Y-48630238D02*
X159134657Y-48725476D01*
X159134657Y-48725476D02*
X159163228Y-48820714D01*
X159163228Y-48820714D02*
X159191800Y-49011190D01*
X159191800Y-49011190D02*
X159191800Y-49154047D01*
X159191800Y-49154047D02*
X159163228Y-49344523D01*
X159163228Y-49344523D02*
X159134657Y-49439761D01*
X159134657Y-49439761D02*
X159077514Y-49535000D01*
X159077514Y-49535000D02*
X158991800Y-49582619D01*
X158991800Y-49582619D02*
X158848943Y-49582619D01*
X159448943Y-49201666D02*
X159906086Y-49201666D01*
X160191800Y-48915952D02*
X160648943Y-49201666D01*
X160648943Y-49201666D02*
X160191800Y-49487380D01*
X157506086Y-64727380D02*
X157477514Y-64775000D01*
X157477514Y-64775000D02*
X157391800Y-64822619D01*
X157391800Y-64822619D02*
X157334657Y-64822619D01*
X157334657Y-64822619D02*
X157248943Y-64775000D01*
X157248943Y-64775000D02*
X157191800Y-64679761D01*
X157191800Y-64679761D02*
X157163229Y-64584523D01*
X157163229Y-64584523D02*
X157134657Y-64394047D01*
X157134657Y-64394047D02*
X157134657Y-64251190D01*
X157134657Y-64251190D02*
X157163229Y-64060714D01*
X157163229Y-64060714D02*
X157191800Y-63965476D01*
X157191800Y-63965476D02*
X157248943Y-63870238D01*
X157248943Y-63870238D02*
X157334657Y-63822619D01*
X157334657Y-63822619D02*
X157391800Y-63822619D01*
X157391800Y-63822619D02*
X157477514Y-63870238D01*
X157477514Y-63870238D02*
X157506086Y-63917857D01*
X157877514Y-63822619D02*
X157991800Y-63822619D01*
X157991800Y-63822619D02*
X158048943Y-63870238D01*
X158048943Y-63870238D02*
X158106086Y-63965476D01*
X158106086Y-63965476D02*
X158134657Y-64155952D01*
X158134657Y-64155952D02*
X158134657Y-64489285D01*
X158134657Y-64489285D02*
X158106086Y-64679761D01*
X158106086Y-64679761D02*
X158048943Y-64775000D01*
X158048943Y-64775000D02*
X157991800Y-64822619D01*
X157991800Y-64822619D02*
X157877514Y-64822619D01*
X157877514Y-64822619D02*
X157820372Y-64775000D01*
X157820372Y-64775000D02*
X157763229Y-64679761D01*
X157763229Y-64679761D02*
X157734657Y-64489285D01*
X157734657Y-64489285D02*
X157734657Y-64155952D01*
X157734657Y-64155952D02*
X157763229Y-63965476D01*
X157763229Y-63965476D02*
X157820372Y-63870238D01*
X157820372Y-63870238D02*
X157877514Y-63822619D01*
X158677514Y-64822619D02*
X158391800Y-64822619D01*
X158391800Y-64822619D02*
X158391800Y-63822619D01*
X159134657Y-64155952D02*
X159134657Y-64822619D01*
X158991799Y-63775000D02*
X158848942Y-64489285D01*
X158848942Y-64489285D02*
X159220371Y-64489285D01*
X159448943Y-64441666D02*
X159906086Y-64441666D01*
X160191800Y-64155952D02*
X160648943Y-64441666D01*
X160648943Y-64441666D02*
X160191800Y-64727380D01*
X157506086Y-69807380D02*
X157477514Y-69855000D01*
X157477514Y-69855000D02*
X157391800Y-69902619D01*
X157391800Y-69902619D02*
X157334657Y-69902619D01*
X157334657Y-69902619D02*
X157248943Y-69855000D01*
X157248943Y-69855000D02*
X157191800Y-69759761D01*
X157191800Y-69759761D02*
X157163229Y-69664523D01*
X157163229Y-69664523D02*
X157134657Y-69474047D01*
X157134657Y-69474047D02*
X157134657Y-69331190D01*
X157134657Y-69331190D02*
X157163229Y-69140714D01*
X157163229Y-69140714D02*
X157191800Y-69045476D01*
X157191800Y-69045476D02*
X157248943Y-68950238D01*
X157248943Y-68950238D02*
X157334657Y-68902619D01*
X157334657Y-68902619D02*
X157391800Y-68902619D01*
X157391800Y-68902619D02*
X157477514Y-68950238D01*
X157477514Y-68950238D02*
X157506086Y-68997857D01*
X157877514Y-68902619D02*
X157991800Y-68902619D01*
X157991800Y-68902619D02*
X158048943Y-68950238D01*
X158048943Y-68950238D02*
X158106086Y-69045476D01*
X158106086Y-69045476D02*
X158134657Y-69235952D01*
X158134657Y-69235952D02*
X158134657Y-69569285D01*
X158134657Y-69569285D02*
X158106086Y-69759761D01*
X158106086Y-69759761D02*
X158048943Y-69855000D01*
X158048943Y-69855000D02*
X157991800Y-69902619D01*
X157991800Y-69902619D02*
X157877514Y-69902619D01*
X157877514Y-69902619D02*
X157820372Y-69855000D01*
X157820372Y-69855000D02*
X157763229Y-69759761D01*
X157763229Y-69759761D02*
X157734657Y-69569285D01*
X157734657Y-69569285D02*
X157734657Y-69235952D01*
X157734657Y-69235952D02*
X157763229Y-69045476D01*
X157763229Y-69045476D02*
X157820372Y-68950238D01*
X157820372Y-68950238D02*
X157877514Y-68902619D01*
X158677514Y-69902619D02*
X158391800Y-69902619D01*
X158391800Y-69902619D02*
X158391800Y-68902619D01*
X159134657Y-68902619D02*
X159020371Y-68902619D01*
X159020371Y-68902619D02*
X158963228Y-68950238D01*
X158963228Y-68950238D02*
X158934657Y-68997857D01*
X158934657Y-68997857D02*
X158877514Y-69140714D01*
X158877514Y-69140714D02*
X158848942Y-69331190D01*
X158848942Y-69331190D02*
X158848942Y-69712142D01*
X158848942Y-69712142D02*
X158877514Y-69807380D01*
X158877514Y-69807380D02*
X158906085Y-69855000D01*
X158906085Y-69855000D02*
X158963228Y-69902619D01*
X158963228Y-69902619D02*
X159077514Y-69902619D01*
X159077514Y-69902619D02*
X159134657Y-69855000D01*
X159134657Y-69855000D02*
X159163228Y-69807380D01*
X159163228Y-69807380D02*
X159191799Y-69712142D01*
X159191799Y-69712142D02*
X159191799Y-69474047D01*
X159191799Y-69474047D02*
X159163228Y-69378809D01*
X159163228Y-69378809D02*
X159134657Y-69331190D01*
X159134657Y-69331190D02*
X159077514Y-69283571D01*
X159077514Y-69283571D02*
X158963228Y-69283571D01*
X158963228Y-69283571D02*
X158906085Y-69331190D01*
X158906085Y-69331190D02*
X158877514Y-69378809D01*
X158877514Y-69378809D02*
X158848942Y-69474047D01*
X159448943Y-69521666D02*
X159906086Y-69521666D01*
X160191800Y-69235952D02*
X160648943Y-69521666D01*
X160648943Y-69521666D02*
X160191800Y-69807380D01*
X157991800Y-47042619D02*
X157791800Y-46566428D01*
X157648943Y-47042619D02*
X157648943Y-46042619D01*
X157648943Y-46042619D02*
X157877514Y-46042619D01*
X157877514Y-46042619D02*
X157934657Y-46090238D01*
X157934657Y-46090238D02*
X157963228Y-46137857D01*
X157963228Y-46137857D02*
X157991800Y-46233095D01*
X157991800Y-46233095D02*
X157991800Y-46375952D01*
X157991800Y-46375952D02*
X157963228Y-46471190D01*
X157963228Y-46471190D02*
X157934657Y-46518809D01*
X157934657Y-46518809D02*
X157877514Y-46566428D01*
X157877514Y-46566428D02*
X157648943Y-46566428D01*
X158220371Y-46756904D02*
X158506086Y-46756904D01*
X158163228Y-47042619D02*
X158363228Y-46042619D01*
X158363228Y-46042619D02*
X158563228Y-47042619D01*
X158706086Y-46042619D02*
X158848943Y-47042619D01*
X158848943Y-47042619D02*
X158963229Y-46328333D01*
X158963229Y-46328333D02*
X159077514Y-47042619D01*
X159077514Y-47042619D02*
X159220372Y-46042619D01*
X159448943Y-46661666D02*
X159906086Y-46661666D01*
X160191800Y-46375952D02*
X160648943Y-46661666D01*
X160648943Y-46661666D02*
X160191800Y-46947380D01*
D11*
X167237871Y-49869428D02*
X168737871Y-49869428D01*
X168737871Y-49869428D02*
X167666442Y-50169428D01*
X167666442Y-50169428D02*
X168737871Y-50469428D01*
X168737871Y-50469428D02*
X167237871Y-50469428D01*
X167237871Y-51283714D02*
X168023585Y-51283714D01*
X168023585Y-51283714D02*
X168166442Y-51240856D01*
X168166442Y-51240856D02*
X168237871Y-51155142D01*
X168237871Y-51155142D02*
X168237871Y-50983714D01*
X168237871Y-50983714D02*
X168166442Y-50897999D01*
X167309300Y-51283714D02*
X167237871Y-51197999D01*
X167237871Y-51197999D02*
X167237871Y-50983714D01*
X167237871Y-50983714D02*
X167309300Y-50897999D01*
X167309300Y-50897999D02*
X167452157Y-50855142D01*
X167452157Y-50855142D02*
X167595014Y-50855142D01*
X167595014Y-50855142D02*
X167737871Y-50897999D01*
X167737871Y-50897999D02*
X167809300Y-50983714D01*
X167809300Y-50983714D02*
X167809300Y-51197999D01*
X167809300Y-51197999D02*
X167880728Y-51283714D01*
X168237871Y-51583714D02*
X168237871Y-51926571D01*
X168737871Y-51712285D02*
X167452157Y-51712285D01*
X167452157Y-51712285D02*
X167309300Y-51755142D01*
X167309300Y-51755142D02*
X167237871Y-51840857D01*
X167237871Y-51840857D02*
X167237871Y-51926571D01*
X167309300Y-52612286D02*
X167237871Y-52526571D01*
X167237871Y-52526571D02*
X167237871Y-52355143D01*
X167237871Y-52355143D02*
X167309300Y-52269428D01*
X167309300Y-52269428D02*
X167380728Y-52226571D01*
X167380728Y-52226571D02*
X167523585Y-52183714D01*
X167523585Y-52183714D02*
X167952157Y-52183714D01*
X167952157Y-52183714D02*
X168095014Y-52226571D01*
X168095014Y-52226571D02*
X168166442Y-52269428D01*
X168166442Y-52269428D02*
X168237871Y-52355143D01*
X168237871Y-52355143D02*
X168237871Y-52526571D01*
X168237871Y-52526571D02*
X168166442Y-52612286D01*
X167237871Y-52998000D02*
X168737871Y-52998000D01*
X167237871Y-53383715D02*
X168023585Y-53383715D01*
X168023585Y-53383715D02*
X168166442Y-53340857D01*
X168166442Y-53340857D02*
X168237871Y-53255143D01*
X168237871Y-53255143D02*
X168237871Y-53126572D01*
X168237871Y-53126572D02*
X168166442Y-53040857D01*
X168166442Y-53040857D02*
X168095014Y-52998000D01*
X168237871Y-54412286D02*
X167237871Y-54583715D01*
X167237871Y-54583715D02*
X167952157Y-54755143D01*
X167952157Y-54755143D02*
X167237871Y-54926572D01*
X167237871Y-54926572D02*
X168237871Y-55098000D01*
X167237871Y-55440857D02*
X168237871Y-55440857D01*
X168737871Y-55440857D02*
X168666442Y-55398000D01*
X168666442Y-55398000D02*
X168595014Y-55440857D01*
X168595014Y-55440857D02*
X168666442Y-55483714D01*
X168666442Y-55483714D02*
X168737871Y-55440857D01*
X168737871Y-55440857D02*
X168595014Y-55440857D01*
X168237871Y-55740857D02*
X168237871Y-56083714D01*
X168737871Y-55869428D02*
X167452157Y-55869428D01*
X167452157Y-55869428D02*
X167309300Y-55912285D01*
X167309300Y-55912285D02*
X167237871Y-55998000D01*
X167237871Y-55998000D02*
X167237871Y-56083714D01*
X167237871Y-56383714D02*
X168737871Y-56383714D01*
X167237871Y-56769429D02*
X168023585Y-56769429D01*
X168023585Y-56769429D02*
X168166442Y-56726571D01*
X168166442Y-56726571D02*
X168237871Y-56640857D01*
X168237871Y-56640857D02*
X168237871Y-56512286D01*
X168237871Y-56512286D02*
X168166442Y-56426571D01*
X168166442Y-56426571D02*
X168095014Y-56383714D01*
X167237871Y-57883714D02*
X168737871Y-57883714D01*
X168737871Y-57883714D02*
X167666442Y-58183714D01*
X167666442Y-58183714D02*
X168737871Y-58483714D01*
X168737871Y-58483714D02*
X167237871Y-58483714D01*
X167380728Y-59426571D02*
X167309300Y-59383714D01*
X167309300Y-59383714D02*
X167237871Y-59255142D01*
X167237871Y-59255142D02*
X167237871Y-59169428D01*
X167237871Y-59169428D02*
X167309300Y-59040857D01*
X167309300Y-59040857D02*
X167452157Y-58955142D01*
X167452157Y-58955142D02*
X167595014Y-58912285D01*
X167595014Y-58912285D02*
X167880728Y-58869428D01*
X167880728Y-58869428D02*
X168095014Y-58869428D01*
X168095014Y-58869428D02*
X168380728Y-58912285D01*
X168380728Y-58912285D02*
X168523585Y-58955142D01*
X168523585Y-58955142D02*
X168666442Y-59040857D01*
X168666442Y-59040857D02*
X168737871Y-59169428D01*
X168737871Y-59169428D02*
X168737871Y-59255142D01*
X168737871Y-59255142D02*
X168666442Y-59383714D01*
X168666442Y-59383714D02*
X168595014Y-59426571D01*
X168737871Y-59812285D02*
X167523585Y-59812285D01*
X167523585Y-59812285D02*
X167380728Y-59855142D01*
X167380728Y-59855142D02*
X167309300Y-59898000D01*
X167309300Y-59898000D02*
X167237871Y-59983714D01*
X167237871Y-59983714D02*
X167237871Y-60155142D01*
X167237871Y-60155142D02*
X167309300Y-60240857D01*
X167309300Y-60240857D02*
X167380728Y-60283714D01*
X167380728Y-60283714D02*
X167523585Y-60326571D01*
X167523585Y-60326571D02*
X168737871Y-60326571D01*
X168237871Y-61440856D02*
X166737871Y-61440856D01*
X168166442Y-61440856D02*
X168237871Y-61526571D01*
X168237871Y-61526571D02*
X168237871Y-61697999D01*
X168237871Y-61697999D02*
X168166442Y-61783713D01*
X168166442Y-61783713D02*
X168095014Y-61826571D01*
X168095014Y-61826571D02*
X167952157Y-61869428D01*
X167952157Y-61869428D02*
X167523585Y-61869428D01*
X167523585Y-61869428D02*
X167380728Y-61826571D01*
X167380728Y-61826571D02*
X167309300Y-61783713D01*
X167309300Y-61783713D02*
X167237871Y-61697999D01*
X167237871Y-61697999D02*
X167237871Y-61526571D01*
X167237871Y-61526571D02*
X167309300Y-61440856D01*
X167237871Y-62255142D02*
X168237871Y-62255142D01*
X168737871Y-62255142D02*
X168666442Y-62212285D01*
X168666442Y-62212285D02*
X168595014Y-62255142D01*
X168595014Y-62255142D02*
X168666442Y-62297999D01*
X168666442Y-62297999D02*
X168737871Y-62255142D01*
X168737871Y-62255142D02*
X168595014Y-62255142D01*
X168237871Y-62683713D02*
X167237871Y-62683713D01*
X168095014Y-62683713D02*
X168166442Y-62726570D01*
X168166442Y-62726570D02*
X168237871Y-62812285D01*
X168237871Y-62812285D02*
X168237871Y-62940856D01*
X168237871Y-62940856D02*
X168166442Y-63026570D01*
X168166442Y-63026570D02*
X168023585Y-63069428D01*
X168023585Y-63069428D02*
X167237871Y-63069428D01*
X167237871Y-64312285D02*
X167309300Y-64226570D01*
X167309300Y-64226570D02*
X167452157Y-64183713D01*
X167452157Y-64183713D02*
X168737871Y-64183713D01*
X167237871Y-65040857D02*
X168023585Y-65040857D01*
X168023585Y-65040857D02*
X168166442Y-64997999D01*
X168166442Y-64997999D02*
X168237871Y-64912285D01*
X168237871Y-64912285D02*
X168237871Y-64740857D01*
X168237871Y-64740857D02*
X168166442Y-64655142D01*
X167309300Y-65040857D02*
X167237871Y-64955142D01*
X167237871Y-64955142D02*
X167237871Y-64740857D01*
X167237871Y-64740857D02*
X167309300Y-64655142D01*
X167309300Y-64655142D02*
X167452157Y-64612285D01*
X167452157Y-64612285D02*
X167595014Y-64612285D01*
X167595014Y-64612285D02*
X167737871Y-64655142D01*
X167737871Y-64655142D02*
X167809300Y-64740857D01*
X167809300Y-64740857D02*
X167809300Y-64955142D01*
X167809300Y-64955142D02*
X167880728Y-65040857D01*
X167237871Y-65469428D02*
X168737871Y-65469428D01*
X168166442Y-65469428D02*
X168237871Y-65555143D01*
X168237871Y-65555143D02*
X168237871Y-65726571D01*
X168237871Y-65726571D02*
X168166442Y-65812285D01*
X168166442Y-65812285D02*
X168095014Y-65855143D01*
X168095014Y-65855143D02*
X167952157Y-65898000D01*
X167952157Y-65898000D02*
X167523585Y-65898000D01*
X167523585Y-65898000D02*
X167380728Y-65855143D01*
X167380728Y-65855143D02*
X167309300Y-65812285D01*
X167309300Y-65812285D02*
X167237871Y-65726571D01*
X167237871Y-65726571D02*
X167237871Y-65555143D01*
X167237871Y-65555143D02*
X167309300Y-65469428D01*
X167309300Y-66626571D02*
X167237871Y-66540857D01*
X167237871Y-66540857D02*
X167237871Y-66369429D01*
X167237871Y-66369429D02*
X167309300Y-66283714D01*
X167309300Y-66283714D02*
X167452157Y-66240857D01*
X167452157Y-66240857D02*
X168023585Y-66240857D01*
X168023585Y-66240857D02*
X168166442Y-66283714D01*
X168166442Y-66283714D02*
X168237871Y-66369429D01*
X168237871Y-66369429D02*
X168237871Y-66540857D01*
X168237871Y-66540857D02*
X168166442Y-66626571D01*
X168166442Y-66626571D02*
X168023585Y-66669429D01*
X168023585Y-66669429D02*
X167880728Y-66669429D01*
X167880728Y-66669429D02*
X167737871Y-66240857D01*
X167237871Y-67183715D02*
X167309300Y-67098000D01*
X167309300Y-67098000D02*
X167452157Y-67055143D01*
X167452157Y-67055143D02*
X168737871Y-67055143D01*
X167309300Y-67483715D02*
X167237871Y-67569429D01*
X167237871Y-67569429D02*
X167237871Y-67740858D01*
X167237871Y-67740858D02*
X167309300Y-67826572D01*
X167309300Y-67826572D02*
X167452157Y-67869429D01*
X167452157Y-67869429D02*
X167523585Y-67869429D01*
X167523585Y-67869429D02*
X167666442Y-67826572D01*
X167666442Y-67826572D02*
X167737871Y-67740858D01*
X167737871Y-67740858D02*
X167737871Y-67612287D01*
X167737871Y-67612287D02*
X167809300Y-67526572D01*
X167809300Y-67526572D02*
X167952157Y-67483715D01*
X167952157Y-67483715D02*
X168023585Y-67483715D01*
X168023585Y-67483715D02*
X168166442Y-67526572D01*
X168166442Y-67526572D02*
X168237871Y-67612287D01*
X168237871Y-67612287D02*
X168237871Y-67740858D01*
X168237871Y-67740858D02*
X168166442Y-67826572D01*
D10*
X157506086Y-59647380D02*
X157477514Y-59695000D01*
X157477514Y-59695000D02*
X157391800Y-59742619D01*
X157391800Y-59742619D02*
X157334657Y-59742619D01*
X157334657Y-59742619D02*
X157248943Y-59695000D01*
X157248943Y-59695000D02*
X157191800Y-59599761D01*
X157191800Y-59599761D02*
X157163229Y-59504523D01*
X157163229Y-59504523D02*
X157134657Y-59314047D01*
X157134657Y-59314047D02*
X157134657Y-59171190D01*
X157134657Y-59171190D02*
X157163229Y-58980714D01*
X157163229Y-58980714D02*
X157191800Y-58885476D01*
X157191800Y-58885476D02*
X157248943Y-58790238D01*
X157248943Y-58790238D02*
X157334657Y-58742619D01*
X157334657Y-58742619D02*
X157391800Y-58742619D01*
X157391800Y-58742619D02*
X157477514Y-58790238D01*
X157477514Y-58790238D02*
X157506086Y-58837857D01*
X157877514Y-58742619D02*
X157991800Y-58742619D01*
X157991800Y-58742619D02*
X158048943Y-58790238D01*
X158048943Y-58790238D02*
X158106086Y-58885476D01*
X158106086Y-58885476D02*
X158134657Y-59075952D01*
X158134657Y-59075952D02*
X158134657Y-59409285D01*
X158134657Y-59409285D02*
X158106086Y-59599761D01*
X158106086Y-59599761D02*
X158048943Y-59695000D01*
X158048943Y-59695000D02*
X157991800Y-59742619D01*
X157991800Y-59742619D02*
X157877514Y-59742619D01*
X157877514Y-59742619D02*
X157820372Y-59695000D01*
X157820372Y-59695000D02*
X157763229Y-59599761D01*
X157763229Y-59599761D02*
X157734657Y-59409285D01*
X157734657Y-59409285D02*
X157734657Y-59075952D01*
X157734657Y-59075952D02*
X157763229Y-58885476D01*
X157763229Y-58885476D02*
X157820372Y-58790238D01*
X157820372Y-58790238D02*
X157877514Y-58742619D01*
X158677514Y-59742619D02*
X158391800Y-59742619D01*
X158391800Y-59742619D02*
X158391800Y-58742619D01*
X158848942Y-58837857D02*
X158877514Y-58790238D01*
X158877514Y-58790238D02*
X158934657Y-58742619D01*
X158934657Y-58742619D02*
X159077514Y-58742619D01*
X159077514Y-58742619D02*
X159134657Y-58790238D01*
X159134657Y-58790238D02*
X159163228Y-58837857D01*
X159163228Y-58837857D02*
X159191799Y-58933095D01*
X159191799Y-58933095D02*
X159191799Y-59028333D01*
X159191799Y-59028333D02*
X159163228Y-59171190D01*
X159163228Y-59171190D02*
X158820371Y-59742619D01*
X158820371Y-59742619D02*
X159191799Y-59742619D01*
X159448943Y-59361666D02*
X159906086Y-59361666D01*
X160191800Y-59075952D02*
X160648943Y-59361666D01*
X160648943Y-59361666D02*
X160191800Y-59647380D01*
X164391800Y-51415952D02*
X163706085Y-51701666D01*
X163706085Y-51701666D02*
X164391800Y-51987380D01*
X164820371Y-51701666D02*
X165506086Y-51701666D01*
X165934657Y-51701666D02*
X166620372Y-51701666D01*
X173334657Y-52122619D02*
X173134657Y-51646428D01*
X172991800Y-52122619D02*
X172991800Y-51122619D01*
X172991800Y-51122619D02*
X173220371Y-51122619D01*
X173220371Y-51122619D02*
X173277514Y-51170238D01*
X173277514Y-51170238D02*
X173306085Y-51217857D01*
X173306085Y-51217857D02*
X173334657Y-51313095D01*
X173334657Y-51313095D02*
X173334657Y-51455952D01*
X173334657Y-51455952D02*
X173306085Y-51551190D01*
X173306085Y-51551190D02*
X173277514Y-51598809D01*
X173277514Y-51598809D02*
X173220371Y-51646428D01*
X173220371Y-51646428D02*
X172991800Y-51646428D01*
X173563228Y-52075000D02*
X173648943Y-52122619D01*
X173648943Y-52122619D02*
X173791800Y-52122619D01*
X173791800Y-52122619D02*
X173848943Y-52075000D01*
X173848943Y-52075000D02*
X173877514Y-52027380D01*
X173877514Y-52027380D02*
X173906085Y-51932142D01*
X173906085Y-51932142D02*
X173906085Y-51836904D01*
X173906085Y-51836904D02*
X173877514Y-51741666D01*
X173877514Y-51741666D02*
X173848943Y-51694047D01*
X173848943Y-51694047D02*
X173791800Y-51646428D01*
X173791800Y-51646428D02*
X173677514Y-51598809D01*
X173677514Y-51598809D02*
X173620371Y-51551190D01*
X173620371Y-51551190D02*
X173591800Y-51503571D01*
X173591800Y-51503571D02*
X173563228Y-51408333D01*
X173563228Y-51408333D02*
X173563228Y-51313095D01*
X173563228Y-51313095D02*
X173591800Y-51217857D01*
X173591800Y-51217857D02*
X173620371Y-51170238D01*
X173620371Y-51170238D02*
X173677514Y-51122619D01*
X173677514Y-51122619D02*
X173820371Y-51122619D01*
X173820371Y-51122619D02*
X173906085Y-51170238D01*
X174077514Y-51122619D02*
X174420372Y-51122619D01*
X174248943Y-52122619D02*
X174248943Y-51122619D01*
X174620372Y-51741666D02*
X175077515Y-51741666D01*
X175363229Y-51455952D02*
X175820372Y-51741666D01*
X175820372Y-51741666D02*
X175363229Y-52027380D01*
X158163228Y-52122619D02*
X157963228Y-51646428D01*
X157820371Y-52122619D02*
X157820371Y-51122619D01*
X157820371Y-51122619D02*
X158048942Y-51122619D01*
X158048942Y-51122619D02*
X158106085Y-51170238D01*
X158106085Y-51170238D02*
X158134656Y-51217857D01*
X158134656Y-51217857D02*
X158163228Y-51313095D01*
X158163228Y-51313095D02*
X158163228Y-51455952D01*
X158163228Y-51455952D02*
X158134656Y-51551190D01*
X158134656Y-51551190D02*
X158106085Y-51598809D01*
X158106085Y-51598809D02*
X158048942Y-51646428D01*
X158048942Y-51646428D02*
X157820371Y-51646428D01*
X158391799Y-52075000D02*
X158477514Y-52122619D01*
X158477514Y-52122619D02*
X158620371Y-52122619D01*
X158620371Y-52122619D02*
X158677514Y-52075000D01*
X158677514Y-52075000D02*
X158706085Y-52027380D01*
X158706085Y-52027380D02*
X158734656Y-51932142D01*
X158734656Y-51932142D02*
X158734656Y-51836904D01*
X158734656Y-51836904D02*
X158706085Y-51741666D01*
X158706085Y-51741666D02*
X158677514Y-51694047D01*
X158677514Y-51694047D02*
X158620371Y-51646428D01*
X158620371Y-51646428D02*
X158506085Y-51598809D01*
X158506085Y-51598809D02*
X158448942Y-51551190D01*
X158448942Y-51551190D02*
X158420371Y-51503571D01*
X158420371Y-51503571D02*
X158391799Y-51408333D01*
X158391799Y-51408333D02*
X158391799Y-51313095D01*
X158391799Y-51313095D02*
X158420371Y-51217857D01*
X158420371Y-51217857D02*
X158448942Y-51170238D01*
X158448942Y-51170238D02*
X158506085Y-51122619D01*
X158506085Y-51122619D02*
X158648942Y-51122619D01*
X158648942Y-51122619D02*
X158734656Y-51170238D01*
X158906085Y-51122619D02*
X159248943Y-51122619D01*
X159077514Y-52122619D02*
X159077514Y-51122619D01*
X159448943Y-51741666D02*
X159906086Y-51741666D01*
X160191800Y-51455952D02*
X160648943Y-51741666D01*
X160648943Y-51741666D02*
X160191800Y-52027380D01*
X173163229Y-47042619D02*
X172963229Y-46566428D01*
X172820372Y-47042619D02*
X172820372Y-46042619D01*
X172820372Y-46042619D02*
X173048943Y-46042619D01*
X173048943Y-46042619D02*
X173106086Y-46090238D01*
X173106086Y-46090238D02*
X173134657Y-46137857D01*
X173134657Y-46137857D02*
X173163229Y-46233095D01*
X173163229Y-46233095D02*
X173163229Y-46375952D01*
X173163229Y-46375952D02*
X173134657Y-46471190D01*
X173134657Y-46471190D02*
X173106086Y-46518809D01*
X173106086Y-46518809D02*
X173048943Y-46566428D01*
X173048943Y-46566428D02*
X172820372Y-46566428D01*
X173391800Y-46756904D02*
X173677515Y-46756904D01*
X173334657Y-47042619D02*
X173534657Y-46042619D01*
X173534657Y-46042619D02*
X173734657Y-47042619D01*
X173877515Y-46042619D02*
X174020372Y-47042619D01*
X174020372Y-47042619D02*
X174134658Y-46328333D01*
X174134658Y-46328333D02*
X174248943Y-47042619D01*
X174248943Y-47042619D02*
X174391801Y-46042619D01*
X174620372Y-46661666D02*
X175077515Y-46661666D01*
X175363229Y-46375952D02*
X175820372Y-46661666D01*
X175820372Y-46661666D02*
X175363229Y-46947380D01*
X173106086Y-48630238D02*
X173048944Y-48582619D01*
X173048944Y-48582619D02*
X172963229Y-48582619D01*
X172963229Y-48582619D02*
X172877515Y-48630238D01*
X172877515Y-48630238D02*
X172820372Y-48725476D01*
X172820372Y-48725476D02*
X172791801Y-48820714D01*
X172791801Y-48820714D02*
X172763229Y-49011190D01*
X172763229Y-49011190D02*
X172763229Y-49154047D01*
X172763229Y-49154047D02*
X172791801Y-49344523D01*
X172791801Y-49344523D02*
X172820372Y-49439761D01*
X172820372Y-49439761D02*
X172877515Y-49535000D01*
X172877515Y-49535000D02*
X172963229Y-49582619D01*
X172963229Y-49582619D02*
X173020372Y-49582619D01*
X173020372Y-49582619D02*
X173106086Y-49535000D01*
X173106086Y-49535000D02*
X173134658Y-49487380D01*
X173134658Y-49487380D02*
X173134658Y-49154047D01*
X173134658Y-49154047D02*
X173020372Y-49154047D01*
X173391801Y-49582619D02*
X173391801Y-48582619D01*
X173391801Y-48582619D02*
X173734658Y-49582619D01*
X173734658Y-49582619D02*
X173734658Y-48582619D01*
X174020372Y-49582619D02*
X174020372Y-48582619D01*
X174020372Y-48582619D02*
X174163229Y-48582619D01*
X174163229Y-48582619D02*
X174248943Y-48630238D01*
X174248943Y-48630238D02*
X174306086Y-48725476D01*
X174306086Y-48725476D02*
X174334657Y-48820714D01*
X174334657Y-48820714D02*
X174363229Y-49011190D01*
X174363229Y-49011190D02*
X174363229Y-49154047D01*
X174363229Y-49154047D02*
X174334657Y-49344523D01*
X174334657Y-49344523D02*
X174306086Y-49439761D01*
X174306086Y-49439761D02*
X174248943Y-49535000D01*
X174248943Y-49535000D02*
X174163229Y-49582619D01*
X174163229Y-49582619D02*
X174020372Y-49582619D01*
X174620372Y-49201666D02*
X175077515Y-49201666D01*
X175363229Y-48915952D02*
X175820372Y-49201666D01*
X175820372Y-49201666D02*
X175363229Y-49487380D01*
X169605227Y-54169666D02*
X170290942Y-54169666D01*
X170719513Y-54169666D02*
X171405228Y-54169666D01*
X171833799Y-53883952D02*
X172519514Y-54169666D01*
X172519514Y-54169666D02*
X171833799Y-54455380D01*
X172677515Y-59647380D02*
X172648943Y-59695000D01*
X172648943Y-59695000D02*
X172563229Y-59742619D01*
X172563229Y-59742619D02*
X172506086Y-59742619D01*
X172506086Y-59742619D02*
X172420372Y-59695000D01*
X172420372Y-59695000D02*
X172363229Y-59599761D01*
X172363229Y-59599761D02*
X172334658Y-59504523D01*
X172334658Y-59504523D02*
X172306086Y-59314047D01*
X172306086Y-59314047D02*
X172306086Y-59171190D01*
X172306086Y-59171190D02*
X172334658Y-58980714D01*
X172334658Y-58980714D02*
X172363229Y-58885476D01*
X172363229Y-58885476D02*
X172420372Y-58790238D01*
X172420372Y-58790238D02*
X172506086Y-58742619D01*
X172506086Y-58742619D02*
X172563229Y-58742619D01*
X172563229Y-58742619D02*
X172648943Y-58790238D01*
X172648943Y-58790238D02*
X172677515Y-58837857D01*
X173048943Y-58742619D02*
X173163229Y-58742619D01*
X173163229Y-58742619D02*
X173220372Y-58790238D01*
X173220372Y-58790238D02*
X173277515Y-58885476D01*
X173277515Y-58885476D02*
X173306086Y-59075952D01*
X173306086Y-59075952D02*
X173306086Y-59409285D01*
X173306086Y-59409285D02*
X173277515Y-59599761D01*
X173277515Y-59599761D02*
X173220372Y-59695000D01*
X173220372Y-59695000D02*
X173163229Y-59742619D01*
X173163229Y-59742619D02*
X173048943Y-59742619D01*
X173048943Y-59742619D02*
X172991801Y-59695000D01*
X172991801Y-59695000D02*
X172934658Y-59599761D01*
X172934658Y-59599761D02*
X172906086Y-59409285D01*
X172906086Y-59409285D02*
X172906086Y-59075952D01*
X172906086Y-59075952D02*
X172934658Y-58885476D01*
X172934658Y-58885476D02*
X172991801Y-58790238D01*
X172991801Y-58790238D02*
X173048943Y-58742619D01*
X173848943Y-59742619D02*
X173563229Y-59742619D01*
X173563229Y-59742619D02*
X173563229Y-58742619D01*
X174020371Y-58837857D02*
X174048943Y-58790238D01*
X174048943Y-58790238D02*
X174106086Y-58742619D01*
X174106086Y-58742619D02*
X174248943Y-58742619D01*
X174248943Y-58742619D02*
X174306086Y-58790238D01*
X174306086Y-58790238D02*
X174334657Y-58837857D01*
X174334657Y-58837857D02*
X174363228Y-58933095D01*
X174363228Y-58933095D02*
X174363228Y-59028333D01*
X174363228Y-59028333D02*
X174334657Y-59171190D01*
X174334657Y-59171190D02*
X173991800Y-59742619D01*
X173991800Y-59742619D02*
X174363228Y-59742619D01*
X174620372Y-59361666D02*
X175077515Y-59361666D01*
X175363229Y-59075952D02*
X175820372Y-59361666D01*
X175820372Y-59361666D02*
X175363229Y-59647380D01*
X172820371Y-53662619D02*
X173020371Y-54662619D01*
X173020371Y-54662619D02*
X173220371Y-53662619D01*
X173763229Y-54567380D02*
X173734657Y-54615000D01*
X173734657Y-54615000D02*
X173648943Y-54662619D01*
X173648943Y-54662619D02*
X173591800Y-54662619D01*
X173591800Y-54662619D02*
X173506086Y-54615000D01*
X173506086Y-54615000D02*
X173448943Y-54519761D01*
X173448943Y-54519761D02*
X173420372Y-54424523D01*
X173420372Y-54424523D02*
X173391800Y-54234047D01*
X173391800Y-54234047D02*
X173391800Y-54091190D01*
X173391800Y-54091190D02*
X173420372Y-53900714D01*
X173420372Y-53900714D02*
X173448943Y-53805476D01*
X173448943Y-53805476D02*
X173506086Y-53710238D01*
X173506086Y-53710238D02*
X173591800Y-53662619D01*
X173591800Y-53662619D02*
X173648943Y-53662619D01*
X173648943Y-53662619D02*
X173734657Y-53710238D01*
X173734657Y-53710238D02*
X173763229Y-53757857D01*
X174363229Y-54567380D02*
X174334657Y-54615000D01*
X174334657Y-54615000D02*
X174248943Y-54662619D01*
X174248943Y-54662619D02*
X174191800Y-54662619D01*
X174191800Y-54662619D02*
X174106086Y-54615000D01*
X174106086Y-54615000D02*
X174048943Y-54519761D01*
X174048943Y-54519761D02*
X174020372Y-54424523D01*
X174020372Y-54424523D02*
X173991800Y-54234047D01*
X173991800Y-54234047D02*
X173991800Y-54091190D01*
X173991800Y-54091190D02*
X174020372Y-53900714D01*
X174020372Y-53900714D02*
X174048943Y-53805476D01*
X174048943Y-53805476D02*
X174106086Y-53710238D01*
X174106086Y-53710238D02*
X174191800Y-53662619D01*
X174191800Y-53662619D02*
X174248943Y-53662619D01*
X174248943Y-53662619D02*
X174334657Y-53710238D01*
X174334657Y-53710238D02*
X174363229Y-53757857D01*
X174620372Y-54281666D02*
X175077515Y-54281666D01*
X175363229Y-53995952D02*
X175820372Y-54281666D01*
X175820372Y-54281666D02*
X175363229Y-54567380D01*
X164391800Y-48875952D02*
X163706085Y-49161666D01*
X163706085Y-49161666D02*
X164391800Y-49447380D01*
X164820371Y-49161666D02*
X165506086Y-49161666D01*
X165934657Y-49161666D02*
X166620372Y-49161666D01*
X173106086Y-73982619D02*
X173448944Y-73982619D01*
X173277515Y-74982619D02*
X173277515Y-73982619D01*
X173934658Y-74982619D02*
X173648944Y-74982619D01*
X173648944Y-74982619D02*
X173648944Y-73982619D01*
X174420372Y-74982619D02*
X174134658Y-74982619D01*
X174134658Y-74982619D02*
X174134658Y-73982619D01*
X174620372Y-74601666D02*
X175077515Y-74601666D01*
X175363229Y-74315952D02*
X175820372Y-74601666D01*
X175820372Y-74601666D02*
X175363229Y-74887380D01*
X172677515Y-67267380D02*
X172648943Y-67315000D01*
X172648943Y-67315000D02*
X172563229Y-67362619D01*
X172563229Y-67362619D02*
X172506086Y-67362619D01*
X172506086Y-67362619D02*
X172420372Y-67315000D01*
X172420372Y-67315000D02*
X172363229Y-67219761D01*
X172363229Y-67219761D02*
X172334658Y-67124523D01*
X172334658Y-67124523D02*
X172306086Y-66934047D01*
X172306086Y-66934047D02*
X172306086Y-66791190D01*
X172306086Y-66791190D02*
X172334658Y-66600714D01*
X172334658Y-66600714D02*
X172363229Y-66505476D01*
X172363229Y-66505476D02*
X172420372Y-66410238D01*
X172420372Y-66410238D02*
X172506086Y-66362619D01*
X172506086Y-66362619D02*
X172563229Y-66362619D01*
X172563229Y-66362619D02*
X172648943Y-66410238D01*
X172648943Y-66410238D02*
X172677515Y-66457857D01*
X173048943Y-66362619D02*
X173163229Y-66362619D01*
X173163229Y-66362619D02*
X173220372Y-66410238D01*
X173220372Y-66410238D02*
X173277515Y-66505476D01*
X173277515Y-66505476D02*
X173306086Y-66695952D01*
X173306086Y-66695952D02*
X173306086Y-67029285D01*
X173306086Y-67029285D02*
X173277515Y-67219761D01*
X173277515Y-67219761D02*
X173220372Y-67315000D01*
X173220372Y-67315000D02*
X173163229Y-67362619D01*
X173163229Y-67362619D02*
X173048943Y-67362619D01*
X173048943Y-67362619D02*
X172991801Y-67315000D01*
X172991801Y-67315000D02*
X172934658Y-67219761D01*
X172934658Y-67219761D02*
X172906086Y-67029285D01*
X172906086Y-67029285D02*
X172906086Y-66695952D01*
X172906086Y-66695952D02*
X172934658Y-66505476D01*
X172934658Y-66505476D02*
X172991801Y-66410238D01*
X172991801Y-66410238D02*
X173048943Y-66362619D01*
X173848943Y-67362619D02*
X173563229Y-67362619D01*
X173563229Y-67362619D02*
X173563229Y-66362619D01*
X174334657Y-66362619D02*
X174048943Y-66362619D01*
X174048943Y-66362619D02*
X174020371Y-66838809D01*
X174020371Y-66838809D02*
X174048943Y-66791190D01*
X174048943Y-66791190D02*
X174106086Y-66743571D01*
X174106086Y-66743571D02*
X174248943Y-66743571D01*
X174248943Y-66743571D02*
X174306086Y-66791190D01*
X174306086Y-66791190D02*
X174334657Y-66838809D01*
X174334657Y-66838809D02*
X174363228Y-66934047D01*
X174363228Y-66934047D02*
X174363228Y-67172142D01*
X174363228Y-67172142D02*
X174334657Y-67267380D01*
X174334657Y-67267380D02*
X174306086Y-67315000D01*
X174306086Y-67315000D02*
X174248943Y-67362619D01*
X174248943Y-67362619D02*
X174106086Y-67362619D01*
X174106086Y-67362619D02*
X174048943Y-67315000D01*
X174048943Y-67315000D02*
X174020371Y-67267380D01*
X174620372Y-66981666D02*
X175077515Y-66981666D01*
X175363229Y-66695952D02*
X175820372Y-66981666D01*
X175820372Y-66981666D02*
X175363229Y-67267380D01*
X164391800Y-53955952D02*
X163706085Y-54241666D01*
X163706085Y-54241666D02*
X164391800Y-54527380D01*
X164820371Y-54241666D02*
X165506086Y-54241666D01*
X165934657Y-54241666D02*
X166620372Y-54241666D01*
X172677515Y-62187380D02*
X172648943Y-62235000D01*
X172648943Y-62235000D02*
X172563229Y-62282619D01*
X172563229Y-62282619D02*
X172506086Y-62282619D01*
X172506086Y-62282619D02*
X172420372Y-62235000D01*
X172420372Y-62235000D02*
X172363229Y-62139761D01*
X172363229Y-62139761D02*
X172334658Y-62044523D01*
X172334658Y-62044523D02*
X172306086Y-61854047D01*
X172306086Y-61854047D02*
X172306086Y-61711190D01*
X172306086Y-61711190D02*
X172334658Y-61520714D01*
X172334658Y-61520714D02*
X172363229Y-61425476D01*
X172363229Y-61425476D02*
X172420372Y-61330238D01*
X172420372Y-61330238D02*
X172506086Y-61282619D01*
X172506086Y-61282619D02*
X172563229Y-61282619D01*
X172563229Y-61282619D02*
X172648943Y-61330238D01*
X172648943Y-61330238D02*
X172677515Y-61377857D01*
X173048943Y-61282619D02*
X173163229Y-61282619D01*
X173163229Y-61282619D02*
X173220372Y-61330238D01*
X173220372Y-61330238D02*
X173277515Y-61425476D01*
X173277515Y-61425476D02*
X173306086Y-61615952D01*
X173306086Y-61615952D02*
X173306086Y-61949285D01*
X173306086Y-61949285D02*
X173277515Y-62139761D01*
X173277515Y-62139761D02*
X173220372Y-62235000D01*
X173220372Y-62235000D02*
X173163229Y-62282619D01*
X173163229Y-62282619D02*
X173048943Y-62282619D01*
X173048943Y-62282619D02*
X172991801Y-62235000D01*
X172991801Y-62235000D02*
X172934658Y-62139761D01*
X172934658Y-62139761D02*
X172906086Y-61949285D01*
X172906086Y-61949285D02*
X172906086Y-61615952D01*
X172906086Y-61615952D02*
X172934658Y-61425476D01*
X172934658Y-61425476D02*
X172991801Y-61330238D01*
X172991801Y-61330238D02*
X173048943Y-61282619D01*
X173848943Y-62282619D02*
X173563229Y-62282619D01*
X173563229Y-62282619D02*
X173563229Y-61282619D01*
X173991800Y-61282619D02*
X174363228Y-61282619D01*
X174363228Y-61282619D02*
X174163228Y-61663571D01*
X174163228Y-61663571D02*
X174248943Y-61663571D01*
X174248943Y-61663571D02*
X174306086Y-61711190D01*
X174306086Y-61711190D02*
X174334657Y-61758809D01*
X174334657Y-61758809D02*
X174363228Y-61854047D01*
X174363228Y-61854047D02*
X174363228Y-62092142D01*
X174363228Y-62092142D02*
X174334657Y-62187380D01*
X174334657Y-62187380D02*
X174306086Y-62235000D01*
X174306086Y-62235000D02*
X174248943Y-62282619D01*
X174248943Y-62282619D02*
X174077514Y-62282619D01*
X174077514Y-62282619D02*
X174020371Y-62235000D01*
X174020371Y-62235000D02*
X173991800Y-62187380D01*
X174620372Y-61901666D02*
X175077515Y-61901666D01*
X175363229Y-61615952D02*
X175820372Y-61901666D01*
X175820372Y-61901666D02*
X175363229Y-62187380D01*
X157506086Y-57107380D02*
X157477514Y-57155000D01*
X157477514Y-57155000D02*
X157391800Y-57202619D01*
X157391800Y-57202619D02*
X157334657Y-57202619D01*
X157334657Y-57202619D02*
X157248943Y-57155000D01*
X157248943Y-57155000D02*
X157191800Y-57059761D01*
X157191800Y-57059761D02*
X157163229Y-56964523D01*
X157163229Y-56964523D02*
X157134657Y-56774047D01*
X157134657Y-56774047D02*
X157134657Y-56631190D01*
X157134657Y-56631190D02*
X157163229Y-56440714D01*
X157163229Y-56440714D02*
X157191800Y-56345476D01*
X157191800Y-56345476D02*
X157248943Y-56250238D01*
X157248943Y-56250238D02*
X157334657Y-56202619D01*
X157334657Y-56202619D02*
X157391800Y-56202619D01*
X157391800Y-56202619D02*
X157477514Y-56250238D01*
X157477514Y-56250238D02*
X157506086Y-56297857D01*
X157877514Y-56202619D02*
X157991800Y-56202619D01*
X157991800Y-56202619D02*
X158048943Y-56250238D01*
X158048943Y-56250238D02*
X158106086Y-56345476D01*
X158106086Y-56345476D02*
X158134657Y-56535952D01*
X158134657Y-56535952D02*
X158134657Y-56869285D01*
X158134657Y-56869285D02*
X158106086Y-57059761D01*
X158106086Y-57059761D02*
X158048943Y-57155000D01*
X158048943Y-57155000D02*
X157991800Y-57202619D01*
X157991800Y-57202619D02*
X157877514Y-57202619D01*
X157877514Y-57202619D02*
X157820372Y-57155000D01*
X157820372Y-57155000D02*
X157763229Y-57059761D01*
X157763229Y-57059761D02*
X157734657Y-56869285D01*
X157734657Y-56869285D02*
X157734657Y-56535952D01*
X157734657Y-56535952D02*
X157763229Y-56345476D01*
X157763229Y-56345476D02*
X157820372Y-56250238D01*
X157820372Y-56250238D02*
X157877514Y-56202619D01*
X158677514Y-57202619D02*
X158391800Y-57202619D01*
X158391800Y-57202619D02*
X158391800Y-56202619D01*
X159191799Y-57202619D02*
X158848942Y-57202619D01*
X159020371Y-57202619D02*
X159020371Y-56202619D01*
X159020371Y-56202619D02*
X158963228Y-56345476D01*
X158963228Y-56345476D02*
X158906085Y-56440714D01*
X158906085Y-56440714D02*
X158848942Y-56488333D01*
X159448943Y-56821666D02*
X159906086Y-56821666D01*
X160191800Y-56535952D02*
X160648943Y-56821666D01*
X160648943Y-56821666D02*
X160191800Y-57107380D01*
X172677515Y-69807380D02*
X172648943Y-69855000D01*
X172648943Y-69855000D02*
X172563229Y-69902619D01*
X172563229Y-69902619D02*
X172506086Y-69902619D01*
X172506086Y-69902619D02*
X172420372Y-69855000D01*
X172420372Y-69855000D02*
X172363229Y-69759761D01*
X172363229Y-69759761D02*
X172334658Y-69664523D01*
X172334658Y-69664523D02*
X172306086Y-69474047D01*
X172306086Y-69474047D02*
X172306086Y-69331190D01*
X172306086Y-69331190D02*
X172334658Y-69140714D01*
X172334658Y-69140714D02*
X172363229Y-69045476D01*
X172363229Y-69045476D02*
X172420372Y-68950238D01*
X172420372Y-68950238D02*
X172506086Y-68902619D01*
X172506086Y-68902619D02*
X172563229Y-68902619D01*
X172563229Y-68902619D02*
X172648943Y-68950238D01*
X172648943Y-68950238D02*
X172677515Y-68997857D01*
X173048943Y-68902619D02*
X173163229Y-68902619D01*
X173163229Y-68902619D02*
X173220372Y-68950238D01*
X173220372Y-68950238D02*
X173277515Y-69045476D01*
X173277515Y-69045476D02*
X173306086Y-69235952D01*
X173306086Y-69235952D02*
X173306086Y-69569285D01*
X173306086Y-69569285D02*
X173277515Y-69759761D01*
X173277515Y-69759761D02*
X173220372Y-69855000D01*
X173220372Y-69855000D02*
X173163229Y-69902619D01*
X173163229Y-69902619D02*
X173048943Y-69902619D01*
X173048943Y-69902619D02*
X172991801Y-69855000D01*
X172991801Y-69855000D02*
X172934658Y-69759761D01*
X172934658Y-69759761D02*
X172906086Y-69569285D01*
X172906086Y-69569285D02*
X172906086Y-69235952D01*
X172906086Y-69235952D02*
X172934658Y-69045476D01*
X172934658Y-69045476D02*
X172991801Y-68950238D01*
X172991801Y-68950238D02*
X173048943Y-68902619D01*
X173848943Y-69902619D02*
X173563229Y-69902619D01*
X173563229Y-69902619D02*
X173563229Y-68902619D01*
X174306086Y-68902619D02*
X174191800Y-68902619D01*
X174191800Y-68902619D02*
X174134657Y-68950238D01*
X174134657Y-68950238D02*
X174106086Y-68997857D01*
X174106086Y-68997857D02*
X174048943Y-69140714D01*
X174048943Y-69140714D02*
X174020371Y-69331190D01*
X174020371Y-69331190D02*
X174020371Y-69712142D01*
X174020371Y-69712142D02*
X174048943Y-69807380D01*
X174048943Y-69807380D02*
X174077514Y-69855000D01*
X174077514Y-69855000D02*
X174134657Y-69902619D01*
X174134657Y-69902619D02*
X174248943Y-69902619D01*
X174248943Y-69902619D02*
X174306086Y-69855000D01*
X174306086Y-69855000D02*
X174334657Y-69807380D01*
X174334657Y-69807380D02*
X174363228Y-69712142D01*
X174363228Y-69712142D02*
X174363228Y-69474047D01*
X174363228Y-69474047D02*
X174334657Y-69378809D01*
X174334657Y-69378809D02*
X174306086Y-69331190D01*
X174306086Y-69331190D02*
X174248943Y-69283571D01*
X174248943Y-69283571D02*
X174134657Y-69283571D01*
X174134657Y-69283571D02*
X174077514Y-69331190D01*
X174077514Y-69331190D02*
X174048943Y-69378809D01*
X174048943Y-69378809D02*
X174020371Y-69474047D01*
X174620372Y-69521666D02*
X175077515Y-69521666D01*
X175363229Y-69235952D02*
X175820372Y-69521666D01*
X175820372Y-69521666D02*
X175363229Y-69807380D01*
X172963229Y-71442619D02*
X173306087Y-71442619D01*
X173134658Y-72442619D02*
X173134658Y-71442619D01*
X173506087Y-71442619D02*
X173506087Y-72252142D01*
X173506087Y-72252142D02*
X173534658Y-72347380D01*
X173534658Y-72347380D02*
X173563230Y-72395000D01*
X173563230Y-72395000D02*
X173620372Y-72442619D01*
X173620372Y-72442619D02*
X173734658Y-72442619D01*
X173734658Y-72442619D02*
X173791801Y-72395000D01*
X173791801Y-72395000D02*
X173820372Y-72347380D01*
X173820372Y-72347380D02*
X173848944Y-72252142D01*
X173848944Y-72252142D02*
X173848944Y-71442619D01*
X174420372Y-72442619D02*
X174134658Y-72442619D01*
X174134658Y-72442619D02*
X174134658Y-71442619D01*
X174620372Y-72061666D02*
X175077515Y-72061666D01*
X175363229Y-71775952D02*
X175820372Y-72061666D01*
X175820372Y-72061666D02*
X175363229Y-72347380D01*
X172677515Y-64727380D02*
X172648943Y-64775000D01*
X172648943Y-64775000D02*
X172563229Y-64822619D01*
X172563229Y-64822619D02*
X172506086Y-64822619D01*
X172506086Y-64822619D02*
X172420372Y-64775000D01*
X172420372Y-64775000D02*
X172363229Y-64679761D01*
X172363229Y-64679761D02*
X172334658Y-64584523D01*
X172334658Y-64584523D02*
X172306086Y-64394047D01*
X172306086Y-64394047D02*
X172306086Y-64251190D01*
X172306086Y-64251190D02*
X172334658Y-64060714D01*
X172334658Y-64060714D02*
X172363229Y-63965476D01*
X172363229Y-63965476D02*
X172420372Y-63870238D01*
X172420372Y-63870238D02*
X172506086Y-63822619D01*
X172506086Y-63822619D02*
X172563229Y-63822619D01*
X172563229Y-63822619D02*
X172648943Y-63870238D01*
X172648943Y-63870238D02*
X172677515Y-63917857D01*
X173048943Y-63822619D02*
X173163229Y-63822619D01*
X173163229Y-63822619D02*
X173220372Y-63870238D01*
X173220372Y-63870238D02*
X173277515Y-63965476D01*
X173277515Y-63965476D02*
X173306086Y-64155952D01*
X173306086Y-64155952D02*
X173306086Y-64489285D01*
X173306086Y-64489285D02*
X173277515Y-64679761D01*
X173277515Y-64679761D02*
X173220372Y-64775000D01*
X173220372Y-64775000D02*
X173163229Y-64822619D01*
X173163229Y-64822619D02*
X173048943Y-64822619D01*
X173048943Y-64822619D02*
X172991801Y-64775000D01*
X172991801Y-64775000D02*
X172934658Y-64679761D01*
X172934658Y-64679761D02*
X172906086Y-64489285D01*
X172906086Y-64489285D02*
X172906086Y-64155952D01*
X172906086Y-64155952D02*
X172934658Y-63965476D01*
X172934658Y-63965476D02*
X172991801Y-63870238D01*
X172991801Y-63870238D02*
X173048943Y-63822619D01*
X173848943Y-64822619D02*
X173563229Y-64822619D01*
X173563229Y-64822619D02*
X173563229Y-63822619D01*
X174306086Y-64155952D02*
X174306086Y-64822619D01*
X174163228Y-63775000D02*
X174020371Y-64489285D01*
X174020371Y-64489285D02*
X174391800Y-64489285D01*
X174620372Y-64441666D02*
X175077515Y-64441666D01*
X175363229Y-64155952D02*
X175820372Y-64441666D01*
X175820372Y-64441666D02*
X175363229Y-64727380D01*
X157648942Y-53662619D02*
X157848942Y-54662619D01*
X157848942Y-54662619D02*
X158048942Y-53662619D01*
X158591800Y-54567380D02*
X158563228Y-54615000D01*
X158563228Y-54615000D02*
X158477514Y-54662619D01*
X158477514Y-54662619D02*
X158420371Y-54662619D01*
X158420371Y-54662619D02*
X158334657Y-54615000D01*
X158334657Y-54615000D02*
X158277514Y-54519761D01*
X158277514Y-54519761D02*
X158248943Y-54424523D01*
X158248943Y-54424523D02*
X158220371Y-54234047D01*
X158220371Y-54234047D02*
X158220371Y-54091190D01*
X158220371Y-54091190D02*
X158248943Y-53900714D01*
X158248943Y-53900714D02*
X158277514Y-53805476D01*
X158277514Y-53805476D02*
X158334657Y-53710238D01*
X158334657Y-53710238D02*
X158420371Y-53662619D01*
X158420371Y-53662619D02*
X158477514Y-53662619D01*
X158477514Y-53662619D02*
X158563228Y-53710238D01*
X158563228Y-53710238D02*
X158591800Y-53757857D01*
X159191800Y-54567380D02*
X159163228Y-54615000D01*
X159163228Y-54615000D02*
X159077514Y-54662619D01*
X159077514Y-54662619D02*
X159020371Y-54662619D01*
X159020371Y-54662619D02*
X158934657Y-54615000D01*
X158934657Y-54615000D02*
X158877514Y-54519761D01*
X158877514Y-54519761D02*
X158848943Y-54424523D01*
X158848943Y-54424523D02*
X158820371Y-54234047D01*
X158820371Y-54234047D02*
X158820371Y-54091190D01*
X158820371Y-54091190D02*
X158848943Y-53900714D01*
X158848943Y-53900714D02*
X158877514Y-53805476D01*
X158877514Y-53805476D02*
X158934657Y-53710238D01*
X158934657Y-53710238D02*
X159020371Y-53662619D01*
X159020371Y-53662619D02*
X159077514Y-53662619D01*
X159077514Y-53662619D02*
X159163228Y-53710238D01*
X159163228Y-53710238D02*
X159191800Y-53757857D01*
X159448943Y-54281666D02*
X159906086Y-54281666D01*
X160191800Y-53995952D02*
X160648943Y-54281666D01*
X160648943Y-54281666D02*
X160191800Y-54567380D01*
X157934657Y-73982619D02*
X158277515Y-73982619D01*
X158106086Y-74982619D02*
X158106086Y-73982619D01*
X158763229Y-74982619D02*
X158477515Y-74982619D01*
X158477515Y-74982619D02*
X158477515Y-73982619D01*
X159248943Y-74982619D02*
X158963229Y-74982619D01*
X158963229Y-74982619D02*
X158963229Y-73982619D01*
X159448943Y-74601666D02*
X159906086Y-74601666D01*
X160191800Y-74315952D02*
X160648943Y-74601666D01*
X160648943Y-74601666D02*
X160191800Y-74887380D01*
X157506086Y-67267380D02*
X157477514Y-67315000D01*
X157477514Y-67315000D02*
X157391800Y-67362619D01*
X157391800Y-67362619D02*
X157334657Y-67362619D01*
X157334657Y-67362619D02*
X157248943Y-67315000D01*
X157248943Y-67315000D02*
X157191800Y-67219761D01*
X157191800Y-67219761D02*
X157163229Y-67124523D01*
X157163229Y-67124523D02*
X157134657Y-66934047D01*
X157134657Y-66934047D02*
X157134657Y-66791190D01*
X157134657Y-66791190D02*
X157163229Y-66600714D01*
X157163229Y-66600714D02*
X157191800Y-66505476D01*
X157191800Y-66505476D02*
X157248943Y-66410238D01*
X157248943Y-66410238D02*
X157334657Y-66362619D01*
X157334657Y-66362619D02*
X157391800Y-66362619D01*
X157391800Y-66362619D02*
X157477514Y-66410238D01*
X157477514Y-66410238D02*
X157506086Y-66457857D01*
X157877514Y-66362619D02*
X157991800Y-66362619D01*
X157991800Y-66362619D02*
X158048943Y-66410238D01*
X158048943Y-66410238D02*
X158106086Y-66505476D01*
X158106086Y-66505476D02*
X158134657Y-66695952D01*
X158134657Y-66695952D02*
X158134657Y-67029285D01*
X158134657Y-67029285D02*
X158106086Y-67219761D01*
X158106086Y-67219761D02*
X158048943Y-67315000D01*
X158048943Y-67315000D02*
X157991800Y-67362619D01*
X157991800Y-67362619D02*
X157877514Y-67362619D01*
X157877514Y-67362619D02*
X157820372Y-67315000D01*
X157820372Y-67315000D02*
X157763229Y-67219761D01*
X157763229Y-67219761D02*
X157734657Y-67029285D01*
X157734657Y-67029285D02*
X157734657Y-66695952D01*
X157734657Y-66695952D02*
X157763229Y-66505476D01*
X157763229Y-66505476D02*
X157820372Y-66410238D01*
X157820372Y-66410238D02*
X157877514Y-66362619D01*
X158677514Y-67362619D02*
X158391800Y-67362619D01*
X158391800Y-67362619D02*
X158391800Y-66362619D01*
X159163228Y-66362619D02*
X158877514Y-66362619D01*
X158877514Y-66362619D02*
X158848942Y-66838809D01*
X158848942Y-66838809D02*
X158877514Y-66791190D01*
X158877514Y-66791190D02*
X158934657Y-66743571D01*
X158934657Y-66743571D02*
X159077514Y-66743571D01*
X159077514Y-66743571D02*
X159134657Y-66791190D01*
X159134657Y-66791190D02*
X159163228Y-66838809D01*
X159163228Y-66838809D02*
X159191799Y-66934047D01*
X159191799Y-66934047D02*
X159191799Y-67172142D01*
X159191799Y-67172142D02*
X159163228Y-67267380D01*
X159163228Y-67267380D02*
X159134657Y-67315000D01*
X159134657Y-67315000D02*
X159077514Y-67362619D01*
X159077514Y-67362619D02*
X158934657Y-67362619D01*
X158934657Y-67362619D02*
X158877514Y-67315000D01*
X158877514Y-67315000D02*
X158848942Y-67267380D01*
X159448943Y-66981666D02*
X159906086Y-66981666D01*
X160191800Y-66695952D02*
X160648943Y-66981666D01*
X160648943Y-66981666D02*
X160191800Y-67267380D01*
X157791800Y-71442619D02*
X158134658Y-71442619D01*
X157963229Y-72442619D02*
X157963229Y-71442619D01*
X158334658Y-71442619D02*
X158334658Y-72252142D01*
X158334658Y-72252142D02*
X158363229Y-72347380D01*
X158363229Y-72347380D02*
X158391801Y-72395000D01*
X158391801Y-72395000D02*
X158448943Y-72442619D01*
X158448943Y-72442619D02*
X158563229Y-72442619D01*
X158563229Y-72442619D02*
X158620372Y-72395000D01*
X158620372Y-72395000D02*
X158648943Y-72347380D01*
X158648943Y-72347380D02*
X158677515Y-72252142D01*
X158677515Y-72252142D02*
X158677515Y-71442619D01*
X159248943Y-72442619D02*
X158963229Y-72442619D01*
X158963229Y-72442619D02*
X158963229Y-71442619D01*
X159448943Y-72061666D02*
X159906086Y-72061666D01*
X160191800Y-71775952D02*
X160648943Y-72061666D01*
X160648943Y-72061666D02*
X160191800Y-72347380D01*
X172677515Y-57107380D02*
X172648943Y-57155000D01*
X172648943Y-57155000D02*
X172563229Y-57202619D01*
X172563229Y-57202619D02*
X172506086Y-57202619D01*
X172506086Y-57202619D02*
X172420372Y-57155000D01*
X172420372Y-57155000D02*
X172363229Y-57059761D01*
X172363229Y-57059761D02*
X172334658Y-56964523D01*
X172334658Y-56964523D02*
X172306086Y-56774047D01*
X172306086Y-56774047D02*
X172306086Y-56631190D01*
X172306086Y-56631190D02*
X172334658Y-56440714D01*
X172334658Y-56440714D02*
X172363229Y-56345476D01*
X172363229Y-56345476D02*
X172420372Y-56250238D01*
X172420372Y-56250238D02*
X172506086Y-56202619D01*
X172506086Y-56202619D02*
X172563229Y-56202619D01*
X172563229Y-56202619D02*
X172648943Y-56250238D01*
X172648943Y-56250238D02*
X172677515Y-56297857D01*
X173048943Y-56202619D02*
X173163229Y-56202619D01*
X173163229Y-56202619D02*
X173220372Y-56250238D01*
X173220372Y-56250238D02*
X173277515Y-56345476D01*
X173277515Y-56345476D02*
X173306086Y-56535952D01*
X173306086Y-56535952D02*
X173306086Y-56869285D01*
X173306086Y-56869285D02*
X173277515Y-57059761D01*
X173277515Y-57059761D02*
X173220372Y-57155000D01*
X173220372Y-57155000D02*
X173163229Y-57202619D01*
X173163229Y-57202619D02*
X173048943Y-57202619D01*
X173048943Y-57202619D02*
X172991801Y-57155000D01*
X172991801Y-57155000D02*
X172934658Y-57059761D01*
X172934658Y-57059761D02*
X172906086Y-56869285D01*
X172906086Y-56869285D02*
X172906086Y-56535952D01*
X172906086Y-56535952D02*
X172934658Y-56345476D01*
X172934658Y-56345476D02*
X172991801Y-56250238D01*
X172991801Y-56250238D02*
X173048943Y-56202619D01*
X173848943Y-57202619D02*
X173563229Y-57202619D01*
X173563229Y-57202619D02*
X173563229Y-56202619D01*
X174363228Y-57202619D02*
X174020371Y-57202619D01*
X174191800Y-57202619D02*
X174191800Y-56202619D01*
X174191800Y-56202619D02*
X174134657Y-56345476D01*
X174134657Y-56345476D02*
X174077514Y-56440714D01*
X174077514Y-56440714D02*
X174020371Y-56488333D01*
X174620372Y-56821666D02*
X175077515Y-56821666D01*
X175363229Y-56535952D02*
X175820372Y-56821666D01*
X175820372Y-56821666D02*
X175363229Y-57107380D01*
X157506086Y-62187380D02*
X157477514Y-62235000D01*
X157477514Y-62235000D02*
X157391800Y-62282619D01*
X157391800Y-62282619D02*
X157334657Y-62282619D01*
X157334657Y-62282619D02*
X157248943Y-62235000D01*
X157248943Y-62235000D02*
X157191800Y-62139761D01*
X157191800Y-62139761D02*
X157163229Y-62044523D01*
X157163229Y-62044523D02*
X157134657Y-61854047D01*
X157134657Y-61854047D02*
X157134657Y-61711190D01*
X157134657Y-61711190D02*
X157163229Y-61520714D01*
X157163229Y-61520714D02*
X157191800Y-61425476D01*
X157191800Y-61425476D02*
X157248943Y-61330238D01*
X157248943Y-61330238D02*
X157334657Y-61282619D01*
X157334657Y-61282619D02*
X157391800Y-61282619D01*
X157391800Y-61282619D02*
X157477514Y-61330238D01*
X157477514Y-61330238D02*
X157506086Y-61377857D01*
X157877514Y-61282619D02*
X157991800Y-61282619D01*
X157991800Y-61282619D02*
X158048943Y-61330238D01*
X158048943Y-61330238D02*
X158106086Y-61425476D01*
X158106086Y-61425476D02*
X158134657Y-61615952D01*
X158134657Y-61615952D02*
X158134657Y-61949285D01*
X158134657Y-61949285D02*
X158106086Y-62139761D01*
X158106086Y-62139761D02*
X158048943Y-62235000D01*
X158048943Y-62235000D02*
X157991800Y-62282619D01*
X157991800Y-62282619D02*
X157877514Y-62282619D01*
X157877514Y-62282619D02*
X157820372Y-62235000D01*
X157820372Y-62235000D02*
X157763229Y-62139761D01*
X157763229Y-62139761D02*
X157734657Y-61949285D01*
X157734657Y-61949285D02*
X157734657Y-61615952D01*
X157734657Y-61615952D02*
X157763229Y-61425476D01*
X157763229Y-61425476D02*
X157820372Y-61330238D01*
X157820372Y-61330238D02*
X157877514Y-61282619D01*
X158677514Y-62282619D02*
X158391800Y-62282619D01*
X158391800Y-62282619D02*
X158391800Y-61282619D01*
X158820371Y-61282619D02*
X159191799Y-61282619D01*
X159191799Y-61282619D02*
X158991799Y-61663571D01*
X158991799Y-61663571D02*
X159077514Y-61663571D01*
X159077514Y-61663571D02*
X159134657Y-61711190D01*
X159134657Y-61711190D02*
X159163228Y-61758809D01*
X159163228Y-61758809D02*
X159191799Y-61854047D01*
X159191799Y-61854047D02*
X159191799Y-62092142D01*
X159191799Y-62092142D02*
X159163228Y-62187380D01*
X159163228Y-62187380D02*
X159134657Y-62235000D01*
X159134657Y-62235000D02*
X159077514Y-62282619D01*
X159077514Y-62282619D02*
X158906085Y-62282619D01*
X158906085Y-62282619D02*
X158848942Y-62235000D01*
X158848942Y-62235000D02*
X158820371Y-62187380D01*
X159448943Y-61901666D02*
X159906086Y-61901666D01*
X160191800Y-61615952D02*
X160648943Y-61901666D01*
X160648943Y-61901666D02*
X160191800Y-62187380D01*
X64500000Y-73000000D02*
X65500000Y-73000000D01*
X64500000Y-74000000D02*
X64500000Y-73000000D01*
X64500000Y-87000000D02*
X64500000Y-86000000D01*
X65500000Y-87000000D02*
X64500000Y-87000000D01*
X69500000Y-84200000D02*
X70000000Y-83700000D01*
X70000000Y-83700000D02*
X72500000Y-83700000D01*
X73500000Y-86700000D02*
X73500000Y-87500000D01*
X74000000Y-81500000D02*
X78500000Y-81500000D01*
X74000000Y-82200000D02*
X74000000Y-81500000D01*
X77500000Y-73000000D02*
X78500000Y-73000000D01*
X78500000Y-73000000D02*
X78500000Y-74000000D01*
X78500000Y-81500000D02*
X78500000Y-82000000D01*
X78500000Y-85600000D02*
X78500000Y-86200000D01*
X78500000Y-86000000D02*
X78500000Y-87000000D01*
X78500000Y-86200000D02*
X74000000Y-86200000D01*
X78500000Y-87000000D02*
X77500000Y-87000000D01*
X74000000Y-86200000D02*
G75*
G03*
X73500000Y-86700000I0J-500000D01*
G01*
X72500000Y-83700000D02*
G75*
G03*
X74000000Y-82200000I0J1500000D01*
G01*
X186062178Y-117577822D02*
X186562178Y-118443848D01*
X185196152Y-118077822D02*
X186062178Y-117577822D01*
X173937822Y-124577822D02*
X174803848Y-124077822D01*
X174437822Y-125443848D02*
X173937822Y-124577822D01*
X178862693Y-127507949D02*
X179545706Y-127690962D01*
X179545706Y-127690962D02*
X180795706Y-129856025D01*
X178697630Y-132222051D02*
X178004809Y-132622051D01*
X183450962Y-130055064D02*
X185700962Y-133952178D01*
X182844744Y-130405064D02*
X183450962Y-130055064D01*
X192562178Y-128836152D02*
X193062178Y-129702178D01*
X193062178Y-129702178D02*
X192196152Y-130202178D01*
X185700962Y-133952178D02*
X185267949Y-134202178D01*
X182150258Y-136002178D02*
X181630642Y-136302178D01*
X181803848Y-136202178D02*
X180937822Y-136702178D01*
X181630642Y-136302178D02*
X179380642Y-132405064D01*
X180937822Y-136702178D02*
X180437822Y-135836152D01*
X179380643Y-132405064D02*
G75*
G03*
X178697630Y-132222051I-433013J-250000D01*
G01*
X180795706Y-129856025D02*
G75*
G03*
X182844744Y-130405063I1299038J750000D01*
G01*
D12*
X177370000Y-88150000D02*
X177370000Y-95950000D01*
X173690000Y-88150000D02*
X177370000Y-88150000D01*
X173070000Y-89800000D02*
X173070000Y-94300000D01*
X173690000Y-95950000D02*
X177370000Y-95950000D01*
D10*
X160019482Y-85279939D02*
X160999090Y-84112488D01*
X160999090Y-84112488D02*
X160609939Y-83785952D01*
X160999090Y-84112488D02*
X157107584Y-80847127D01*
X157691310Y-81336931D02*
X156711702Y-82504382D01*
X157594022Y-81255297D02*
X156614414Y-82422748D01*
X156517127Y-82341114D02*
X157496735Y-81173663D01*
X157399447Y-81092029D02*
X156419839Y-82259480D01*
X156322551Y-82177846D02*
X157302160Y-81010395D01*
X157204872Y-80928761D02*
X156225264Y-82096212D01*
X156127976Y-82014578D02*
X160019482Y-85279939D01*
X157107584Y-80847127D02*
X156127976Y-82014578D01*
X136500000Y-31000000D02*
X137500000Y-31000000D01*
X136500000Y-32000000D02*
X136500000Y-31000000D01*
X136500000Y-45000000D02*
X136500000Y-44000000D01*
X137500000Y-45000000D02*
X136500000Y-45000000D01*
X141500000Y-42200000D02*
X142000000Y-41700000D01*
X142000000Y-41700000D02*
X144500000Y-41700000D01*
X145500000Y-44700000D02*
X145500000Y-45500000D01*
X146000000Y-39500000D02*
X150500000Y-39500000D01*
X146000000Y-40200000D02*
X146000000Y-39500000D01*
X149500000Y-31000000D02*
X150500000Y-31000000D01*
X150500000Y-31000000D02*
X150500000Y-32000000D01*
X150500000Y-39500000D02*
X150500000Y-40000000D01*
X150500000Y-43600000D02*
X150500000Y-44200000D01*
X150500000Y-44000000D02*
X150500000Y-45000000D01*
X150500000Y-44200000D02*
X146000000Y-44200000D01*
X150500000Y-45000000D02*
X149500000Y-45000000D01*
X146000000Y-44200000D02*
G75*
G03*
X145500000Y-44700000I0J-500000D01*
G01*
X144500000Y-41700000D02*
G75*
G03*
X146000000Y-40200000I0J1500000D01*
G01*
X75790000Y-87978000D02*
X75790000Y-89502000D01*
X75790000Y-89502000D02*
X76298000Y-89502000D01*
X75790000Y-89502000D02*
X80870000Y-89502000D01*
X80108000Y-89502000D02*
X80108000Y-87978000D01*
X80235000Y-89502000D02*
X80235000Y-87978000D01*
X80362000Y-87978000D02*
X80362000Y-89502000D01*
X80489000Y-89502000D02*
X80489000Y-87978000D01*
X80616000Y-87978000D02*
X80616000Y-89502000D01*
X80743000Y-89502000D02*
X80743000Y-87978000D01*
X80870000Y-87978000D02*
X75790000Y-87978000D01*
X80870000Y-89502000D02*
X80870000Y-87978000D01*
X100500000Y-24000000D02*
X101500000Y-24000000D01*
X100500000Y-25000000D02*
X100500000Y-24000000D01*
X100500000Y-38000000D02*
X100500000Y-37000000D01*
X101500000Y-38000000D02*
X100500000Y-38000000D01*
X105500000Y-35200000D02*
X106000000Y-34700000D01*
X106000000Y-34700000D02*
X108500000Y-34700000D01*
X109500000Y-37700000D02*
X109500000Y-38500000D01*
X110000000Y-32500000D02*
X114500000Y-32500000D01*
X110000000Y-33200000D02*
X110000000Y-32500000D01*
X113500000Y-24000000D02*
X114500000Y-24000000D01*
X114500000Y-24000000D02*
X114500000Y-25000000D01*
X114500000Y-32500000D02*
X114500000Y-33000000D01*
X114500000Y-36600000D02*
X114500000Y-37200000D01*
X114500000Y-37000000D02*
X114500000Y-38000000D01*
X114500000Y-37200000D02*
X110000000Y-37200000D01*
X114500000Y-38000000D02*
X113500000Y-38000000D01*
X110000000Y-37200000D02*
G75*
G03*
X109500000Y-37700000I0J-500000D01*
G01*
X108500000Y-34700000D02*
G75*
G03*
X110000000Y-33200000I0J1500000D01*
G01*
X135342000Y-46490000D02*
X133818000Y-46490000D01*
X133818000Y-46490000D02*
X133818000Y-46998000D01*
X133818000Y-46490000D02*
X133818000Y-51570000D01*
X133818000Y-50808000D02*
X135342000Y-50808000D01*
X133818000Y-50935000D02*
X135342000Y-50935000D01*
X135342000Y-51062000D02*
X133818000Y-51062000D01*
X133818000Y-51189000D02*
X135342000Y-51189000D01*
X135342000Y-51316000D02*
X133818000Y-51316000D01*
X133818000Y-51443000D02*
X135342000Y-51443000D01*
X135342000Y-51570000D02*
X135342000Y-46490000D01*
X133818000Y-51570000D02*
X135342000Y-51570000D01*
X153232000Y-45650000D02*
X151708000Y-45650000D01*
X151708000Y-45650000D02*
X151708000Y-46158000D01*
X151708000Y-45650000D02*
X151708000Y-50730000D01*
X151708000Y-49968000D02*
X153232000Y-49968000D01*
X151708000Y-50095000D02*
X153232000Y-50095000D01*
X153232000Y-50222000D02*
X151708000Y-50222000D01*
X151708000Y-50349000D02*
X153232000Y-50349000D01*
X153232000Y-50476000D02*
X151708000Y-50476000D01*
X151708000Y-50603000D02*
X153232000Y-50603000D01*
X153232000Y-50730000D02*
X153232000Y-45650000D01*
X151708000Y-50730000D02*
X153232000Y-50730000D01*
X153637202Y-82858176D02*
X154403247Y-83500963D01*
X152994415Y-83624220D02*
X153637202Y-82858176D01*
X144638176Y-93582798D02*
X145280963Y-92816753D01*
X145404220Y-94225585D02*
X144638176Y-93582798D01*
X150268203Y-94651811D02*
X150972619Y-94590183D01*
X150972619Y-94590183D02*
X152887730Y-96197152D01*
X151725412Y-99138073D02*
X151211182Y-99750909D01*
X155450930Y-95476036D02*
X158898130Y-98368580D01*
X155000978Y-96012267D02*
X155450930Y-95476036D01*
X163595780Y-91214415D02*
X164361824Y-91857202D01*
X164361824Y-91857202D02*
X163719037Y-92623247D01*
X158898130Y-98368580D02*
X158576736Y-98751602D01*
X156262700Y-101509362D02*
X155877028Y-101968989D01*
X156005585Y-101815780D02*
X155362798Y-102581824D01*
X155877028Y-101968989D02*
X152429828Y-99076445D01*
X155362798Y-102581824D02*
X154596753Y-101939037D01*
X152429827Y-99076446D02*
G75*
G03*
X151725413Y-99138074I-321393J-383021D01*
G01*
X152887731Y-96197151D02*
G75*
G03*
X155000977Y-96012266I964181J1149066D01*
G01*
X74600000Y-70808000D02*
X74600000Y-72332000D01*
X74600000Y-72332000D02*
X75108000Y-72332000D01*
X74600000Y-72332000D02*
X79680000Y-72332000D01*
X78918000Y-72332000D02*
X78918000Y-70808000D01*
X79045000Y-72332000D02*
X79045000Y-70808000D01*
X79172000Y-70808000D02*
X79172000Y-72332000D01*
X79299000Y-72332000D02*
X79299000Y-70808000D01*
X79426000Y-70808000D02*
X79426000Y-72332000D01*
X79553000Y-72332000D02*
X79553000Y-70808000D01*
X79680000Y-70808000D02*
X74600000Y-70808000D01*
X79680000Y-72332000D02*
X79680000Y-70808000D01*
X163290061Y-98439482D02*
X164457512Y-99419090D01*
X164457512Y-99419090D02*
X164784048Y-99029939D01*
X164457512Y-99419090D02*
X167722873Y-95527584D01*
X167233069Y-96111310D02*
X166065618Y-95131702D01*
X167314703Y-96014022D02*
X166147252Y-95034414D01*
X166228886Y-94937127D02*
X167396337Y-95916735D01*
X167477971Y-95819447D02*
X166310520Y-94839839D01*
X166392154Y-94742551D02*
X167559605Y-95722160D01*
X167641239Y-95624872D02*
X166473788Y-94645264D01*
X166555422Y-94547976D02*
X163290061Y-98439482D01*
X167722873Y-95527584D02*
X166555422Y-94547976D01*
X171392798Y-98748176D02*
X172035585Y-99514220D01*
X170626753Y-99390963D02*
X171392798Y-98748176D01*
X160668176Y-107747202D02*
X161434220Y-107104415D01*
X161310963Y-108513247D02*
X160668176Y-107747202D01*
X166027038Y-109777619D02*
X166731454Y-109839247D01*
X166731454Y-109839247D02*
X168338423Y-111754359D01*
X166683077Y-114448766D02*
X166070242Y-114962996D01*
X170987902Y-111489293D02*
X173880447Y-114936493D01*
X170451671Y-111939244D02*
X170987902Y-111489293D01*
X179749037Y-108706753D02*
X180391824Y-109472798D01*
X180391824Y-109472798D02*
X179625780Y-110115585D01*
X173880447Y-114936493D02*
X173497424Y-115257886D01*
X170739664Y-117571922D02*
X170280038Y-117957594D01*
X170433247Y-117829037D02*
X169667202Y-118471824D01*
X170280038Y-117957594D02*
X167387493Y-114510394D01*
X169667202Y-118471824D02*
X169024415Y-117705780D01*
X167387492Y-114510395D02*
G75*
G03*
X166683078Y-114448767I-383021J-321393D01*
G01*
X168338424Y-111754358D02*
G75*
G03*
X170451670Y-111939243I1149066J964181D01*
G01*
X82500000Y-49000000D02*
X83500000Y-49000000D01*
X82500000Y-50000000D02*
X82500000Y-49000000D01*
X82500000Y-63000000D02*
X82500000Y-62000000D01*
X83500000Y-63000000D02*
X82500000Y-63000000D01*
X87500000Y-60200000D02*
X88000000Y-59700000D01*
X88000000Y-59700000D02*
X90500000Y-59700000D01*
X91500000Y-62700000D02*
X91500000Y-63500000D01*
X92000000Y-57500000D02*
X96500000Y-57500000D01*
X92000000Y-58200000D02*
X92000000Y-57500000D01*
X95500000Y-49000000D02*
X96500000Y-49000000D01*
X96500000Y-49000000D02*
X96500000Y-50000000D01*
X96500000Y-57500000D02*
X96500000Y-58000000D01*
X96500000Y-61600000D02*
X96500000Y-62200000D01*
X96500000Y-62000000D02*
X96500000Y-63000000D01*
X96500000Y-62200000D02*
X92000000Y-62200000D01*
X96500000Y-63000000D02*
X95500000Y-63000000D01*
X92000000Y-62200000D02*
G75*
G03*
X91500000Y-62700000I0J-500000D01*
G01*
X90500000Y-59700000D02*
G75*
G03*
X92000000Y-58200000I0J1500000D01*
G01*
X86050000Y-81358000D02*
X86050000Y-82882000D01*
X86050000Y-82882000D02*
X86558000Y-82882000D01*
X86050000Y-82882000D02*
X91130000Y-82882000D01*
X90368000Y-82882000D02*
X90368000Y-81358000D01*
X90495000Y-82882000D02*
X90495000Y-81358000D01*
X90622000Y-81358000D02*
X90622000Y-82882000D01*
X90749000Y-82882000D02*
X90749000Y-81358000D01*
X90876000Y-81358000D02*
X90876000Y-82882000D01*
X91003000Y-82882000D02*
X91003000Y-81358000D01*
X91130000Y-81358000D02*
X86050000Y-81358000D01*
X91130000Y-82882000D02*
X91130000Y-81358000D01*
X126521295Y-97300089D02*
X125759295Y-98619911D01*
X125759295Y-98619911D02*
X126199236Y-98873911D01*
X125759295Y-98619911D02*
X130158705Y-101159911D01*
X129498793Y-100778911D02*
X130260793Y-99459089D01*
X129608778Y-100842411D02*
X130370778Y-99522589D01*
X130480764Y-99586089D02*
X129718764Y-100905911D01*
X129828749Y-100969411D02*
X130590749Y-99649589D01*
X130700734Y-99713089D02*
X129938734Y-101032911D01*
X130048719Y-101096411D02*
X130810719Y-99776589D01*
X130920705Y-99840089D02*
X126521295Y-97300089D01*
X130158705Y-101159911D02*
X130920705Y-99840089D01*
X136500000Y-65000000D02*
X137500000Y-65000000D01*
X136500000Y-66000000D02*
X136500000Y-65000000D01*
X136500000Y-79000000D02*
X136500000Y-78000000D01*
X137500000Y-79000000D02*
X136500000Y-79000000D01*
X141500000Y-76200000D02*
X142000000Y-75700000D01*
X142000000Y-75700000D02*
X144500000Y-75700000D01*
X145500000Y-78700000D02*
X145500000Y-79500000D01*
X146000000Y-73500000D02*
X150500000Y-73500000D01*
X146000000Y-74200000D02*
X146000000Y-73500000D01*
X149500000Y-65000000D02*
X150500000Y-65000000D01*
X150500000Y-65000000D02*
X150500000Y-66000000D01*
X150500000Y-73500000D02*
X150500000Y-74000000D01*
X150500000Y-77600000D02*
X150500000Y-78200000D01*
X150500000Y-78000000D02*
X150500000Y-79000000D01*
X150500000Y-78200000D02*
X146000000Y-78200000D01*
X150500000Y-79000000D02*
X149500000Y-79000000D01*
X146000000Y-78200000D02*
G75*
G03*
X145500000Y-78700000I0J-500000D01*
G01*
X144500000Y-75700000D02*
G75*
G03*
X146000000Y-74200000I0J1500000D01*
G01*
X152932000Y-63000000D02*
X151408000Y-63000000D01*
X151408000Y-63000000D02*
X151408000Y-63508000D01*
X151408000Y-63000000D02*
X151408000Y-68080000D01*
X151408000Y-67318000D02*
X152932000Y-67318000D01*
X151408000Y-67445000D02*
X152932000Y-67445000D01*
X152932000Y-67572000D02*
X151408000Y-67572000D01*
X151408000Y-67699000D02*
X152932000Y-67699000D01*
X152932000Y-67826000D02*
X151408000Y-67826000D01*
X151408000Y-67953000D02*
X152932000Y-67953000D01*
X152932000Y-68080000D02*
X152932000Y-63000000D01*
X151408000Y-68080000D02*
X152932000Y-68080000D01*
X171252178Y-126107822D02*
X171752178Y-126973848D01*
X170386152Y-126607822D02*
X171252178Y-126107822D01*
X159127822Y-133107822D02*
X159993848Y-132607822D01*
X159627822Y-133973848D02*
X159127822Y-133107822D01*
X164052693Y-136037949D02*
X164735706Y-136220962D01*
X164735706Y-136220962D02*
X165985706Y-138386025D01*
X163887630Y-140752051D02*
X163194809Y-141152051D01*
X168640962Y-138585064D02*
X170890962Y-142482178D01*
X168034744Y-138935064D02*
X168640962Y-138585064D01*
X177752178Y-137366152D02*
X178252178Y-138232178D01*
X178252178Y-138232178D02*
X177386152Y-138732178D01*
X170890962Y-142482178D02*
X170457949Y-142732178D01*
X167340258Y-144532178D02*
X166820642Y-144832178D01*
X166993848Y-144732178D02*
X166127822Y-145232178D01*
X166820642Y-144832178D02*
X164570642Y-140935064D01*
X166127822Y-145232178D02*
X165627822Y-144366152D01*
X164570643Y-140935064D02*
G75*
G03*
X163887630Y-140752051I-433013J-250000D01*
G01*
X165985706Y-138386025D02*
G75*
G03*
X168034744Y-138935063I1299038J750000D01*
G01*
X92430000Y-63878000D02*
X92430000Y-65402000D01*
X92430000Y-65402000D02*
X92938000Y-65402000D01*
X92430000Y-65402000D02*
X97510000Y-65402000D01*
X96748000Y-65402000D02*
X96748000Y-63878000D01*
X96875000Y-65402000D02*
X96875000Y-63878000D01*
X97002000Y-63878000D02*
X97002000Y-65402000D01*
X97129000Y-65402000D02*
X97129000Y-63878000D01*
X97256000Y-63878000D02*
X97256000Y-65402000D01*
X97383000Y-65402000D02*
X97383000Y-63878000D01*
X97510000Y-63878000D02*
X92430000Y-63878000D01*
X97510000Y-65402000D02*
X97510000Y-63878000D01*
X100500000Y-41000000D02*
X101500000Y-41000000D01*
X100500000Y-42000000D02*
X100500000Y-41000000D01*
X100500000Y-55000000D02*
X100500000Y-54000000D01*
X101500000Y-55000000D02*
X100500000Y-55000000D01*
X105500000Y-52200000D02*
X106000000Y-51700000D01*
X106000000Y-51700000D02*
X108500000Y-51700000D01*
X109500000Y-54700000D02*
X109500000Y-55500000D01*
X110000000Y-49500000D02*
X114500000Y-49500000D01*
X110000000Y-50200000D02*
X110000000Y-49500000D01*
X113500000Y-41000000D02*
X114500000Y-41000000D01*
X114500000Y-41000000D02*
X114500000Y-42000000D01*
X114500000Y-49500000D02*
X114500000Y-50000000D01*
X114500000Y-53600000D02*
X114500000Y-54200000D01*
X114500000Y-54000000D02*
X114500000Y-55000000D01*
X114500000Y-54200000D02*
X110000000Y-54200000D01*
X114500000Y-55000000D02*
X113500000Y-55000000D01*
X110000000Y-54200000D02*
G75*
G03*
X109500000Y-54700000I0J-500000D01*
G01*
X108500000Y-51700000D02*
G75*
G03*
X110000000Y-50200000I0J1500000D01*
G01*
X160858200Y-45310000D02*
X163398200Y-45310000D01*
X160858200Y-75790000D02*
X160858200Y-45310000D01*
X163398200Y-45310000D02*
X163398200Y-75790000D01*
X163398200Y-75790000D02*
X160858200Y-75790000D01*
X176078200Y-45310000D02*
X178618200Y-45310000D01*
X176078200Y-75790000D02*
X176078200Y-45310000D01*
X178618200Y-45310000D02*
X178618200Y-75790000D01*
X178618200Y-75790000D02*
X176078200Y-75790000D01*
X100500000Y-58000000D02*
X101500000Y-58000000D01*
X100500000Y-59000000D02*
X100500000Y-58000000D01*
X100500000Y-72000000D02*
X100500000Y-71000000D01*
X101500000Y-72000000D02*
X100500000Y-72000000D01*
X105500000Y-69200000D02*
X106000000Y-68700000D01*
X106000000Y-68700000D02*
X108500000Y-68700000D01*
X109500000Y-71700000D02*
X109500000Y-72500000D01*
X110000000Y-66500000D02*
X114500000Y-66500000D01*
X110000000Y-67200000D02*
X110000000Y-66500000D01*
X113500000Y-58000000D02*
X114500000Y-58000000D01*
X114500000Y-58000000D02*
X114500000Y-59000000D01*
X114500000Y-66500000D02*
X114500000Y-67000000D01*
X114500000Y-70600000D02*
X114500000Y-71200000D01*
X114500000Y-71000000D02*
X114500000Y-72000000D01*
X114500000Y-71200000D02*
X110000000Y-71200000D01*
X114500000Y-72000000D02*
X113500000Y-72000000D01*
X110000000Y-71200000D02*
G75*
G03*
X109500000Y-71700000I0J-500000D01*
G01*
X108500000Y-68700000D02*
G75*
G03*
X110000000Y-67200000I0J1500000D01*
G01*
X104440000Y-73838000D02*
X104440000Y-75362000D01*
X104440000Y-75362000D02*
X104948000Y-75362000D01*
X104440000Y-75362000D02*
X109520000Y-75362000D01*
X108758000Y-75362000D02*
X108758000Y-73838000D01*
X108885000Y-75362000D02*
X108885000Y-73838000D01*
X109012000Y-73838000D02*
X109012000Y-75362000D01*
X109139000Y-75362000D02*
X109139000Y-73838000D01*
X109266000Y-73838000D02*
X109266000Y-75362000D01*
X109393000Y-75362000D02*
X109393000Y-73838000D01*
X109520000Y-73838000D02*
X104440000Y-73838000D01*
X109520000Y-75362000D02*
X109520000Y-73838000D01*
X151543594Y-109435949D02*
X152711045Y-110415557D01*
X152711045Y-110415557D02*
X153037581Y-110026406D01*
X152711045Y-110415557D02*
X155976406Y-106524051D01*
X155486602Y-107107777D02*
X154319151Y-106128169D01*
X155568236Y-107010489D02*
X154400785Y-106030881D01*
X154482419Y-105933594D02*
X155649870Y-106913202D01*
X155731504Y-106815914D02*
X154564053Y-105836306D01*
X154645687Y-105739018D02*
X155813138Y-106718627D01*
X155894772Y-106621339D02*
X154727321Y-105641731D01*
X154808955Y-105544443D02*
X151543594Y-109435949D01*
X155976406Y-106524051D02*
X154808955Y-105544443D01*
X64500000Y-56000000D02*
X65500000Y-56000000D01*
X64500000Y-57000000D02*
X64500000Y-56000000D01*
X64500000Y-70000000D02*
X64500000Y-69000000D01*
X65500000Y-70000000D02*
X64500000Y-70000000D01*
X69500000Y-67200000D02*
X70000000Y-66700000D01*
X70000000Y-66700000D02*
X72500000Y-66700000D01*
X73500000Y-69700000D02*
X73500000Y-70500000D01*
X74000000Y-64500000D02*
X78500000Y-64500000D01*
X74000000Y-65200000D02*
X74000000Y-64500000D01*
X77500000Y-56000000D02*
X78500000Y-56000000D01*
X78500000Y-56000000D02*
X78500000Y-57000000D01*
X78500000Y-64500000D02*
X78500000Y-65000000D01*
X78500000Y-68600000D02*
X78500000Y-69200000D01*
X78500000Y-69000000D02*
X78500000Y-70000000D01*
X78500000Y-69200000D02*
X74000000Y-69200000D01*
X78500000Y-70000000D02*
X77500000Y-70000000D01*
X74000000Y-69200000D02*
G75*
G03*
X73500000Y-69700000I0J-500000D01*
G01*
X72500000Y-66700000D02*
G75*
G03*
X74000000Y-65200000I0J1500000D01*
G01*
X136500000Y-48000000D02*
X137500000Y-48000000D01*
X136500000Y-49000000D02*
X136500000Y-48000000D01*
X136500000Y-62000000D02*
X136500000Y-61000000D01*
X137500000Y-62000000D02*
X136500000Y-62000000D01*
X141500000Y-59200000D02*
X142000000Y-58700000D01*
X142000000Y-58700000D02*
X144500000Y-58700000D01*
X145500000Y-61700000D02*
X145500000Y-62500000D01*
X146000000Y-56500000D02*
X150500000Y-56500000D01*
X146000000Y-57200000D02*
X146000000Y-56500000D01*
X149500000Y-48000000D02*
X150500000Y-48000000D01*
X150500000Y-48000000D02*
X150500000Y-49000000D01*
X150500000Y-56500000D02*
X150500000Y-57000000D01*
X150500000Y-60600000D02*
X150500000Y-61200000D01*
X150500000Y-61000000D02*
X150500000Y-62000000D01*
X150500000Y-61200000D02*
X146000000Y-61200000D01*
X150500000Y-62000000D02*
X149500000Y-62000000D01*
X146000000Y-61200000D02*
G75*
G03*
X145500000Y-61700000I0J-500000D01*
G01*
X144500000Y-58700000D02*
G75*
G03*
X146000000Y-57200000I0J1500000D01*
G01*
X118500000Y-45500000D02*
X119500000Y-45500000D01*
X118500000Y-46500000D02*
X118500000Y-45500000D01*
X118500000Y-59500000D02*
X118500000Y-58500000D01*
X119500000Y-59500000D02*
X118500000Y-59500000D01*
X123500000Y-56700000D02*
X124000000Y-56200000D01*
X124000000Y-56200000D02*
X126500000Y-56200000D01*
X127500000Y-59200000D02*
X127500000Y-60000000D01*
X128000000Y-54000000D02*
X132500000Y-54000000D01*
X128000000Y-54700000D02*
X128000000Y-54000000D01*
X131500000Y-45500000D02*
X132500000Y-45500000D01*
X132500000Y-45500000D02*
X132500000Y-46500000D01*
X132500000Y-54000000D02*
X132500000Y-54500000D01*
X132500000Y-58100000D02*
X132500000Y-58700000D01*
X132500000Y-58500000D02*
X132500000Y-59500000D01*
X132500000Y-58700000D02*
X128000000Y-58700000D01*
X132500000Y-59500000D02*
X131500000Y-59500000D01*
X128000000Y-58700000D02*
G75*
G03*
X127500000Y-59200000I0J-500000D01*
G01*
X126500000Y-56200000D02*
G75*
G03*
X128000000Y-54700000I0J1500000D01*
G01*
X179059295Y-118370089D02*
X179821295Y-119689911D01*
X179821295Y-119689911D02*
X180261236Y-119435911D01*
X179821295Y-119689911D02*
X184220705Y-117149911D01*
X183560793Y-117530911D02*
X182798793Y-116211089D01*
X183670778Y-117467411D02*
X182908778Y-116147589D01*
X183018764Y-116084089D02*
X183780764Y-117403911D01*
X183890749Y-117340411D02*
X183128749Y-116020589D01*
X183238734Y-115957089D02*
X184000734Y-117276911D01*
X184110719Y-117213411D02*
X183348719Y-115893589D01*
X183458705Y-115830089D02*
X179059295Y-118370089D01*
X184220705Y-117149911D02*
X183458705Y-115830089D01*
X118500000Y-62500000D02*
X119500000Y-62500000D01*
X118500000Y-63500000D02*
X118500000Y-62500000D01*
X118500000Y-76500000D02*
X118500000Y-75500000D01*
X119500000Y-76500000D02*
X118500000Y-76500000D01*
X123500000Y-73700000D02*
X124000000Y-73200000D01*
X124000000Y-73200000D02*
X126500000Y-73200000D01*
X127500000Y-76200000D02*
X127500000Y-77000000D01*
X128000000Y-71000000D02*
X132500000Y-71000000D01*
X128000000Y-71700000D02*
X128000000Y-71000000D01*
X131500000Y-62500000D02*
X132500000Y-62500000D01*
X132500000Y-62500000D02*
X132500000Y-63500000D01*
X132500000Y-71000000D02*
X132500000Y-71500000D01*
X132500000Y-75100000D02*
X132500000Y-75700000D01*
X132500000Y-75500000D02*
X132500000Y-76500000D01*
X132500000Y-75700000D02*
X128000000Y-75700000D01*
X132500000Y-76500000D02*
X131500000Y-76500000D01*
X128000000Y-75700000D02*
G75*
G03*
X127500000Y-76200000I0J-500000D01*
G01*
X126500000Y-73200000D02*
G75*
G03*
X128000000Y-71700000I0J1500000D01*
G01*
X177200000Y-80250000D02*
X165100000Y-80250000D01*
X177200000Y-80500000D02*
X179200000Y-80500000D01*
X179200000Y-86100000D02*
X179200000Y-80500000D01*
X177200000Y-86100000D02*
X179200000Y-86100000D01*
X177200000Y-86350000D02*
X177200000Y-80250000D01*
X177200000Y-86350000D02*
X165100000Y-86350000D01*
X165100000Y-86350000D02*
X165100000Y-80250000D01*
X104390000Y-40382000D02*
X104390000Y-38858000D01*
X104390000Y-38858000D02*
X103882000Y-38858000D01*
X104390000Y-38858000D02*
X99310000Y-38858000D01*
X100072000Y-38858000D02*
X100072000Y-40382000D01*
X99945000Y-38858000D02*
X99945000Y-40382000D01*
X99818000Y-40382000D02*
X99818000Y-38858000D01*
X99691000Y-38858000D02*
X99691000Y-40382000D01*
X99564000Y-40382000D02*
X99564000Y-38858000D01*
X99437000Y-38858000D02*
X99437000Y-40382000D01*
X99310000Y-40382000D02*
X104390000Y-40382000D01*
X99310000Y-38858000D02*
X99310000Y-40382000D01*
X128754682Y-80437822D02*
X129620708Y-80937822D01*
X128254682Y-81303848D02*
X128754682Y-80437822D01*
X121754682Y-92562178D02*
X122254682Y-91696152D01*
X122620708Y-93062178D02*
X121754682Y-92562178D01*
X127484809Y-92637307D02*
X128167822Y-92454294D01*
X128167822Y-92454294D02*
X130332885Y-93704294D01*
X129698911Y-96802370D02*
X129298911Y-97495191D01*
X132731924Y-92549038D02*
X136629038Y-94799038D01*
X132381924Y-93155256D02*
X132731924Y-92549038D01*
X140013012Y-86937822D02*
X140879038Y-87437822D01*
X140879038Y-87437822D02*
X140379038Y-88303848D01*
X136629038Y-94799038D02*
X136379038Y-95232051D01*
X134579038Y-98349742D02*
X134279038Y-98869358D01*
X134379038Y-98696152D02*
X133879038Y-99562178D01*
X134279038Y-98869358D02*
X130381924Y-96619358D01*
X133879038Y-99562178D02*
X133013012Y-99062178D01*
X130381924Y-96619357D02*
G75*
G03*
X129698911Y-96802370I-250000J-433013D01*
G01*
X130332885Y-93704294D02*
G75*
G03*
X132381923Y-93155256I750000J1299038D01*
G01*
X92380000Y-46668000D02*
X92380000Y-48192000D01*
X92380000Y-48192000D02*
X92888000Y-48192000D01*
X92380000Y-48192000D02*
X97460000Y-48192000D01*
X96698000Y-48192000D02*
X96698000Y-46668000D01*
X96825000Y-48192000D02*
X96825000Y-46668000D01*
X96952000Y-46668000D02*
X96952000Y-48192000D01*
X97079000Y-48192000D02*
X97079000Y-46668000D01*
X97206000Y-46668000D02*
X97206000Y-48192000D01*
X97333000Y-48192000D02*
X97333000Y-46668000D01*
X97460000Y-46668000D02*
X92380000Y-46668000D01*
X97460000Y-48192000D02*
X97460000Y-46668000D01*
X176194443Y-114138955D02*
X177174051Y-115306406D01*
X177174051Y-115306406D02*
X177563202Y-114979870D01*
X177174051Y-115306406D02*
X181065557Y-112041045D01*
X180481831Y-112530849D02*
X179502223Y-111363398D01*
X180579119Y-112449215D02*
X179599511Y-111281764D01*
X179696798Y-111200130D02*
X180676406Y-112367581D01*
X180773694Y-112285947D02*
X179794086Y-111118496D01*
X179891373Y-111036862D02*
X180870982Y-112204313D01*
X180968269Y-112122679D02*
X179988661Y-110955228D01*
X180085949Y-110873594D02*
X176194443Y-114138955D01*
X181065557Y-112041045D02*
X180085949Y-110873594D01*
X82500000Y-32000000D02*
X83500000Y-32000000D01*
X82500000Y-33000000D02*
X82500000Y-32000000D01*
X82500000Y-46000000D02*
X82500000Y-45000000D01*
X83500000Y-46000000D02*
X82500000Y-46000000D01*
X87500000Y-43200000D02*
X88000000Y-42700000D01*
X88000000Y-42700000D02*
X90500000Y-42700000D01*
X91500000Y-45700000D02*
X91500000Y-46500000D01*
X92000000Y-40500000D02*
X96500000Y-40500000D01*
X92000000Y-41200000D02*
X92000000Y-40500000D01*
X95500000Y-32000000D02*
X96500000Y-32000000D01*
X96500000Y-32000000D02*
X96500000Y-33000000D01*
X96500000Y-40500000D02*
X96500000Y-41000000D01*
X96500000Y-44600000D02*
X96500000Y-45200000D01*
X96500000Y-45000000D02*
X96500000Y-46000000D01*
X96500000Y-45200000D02*
X92000000Y-45200000D01*
X96500000Y-46000000D02*
X95500000Y-46000000D01*
X92000000Y-45200000D02*
G75*
G03*
X91500000Y-45700000I0J-500000D01*
G01*
X90500000Y-42700000D02*
G75*
G03*
X92000000Y-41200000I0J1500000D01*
G01*
X64500000Y-39000000D02*
X65500000Y-39000000D01*
X64500000Y-40000000D02*
X64500000Y-39000000D01*
X64500000Y-53000000D02*
X64500000Y-52000000D01*
X65500000Y-53000000D02*
X64500000Y-53000000D01*
X69500000Y-50200000D02*
X70000000Y-49700000D01*
X70000000Y-49700000D02*
X72500000Y-49700000D01*
X73500000Y-52700000D02*
X73500000Y-53500000D01*
X74000000Y-47500000D02*
X78500000Y-47500000D01*
X74000000Y-48200000D02*
X74000000Y-47500000D01*
X77500000Y-39000000D02*
X78500000Y-39000000D01*
X78500000Y-39000000D02*
X78500000Y-40000000D01*
X78500000Y-47500000D02*
X78500000Y-48000000D01*
X78500000Y-51600000D02*
X78500000Y-52200000D01*
X78500000Y-52000000D02*
X78500000Y-53000000D01*
X78500000Y-52200000D02*
X74000000Y-52200000D01*
X78500000Y-53000000D02*
X77500000Y-53000000D01*
X74000000Y-52200000D02*
G75*
G03*
X73500000Y-52700000I0J-500000D01*
G01*
X72500000Y-49700000D02*
G75*
G03*
X74000000Y-48200000I0J1500000D01*
G01*
X146095000Y-82517000D02*
X146095000Y-80993000D01*
X146095000Y-80993000D02*
X145587000Y-80993000D01*
X146095000Y-80993000D02*
X141015000Y-80993000D01*
X141777000Y-80993000D02*
X141777000Y-82517000D01*
X141650000Y-80993000D02*
X141650000Y-82517000D01*
X141523000Y-82517000D02*
X141523000Y-80993000D01*
X141396000Y-80993000D02*
X141396000Y-82517000D01*
X141269000Y-82517000D02*
X141269000Y-80993000D01*
X141142000Y-80993000D02*
X141142000Y-82517000D01*
X141015000Y-82517000D02*
X146095000Y-82517000D01*
X141015000Y-80993000D02*
X141015000Y-82517000D01*
X118500000Y-28500000D02*
X119500000Y-28500000D01*
X118500000Y-29500000D02*
X118500000Y-28500000D01*
X118500000Y-42500000D02*
X118500000Y-41500000D01*
X119500000Y-42500000D02*
X118500000Y-42500000D01*
X123500000Y-39700000D02*
X124000000Y-39200000D01*
X124000000Y-39200000D02*
X126500000Y-39200000D01*
X127500000Y-42200000D02*
X127500000Y-43000000D01*
X128000000Y-37000000D02*
X132500000Y-37000000D01*
X128000000Y-37700000D02*
X128000000Y-37000000D01*
X131500000Y-28500000D02*
X132500000Y-28500000D01*
X132500000Y-28500000D02*
X132500000Y-29500000D01*
X132500000Y-37000000D02*
X132500000Y-37500000D01*
X132500000Y-41100000D02*
X132500000Y-41700000D01*
X132500000Y-41500000D02*
X132500000Y-42500000D01*
X132500000Y-41700000D02*
X128000000Y-41700000D01*
X132500000Y-42500000D02*
X131500000Y-42500000D01*
X128000000Y-41700000D02*
G75*
G03*
X127500000Y-42200000I0J-500000D01*
G01*
X126500000Y-39200000D02*
G75*
G03*
X128000000Y-37700000I0J1500000D01*
G01*
X125370000Y-79982000D02*
X125370000Y-78458000D01*
X125370000Y-78458000D02*
X124862000Y-78458000D01*
X125370000Y-78458000D02*
X120290000Y-78458000D01*
X121052000Y-78458000D02*
X121052000Y-79982000D01*
X120925000Y-78458000D02*
X120925000Y-79982000D01*
X120798000Y-79982000D02*
X120798000Y-78458000D01*
X120671000Y-78458000D02*
X120671000Y-79982000D01*
X120544000Y-79982000D02*
X120544000Y-78458000D01*
X120417000Y-78458000D02*
X120417000Y-79982000D01*
X120290000Y-79982000D02*
X125370000Y-79982000D01*
X120290000Y-78458000D02*
X120290000Y-79982000D01*
X135272000Y-63330000D02*
X133748000Y-63330000D01*
X133748000Y-63330000D02*
X133748000Y-63838000D01*
X133748000Y-63330000D02*
X133748000Y-68410000D01*
X133748000Y-67648000D02*
X135272000Y-67648000D01*
X133748000Y-67775000D02*
X135272000Y-67775000D01*
X135272000Y-67902000D02*
X133748000Y-67902000D01*
X133748000Y-68029000D02*
X135272000Y-68029000D01*
X135272000Y-68156000D02*
X133748000Y-68156000D01*
X133748000Y-68283000D02*
X135272000Y-68283000D01*
X135272000Y-68410000D02*
X135272000Y-63330000D01*
X133748000Y-68410000D02*
X135272000Y-68410000D01*
X104470000Y-57292000D02*
X104470000Y-55768000D01*
X104470000Y-55768000D02*
X103962000Y-55768000D01*
X104470000Y-55768000D02*
X99390000Y-55768000D01*
X100152000Y-55768000D02*
X100152000Y-57292000D01*
X100025000Y-55768000D02*
X100025000Y-57292000D01*
X99898000Y-57292000D02*
X99898000Y-55768000D01*
X99771000Y-55768000D02*
X99771000Y-57292000D01*
X99644000Y-57292000D02*
X99644000Y-55768000D01*
X99517000Y-55768000D02*
X99517000Y-57292000D01*
X99390000Y-57292000D02*
X104470000Y-57292000D01*
X99390000Y-55768000D02*
X99390000Y-57292000D01*
X82500000Y-66000000D02*
X83500000Y-66000000D01*
X82500000Y-67000000D02*
X82500000Y-66000000D01*
X82500000Y-80000000D02*
X82500000Y-79000000D01*
X83500000Y-80000000D02*
X82500000Y-80000000D01*
X87500000Y-77200000D02*
X88000000Y-76700000D01*
X88000000Y-76700000D02*
X90500000Y-76700000D01*
X91500000Y-79700000D02*
X91500000Y-80500000D01*
X92000000Y-74500000D02*
X96500000Y-74500000D01*
X92000000Y-75200000D02*
X92000000Y-74500000D01*
X95500000Y-66000000D02*
X96500000Y-66000000D01*
X96500000Y-66000000D02*
X96500000Y-67000000D01*
X96500000Y-74500000D02*
X96500000Y-75000000D01*
X96500000Y-78600000D02*
X96500000Y-79200000D01*
X96500000Y-79000000D02*
X96500000Y-80000000D01*
X96500000Y-79200000D02*
X92000000Y-79200000D01*
X96500000Y-80000000D02*
X95500000Y-80000000D01*
X92000000Y-79200000D02*
G75*
G03*
X91500000Y-79700000I0J-500000D01*
G01*
X90500000Y-76700000D02*
G75*
G03*
X92000000Y-75200000I0J1500000D01*
G01*
X74610000Y-53748000D02*
X74610000Y-55272000D01*
X74610000Y-55272000D02*
X75118000Y-55272000D01*
X74610000Y-55272000D02*
X79690000Y-55272000D01*
X78928000Y-55272000D02*
X78928000Y-53748000D01*
X79055000Y-55272000D02*
X79055000Y-53748000D01*
X79182000Y-53748000D02*
X79182000Y-55272000D01*
X79309000Y-55272000D02*
X79309000Y-53748000D01*
X79436000Y-53748000D02*
X79436000Y-55272000D01*
X79563000Y-55272000D02*
X79563000Y-53748000D01*
X79690000Y-53748000D02*
X74610000Y-53748000D01*
X79690000Y-55272000D02*
X79690000Y-53748000D01*
X164064443Y-125188955D02*
X165044051Y-126356406D01*
X165044051Y-126356406D02*
X165433202Y-126029870D01*
X165044051Y-126356406D02*
X168935557Y-123091045D01*
X168351831Y-123580849D02*
X167372223Y-122413398D01*
X168449119Y-123499215D02*
X167469511Y-122331764D01*
X167566798Y-122250130D02*
X168546406Y-123417581D01*
X168643694Y-123335947D02*
X167664086Y-122168496D01*
X167761373Y-122086862D02*
X168740982Y-123254313D01*
X168838269Y-123172679D02*
X167858661Y-122005228D01*
X167955949Y-121923594D02*
X164064443Y-125188955D01*
X168935557Y-123091045D02*
X167955949Y-121923594D01*
X142707202Y-95898176D02*
X143473247Y-96540963D01*
X142064415Y-96664220D02*
X142707202Y-95898176D01*
X133708176Y-106622798D02*
X134350963Y-105856753D01*
X134474220Y-107265585D02*
X133708176Y-106622798D01*
X139338203Y-107691811D02*
X140042619Y-107630183D01*
X140042619Y-107630183D02*
X141957730Y-109237152D01*
X140795412Y-112178073D02*
X140281182Y-112790909D01*
X144520930Y-108516036D02*
X147968130Y-111408580D01*
X144070978Y-109052267D02*
X144520930Y-108516036D01*
X152665780Y-104254415D02*
X153431824Y-104897202D01*
X153431824Y-104897202D02*
X152789037Y-105663247D01*
X147968130Y-111408580D02*
X147646736Y-111791602D01*
X145332700Y-114549362D02*
X144947028Y-115008989D01*
X145075585Y-114855780D02*
X144432798Y-115621824D01*
X144947028Y-115008989D02*
X141499828Y-112116445D01*
X144432798Y-115621824D02*
X143666753Y-114979037D01*
X141499827Y-112116446D02*
G75*
G03*
X140795413Y-112178074I-321393J-383021D01*
G01*
X141957731Y-109237151D02*
G75*
G03*
X144070977Y-109052266I964181J1149066D01*
G01*
X158282798Y-109728176D02*
X158925585Y-110494220D01*
X157516753Y-110370963D02*
X158282798Y-109728176D01*
X147558176Y-118727202D02*
X148324220Y-118084415D01*
X148200963Y-119493247D02*
X147558176Y-118727202D01*
X152917038Y-120757619D02*
X153621454Y-120819247D01*
X153621454Y-120819247D02*
X155228423Y-122734359D01*
X153573077Y-125428766D02*
X152960242Y-125942996D01*
X157877902Y-122469293D02*
X160770447Y-125916493D01*
X157341671Y-122919244D02*
X157877902Y-122469293D01*
X166639037Y-119686753D02*
X167281824Y-120452798D01*
X167281824Y-120452798D02*
X166515780Y-121095585D01*
X160770447Y-125916493D02*
X160387424Y-126237886D01*
X157629664Y-128551922D02*
X157170038Y-128937594D01*
X157323247Y-128809037D02*
X156557202Y-129451824D01*
X157170038Y-128937594D02*
X154277493Y-125490394D01*
X156557202Y-129451824D02*
X155914415Y-128685780D01*
X154277492Y-125490395D02*
G75*
G03*
X153573078Y-125428767I-383021J-321393D01*
G01*
X155228424Y-122734358D02*
G75*
G03*
X157341670Y-122919243I1149066J964181D01*
G01*
D13*
X155575960Y-80556661D03*
D14*
X161551106Y-85570405D03*
D15*
X82230000Y-88740000D03*
D14*
X74430000Y-88740000D03*
D15*
X134580000Y-52930000D03*
D14*
X134580000Y-45130000D03*
D15*
X152470000Y-52090000D03*
D14*
X152470000Y-44290000D03*
D15*
X81040000Y-71570000D03*
D14*
X73240000Y-71570000D03*
D16*
X168013339Y-93995960D03*
D14*
X162999595Y-99971106D03*
D15*
X92490000Y-82120000D03*
D14*
X84690000Y-82120000D03*
D17*
X131717499Y-101180000D03*
D14*
X124962501Y-97280000D03*
D15*
X152170000Y-69440000D03*
D14*
X152170000Y-61640000D03*
D15*
X98870000Y-64640000D03*
D14*
X91070000Y-64640000D03*
D15*
X110880000Y-74600000D03*
D14*
X103080000Y-74600000D03*
D16*
X156266872Y-104992427D03*
D14*
X151253128Y-110967573D03*
D18*
X185017499Y-115810000D03*
D14*
X178262501Y-119710000D03*
D15*
X97950000Y-39620000D03*
D14*
X105750000Y-39620000D03*
D15*
X98820000Y-47430000D03*
D14*
X91020000Y-47430000D03*
D19*
X181617573Y-110583128D03*
D14*
X175642427Y-115596872D03*
D15*
X139655000Y-81755000D03*
D14*
X147455000Y-81755000D03*
D15*
X118930000Y-79220000D03*
D14*
X126730000Y-79220000D03*
D15*
X134510000Y-69770000D03*
D14*
X134510000Y-61970000D03*
D15*
X98030000Y-56530000D03*
D14*
X105830000Y-56530000D03*
D15*
X81050000Y-54510000D03*
D14*
X73250000Y-54510000D03*
D19*
X169487573Y-121633128D03*
D14*
X163512427Y-126646872D03*
%LPC*%
D20*
X66000000Y-80000000D03*
D21*
X66280000Y-75800000D03*
D22*
X71500000Y-80000000D03*
D23*
X71500000Y-85950000D03*
D21*
X76720000Y-75800000D03*
D20*
X77000000Y-80000000D03*
D24*
X66500000Y-83750000D03*
D25*
X68225000Y-85950000D03*
D24*
X76500000Y-83750000D03*
D25*
X79775000Y-83750000D03*
D20*
X180750000Y-122376860D03*
D21*
X184527307Y-120519347D03*
D22*
X183500000Y-127140000D03*
D23*
X178347149Y-130115000D03*
D21*
X189747307Y-129560653D03*
D20*
X186250000Y-131903140D03*
D24*
X177752405Y-124684873D03*
D26*
X176709649Y-127278767D03*
D24*
X182752405Y-133345127D03*
D26*
X184389905Y-136181360D03*
D27*
X172370000Y-88550000D03*
X172370000Y-95550000D03*
D28*
X157491071Y-82163630D03*
D13*
X155575960Y-80556661D03*
D14*
X161551106Y-85570405D03*
D28*
X159635995Y-83963436D03*
D20*
X138000000Y-38000000D03*
D21*
X138280000Y-33800000D03*
D22*
X143500000Y-38000000D03*
D23*
X143500000Y-43950000D03*
D21*
X148720000Y-33800000D03*
D20*
X149000000Y-38000000D03*
D24*
X138500000Y-41750000D03*
D25*
X140225000Y-43950000D03*
D24*
X148500000Y-41750000D03*
D25*
X151775000Y-41750000D03*
D29*
X79730000Y-88740000D03*
D15*
X82230000Y-88740000D03*
D14*
X74430000Y-88740000D03*
D29*
X76930000Y-88740000D03*
D30*
X179680000Y-137820000D03*
D20*
X102000000Y-31000000D03*
D21*
X102280000Y-26800000D03*
D22*
X107500000Y-31000000D03*
D23*
X107500000Y-36950000D03*
D21*
X112720000Y-26800000D03*
D20*
X113000000Y-31000000D03*
D24*
X102500000Y-34750000D03*
D25*
X104225000Y-36950000D03*
D24*
X112500000Y-34750000D03*
D25*
X115775000Y-34750000D03*
D31*
X134580000Y-50430000D03*
D15*
X134580000Y-52930000D03*
D14*
X134580000Y-45130000D03*
D31*
X134580000Y-47630000D03*
X152470000Y-49590000D03*
D15*
X152470000Y-52090000D03*
D14*
X152470000Y-44290000D03*
D31*
X152470000Y-46790000D03*
D20*
X150286756Y-89184668D03*
D21*
X153200956Y-86147262D03*
D22*
X154500000Y-92720000D03*
D23*
X150675414Y-97277964D03*
D21*
X161198460Y-92857965D03*
D20*
X158713244Y-96255332D03*
D24*
X148259324Y-92378729D03*
D32*
X148166618Y-95172835D03*
D24*
X155919769Y-98806605D03*
D32*
X158428564Y-100911734D03*
D29*
X78540000Y-71570000D03*
D15*
X81040000Y-71570000D03*
D14*
X73240000Y-71570000D03*
D29*
X75740000Y-71570000D03*
D33*
X166406370Y-95911071D03*
D16*
X168013339Y-93995960D03*
D14*
X162999595Y-99971106D03*
D33*
X164606564Y-98055995D03*
D20*
X166994668Y-104396756D03*
D21*
X170392035Y-101911540D03*
D22*
X170530000Y-108610000D03*
D23*
X165972036Y-112434586D03*
D21*
X177102738Y-109909044D03*
D20*
X174065332Y-112823244D03*
D24*
X164443395Y-107190231D03*
D34*
X163866906Y-109925791D03*
D24*
X170871271Y-114850676D03*
D34*
X172976401Y-117359471D03*
D20*
X84000000Y-56000000D03*
D21*
X84280000Y-51800000D03*
D22*
X89500000Y-56000000D03*
D23*
X89500000Y-61950000D03*
D21*
X94720000Y-51800000D03*
D20*
X95000000Y-56000000D03*
D24*
X84500000Y-59750000D03*
D25*
X86225000Y-61950000D03*
D24*
X94500000Y-59750000D03*
D25*
X97775000Y-59750000D03*
D29*
X89990000Y-82120000D03*
D15*
X92490000Y-82120000D03*
D14*
X84690000Y-82120000D03*
D29*
X87190000Y-82120000D03*
D35*
X129552436Y-99930000D03*
D17*
X131717499Y-101180000D03*
D14*
X124962501Y-97280000D03*
D35*
X127127564Y-98530000D03*
D20*
X138000000Y-72000000D03*
D21*
X138280000Y-67800000D03*
D22*
X143500000Y-72000000D03*
D23*
X143500000Y-77950000D03*
D21*
X148720000Y-67800000D03*
D20*
X149000000Y-72000000D03*
D24*
X138500000Y-75750000D03*
D25*
X140225000Y-77950000D03*
D24*
X148500000Y-75750000D03*
D25*
X151775000Y-75750000D03*
D31*
X152170000Y-66940000D03*
D15*
X152170000Y-69440000D03*
D14*
X152170000Y-61640000D03*
D31*
X152170000Y-64140000D03*
D30*
X153240000Y-32980000D03*
X63870000Y-71660000D03*
D20*
X165940000Y-130906860D03*
D21*
X169717307Y-129049347D03*
D22*
X168690000Y-135670000D03*
D23*
X163537149Y-138645000D03*
D21*
X174937307Y-138090653D03*
D20*
X171440000Y-140433140D03*
D24*
X162942405Y-133214873D03*
D26*
X161899649Y-135808767D03*
D24*
X167942405Y-141875127D03*
D26*
X169579905Y-144711360D03*
D29*
X96370000Y-64640000D03*
D15*
X98870000Y-64640000D03*
D14*
X91070000Y-64640000D03*
D29*
X93570000Y-64640000D03*
D20*
X102000000Y-48000000D03*
D21*
X102280000Y-43800000D03*
D22*
X107500000Y-48000000D03*
D23*
X107500000Y-53950000D03*
D21*
X112720000Y-43800000D03*
D20*
X113000000Y-48000000D03*
D24*
X102500000Y-51750000D03*
D25*
X104225000Y-53950000D03*
D24*
X112500000Y-51750000D03*
D25*
X115775000Y-51750000D03*
D36*
X160801800Y-47850000D03*
X160801800Y-50390000D03*
X160801800Y-52930000D03*
X160801800Y-55470000D03*
X160801800Y-58010000D03*
X160801800Y-60550000D03*
X160801800Y-63090000D03*
X160801800Y-65630000D03*
X160801800Y-68170000D03*
X160801800Y-70710000D03*
X160801800Y-73250000D03*
X160801800Y-75790000D03*
X176041800Y-75790000D03*
X176041800Y-73250000D03*
X176041800Y-70710000D03*
X176041800Y-68170000D03*
X176041800Y-65630000D03*
X176041800Y-63090000D03*
X176041800Y-60550000D03*
X176041800Y-58010000D03*
X176041800Y-55470000D03*
X176041800Y-52930000D03*
X176041800Y-50390000D03*
X176041800Y-47850000D03*
D20*
X102000000Y-65000000D03*
D21*
X102280000Y-60800000D03*
D22*
X107500000Y-65000000D03*
D23*
X107500000Y-70950000D03*
D21*
X112720000Y-60800000D03*
D20*
X113000000Y-65000000D03*
D24*
X102500000Y-68750000D03*
D25*
X104225000Y-70950000D03*
D24*
X112500000Y-68750000D03*
D25*
X115775000Y-68750000D03*
D29*
X108380000Y-74600000D03*
D15*
X110880000Y-74600000D03*
D14*
X103080000Y-74600000D03*
D29*
X105580000Y-74600000D03*
D33*
X154659903Y-106907538D03*
D16*
X156266872Y-104992427D03*
D14*
X151253128Y-110967573D03*
D33*
X152860097Y-109052462D03*
D20*
X66000000Y-63000000D03*
D21*
X66280000Y-58800000D03*
D22*
X71500000Y-63000000D03*
D23*
X71500000Y-68950000D03*
D21*
X76720000Y-58800000D03*
D20*
X77000000Y-63000000D03*
D24*
X66500000Y-66750000D03*
D25*
X68225000Y-68950000D03*
D24*
X76500000Y-66750000D03*
D25*
X79775000Y-66750000D03*
D20*
X138000000Y-55000000D03*
D21*
X138280000Y-50800000D03*
D22*
X143500000Y-55000000D03*
D23*
X143500000Y-60950000D03*
D21*
X148720000Y-50800000D03*
D20*
X149000000Y-55000000D03*
D24*
X138500000Y-58750000D03*
D25*
X140225000Y-60950000D03*
D24*
X148500000Y-58750000D03*
D25*
X151775000Y-58750000D03*
D20*
X120000000Y-52500000D03*
D21*
X120280000Y-48300000D03*
D22*
X125500000Y-52500000D03*
D23*
X125500000Y-58450000D03*
D21*
X130720000Y-48300000D03*
D20*
X131000000Y-52500000D03*
D24*
X120500000Y-56250000D03*
D25*
X122225000Y-58450000D03*
D24*
X130500000Y-56250000D03*
D25*
X133775000Y-56250000D03*
D37*
X182852436Y-117060000D03*
D18*
X185017499Y-115810000D03*
D14*
X178262501Y-119710000D03*
D37*
X180427564Y-118460000D03*
D20*
X120000000Y-69500000D03*
D21*
X120280000Y-65300000D03*
D22*
X125500000Y-69500000D03*
D23*
X125500000Y-75450000D03*
D21*
X130720000Y-65300000D03*
D20*
X131000000Y-69500000D03*
D24*
X120500000Y-73250000D03*
D25*
X122225000Y-75450000D03*
D24*
X130500000Y-73250000D03*
D25*
X133775000Y-73250000D03*
D30*
X121610000Y-83360000D03*
D38*
X175600000Y-83300000D03*
X168600000Y-83300000D03*
D39*
X165900000Y-81000000D03*
X167000000Y-85600000D03*
X171000000Y-85600000D03*
X174000000Y-85600000D03*
D29*
X100450000Y-39620000D03*
D15*
X97950000Y-39620000D03*
D14*
X105750000Y-39620000D03*
D29*
X103250000Y-39620000D03*
D20*
X126553720Y-87250000D03*
D21*
X128896207Y-83752693D03*
D22*
X131316860Y-90000000D03*
D23*
X128341860Y-95152851D03*
D21*
X137937513Y-88972693D03*
D20*
X136080000Y-92750000D03*
D24*
X125111733Y-90747595D03*
D40*
X125505627Y-93515351D03*
D24*
X133771987Y-95747595D03*
D40*
X136608220Y-97385095D03*
D29*
X96320000Y-47430000D03*
D15*
X98820000Y-47430000D03*
D14*
X91020000Y-47430000D03*
D29*
X93520000Y-47430000D03*
D41*
X179702462Y-112190097D03*
D19*
X181617573Y-110583128D03*
D14*
X175642427Y-115596872D03*
D41*
X177557538Y-113989903D03*
D20*
X84000000Y-39000000D03*
D21*
X84280000Y-34800000D03*
D22*
X89500000Y-39000000D03*
D23*
X89500000Y-44950000D03*
D21*
X94720000Y-34800000D03*
D20*
X95000000Y-39000000D03*
D24*
X84500000Y-42750000D03*
D25*
X86225000Y-44950000D03*
D24*
X94500000Y-42750000D03*
D25*
X97775000Y-42750000D03*
D20*
X66000000Y-46000000D03*
D21*
X66280000Y-41800000D03*
D22*
X71500000Y-46000000D03*
D23*
X71500000Y-51950000D03*
D21*
X76720000Y-41800000D03*
D20*
X77000000Y-46000000D03*
D24*
X66500000Y-49750000D03*
D25*
X68225000Y-51950000D03*
D24*
X76500000Y-49750000D03*
D25*
X79775000Y-49750000D03*
D29*
X142155000Y-81755000D03*
D15*
X139655000Y-81755000D03*
D14*
X147455000Y-81755000D03*
D29*
X144955000Y-81755000D03*
D20*
X120000000Y-35500000D03*
D21*
X120280000Y-31300000D03*
D22*
X125500000Y-35500000D03*
D23*
X125500000Y-41450000D03*
D21*
X130720000Y-31300000D03*
D20*
X131000000Y-35500000D03*
D24*
X120500000Y-39250000D03*
D25*
X122225000Y-41450000D03*
D24*
X130500000Y-39250000D03*
D25*
X133775000Y-39250000D03*
D29*
X121430000Y-79220000D03*
D15*
X118930000Y-79220000D03*
D14*
X126730000Y-79220000D03*
D29*
X124230000Y-79220000D03*
D31*
X134510000Y-67270000D03*
D15*
X134510000Y-69770000D03*
D14*
X134510000Y-61970000D03*
D31*
X134510000Y-64470000D03*
D29*
X100530000Y-56530000D03*
D15*
X98030000Y-56530000D03*
D14*
X105830000Y-56530000D03*
D29*
X103330000Y-56530000D03*
D20*
X84000000Y-73000000D03*
D21*
X84280000Y-68800000D03*
D22*
X89500000Y-73000000D03*
D23*
X89500000Y-78950000D03*
D21*
X94720000Y-68800000D03*
D20*
X95000000Y-73000000D03*
D24*
X84500000Y-76750000D03*
D25*
X86225000Y-78950000D03*
D24*
X94500000Y-76750000D03*
D25*
X97775000Y-76750000D03*
D29*
X78550000Y-54510000D03*
D15*
X81050000Y-54510000D03*
D14*
X73250000Y-54510000D03*
D29*
X75750000Y-54510000D03*
D41*
X167572462Y-123240097D03*
D19*
X169487573Y-121633128D03*
D14*
X163512427Y-126646872D03*
D41*
X165427538Y-125039903D03*
D30*
X80470000Y-39450000D03*
D20*
X139356756Y-102224668D03*
D21*
X142270956Y-99187262D03*
D22*
X143570000Y-105760000D03*
D23*
X139745414Y-110317964D03*
D21*
X150268460Y-105897965D03*
D20*
X147783244Y-109295332D03*
D24*
X137329324Y-105418729D03*
D32*
X137236618Y-108212835D03*
D24*
X144989769Y-111846605D03*
D32*
X147498564Y-113951734D03*
D20*
X153884668Y-115376756D03*
D21*
X157282035Y-112891540D03*
D22*
X157420000Y-119590000D03*
D23*
X152862036Y-123414586D03*
D21*
X163992738Y-120889044D03*
D20*
X160955332Y-123803244D03*
D24*
X151333395Y-118170231D03*
D34*
X150756906Y-120905791D03*
D24*
X157761271Y-125830676D03*
D34*
X159866401Y-128339471D03*
D38*
X168599997Y-81299999D03*
X175599997Y-81299999D03*
D39*
X165899997Y-83599999D03*
X166999997Y-78999999D03*
X170999997Y-78999999D03*
X173999997Y-78999999D03*
D42*
X79500000Y-37500000D02*
G75*
G03*
X80500000Y-36500000I0J1000000D01*
G01*
X61238061Y-88001939D02*
X61257107Y-38497107D01*
X130300000Y-106620000D02*
X144380000Y-118530000D01*
X178310000Y-42700000D02*
X157452107Y-42742893D01*
X195149465Y-131707616D02*
X166560366Y-148228728D01*
X155952107Y-41242893D02*
G75*
G03*
X157452107Y-42742893I1499993J-7D01*
G01*
X179310000Y-43700000D02*
X179280000Y-99580000D01*
X130300000Y-106620000D02*
X106247735Y-84836977D01*
X80500000Y-31500000D02*
X80500000Y-36500000D01*
X79500000Y-37500000D02*
X62257107Y-37497107D01*
X81500000Y-30500000D02*
G75*
G03*
X80500000Y-31500000I0J-1000000D01*
G01*
X195633153Y-130378690D02*
X186206846Y-114001309D01*
X133500000Y-27000000D02*
X117500000Y-27000000D01*
X83120000Y-90250000D02*
X63498061Y-90261939D01*
X116500000Y-23500000D02*
G75*
G03*
X115500000Y-22500000I-1000000J0D01*
G01*
X134500000Y-28500000D02*
G75*
G03*
X135500000Y-29500000I1000000J0D01*
G01*
X134500000Y-28500000D02*
X134500000Y-28000000D01*
X155952107Y-41242893D02*
X155987893Y-31477107D01*
X84029039Y-89166652D02*
X84029997Y-85609994D01*
X116500000Y-26000000D02*
X116500000Y-23500000D01*
X83120003Y-90250034D02*
G75*
G03*
X84029039Y-89166652I-87203J996234D01*
G01*
X97500000Y-30500000D02*
X81500000Y-30500000D01*
X62257107Y-37497107D02*
G75*
G03*
X61257107Y-38497107I-7J-999993D01*
G01*
X134500000Y-28000000D02*
G75*
G03*
X133500000Y-27000000I-1000000J0D01*
G01*
X164471273Y-147860366D02*
G75*
G03*
X166560366Y-148228727I1228727J860366D01*
G01*
X186206846Y-114001309D02*
X179280000Y-99580000D01*
X155890000Y-132490000D02*
X164471272Y-147860366D01*
X115500000Y-22500000D02*
X99500000Y-22500000D01*
X106247758Y-84836949D02*
G75*
G03*
X105579997Y-84629994I-587158J-713751D01*
G01*
X144380000Y-118530000D02*
X155890000Y-132490000D01*
X85029996Y-84609997D02*
G75*
G03*
X84029997Y-85609994I4J-1000003D01*
G01*
X195149469Y-131707625D02*
G75*
G03*
X195633153Y-130378690I-422669J906325D01*
G01*
X155987893Y-31477107D02*
G75*
G03*
X153987893Y-29477107I-1999993J7D01*
G01*
X153987893Y-29477107D02*
X135500000Y-29500000D01*
X116500000Y-26000000D02*
G75*
G03*
X117500000Y-27000000I1000000J0D01*
G01*
X179310000Y-43700000D02*
G75*
G03*
X178310000Y-42700000I-1000000J0D01*
G01*
X61238061Y-88001939D02*
G75*
G03*
X63498061Y-90261939I2260039J39D01*
G01*
X98500000Y-23500000D02*
X98500000Y-29500000D01*
X97500000Y-30500000D02*
G75*
G03*
X98500000Y-29500000I0J1000000D01*
G01*
X85029996Y-84610000D02*
X105579997Y-84629994D01*
X99500000Y-22500000D02*
G75*
G03*
X98500000Y-23500000I0J-1000000D01*
G01*
M02*
