M48
; DRILL file {KiCad 7.0.1-0} date 2023 April 27, Thursday 21:51:41
; FORMAT={-:-/ absolute / metric / decimal}
; #@! TF.CreationDate,2023-04-27T21:51:41+02:00
; #@! TF.GenerationSoftware,Kicad,Pcbnew,7.0.1-0
; #@! TF.FileFunction,Plated,1,2,PTH
FMAT,2
METRIC
; #@! TA.AperFunction,Plated,PTH,ViaDrill
T1C0.400
; #@! TA.AperFunction,Plated,PTH,ComponentDrill
T2C0.813
; #@! TA.AperFunction,Plated,PTH,ComponentDrill
T3C0.900
; #@! TA.AperFunction,Plated,PTH,ComponentDrill
T4C1.000
; #@! TA.AperFunction,Plated,PTH,ComponentDrill
T5C1.300
; #@! TA.AperFunction,Plated,PTH,ComponentDrill
T6C3.000
%
G90
G05
T1
X74.99Y-59.38
X75.09Y-76.73
X79.74Y-64.73
X79.76Y-81.38
X79.8Y-47.31
X86.04Y-52.76
X96.31Y-57.58
X96.35Y-40.47
X97.97Y-74.42
X104.33Y-63.3
X110.95Y-45.74
X114.15Y-73.15
X115.74Y-32.35
X115.78Y-49.75
X115.82Y-66.49
X118.91Y-76.38
X121.48Y-46.68
X123.496Y-86.324
X128.66Y-61.18
X128.79Y-79.93
X128.82Y-43.98
X130.79Y-83.71
X132.87Y-54.17
X132.88Y-70.87
X133.71Y-37.03
X136.56Y-102.03
X143.44Y-109.6
X146.72Y-46.57
X146.85Y-63.56
X147.22Y-88.7
X151.18Y-114.59
X151.61Y-39.61
X151.62Y-56.45
X151.73Y-73.56
X153.64Y-88.25
X154.08Y-96.85
X154.28Y-65.53
X154.83Y-73.42
X156.03Y-123.24
X161.18Y-79.94
X163.22Y-130.03
X163.307Y-52.983
X163.9Y-102.96
X165.86Y-109.39
X166.2Y-138.67
X166.27Y-88.45
X168.14Y-51.76
X168.79Y-131.77
X169.99Y-82.45
X173.82Y-69.42
X174.02Y-71.98
X174.04Y-66.9
X174.19Y-74.57
X174.97Y-136.21
X178.16Y-121.57
X180.22Y-115.06
X180.57Y-129.97
X182.83Y-122.46
T2
X160.802Y-47.85
X160.802Y-50.39
X160.802Y-52.93
X160.802Y-55.47
X160.802Y-58.01
X160.802Y-60.55
X160.802Y-63.09
X160.802Y-65.63
X160.802Y-68.17
X160.802Y-70.71
X160.802Y-73.25
X160.802Y-75.79
X162.128Y-46.58
X162.128Y-49.12
X162.128Y-51.66
X162.128Y-54.2
X162.128Y-56.74
X162.128Y-59.28
X162.128Y-61.82
X162.128Y-64.36
X162.128Y-66.9
X162.128Y-69.44
X162.128Y-71.98
X162.128Y-74.52
X176.042Y-47.85
X176.042Y-50.39
X176.042Y-52.93
X176.042Y-55.47
X176.042Y-58.01
X176.042Y-60.55
X176.042Y-63.09
X176.042Y-65.63
X176.042Y-68.17
X176.042Y-70.71
X176.042Y-73.25
X176.042Y-75.79
X177.348Y-46.58
X177.348Y-49.12
X177.348Y-51.66
X177.348Y-54.2
X177.348Y-56.74
X177.348Y-59.28
X177.348Y-61.82
X177.348Y-64.36
X177.348Y-66.9
X177.348Y-69.44
X177.348Y-71.98
X177.348Y-74.52
T4
X73.24Y-71.57
X73.25Y-54.51
X74.43Y-88.74
X81.04Y-71.57
X81.05Y-54.51
X82.23Y-88.74
X84.69Y-82.12
X91.02Y-47.43
X91.07Y-64.64
X92.49Y-82.12
X97.95Y-39.62
X98.03Y-56.53
X98.82Y-47.43
X98.87Y-64.64
X103.08Y-74.6
X105.75Y-39.62
X105.83Y-56.53
X110.88Y-74.6
X118.93Y-79.22
X124.963Y-97.28
X126.73Y-79.22
X131.717Y-101.18
X134.51Y-61.97
X134.51Y-69.77
X134.58Y-45.13
X134.58Y-52.93
X139.655Y-81.755
X147.455Y-81.755
X151.253Y-110.968
X152.17Y-61.64
X152.17Y-69.44
X152.47Y-44.29
X152.47Y-52.09
X155.576Y-80.557
X156.267Y-104.992
X161.551Y-85.57
X163.0Y-99.971
X163.512Y-126.647
X168.013Y-93.996
X169.488Y-121.633
X174.87Y-89.55
X174.87Y-94.55
X175.642Y-115.597
X178.263Y-119.71
X181.618Y-110.583
X185.017Y-115.81
T5
X172.37Y-88.55
X172.37Y-95.55
T6
X66.5Y-49.75
X66.5Y-66.75
X66.5Y-83.75
X76.5Y-49.75
X76.5Y-66.75
X76.5Y-83.75
X84.5Y-42.75
X84.5Y-59.75
X84.5Y-76.75
X94.5Y-42.75
X94.5Y-59.75
X94.5Y-76.75
X102.5Y-34.75
X102.5Y-51.75
X102.5Y-68.75
X112.5Y-34.75
X112.5Y-51.75
X112.5Y-68.75
X120.5Y-39.25
X120.5Y-56.25
X120.5Y-73.25
X125.112Y-90.748
X130.5Y-39.25
X130.5Y-56.25
X130.5Y-73.25
X133.772Y-95.748
X137.329Y-105.419
X138.5Y-41.75
X138.5Y-58.75
X138.5Y-75.75
X144.99Y-111.847
X148.259Y-92.379
X148.5Y-41.75
X148.5Y-58.75
X148.5Y-75.75
X151.333Y-118.17
X155.92Y-98.807
X157.761Y-125.831
X162.942Y-133.215
X164.443Y-107.19
X167.942Y-141.875
X170.871Y-114.851
X177.752Y-124.685
X182.752Y-133.345
T3
G00X165.7Y-83.6
M15
G01X166.1Y-83.6
M16
G05
G00X166.1Y-81.0
M15
G01X165.7Y-81.0
M16
G05
G00X166.8Y-79.0
M15
G01X167.2Y-79.0
M16
G05
G00X167.2Y-85.6
M15
G01X166.8Y-85.6
M16
G05
G00X170.8Y-79.0
M15
G01X171.2Y-79.0
M16
G05
G00X171.2Y-85.6
M15
G01X170.8Y-85.6
M16
G05
G00X173.8Y-79.0
M15
G01X174.2Y-79.0
M16
G05
G00X174.2Y-85.6
M15
G01X173.8Y-85.6
M16
G05
T0
M30
