M48
; DRILL file {KiCad 7.0.1-0} date 2023 July 03, Monday 15:42:11
; FORMAT={-:-/ absolute / metric / decimal}
; #@! TF.CreationDate,2023-07-03T15:42:11+02:00
; #@! TF.GenerationSoftware,Kicad,Pcbnew,7.0.1-0
; #@! TF.FileFunction,Plated,1,2,PTH
FMAT,2
METRIC
; #@! TA.AperFunction,Plated,PTH,ViaDrill
T1C0.400
; #@! TA.AperFunction,Plated,PTH,ComponentDrill
T2C0.813
; #@! TA.AperFunction,Plated,PTH,ComponentDrill
T3C0.900
; #@! TA.AperFunction,Plated,PTH,ComponentDrill
T4C1.000
; #@! TA.AperFunction,Plated,PTH,ComponentDrill
T5C1.300
; #@! TA.AperFunction,Plated,PTH,ComponentDrill
T6C3.000
%
G90
G05
T1
X66.37Y-56.92
X75.36Y-74.44
X79.74Y-64.73
X79.76Y-81.38
X79.8Y-47.31
X85.37Y-49.91
X96.31Y-57.58
X96.35Y-40.47
X97.97Y-74.42
X101.35Y-71.23
X111.73Y-58.95
X115.74Y-32.35
X115.78Y-49.75
X115.82Y-66.49
X121.73Y-49.81
X123.496Y-86.324
X128.54Y-85.51
X128.66Y-61.18
X128.82Y-43.98
X131.83Y-75.83
X132.87Y-54.17
X132.88Y-70.87
X133.71Y-37.03
X136.56Y-102.03
X143.44Y-109.6
X146.72Y-46.57
X146.85Y-63.56
X147.22Y-88.7
X151.18Y-114.59
X151.61Y-39.61
X151.62Y-56.45
X151.73Y-73.56
X154.08Y-96.85
X156.03Y-123.24
X163.22Y-130.03
X163.9Y-102.96
X165.84Y-81.47
X165.86Y-109.39
X166.2Y-138.67
X168.062Y-65.622
X168.18Y-62.92
X174.59Y-136.15
X177.43Y-117.7
X178.16Y-121.57
X180.57Y-129.97
T2
X157.214Y-47.85
X157.214Y-50.39
X157.214Y-52.93
X157.214Y-55.47
X157.214Y-58.01
X157.214Y-60.55
X157.214Y-63.09
X157.214Y-65.63
X157.214Y-68.17
X157.214Y-70.71
X157.214Y-73.25
X157.214Y-75.79
X158.54Y-46.58
X158.54Y-49.12
X158.54Y-51.66
X158.54Y-54.2
X158.54Y-56.74
X158.54Y-59.28
X158.54Y-61.82
X158.54Y-64.36
X158.54Y-66.9
X158.54Y-69.44
X158.54Y-71.98
X158.54Y-74.52
X172.454Y-47.85
X172.454Y-50.39
X172.454Y-52.93
X172.454Y-55.47
X172.454Y-58.01
X172.454Y-60.55
X172.454Y-63.09
X172.454Y-65.63
X172.454Y-68.17
X172.454Y-70.71
X172.454Y-73.25
X172.454Y-75.79
X173.76Y-46.58
X173.76Y-49.12
X173.76Y-51.66
X173.76Y-54.2
X173.76Y-56.74
X173.76Y-59.28
X173.76Y-61.82
X173.76Y-64.36
X173.76Y-66.9
X173.76Y-69.44
X173.76Y-71.98
X173.76Y-74.52
T4
X73.24Y-71.57
X73.25Y-54.51
X74.43Y-88.74
X81.04Y-71.57
X81.05Y-54.51
X82.23Y-88.74
X87.43Y-82.21
X91.02Y-47.43
X91.07Y-64.64
X95.23Y-82.21
X97.95Y-39.62
X98.03Y-56.53
X98.82Y-47.43
X98.87Y-64.64
X103.08Y-74.6
X105.75Y-39.62
X105.83Y-56.53
X110.88Y-74.6
X118.93Y-79.22
X124.963Y-97.28
X126.73Y-79.22
X131.717Y-101.18
X134.51Y-61.97
X134.51Y-69.77
X134.58Y-45.13
X134.58Y-52.93
X139.655Y-81.755
X141.28Y-91.311
X146.293Y-85.336
X147.455Y-81.755
X151.253Y-110.968
X152.17Y-61.64
X152.17Y-69.44
X152.47Y-44.29
X152.47Y-52.09
X156.267Y-104.992
X163.512Y-126.647
X166.26Y-87.806
X166.26Y-95.606
X169.488Y-121.633
X171.37Y-88.91
X171.37Y-93.91
X175.642Y-115.597
X178.263Y-119.71
X181.618Y-110.583
X185.017Y-115.81
T5
X168.87Y-87.91
X168.87Y-94.91
T6
X66.5Y-49.75
X66.5Y-66.75
X66.5Y-83.75
X76.5Y-49.75
X76.5Y-66.75
X76.5Y-83.75
X84.5Y-42.75
X84.5Y-59.75
X84.5Y-76.75
X94.5Y-42.75
X94.5Y-59.75
X94.5Y-76.75
X102.5Y-34.75
X102.5Y-51.75
X102.5Y-68.75
X112.5Y-34.75
X112.5Y-51.75
X112.5Y-68.75
X120.5Y-39.25
X120.5Y-56.25
X120.5Y-73.25
X125.112Y-90.748
X130.5Y-39.25
X130.5Y-56.25
X130.5Y-73.25
X133.772Y-95.748
X137.329Y-105.419
X138.5Y-41.75
X138.5Y-58.75
X138.5Y-75.75
X144.99Y-111.847
X148.259Y-92.379
X148.5Y-41.75
X148.5Y-58.75
X148.5Y-75.75
X151.333Y-118.17
X155.92Y-98.807
X157.761Y-125.831
X162.942Y-133.215
X164.443Y-107.19
X167.942Y-141.875
X170.871Y-114.851
X177.752Y-124.685
X182.752Y-133.345
T3
X161.72Y-82.68G85X162.12Y-82.68
G05
X162.12Y-80.08G85X161.72Y-80.08
G05
X162.82Y-78.08G85X163.22Y-78.08
G05
X163.22Y-84.68G85X162.82Y-84.68
G05
X166.82Y-78.08G85X167.22Y-78.08
G05
X167.22Y-84.68G85X166.82Y-84.68
G05
X169.82Y-78.08G85X170.22Y-78.08
G05
X170.22Y-84.68G85X169.82Y-84.68
G05
T0
M30
