G04 #@! TF.GenerationSoftware,KiCad,Pcbnew,7.0.1-0*
G04 #@! TF.CreationDate,2023-07-03T15:41:13+02:00*
G04 #@! TF.ProjectId,helicoprion,68656c69-636f-4707-9269-6f6e2e6b6963,rev?*
G04 #@! TF.SameCoordinates,Original*
G04 #@! TF.FileFunction,Legend,Top*
G04 #@! TF.FilePolarity,Positive*
%FSLAX46Y46*%
G04 Gerber Fmt 4.6, Leading zero omitted, Abs format (unit mm)*
G04 Created by KiCad (PCBNEW 7.0.1-0) date 2023-07-03 15:41:13*
%MOMM*%
%LPD*%
G01*
G04 APERTURE LIST*
G04 Aperture macros list*
%AMRotRect*
0 Rectangle, with rotation*
0 The origin of the aperture is its center*
0 $1 length*
0 $2 width*
0 $3 Rotation angle, in degrees counterclockwise*
0 Add horizontal line*
21,1,$1,$2,0,0,$3*%
G04 Aperture macros list end*
%ADD10C,0.150000*%
%ADD11C,0.225000*%
%ADD12C,0.120000*%
%ADD13RotRect,1.600000X1.600000X50.000000*%
%ADD14C,1.600000*%
%ADD15R,1.600000X1.600000*%
%ADD16RotRect,1.600000X1.600000X330.000000*%
%ADD17RotRect,1.600000X1.600000X30.000000*%
%ADD18RotRect,1.600000X1.600000X40.000000*%
%ADD19C,1.701800*%
%ADD20C,0.990600*%
%ADD21C,3.429000*%
%ADD22C,3.000000*%
%ADD23C,3.200000*%
%ADD24R,2.600000X2.600000*%
%ADD25RotRect,2.600000X2.600000X300.000000*%
%ADD26C,2.100000*%
%ADD27RotRect,1.600000X1.200000X50.000000*%
%ADD28R,1.600000X1.200000*%
%ADD29C,2.200000*%
%ADD30R,1.200000X1.600000*%
%ADD31RotRect,2.600000X2.600000X320.000000*%
%ADD32RotRect,2.600000X2.600000X310.000000*%
%ADD33RotRect,1.600000X1.200000X330.000000*%
%ADD34RotRect,1.600000X1.200000X30.000000*%
%ADD35C,1.524000*%
%ADD36C,0.800000*%
%ADD37O,2.000000X1.600000*%
%ADD38RotRect,2.600000X2.600000X330.000000*%
%ADD39RotRect,1.600000X1.200000X40.000000*%
G04 #@! TA.AperFunction,Profile*
%ADD40C,0.100000*%
G04 #@! TD*
G04 APERTURE END LIST*
D10*
X153728600Y-57170619D02*
X153528600Y-56694428D01*
X153385743Y-57170619D02*
X153385743Y-56170619D01*
X153385743Y-56170619D02*
X153614314Y-56170619D01*
X153614314Y-56170619D02*
X153671457Y-56218238D01*
X153671457Y-56218238D02*
X153700028Y-56265857D01*
X153700028Y-56265857D02*
X153728600Y-56361095D01*
X153728600Y-56361095D02*
X153728600Y-56503952D01*
X153728600Y-56503952D02*
X153700028Y-56599190D01*
X153700028Y-56599190D02*
X153671457Y-56646809D01*
X153671457Y-56646809D02*
X153614314Y-56694428D01*
X153614314Y-56694428D02*
X153385743Y-56694428D01*
X154100028Y-56170619D02*
X154214314Y-56170619D01*
X154214314Y-56170619D02*
X154271457Y-56218238D01*
X154271457Y-56218238D02*
X154328600Y-56313476D01*
X154328600Y-56313476D02*
X154357171Y-56503952D01*
X154357171Y-56503952D02*
X154357171Y-56837285D01*
X154357171Y-56837285D02*
X154328600Y-57027761D01*
X154328600Y-57027761D02*
X154271457Y-57123000D01*
X154271457Y-57123000D02*
X154214314Y-57170619D01*
X154214314Y-57170619D02*
X154100028Y-57170619D01*
X154100028Y-57170619D02*
X154042886Y-57123000D01*
X154042886Y-57123000D02*
X153985743Y-57027761D01*
X153985743Y-57027761D02*
X153957171Y-56837285D01*
X153957171Y-56837285D02*
X153957171Y-56503952D01*
X153957171Y-56503952D02*
X153985743Y-56313476D01*
X153985743Y-56313476D02*
X154042886Y-56218238D01*
X154042886Y-56218238D02*
X154100028Y-56170619D01*
X154557171Y-56170619D02*
X154700028Y-57170619D01*
X154700028Y-57170619D02*
X154814314Y-56456333D01*
X154814314Y-56456333D02*
X154928599Y-57170619D01*
X154928599Y-57170619D02*
X155071457Y-56170619D01*
X155614313Y-57170619D02*
X155271456Y-57170619D01*
X155442885Y-57170619D02*
X155442885Y-56170619D01*
X155442885Y-56170619D02*
X155385742Y-56313476D01*
X155385742Y-56313476D02*
X155328599Y-56408714D01*
X155328599Y-56408714D02*
X155271456Y-56456333D01*
X155871457Y-56789666D02*
X156328600Y-56789666D01*
X156614314Y-56503952D02*
X157071457Y-56789666D01*
X157071457Y-56789666D02*
X156614314Y-57075380D01*
X153728600Y-59710619D02*
X153528600Y-59234428D01*
X153385743Y-59710619D02*
X153385743Y-58710619D01*
X153385743Y-58710619D02*
X153614314Y-58710619D01*
X153614314Y-58710619D02*
X153671457Y-58758238D01*
X153671457Y-58758238D02*
X153700028Y-58805857D01*
X153700028Y-58805857D02*
X153728600Y-58901095D01*
X153728600Y-58901095D02*
X153728600Y-59043952D01*
X153728600Y-59043952D02*
X153700028Y-59139190D01*
X153700028Y-59139190D02*
X153671457Y-59186809D01*
X153671457Y-59186809D02*
X153614314Y-59234428D01*
X153614314Y-59234428D02*
X153385743Y-59234428D01*
X154100028Y-58710619D02*
X154214314Y-58710619D01*
X154214314Y-58710619D02*
X154271457Y-58758238D01*
X154271457Y-58758238D02*
X154328600Y-58853476D01*
X154328600Y-58853476D02*
X154357171Y-59043952D01*
X154357171Y-59043952D02*
X154357171Y-59377285D01*
X154357171Y-59377285D02*
X154328600Y-59567761D01*
X154328600Y-59567761D02*
X154271457Y-59663000D01*
X154271457Y-59663000D02*
X154214314Y-59710619D01*
X154214314Y-59710619D02*
X154100028Y-59710619D01*
X154100028Y-59710619D02*
X154042886Y-59663000D01*
X154042886Y-59663000D02*
X153985743Y-59567761D01*
X153985743Y-59567761D02*
X153957171Y-59377285D01*
X153957171Y-59377285D02*
X153957171Y-59043952D01*
X153957171Y-59043952D02*
X153985743Y-58853476D01*
X153985743Y-58853476D02*
X154042886Y-58758238D01*
X154042886Y-58758238D02*
X154100028Y-58710619D01*
X154557171Y-58710619D02*
X154700028Y-59710619D01*
X154700028Y-59710619D02*
X154814314Y-58996333D01*
X154814314Y-58996333D02*
X154928599Y-59710619D01*
X154928599Y-59710619D02*
X155071457Y-58710619D01*
X155271456Y-58805857D02*
X155300028Y-58758238D01*
X155300028Y-58758238D02*
X155357171Y-58710619D01*
X155357171Y-58710619D02*
X155500028Y-58710619D01*
X155500028Y-58710619D02*
X155557171Y-58758238D01*
X155557171Y-58758238D02*
X155585742Y-58805857D01*
X155585742Y-58805857D02*
X155614313Y-58901095D01*
X155614313Y-58901095D02*
X155614313Y-58996333D01*
X155614313Y-58996333D02*
X155585742Y-59139190D01*
X155585742Y-59139190D02*
X155242885Y-59710619D01*
X155242885Y-59710619D02*
X155614313Y-59710619D01*
X155871457Y-59329666D02*
X156328600Y-59329666D01*
X156614314Y-59043952D02*
X157071457Y-59329666D01*
X157071457Y-59329666D02*
X156614314Y-59615380D01*
X169103600Y-62080380D02*
X169075028Y-62128000D01*
X169075028Y-62128000D02*
X168989314Y-62175619D01*
X168989314Y-62175619D02*
X168932171Y-62175619D01*
X168932171Y-62175619D02*
X168846457Y-62128000D01*
X168846457Y-62128000D02*
X168789314Y-62032761D01*
X168789314Y-62032761D02*
X168760743Y-61937523D01*
X168760743Y-61937523D02*
X168732171Y-61747047D01*
X168732171Y-61747047D02*
X168732171Y-61604190D01*
X168732171Y-61604190D02*
X168760743Y-61413714D01*
X168760743Y-61413714D02*
X168789314Y-61318476D01*
X168789314Y-61318476D02*
X168846457Y-61223238D01*
X168846457Y-61223238D02*
X168932171Y-61175619D01*
X168932171Y-61175619D02*
X168989314Y-61175619D01*
X168989314Y-61175619D02*
X169075028Y-61223238D01*
X169075028Y-61223238D02*
X169103600Y-61270857D01*
X169475028Y-61175619D02*
X169589314Y-61175619D01*
X169589314Y-61175619D02*
X169646457Y-61223238D01*
X169646457Y-61223238D02*
X169703600Y-61318476D01*
X169703600Y-61318476D02*
X169732171Y-61508952D01*
X169732171Y-61508952D02*
X169732171Y-61842285D01*
X169732171Y-61842285D02*
X169703600Y-62032761D01*
X169703600Y-62032761D02*
X169646457Y-62128000D01*
X169646457Y-62128000D02*
X169589314Y-62175619D01*
X169589314Y-62175619D02*
X169475028Y-62175619D01*
X169475028Y-62175619D02*
X169417886Y-62128000D01*
X169417886Y-62128000D02*
X169360743Y-62032761D01*
X169360743Y-62032761D02*
X169332171Y-61842285D01*
X169332171Y-61842285D02*
X169332171Y-61508952D01*
X169332171Y-61508952D02*
X169360743Y-61318476D01*
X169360743Y-61318476D02*
X169417886Y-61223238D01*
X169417886Y-61223238D02*
X169475028Y-61175619D01*
X170275028Y-62175619D02*
X169989314Y-62175619D01*
X169989314Y-62175619D02*
X169989314Y-61175619D01*
X170732171Y-61175619D02*
X170617885Y-61175619D01*
X170617885Y-61175619D02*
X170560742Y-61223238D01*
X170560742Y-61223238D02*
X170532171Y-61270857D01*
X170532171Y-61270857D02*
X170475028Y-61413714D01*
X170475028Y-61413714D02*
X170446456Y-61604190D01*
X170446456Y-61604190D02*
X170446456Y-61985142D01*
X170446456Y-61985142D02*
X170475028Y-62080380D01*
X170475028Y-62080380D02*
X170503599Y-62128000D01*
X170503599Y-62128000D02*
X170560742Y-62175619D01*
X170560742Y-62175619D02*
X170675028Y-62175619D01*
X170675028Y-62175619D02*
X170732171Y-62128000D01*
X170732171Y-62128000D02*
X170760742Y-62080380D01*
X170760742Y-62080380D02*
X170789313Y-61985142D01*
X170789313Y-61985142D02*
X170789313Y-61747047D01*
X170789313Y-61747047D02*
X170760742Y-61651809D01*
X170760742Y-61651809D02*
X170732171Y-61604190D01*
X170732171Y-61604190D02*
X170675028Y-61556571D01*
X170675028Y-61556571D02*
X170560742Y-61556571D01*
X170560742Y-61556571D02*
X170503599Y-61604190D01*
X170503599Y-61604190D02*
X170475028Y-61651809D01*
X170475028Y-61651809D02*
X170446456Y-61747047D01*
X171046457Y-61794666D02*
X171503600Y-61794666D01*
X171789314Y-61508952D02*
X172246457Y-61794666D01*
X172246457Y-61794666D02*
X171789314Y-62080380D01*
X169103600Y-74805380D02*
X169075028Y-74853000D01*
X169075028Y-74853000D02*
X168989314Y-74900619D01*
X168989314Y-74900619D02*
X168932171Y-74900619D01*
X168932171Y-74900619D02*
X168846457Y-74853000D01*
X168846457Y-74853000D02*
X168789314Y-74757761D01*
X168789314Y-74757761D02*
X168760743Y-74662523D01*
X168760743Y-74662523D02*
X168732171Y-74472047D01*
X168732171Y-74472047D02*
X168732171Y-74329190D01*
X168732171Y-74329190D02*
X168760743Y-74138714D01*
X168760743Y-74138714D02*
X168789314Y-74043476D01*
X168789314Y-74043476D02*
X168846457Y-73948238D01*
X168846457Y-73948238D02*
X168932171Y-73900619D01*
X168932171Y-73900619D02*
X168989314Y-73900619D01*
X168989314Y-73900619D02*
X169075028Y-73948238D01*
X169075028Y-73948238D02*
X169103600Y-73995857D01*
X169475028Y-73900619D02*
X169589314Y-73900619D01*
X169589314Y-73900619D02*
X169646457Y-73948238D01*
X169646457Y-73948238D02*
X169703600Y-74043476D01*
X169703600Y-74043476D02*
X169732171Y-74233952D01*
X169732171Y-74233952D02*
X169732171Y-74567285D01*
X169732171Y-74567285D02*
X169703600Y-74757761D01*
X169703600Y-74757761D02*
X169646457Y-74853000D01*
X169646457Y-74853000D02*
X169589314Y-74900619D01*
X169589314Y-74900619D02*
X169475028Y-74900619D01*
X169475028Y-74900619D02*
X169417886Y-74853000D01*
X169417886Y-74853000D02*
X169360743Y-74757761D01*
X169360743Y-74757761D02*
X169332171Y-74567285D01*
X169332171Y-74567285D02*
X169332171Y-74233952D01*
X169332171Y-74233952D02*
X169360743Y-74043476D01*
X169360743Y-74043476D02*
X169417886Y-73948238D01*
X169417886Y-73948238D02*
X169475028Y-73900619D01*
X170275028Y-74900619D02*
X169989314Y-74900619D01*
X169989314Y-74900619D02*
X169989314Y-73900619D01*
X170789313Y-74900619D02*
X170446456Y-74900619D01*
X170617885Y-74900619D02*
X170617885Y-73900619D01*
X170617885Y-73900619D02*
X170560742Y-74043476D01*
X170560742Y-74043476D02*
X170503599Y-74138714D01*
X170503599Y-74138714D02*
X170446456Y-74186333D01*
X171046457Y-74519666D02*
X171503600Y-74519666D01*
X171789314Y-74233952D02*
X172246457Y-74519666D01*
X172246457Y-74519666D02*
X171789314Y-74805380D01*
X169103600Y-64625380D02*
X169075028Y-64673000D01*
X169075028Y-64673000D02*
X168989314Y-64720619D01*
X168989314Y-64720619D02*
X168932171Y-64720619D01*
X168932171Y-64720619D02*
X168846457Y-64673000D01*
X168846457Y-64673000D02*
X168789314Y-64577761D01*
X168789314Y-64577761D02*
X168760743Y-64482523D01*
X168760743Y-64482523D02*
X168732171Y-64292047D01*
X168732171Y-64292047D02*
X168732171Y-64149190D01*
X168732171Y-64149190D02*
X168760743Y-63958714D01*
X168760743Y-63958714D02*
X168789314Y-63863476D01*
X168789314Y-63863476D02*
X168846457Y-63768238D01*
X168846457Y-63768238D02*
X168932171Y-63720619D01*
X168932171Y-63720619D02*
X168989314Y-63720619D01*
X168989314Y-63720619D02*
X169075028Y-63768238D01*
X169075028Y-63768238D02*
X169103600Y-63815857D01*
X169475028Y-63720619D02*
X169589314Y-63720619D01*
X169589314Y-63720619D02*
X169646457Y-63768238D01*
X169646457Y-63768238D02*
X169703600Y-63863476D01*
X169703600Y-63863476D02*
X169732171Y-64053952D01*
X169732171Y-64053952D02*
X169732171Y-64387285D01*
X169732171Y-64387285D02*
X169703600Y-64577761D01*
X169703600Y-64577761D02*
X169646457Y-64673000D01*
X169646457Y-64673000D02*
X169589314Y-64720619D01*
X169589314Y-64720619D02*
X169475028Y-64720619D01*
X169475028Y-64720619D02*
X169417886Y-64673000D01*
X169417886Y-64673000D02*
X169360743Y-64577761D01*
X169360743Y-64577761D02*
X169332171Y-64387285D01*
X169332171Y-64387285D02*
X169332171Y-64053952D01*
X169332171Y-64053952D02*
X169360743Y-63863476D01*
X169360743Y-63863476D02*
X169417886Y-63768238D01*
X169417886Y-63768238D02*
X169475028Y-63720619D01*
X170275028Y-64720619D02*
X169989314Y-64720619D01*
X169989314Y-64720619D02*
X169989314Y-63720619D01*
X170760742Y-63720619D02*
X170475028Y-63720619D01*
X170475028Y-63720619D02*
X170446456Y-64196809D01*
X170446456Y-64196809D02*
X170475028Y-64149190D01*
X170475028Y-64149190D02*
X170532171Y-64101571D01*
X170532171Y-64101571D02*
X170675028Y-64101571D01*
X170675028Y-64101571D02*
X170732171Y-64149190D01*
X170732171Y-64149190D02*
X170760742Y-64196809D01*
X170760742Y-64196809D02*
X170789313Y-64292047D01*
X170789313Y-64292047D02*
X170789313Y-64530142D01*
X170789313Y-64530142D02*
X170760742Y-64625380D01*
X170760742Y-64625380D02*
X170732171Y-64673000D01*
X170732171Y-64673000D02*
X170675028Y-64720619D01*
X170675028Y-64720619D02*
X170532171Y-64720619D01*
X170532171Y-64720619D02*
X170475028Y-64673000D01*
X170475028Y-64673000D02*
X170446456Y-64625380D01*
X171046457Y-64339666D02*
X171503600Y-64339666D01*
X171789314Y-64053952D02*
X172246457Y-64339666D01*
X172246457Y-64339666D02*
X171789314Y-64625380D01*
X153728600Y-62250619D02*
X153528600Y-61774428D01*
X153385743Y-62250619D02*
X153385743Y-61250619D01*
X153385743Y-61250619D02*
X153614314Y-61250619D01*
X153614314Y-61250619D02*
X153671457Y-61298238D01*
X153671457Y-61298238D02*
X153700028Y-61345857D01*
X153700028Y-61345857D02*
X153728600Y-61441095D01*
X153728600Y-61441095D02*
X153728600Y-61583952D01*
X153728600Y-61583952D02*
X153700028Y-61679190D01*
X153700028Y-61679190D02*
X153671457Y-61726809D01*
X153671457Y-61726809D02*
X153614314Y-61774428D01*
X153614314Y-61774428D02*
X153385743Y-61774428D01*
X154100028Y-61250619D02*
X154214314Y-61250619D01*
X154214314Y-61250619D02*
X154271457Y-61298238D01*
X154271457Y-61298238D02*
X154328600Y-61393476D01*
X154328600Y-61393476D02*
X154357171Y-61583952D01*
X154357171Y-61583952D02*
X154357171Y-61917285D01*
X154357171Y-61917285D02*
X154328600Y-62107761D01*
X154328600Y-62107761D02*
X154271457Y-62203000D01*
X154271457Y-62203000D02*
X154214314Y-62250619D01*
X154214314Y-62250619D02*
X154100028Y-62250619D01*
X154100028Y-62250619D02*
X154042886Y-62203000D01*
X154042886Y-62203000D02*
X153985743Y-62107761D01*
X153985743Y-62107761D02*
X153957171Y-61917285D01*
X153957171Y-61917285D02*
X153957171Y-61583952D01*
X153957171Y-61583952D02*
X153985743Y-61393476D01*
X153985743Y-61393476D02*
X154042886Y-61298238D01*
X154042886Y-61298238D02*
X154100028Y-61250619D01*
X154557171Y-61250619D02*
X154700028Y-62250619D01*
X154700028Y-62250619D02*
X154814314Y-61536333D01*
X154814314Y-61536333D02*
X154928599Y-62250619D01*
X154928599Y-62250619D02*
X155071457Y-61250619D01*
X155242885Y-61250619D02*
X155614313Y-61250619D01*
X155614313Y-61250619D02*
X155414313Y-61631571D01*
X155414313Y-61631571D02*
X155500028Y-61631571D01*
X155500028Y-61631571D02*
X155557171Y-61679190D01*
X155557171Y-61679190D02*
X155585742Y-61726809D01*
X155585742Y-61726809D02*
X155614313Y-61822047D01*
X155614313Y-61822047D02*
X155614313Y-62060142D01*
X155614313Y-62060142D02*
X155585742Y-62155380D01*
X155585742Y-62155380D02*
X155557171Y-62203000D01*
X155557171Y-62203000D02*
X155500028Y-62250619D01*
X155500028Y-62250619D02*
X155328599Y-62250619D01*
X155328599Y-62250619D02*
X155271456Y-62203000D01*
X155271456Y-62203000D02*
X155242885Y-62155380D01*
X155871457Y-61869666D02*
X156328600Y-61869666D01*
X156614314Y-61583952D02*
X157071457Y-61869666D01*
X157071457Y-61869666D02*
X156614314Y-62155380D01*
X160803600Y-48875952D02*
X160117885Y-49161666D01*
X160117885Y-49161666D02*
X160803600Y-49447380D01*
X161232171Y-49161666D02*
X161917886Y-49161666D01*
X162346457Y-49161666D02*
X163032172Y-49161666D01*
X154060742Y-53662619D02*
X154260742Y-54662619D01*
X154260742Y-54662619D02*
X154460742Y-53662619D01*
X155003600Y-54567380D02*
X154975028Y-54615000D01*
X154975028Y-54615000D02*
X154889314Y-54662619D01*
X154889314Y-54662619D02*
X154832171Y-54662619D01*
X154832171Y-54662619D02*
X154746457Y-54615000D01*
X154746457Y-54615000D02*
X154689314Y-54519761D01*
X154689314Y-54519761D02*
X154660743Y-54424523D01*
X154660743Y-54424523D02*
X154632171Y-54234047D01*
X154632171Y-54234047D02*
X154632171Y-54091190D01*
X154632171Y-54091190D02*
X154660743Y-53900714D01*
X154660743Y-53900714D02*
X154689314Y-53805476D01*
X154689314Y-53805476D02*
X154746457Y-53710238D01*
X154746457Y-53710238D02*
X154832171Y-53662619D01*
X154832171Y-53662619D02*
X154889314Y-53662619D01*
X154889314Y-53662619D02*
X154975028Y-53710238D01*
X154975028Y-53710238D02*
X155003600Y-53757857D01*
X155603600Y-54567380D02*
X155575028Y-54615000D01*
X155575028Y-54615000D02*
X155489314Y-54662619D01*
X155489314Y-54662619D02*
X155432171Y-54662619D01*
X155432171Y-54662619D02*
X155346457Y-54615000D01*
X155346457Y-54615000D02*
X155289314Y-54519761D01*
X155289314Y-54519761D02*
X155260743Y-54424523D01*
X155260743Y-54424523D02*
X155232171Y-54234047D01*
X155232171Y-54234047D02*
X155232171Y-54091190D01*
X155232171Y-54091190D02*
X155260743Y-53900714D01*
X155260743Y-53900714D02*
X155289314Y-53805476D01*
X155289314Y-53805476D02*
X155346457Y-53710238D01*
X155346457Y-53710238D02*
X155432171Y-53662619D01*
X155432171Y-53662619D02*
X155489314Y-53662619D01*
X155489314Y-53662619D02*
X155575028Y-53710238D01*
X155575028Y-53710238D02*
X155603600Y-53757857D01*
X155860743Y-54281666D02*
X156317886Y-54281666D01*
X156603600Y-53995952D02*
X157060743Y-54281666D01*
X157060743Y-54281666D02*
X156603600Y-54567380D01*
X166017027Y-54169666D02*
X166702742Y-54169666D01*
X167131313Y-54169666D02*
X167817028Y-54169666D01*
X168245599Y-53883952D02*
X168931314Y-54169666D01*
X168931314Y-54169666D02*
X168245599Y-54455380D01*
X154575028Y-52122619D02*
X154375028Y-51646428D01*
X154232171Y-52122619D02*
X154232171Y-51122619D01*
X154232171Y-51122619D02*
X154460742Y-51122619D01*
X154460742Y-51122619D02*
X154517885Y-51170238D01*
X154517885Y-51170238D02*
X154546456Y-51217857D01*
X154546456Y-51217857D02*
X154575028Y-51313095D01*
X154575028Y-51313095D02*
X154575028Y-51455952D01*
X154575028Y-51455952D02*
X154546456Y-51551190D01*
X154546456Y-51551190D02*
X154517885Y-51598809D01*
X154517885Y-51598809D02*
X154460742Y-51646428D01*
X154460742Y-51646428D02*
X154232171Y-51646428D01*
X154803599Y-52075000D02*
X154889314Y-52122619D01*
X154889314Y-52122619D02*
X155032171Y-52122619D01*
X155032171Y-52122619D02*
X155089314Y-52075000D01*
X155089314Y-52075000D02*
X155117885Y-52027380D01*
X155117885Y-52027380D02*
X155146456Y-51932142D01*
X155146456Y-51932142D02*
X155146456Y-51836904D01*
X155146456Y-51836904D02*
X155117885Y-51741666D01*
X155117885Y-51741666D02*
X155089314Y-51694047D01*
X155089314Y-51694047D02*
X155032171Y-51646428D01*
X155032171Y-51646428D02*
X154917885Y-51598809D01*
X154917885Y-51598809D02*
X154860742Y-51551190D01*
X154860742Y-51551190D02*
X154832171Y-51503571D01*
X154832171Y-51503571D02*
X154803599Y-51408333D01*
X154803599Y-51408333D02*
X154803599Y-51313095D01*
X154803599Y-51313095D02*
X154832171Y-51217857D01*
X154832171Y-51217857D02*
X154860742Y-51170238D01*
X154860742Y-51170238D02*
X154917885Y-51122619D01*
X154917885Y-51122619D02*
X155060742Y-51122619D01*
X155060742Y-51122619D02*
X155146456Y-51170238D01*
X155317885Y-51122619D02*
X155660743Y-51122619D01*
X155489314Y-52122619D02*
X155489314Y-51122619D01*
X155860743Y-51741666D02*
X156317886Y-51741666D01*
X156603600Y-51455952D02*
X157060743Y-51741666D01*
X157060743Y-51741666D02*
X156603600Y-52027380D01*
X153728600Y-64790619D02*
X153528600Y-64314428D01*
X153385743Y-64790619D02*
X153385743Y-63790619D01*
X153385743Y-63790619D02*
X153614314Y-63790619D01*
X153614314Y-63790619D02*
X153671457Y-63838238D01*
X153671457Y-63838238D02*
X153700028Y-63885857D01*
X153700028Y-63885857D02*
X153728600Y-63981095D01*
X153728600Y-63981095D02*
X153728600Y-64123952D01*
X153728600Y-64123952D02*
X153700028Y-64219190D01*
X153700028Y-64219190D02*
X153671457Y-64266809D01*
X153671457Y-64266809D02*
X153614314Y-64314428D01*
X153614314Y-64314428D02*
X153385743Y-64314428D01*
X154100028Y-63790619D02*
X154214314Y-63790619D01*
X154214314Y-63790619D02*
X154271457Y-63838238D01*
X154271457Y-63838238D02*
X154328600Y-63933476D01*
X154328600Y-63933476D02*
X154357171Y-64123952D01*
X154357171Y-64123952D02*
X154357171Y-64457285D01*
X154357171Y-64457285D02*
X154328600Y-64647761D01*
X154328600Y-64647761D02*
X154271457Y-64743000D01*
X154271457Y-64743000D02*
X154214314Y-64790619D01*
X154214314Y-64790619D02*
X154100028Y-64790619D01*
X154100028Y-64790619D02*
X154042886Y-64743000D01*
X154042886Y-64743000D02*
X153985743Y-64647761D01*
X153985743Y-64647761D02*
X153957171Y-64457285D01*
X153957171Y-64457285D02*
X153957171Y-64123952D01*
X153957171Y-64123952D02*
X153985743Y-63933476D01*
X153985743Y-63933476D02*
X154042886Y-63838238D01*
X154042886Y-63838238D02*
X154100028Y-63790619D01*
X154557171Y-63790619D02*
X154700028Y-64790619D01*
X154700028Y-64790619D02*
X154814314Y-64076333D01*
X154814314Y-64076333D02*
X154928599Y-64790619D01*
X154928599Y-64790619D02*
X155071457Y-63790619D01*
X155557171Y-64123952D02*
X155557171Y-64790619D01*
X155414313Y-63743000D02*
X155271456Y-64457285D01*
X155271456Y-64457285D02*
X155642885Y-64457285D01*
X155871457Y-64409666D02*
X156328600Y-64409666D01*
X156614314Y-64123952D02*
X157071457Y-64409666D01*
X157071457Y-64409666D02*
X156614314Y-64695380D01*
X170242885Y-49522619D02*
X170042885Y-49046428D01*
X169900028Y-49522619D02*
X169900028Y-48522619D01*
X169900028Y-48522619D02*
X170128599Y-48522619D01*
X170128599Y-48522619D02*
X170185742Y-48570238D01*
X170185742Y-48570238D02*
X170214313Y-48617857D01*
X170214313Y-48617857D02*
X170242885Y-48713095D01*
X170242885Y-48713095D02*
X170242885Y-48855952D01*
X170242885Y-48855952D02*
X170214313Y-48951190D01*
X170214313Y-48951190D02*
X170185742Y-48998809D01*
X170185742Y-48998809D02*
X170128599Y-49046428D01*
X170128599Y-49046428D02*
X169900028Y-49046428D01*
X170442885Y-48522619D02*
X170842885Y-49522619D01*
X170842885Y-48522619D02*
X170442885Y-49522619D01*
X171071457Y-49141666D02*
X171528600Y-49141666D01*
X171814314Y-48855952D02*
X172271457Y-49141666D01*
X172271457Y-49141666D02*
X171814314Y-49427380D01*
D11*
X163649671Y-49869428D02*
X165149671Y-49869428D01*
X165149671Y-49869428D02*
X164078242Y-50169428D01*
X164078242Y-50169428D02*
X165149671Y-50469428D01*
X165149671Y-50469428D02*
X163649671Y-50469428D01*
X163649671Y-51283714D02*
X164435385Y-51283714D01*
X164435385Y-51283714D02*
X164578242Y-51240856D01*
X164578242Y-51240856D02*
X164649671Y-51155142D01*
X164649671Y-51155142D02*
X164649671Y-50983714D01*
X164649671Y-50983714D02*
X164578242Y-50897999D01*
X163721100Y-51283714D02*
X163649671Y-51197999D01*
X163649671Y-51197999D02*
X163649671Y-50983714D01*
X163649671Y-50983714D02*
X163721100Y-50897999D01*
X163721100Y-50897999D02*
X163863957Y-50855142D01*
X163863957Y-50855142D02*
X164006814Y-50855142D01*
X164006814Y-50855142D02*
X164149671Y-50897999D01*
X164149671Y-50897999D02*
X164221100Y-50983714D01*
X164221100Y-50983714D02*
X164221100Y-51197999D01*
X164221100Y-51197999D02*
X164292528Y-51283714D01*
X164649671Y-51583714D02*
X164649671Y-51926571D01*
X165149671Y-51712285D02*
X163863957Y-51712285D01*
X163863957Y-51712285D02*
X163721100Y-51755142D01*
X163721100Y-51755142D02*
X163649671Y-51840857D01*
X163649671Y-51840857D02*
X163649671Y-51926571D01*
X163721100Y-52612286D02*
X163649671Y-52526571D01*
X163649671Y-52526571D02*
X163649671Y-52355143D01*
X163649671Y-52355143D02*
X163721100Y-52269428D01*
X163721100Y-52269428D02*
X163792528Y-52226571D01*
X163792528Y-52226571D02*
X163935385Y-52183714D01*
X163935385Y-52183714D02*
X164363957Y-52183714D01*
X164363957Y-52183714D02*
X164506814Y-52226571D01*
X164506814Y-52226571D02*
X164578242Y-52269428D01*
X164578242Y-52269428D02*
X164649671Y-52355143D01*
X164649671Y-52355143D02*
X164649671Y-52526571D01*
X164649671Y-52526571D02*
X164578242Y-52612286D01*
X163649671Y-52998000D02*
X165149671Y-52998000D01*
X163649671Y-53383715D02*
X164435385Y-53383715D01*
X164435385Y-53383715D02*
X164578242Y-53340857D01*
X164578242Y-53340857D02*
X164649671Y-53255143D01*
X164649671Y-53255143D02*
X164649671Y-53126572D01*
X164649671Y-53126572D02*
X164578242Y-53040857D01*
X164578242Y-53040857D02*
X164506814Y-52998000D01*
X164649671Y-54412286D02*
X163649671Y-54583715D01*
X163649671Y-54583715D02*
X164363957Y-54755143D01*
X164363957Y-54755143D02*
X163649671Y-54926572D01*
X163649671Y-54926572D02*
X164649671Y-55098000D01*
X163649671Y-55440857D02*
X164649671Y-55440857D01*
X165149671Y-55440857D02*
X165078242Y-55398000D01*
X165078242Y-55398000D02*
X165006814Y-55440857D01*
X165006814Y-55440857D02*
X165078242Y-55483714D01*
X165078242Y-55483714D02*
X165149671Y-55440857D01*
X165149671Y-55440857D02*
X165006814Y-55440857D01*
X164649671Y-55740857D02*
X164649671Y-56083714D01*
X165149671Y-55869428D02*
X163863957Y-55869428D01*
X163863957Y-55869428D02*
X163721100Y-55912285D01*
X163721100Y-55912285D02*
X163649671Y-55998000D01*
X163649671Y-55998000D02*
X163649671Y-56083714D01*
X163649671Y-56383714D02*
X165149671Y-56383714D01*
X163649671Y-56769429D02*
X164435385Y-56769429D01*
X164435385Y-56769429D02*
X164578242Y-56726571D01*
X164578242Y-56726571D02*
X164649671Y-56640857D01*
X164649671Y-56640857D02*
X164649671Y-56512286D01*
X164649671Y-56512286D02*
X164578242Y-56426571D01*
X164578242Y-56426571D02*
X164506814Y-56383714D01*
X163649671Y-57883714D02*
X165149671Y-57883714D01*
X165149671Y-57883714D02*
X164078242Y-58183714D01*
X164078242Y-58183714D02*
X165149671Y-58483714D01*
X165149671Y-58483714D02*
X163649671Y-58483714D01*
X163792528Y-59426571D02*
X163721100Y-59383714D01*
X163721100Y-59383714D02*
X163649671Y-59255142D01*
X163649671Y-59255142D02*
X163649671Y-59169428D01*
X163649671Y-59169428D02*
X163721100Y-59040857D01*
X163721100Y-59040857D02*
X163863957Y-58955142D01*
X163863957Y-58955142D02*
X164006814Y-58912285D01*
X164006814Y-58912285D02*
X164292528Y-58869428D01*
X164292528Y-58869428D02*
X164506814Y-58869428D01*
X164506814Y-58869428D02*
X164792528Y-58912285D01*
X164792528Y-58912285D02*
X164935385Y-58955142D01*
X164935385Y-58955142D02*
X165078242Y-59040857D01*
X165078242Y-59040857D02*
X165149671Y-59169428D01*
X165149671Y-59169428D02*
X165149671Y-59255142D01*
X165149671Y-59255142D02*
X165078242Y-59383714D01*
X165078242Y-59383714D02*
X165006814Y-59426571D01*
X165149671Y-59812285D02*
X163935385Y-59812285D01*
X163935385Y-59812285D02*
X163792528Y-59855142D01*
X163792528Y-59855142D02*
X163721100Y-59898000D01*
X163721100Y-59898000D02*
X163649671Y-59983714D01*
X163649671Y-59983714D02*
X163649671Y-60155142D01*
X163649671Y-60155142D02*
X163721100Y-60240857D01*
X163721100Y-60240857D02*
X163792528Y-60283714D01*
X163792528Y-60283714D02*
X163935385Y-60326571D01*
X163935385Y-60326571D02*
X165149671Y-60326571D01*
X164649671Y-61440856D02*
X163149671Y-61440856D01*
X164578242Y-61440856D02*
X164649671Y-61526571D01*
X164649671Y-61526571D02*
X164649671Y-61697999D01*
X164649671Y-61697999D02*
X164578242Y-61783713D01*
X164578242Y-61783713D02*
X164506814Y-61826571D01*
X164506814Y-61826571D02*
X164363957Y-61869428D01*
X164363957Y-61869428D02*
X163935385Y-61869428D01*
X163935385Y-61869428D02*
X163792528Y-61826571D01*
X163792528Y-61826571D02*
X163721100Y-61783713D01*
X163721100Y-61783713D02*
X163649671Y-61697999D01*
X163649671Y-61697999D02*
X163649671Y-61526571D01*
X163649671Y-61526571D02*
X163721100Y-61440856D01*
X163649671Y-62255142D02*
X164649671Y-62255142D01*
X165149671Y-62255142D02*
X165078242Y-62212285D01*
X165078242Y-62212285D02*
X165006814Y-62255142D01*
X165006814Y-62255142D02*
X165078242Y-62297999D01*
X165078242Y-62297999D02*
X165149671Y-62255142D01*
X165149671Y-62255142D02*
X165006814Y-62255142D01*
X164649671Y-62683713D02*
X163649671Y-62683713D01*
X164506814Y-62683713D02*
X164578242Y-62726570D01*
X164578242Y-62726570D02*
X164649671Y-62812285D01*
X164649671Y-62812285D02*
X164649671Y-62940856D01*
X164649671Y-62940856D02*
X164578242Y-63026570D01*
X164578242Y-63026570D02*
X164435385Y-63069428D01*
X164435385Y-63069428D02*
X163649671Y-63069428D01*
X163649671Y-64312285D02*
X163721100Y-64226570D01*
X163721100Y-64226570D02*
X163863957Y-64183713D01*
X163863957Y-64183713D02*
X165149671Y-64183713D01*
X163649671Y-65040857D02*
X164435385Y-65040857D01*
X164435385Y-65040857D02*
X164578242Y-64997999D01*
X164578242Y-64997999D02*
X164649671Y-64912285D01*
X164649671Y-64912285D02*
X164649671Y-64740857D01*
X164649671Y-64740857D02*
X164578242Y-64655142D01*
X163721100Y-65040857D02*
X163649671Y-64955142D01*
X163649671Y-64955142D02*
X163649671Y-64740857D01*
X163649671Y-64740857D02*
X163721100Y-64655142D01*
X163721100Y-64655142D02*
X163863957Y-64612285D01*
X163863957Y-64612285D02*
X164006814Y-64612285D01*
X164006814Y-64612285D02*
X164149671Y-64655142D01*
X164149671Y-64655142D02*
X164221100Y-64740857D01*
X164221100Y-64740857D02*
X164221100Y-64955142D01*
X164221100Y-64955142D02*
X164292528Y-65040857D01*
X163649671Y-65469428D02*
X165149671Y-65469428D01*
X164578242Y-65469428D02*
X164649671Y-65555143D01*
X164649671Y-65555143D02*
X164649671Y-65726571D01*
X164649671Y-65726571D02*
X164578242Y-65812285D01*
X164578242Y-65812285D02*
X164506814Y-65855143D01*
X164506814Y-65855143D02*
X164363957Y-65898000D01*
X164363957Y-65898000D02*
X163935385Y-65898000D01*
X163935385Y-65898000D02*
X163792528Y-65855143D01*
X163792528Y-65855143D02*
X163721100Y-65812285D01*
X163721100Y-65812285D02*
X163649671Y-65726571D01*
X163649671Y-65726571D02*
X163649671Y-65555143D01*
X163649671Y-65555143D02*
X163721100Y-65469428D01*
X163721100Y-66626571D02*
X163649671Y-66540857D01*
X163649671Y-66540857D02*
X163649671Y-66369429D01*
X163649671Y-66369429D02*
X163721100Y-66283714D01*
X163721100Y-66283714D02*
X163863957Y-66240857D01*
X163863957Y-66240857D02*
X164435385Y-66240857D01*
X164435385Y-66240857D02*
X164578242Y-66283714D01*
X164578242Y-66283714D02*
X164649671Y-66369429D01*
X164649671Y-66369429D02*
X164649671Y-66540857D01*
X164649671Y-66540857D02*
X164578242Y-66626571D01*
X164578242Y-66626571D02*
X164435385Y-66669429D01*
X164435385Y-66669429D02*
X164292528Y-66669429D01*
X164292528Y-66669429D02*
X164149671Y-66240857D01*
X163649671Y-67183715D02*
X163721100Y-67098000D01*
X163721100Y-67098000D02*
X163863957Y-67055143D01*
X163863957Y-67055143D02*
X165149671Y-67055143D01*
X163721100Y-67483715D02*
X163649671Y-67569429D01*
X163649671Y-67569429D02*
X163649671Y-67740858D01*
X163649671Y-67740858D02*
X163721100Y-67826572D01*
X163721100Y-67826572D02*
X163863957Y-67869429D01*
X163863957Y-67869429D02*
X163935385Y-67869429D01*
X163935385Y-67869429D02*
X164078242Y-67826572D01*
X164078242Y-67826572D02*
X164149671Y-67740858D01*
X164149671Y-67740858D02*
X164149671Y-67612287D01*
X164149671Y-67612287D02*
X164221100Y-67526572D01*
X164221100Y-67526572D02*
X164363957Y-67483715D01*
X164363957Y-67483715D02*
X164435385Y-67483715D01*
X164435385Y-67483715D02*
X164578242Y-67526572D01*
X164578242Y-67526572D02*
X164649671Y-67612287D01*
X164649671Y-67612287D02*
X164649671Y-67740858D01*
X164649671Y-67740858D02*
X164578242Y-67826572D01*
D10*
X169103600Y-69715380D02*
X169075028Y-69763000D01*
X169075028Y-69763000D02*
X168989314Y-69810619D01*
X168989314Y-69810619D02*
X168932171Y-69810619D01*
X168932171Y-69810619D02*
X168846457Y-69763000D01*
X168846457Y-69763000D02*
X168789314Y-69667761D01*
X168789314Y-69667761D02*
X168760743Y-69572523D01*
X168760743Y-69572523D02*
X168732171Y-69382047D01*
X168732171Y-69382047D02*
X168732171Y-69239190D01*
X168732171Y-69239190D02*
X168760743Y-69048714D01*
X168760743Y-69048714D02*
X168789314Y-68953476D01*
X168789314Y-68953476D02*
X168846457Y-68858238D01*
X168846457Y-68858238D02*
X168932171Y-68810619D01*
X168932171Y-68810619D02*
X168989314Y-68810619D01*
X168989314Y-68810619D02*
X169075028Y-68858238D01*
X169075028Y-68858238D02*
X169103600Y-68905857D01*
X169475028Y-68810619D02*
X169589314Y-68810619D01*
X169589314Y-68810619D02*
X169646457Y-68858238D01*
X169646457Y-68858238D02*
X169703600Y-68953476D01*
X169703600Y-68953476D02*
X169732171Y-69143952D01*
X169732171Y-69143952D02*
X169732171Y-69477285D01*
X169732171Y-69477285D02*
X169703600Y-69667761D01*
X169703600Y-69667761D02*
X169646457Y-69763000D01*
X169646457Y-69763000D02*
X169589314Y-69810619D01*
X169589314Y-69810619D02*
X169475028Y-69810619D01*
X169475028Y-69810619D02*
X169417886Y-69763000D01*
X169417886Y-69763000D02*
X169360743Y-69667761D01*
X169360743Y-69667761D02*
X169332171Y-69477285D01*
X169332171Y-69477285D02*
X169332171Y-69143952D01*
X169332171Y-69143952D02*
X169360743Y-68953476D01*
X169360743Y-68953476D02*
X169417886Y-68858238D01*
X169417886Y-68858238D02*
X169475028Y-68810619D01*
X170275028Y-69810619D02*
X169989314Y-69810619D01*
X169989314Y-69810619D02*
X169989314Y-68810619D01*
X170417885Y-68810619D02*
X170789313Y-68810619D01*
X170789313Y-68810619D02*
X170589313Y-69191571D01*
X170589313Y-69191571D02*
X170675028Y-69191571D01*
X170675028Y-69191571D02*
X170732171Y-69239190D01*
X170732171Y-69239190D02*
X170760742Y-69286809D01*
X170760742Y-69286809D02*
X170789313Y-69382047D01*
X170789313Y-69382047D02*
X170789313Y-69620142D01*
X170789313Y-69620142D02*
X170760742Y-69715380D01*
X170760742Y-69715380D02*
X170732171Y-69763000D01*
X170732171Y-69763000D02*
X170675028Y-69810619D01*
X170675028Y-69810619D02*
X170503599Y-69810619D01*
X170503599Y-69810619D02*
X170446456Y-69763000D01*
X170446456Y-69763000D02*
X170417885Y-69715380D01*
X171046457Y-69429666D02*
X171503600Y-69429666D01*
X171789314Y-69143952D02*
X172246457Y-69429666D01*
X172246457Y-69429666D02*
X171789314Y-69715380D01*
X169557171Y-51110238D02*
X169500029Y-51062619D01*
X169500029Y-51062619D02*
X169414314Y-51062619D01*
X169414314Y-51062619D02*
X169328600Y-51110238D01*
X169328600Y-51110238D02*
X169271457Y-51205476D01*
X169271457Y-51205476D02*
X169242886Y-51300714D01*
X169242886Y-51300714D02*
X169214314Y-51491190D01*
X169214314Y-51491190D02*
X169214314Y-51634047D01*
X169214314Y-51634047D02*
X169242886Y-51824523D01*
X169242886Y-51824523D02*
X169271457Y-51919761D01*
X169271457Y-51919761D02*
X169328600Y-52015000D01*
X169328600Y-52015000D02*
X169414314Y-52062619D01*
X169414314Y-52062619D02*
X169471457Y-52062619D01*
X169471457Y-52062619D02*
X169557171Y-52015000D01*
X169557171Y-52015000D02*
X169585743Y-51967380D01*
X169585743Y-51967380D02*
X169585743Y-51634047D01*
X169585743Y-51634047D02*
X169471457Y-51634047D01*
X169842886Y-52062619D02*
X169842886Y-51062619D01*
X169842886Y-51062619D02*
X170185743Y-52062619D01*
X170185743Y-52062619D02*
X170185743Y-51062619D01*
X170471457Y-52062619D02*
X170471457Y-51062619D01*
X170471457Y-51062619D02*
X170614314Y-51062619D01*
X170614314Y-51062619D02*
X170700028Y-51110238D01*
X170700028Y-51110238D02*
X170757171Y-51205476D01*
X170757171Y-51205476D02*
X170785742Y-51300714D01*
X170785742Y-51300714D02*
X170814314Y-51491190D01*
X170814314Y-51491190D02*
X170814314Y-51634047D01*
X170814314Y-51634047D02*
X170785742Y-51824523D01*
X170785742Y-51824523D02*
X170757171Y-51919761D01*
X170757171Y-51919761D02*
X170700028Y-52015000D01*
X170700028Y-52015000D02*
X170614314Y-52062619D01*
X170614314Y-52062619D02*
X170471457Y-52062619D01*
X171071457Y-51681666D02*
X171528600Y-51681666D01*
X171814314Y-51395952D02*
X172271457Y-51681666D01*
X172271457Y-51681666D02*
X171814314Y-51967380D01*
X169557171Y-53650238D02*
X169500029Y-53602619D01*
X169500029Y-53602619D02*
X169414314Y-53602619D01*
X169414314Y-53602619D02*
X169328600Y-53650238D01*
X169328600Y-53650238D02*
X169271457Y-53745476D01*
X169271457Y-53745476D02*
X169242886Y-53840714D01*
X169242886Y-53840714D02*
X169214314Y-54031190D01*
X169214314Y-54031190D02*
X169214314Y-54174047D01*
X169214314Y-54174047D02*
X169242886Y-54364523D01*
X169242886Y-54364523D02*
X169271457Y-54459761D01*
X169271457Y-54459761D02*
X169328600Y-54555000D01*
X169328600Y-54555000D02*
X169414314Y-54602619D01*
X169414314Y-54602619D02*
X169471457Y-54602619D01*
X169471457Y-54602619D02*
X169557171Y-54555000D01*
X169557171Y-54555000D02*
X169585743Y-54507380D01*
X169585743Y-54507380D02*
X169585743Y-54174047D01*
X169585743Y-54174047D02*
X169471457Y-54174047D01*
X169842886Y-54602619D02*
X169842886Y-53602619D01*
X169842886Y-53602619D02*
X170185743Y-54602619D01*
X170185743Y-54602619D02*
X170185743Y-53602619D01*
X170471457Y-54602619D02*
X170471457Y-53602619D01*
X170471457Y-53602619D02*
X170614314Y-53602619D01*
X170614314Y-53602619D02*
X170700028Y-53650238D01*
X170700028Y-53650238D02*
X170757171Y-53745476D01*
X170757171Y-53745476D02*
X170785742Y-53840714D01*
X170785742Y-53840714D02*
X170814314Y-54031190D01*
X170814314Y-54031190D02*
X170814314Y-54174047D01*
X170814314Y-54174047D02*
X170785742Y-54364523D01*
X170785742Y-54364523D02*
X170757171Y-54459761D01*
X170757171Y-54459761D02*
X170700028Y-54555000D01*
X170700028Y-54555000D02*
X170614314Y-54602619D01*
X170614314Y-54602619D02*
X170471457Y-54602619D01*
X171071457Y-54221666D02*
X171528600Y-54221666D01*
X171814314Y-53935952D02*
X172271457Y-54221666D01*
X172271457Y-54221666D02*
X171814314Y-54507380D01*
X169103600Y-72260380D02*
X169075028Y-72308000D01*
X169075028Y-72308000D02*
X168989314Y-72355619D01*
X168989314Y-72355619D02*
X168932171Y-72355619D01*
X168932171Y-72355619D02*
X168846457Y-72308000D01*
X168846457Y-72308000D02*
X168789314Y-72212761D01*
X168789314Y-72212761D02*
X168760743Y-72117523D01*
X168760743Y-72117523D02*
X168732171Y-71927047D01*
X168732171Y-71927047D02*
X168732171Y-71784190D01*
X168732171Y-71784190D02*
X168760743Y-71593714D01*
X168760743Y-71593714D02*
X168789314Y-71498476D01*
X168789314Y-71498476D02*
X168846457Y-71403238D01*
X168846457Y-71403238D02*
X168932171Y-71355619D01*
X168932171Y-71355619D02*
X168989314Y-71355619D01*
X168989314Y-71355619D02*
X169075028Y-71403238D01*
X169075028Y-71403238D02*
X169103600Y-71450857D01*
X169475028Y-71355619D02*
X169589314Y-71355619D01*
X169589314Y-71355619D02*
X169646457Y-71403238D01*
X169646457Y-71403238D02*
X169703600Y-71498476D01*
X169703600Y-71498476D02*
X169732171Y-71688952D01*
X169732171Y-71688952D02*
X169732171Y-72022285D01*
X169732171Y-72022285D02*
X169703600Y-72212761D01*
X169703600Y-72212761D02*
X169646457Y-72308000D01*
X169646457Y-72308000D02*
X169589314Y-72355619D01*
X169589314Y-72355619D02*
X169475028Y-72355619D01*
X169475028Y-72355619D02*
X169417886Y-72308000D01*
X169417886Y-72308000D02*
X169360743Y-72212761D01*
X169360743Y-72212761D02*
X169332171Y-72022285D01*
X169332171Y-72022285D02*
X169332171Y-71688952D01*
X169332171Y-71688952D02*
X169360743Y-71498476D01*
X169360743Y-71498476D02*
X169417886Y-71403238D01*
X169417886Y-71403238D02*
X169475028Y-71355619D01*
X170275028Y-72355619D02*
X169989314Y-72355619D01*
X169989314Y-72355619D02*
X169989314Y-71355619D01*
X170446456Y-71450857D02*
X170475028Y-71403238D01*
X170475028Y-71403238D02*
X170532171Y-71355619D01*
X170532171Y-71355619D02*
X170675028Y-71355619D01*
X170675028Y-71355619D02*
X170732171Y-71403238D01*
X170732171Y-71403238D02*
X170760742Y-71450857D01*
X170760742Y-71450857D02*
X170789313Y-71546095D01*
X170789313Y-71546095D02*
X170789313Y-71641333D01*
X170789313Y-71641333D02*
X170760742Y-71784190D01*
X170760742Y-71784190D02*
X170417885Y-72355619D01*
X170417885Y-72355619D02*
X170789313Y-72355619D01*
X171046457Y-71974666D02*
X171503600Y-71974666D01*
X171789314Y-71688952D02*
X172246457Y-71974666D01*
X172246457Y-71974666D02*
X171789314Y-72260380D01*
X160803600Y-53955952D02*
X160117885Y-54241666D01*
X160117885Y-54241666D02*
X160803600Y-54527380D01*
X161232171Y-54241666D02*
X161917886Y-54241666D01*
X162346457Y-54241666D02*
X163032172Y-54241666D01*
X160803600Y-51415952D02*
X160117885Y-51701666D01*
X160117885Y-51701666D02*
X160803600Y-51987380D01*
X161232171Y-51701666D02*
X161917886Y-51701666D01*
X162346457Y-51701666D02*
X163032172Y-51701666D01*
X169957170Y-45982619D02*
X170300028Y-45982619D01*
X170128599Y-46982619D02*
X170128599Y-45982619D01*
X170442885Y-45982619D02*
X170842885Y-46982619D01*
X170842885Y-45982619D02*
X170442885Y-46982619D01*
X171071457Y-46601666D02*
X171528600Y-46601666D01*
X171814314Y-46315952D02*
X172271457Y-46601666D01*
X172271457Y-46601666D02*
X171814314Y-46887380D01*
X154346457Y-48630238D02*
X154289315Y-48582619D01*
X154289315Y-48582619D02*
X154203600Y-48582619D01*
X154203600Y-48582619D02*
X154117886Y-48630238D01*
X154117886Y-48630238D02*
X154060743Y-48725476D01*
X154060743Y-48725476D02*
X154032172Y-48820714D01*
X154032172Y-48820714D02*
X154003600Y-49011190D01*
X154003600Y-49011190D02*
X154003600Y-49154047D01*
X154003600Y-49154047D02*
X154032172Y-49344523D01*
X154032172Y-49344523D02*
X154060743Y-49439761D01*
X154060743Y-49439761D02*
X154117886Y-49535000D01*
X154117886Y-49535000D02*
X154203600Y-49582619D01*
X154203600Y-49582619D02*
X154260743Y-49582619D01*
X154260743Y-49582619D02*
X154346457Y-49535000D01*
X154346457Y-49535000D02*
X154375029Y-49487380D01*
X154375029Y-49487380D02*
X154375029Y-49154047D01*
X154375029Y-49154047D02*
X154260743Y-49154047D01*
X154632172Y-49582619D02*
X154632172Y-48582619D01*
X154632172Y-48582619D02*
X154975029Y-49582619D01*
X154975029Y-49582619D02*
X154975029Y-48582619D01*
X155260743Y-49582619D02*
X155260743Y-48582619D01*
X155260743Y-48582619D02*
X155403600Y-48582619D01*
X155403600Y-48582619D02*
X155489314Y-48630238D01*
X155489314Y-48630238D02*
X155546457Y-48725476D01*
X155546457Y-48725476D02*
X155575028Y-48820714D01*
X155575028Y-48820714D02*
X155603600Y-49011190D01*
X155603600Y-49011190D02*
X155603600Y-49154047D01*
X155603600Y-49154047D02*
X155575028Y-49344523D01*
X155575028Y-49344523D02*
X155546457Y-49439761D01*
X155546457Y-49439761D02*
X155489314Y-49535000D01*
X155489314Y-49535000D02*
X155403600Y-49582619D01*
X155403600Y-49582619D02*
X155260743Y-49582619D01*
X155860743Y-49201666D02*
X156317886Y-49201666D01*
X156603600Y-48915952D02*
X157060743Y-49201666D01*
X157060743Y-49201666D02*
X156603600Y-49487380D01*
X169103600Y-67170380D02*
X169075028Y-67218000D01*
X169075028Y-67218000D02*
X168989314Y-67265619D01*
X168989314Y-67265619D02*
X168932171Y-67265619D01*
X168932171Y-67265619D02*
X168846457Y-67218000D01*
X168846457Y-67218000D02*
X168789314Y-67122761D01*
X168789314Y-67122761D02*
X168760743Y-67027523D01*
X168760743Y-67027523D02*
X168732171Y-66837047D01*
X168732171Y-66837047D02*
X168732171Y-66694190D01*
X168732171Y-66694190D02*
X168760743Y-66503714D01*
X168760743Y-66503714D02*
X168789314Y-66408476D01*
X168789314Y-66408476D02*
X168846457Y-66313238D01*
X168846457Y-66313238D02*
X168932171Y-66265619D01*
X168932171Y-66265619D02*
X168989314Y-66265619D01*
X168989314Y-66265619D02*
X169075028Y-66313238D01*
X169075028Y-66313238D02*
X169103600Y-66360857D01*
X169475028Y-66265619D02*
X169589314Y-66265619D01*
X169589314Y-66265619D02*
X169646457Y-66313238D01*
X169646457Y-66313238D02*
X169703600Y-66408476D01*
X169703600Y-66408476D02*
X169732171Y-66598952D01*
X169732171Y-66598952D02*
X169732171Y-66932285D01*
X169732171Y-66932285D02*
X169703600Y-67122761D01*
X169703600Y-67122761D02*
X169646457Y-67218000D01*
X169646457Y-67218000D02*
X169589314Y-67265619D01*
X169589314Y-67265619D02*
X169475028Y-67265619D01*
X169475028Y-67265619D02*
X169417886Y-67218000D01*
X169417886Y-67218000D02*
X169360743Y-67122761D01*
X169360743Y-67122761D02*
X169332171Y-66932285D01*
X169332171Y-66932285D02*
X169332171Y-66598952D01*
X169332171Y-66598952D02*
X169360743Y-66408476D01*
X169360743Y-66408476D02*
X169417886Y-66313238D01*
X169417886Y-66313238D02*
X169475028Y-66265619D01*
X170275028Y-67265619D02*
X169989314Y-67265619D01*
X169989314Y-67265619D02*
X169989314Y-66265619D01*
X170732171Y-66598952D02*
X170732171Y-67265619D01*
X170589313Y-66218000D02*
X170446456Y-66932285D01*
X170446456Y-66932285D02*
X170817885Y-66932285D01*
X171046457Y-66884666D02*
X171503600Y-66884666D01*
X171789314Y-66598952D02*
X172246457Y-66884666D01*
X172246457Y-66884666D02*
X171789314Y-67170380D01*
X64500000Y-73000000D02*
X65500000Y-73000000D01*
X64500000Y-74000000D02*
X64500000Y-73000000D01*
X64500000Y-87000000D02*
X64500000Y-86000000D01*
X65500000Y-87000000D02*
X64500000Y-87000000D01*
X69500000Y-84200000D02*
X70000000Y-83700000D01*
X70000000Y-83700000D02*
X72500000Y-83700000D01*
X73500000Y-86700000D02*
X73500000Y-87500000D01*
X74000000Y-81500000D02*
X78500000Y-81500000D01*
X74000000Y-82200000D02*
X74000000Y-81500000D01*
X77500000Y-73000000D02*
X78500000Y-73000000D01*
X78500000Y-73000000D02*
X78500000Y-74000000D01*
X78500000Y-81500000D02*
X78500000Y-82000000D01*
X78500000Y-85600000D02*
X78500000Y-86200000D01*
X78500000Y-86000000D02*
X78500000Y-87000000D01*
X78500000Y-86200000D02*
X74000000Y-86200000D01*
X78500000Y-87000000D02*
X77500000Y-87000000D01*
X74000000Y-86200000D02*
G75*
G03*
X73500000Y-86700000I0J-500000D01*
G01*
X72500000Y-83700000D02*
G75*
G03*
X74000000Y-82200000I0J1500000D01*
G01*
X186062178Y-117577822D02*
X186562178Y-118443848D01*
X185196152Y-118077822D02*
X186062178Y-117577822D01*
X173937822Y-124577822D02*
X174803848Y-124077822D01*
X174437822Y-125443848D02*
X173937822Y-124577822D01*
X178862693Y-127507949D02*
X179545706Y-127690962D01*
X179545706Y-127690962D02*
X180795706Y-129856025D01*
X178697630Y-132222051D02*
X178004809Y-132622051D01*
X183450962Y-130055064D02*
X185700962Y-133952178D01*
X182844744Y-130405064D02*
X183450962Y-130055064D01*
X192562178Y-128836152D02*
X193062178Y-129702178D01*
X193062178Y-129702178D02*
X192196152Y-130202178D01*
X185700962Y-133952178D02*
X185267949Y-134202178D01*
X182150258Y-136002178D02*
X181630642Y-136302178D01*
X181803848Y-136202178D02*
X180937822Y-136702178D01*
X181630642Y-136302178D02*
X179380642Y-132405064D01*
X180937822Y-136702178D02*
X180437822Y-135836152D01*
X179380643Y-132405064D02*
G75*
G03*
X178697630Y-132222051I-433013J-250000D01*
G01*
X180795706Y-129856025D02*
G75*
G03*
X182844744Y-130405063I1299038J750000D01*
G01*
D12*
X173870000Y-87510000D02*
X173870000Y-95310000D01*
X170190000Y-87510000D02*
X173870000Y-87510000D01*
X169570000Y-89160000D02*
X169570000Y-93660000D01*
X170190000Y-95310000D02*
X173870000Y-95310000D01*
D10*
X141570061Y-89779482D02*
X142737512Y-90759090D01*
X142737512Y-90759090D02*
X143064048Y-90369939D01*
X142737512Y-90759090D02*
X146002873Y-86867584D01*
X145513069Y-87451310D02*
X144345618Y-86471702D01*
X145594703Y-87354022D02*
X144427252Y-86374414D01*
X144508886Y-86277127D02*
X145676337Y-87256735D01*
X145757971Y-87159447D02*
X144590520Y-86179839D01*
X144672154Y-86082551D02*
X145839605Y-87062160D01*
X145921239Y-86964872D02*
X144753788Y-85985264D01*
X144835422Y-85887976D02*
X141570061Y-89779482D01*
X146002873Y-86867584D02*
X144835422Y-85887976D01*
X136500000Y-31000000D02*
X137500000Y-31000000D01*
X136500000Y-32000000D02*
X136500000Y-31000000D01*
X136500000Y-45000000D02*
X136500000Y-44000000D01*
X137500000Y-45000000D02*
X136500000Y-45000000D01*
X141500000Y-42200000D02*
X142000000Y-41700000D01*
X142000000Y-41700000D02*
X144500000Y-41700000D01*
X145500000Y-44700000D02*
X145500000Y-45500000D01*
X146000000Y-39500000D02*
X150500000Y-39500000D01*
X146000000Y-40200000D02*
X146000000Y-39500000D01*
X149500000Y-31000000D02*
X150500000Y-31000000D01*
X150500000Y-31000000D02*
X150500000Y-32000000D01*
X150500000Y-39500000D02*
X150500000Y-40000000D01*
X150500000Y-43600000D02*
X150500000Y-44200000D01*
X150500000Y-44000000D02*
X150500000Y-45000000D01*
X150500000Y-44200000D02*
X146000000Y-44200000D01*
X150500000Y-45000000D02*
X149500000Y-45000000D01*
X146000000Y-44200000D02*
G75*
G03*
X145500000Y-44700000I0J-500000D01*
G01*
X144500000Y-41700000D02*
G75*
G03*
X146000000Y-40200000I0J1500000D01*
G01*
X75790000Y-87978000D02*
X75790000Y-89502000D01*
X75790000Y-89502000D02*
X76298000Y-89502000D01*
X75790000Y-89502000D02*
X80870000Y-89502000D01*
X80108000Y-89502000D02*
X80108000Y-87978000D01*
X80235000Y-89502000D02*
X80235000Y-87978000D01*
X80362000Y-87978000D02*
X80362000Y-89502000D01*
X80489000Y-89502000D02*
X80489000Y-87978000D01*
X80616000Y-87978000D02*
X80616000Y-89502000D01*
X80743000Y-89502000D02*
X80743000Y-87978000D01*
X80870000Y-87978000D02*
X75790000Y-87978000D01*
X80870000Y-89502000D02*
X80870000Y-87978000D01*
X100500000Y-24000000D02*
X101500000Y-24000000D01*
X100500000Y-25000000D02*
X100500000Y-24000000D01*
X100500000Y-38000000D02*
X100500000Y-37000000D01*
X101500000Y-38000000D02*
X100500000Y-38000000D01*
X105500000Y-35200000D02*
X106000000Y-34700000D01*
X106000000Y-34700000D02*
X108500000Y-34700000D01*
X109500000Y-37700000D02*
X109500000Y-38500000D01*
X110000000Y-32500000D02*
X114500000Y-32500000D01*
X110000000Y-33200000D02*
X110000000Y-32500000D01*
X113500000Y-24000000D02*
X114500000Y-24000000D01*
X114500000Y-24000000D02*
X114500000Y-25000000D01*
X114500000Y-32500000D02*
X114500000Y-33000000D01*
X114500000Y-36600000D02*
X114500000Y-37200000D01*
X114500000Y-37000000D02*
X114500000Y-38000000D01*
X114500000Y-37200000D02*
X110000000Y-37200000D01*
X114500000Y-38000000D02*
X113500000Y-38000000D01*
X110000000Y-37200000D02*
G75*
G03*
X109500000Y-37700000I0J-500000D01*
G01*
X108500000Y-34700000D02*
G75*
G03*
X110000000Y-33200000I0J1500000D01*
G01*
X135342000Y-46490000D02*
X133818000Y-46490000D01*
X133818000Y-46490000D02*
X133818000Y-46998000D01*
X133818000Y-46490000D02*
X133818000Y-51570000D01*
X133818000Y-50808000D02*
X135342000Y-50808000D01*
X133818000Y-50935000D02*
X135342000Y-50935000D01*
X135342000Y-51062000D02*
X133818000Y-51062000D01*
X133818000Y-51189000D02*
X135342000Y-51189000D01*
X135342000Y-51316000D02*
X133818000Y-51316000D01*
X133818000Y-51443000D02*
X135342000Y-51443000D01*
X135342000Y-51570000D02*
X135342000Y-46490000D01*
X133818000Y-51570000D02*
X135342000Y-51570000D01*
X153232000Y-45650000D02*
X151708000Y-45650000D01*
X151708000Y-45650000D02*
X151708000Y-46158000D01*
X151708000Y-45650000D02*
X151708000Y-50730000D01*
X151708000Y-49968000D02*
X153232000Y-49968000D01*
X151708000Y-50095000D02*
X153232000Y-50095000D01*
X153232000Y-50222000D02*
X151708000Y-50222000D01*
X151708000Y-50349000D02*
X153232000Y-50349000D01*
X153232000Y-50476000D02*
X151708000Y-50476000D01*
X151708000Y-50603000D02*
X153232000Y-50603000D01*
X153232000Y-50730000D02*
X153232000Y-45650000D01*
X151708000Y-50730000D02*
X153232000Y-50730000D01*
X153637202Y-82858176D02*
X154403247Y-83500963D01*
X152994415Y-83624220D02*
X153637202Y-82858176D01*
X144638176Y-93582798D02*
X145280963Y-92816753D01*
X145404220Y-94225585D02*
X144638176Y-93582798D01*
X150268203Y-94651811D02*
X150972619Y-94590183D01*
X150972619Y-94590183D02*
X152887730Y-96197152D01*
X151725412Y-99138073D02*
X151211182Y-99750909D01*
X155450930Y-95476036D02*
X158898130Y-98368580D01*
X155000978Y-96012267D02*
X155450930Y-95476036D01*
X163595780Y-91214415D02*
X164361824Y-91857202D01*
X164361824Y-91857202D02*
X163719037Y-92623247D01*
X158898130Y-98368580D02*
X158576736Y-98751602D01*
X156262700Y-101509362D02*
X155877028Y-101968989D01*
X156005585Y-101815780D02*
X155362798Y-102581824D01*
X155877028Y-101968989D02*
X152429828Y-99076445D01*
X155362798Y-102581824D02*
X154596753Y-101939037D01*
X152429827Y-99076446D02*
G75*
G03*
X151725413Y-99138074I-321393J-383021D01*
G01*
X152887731Y-96197151D02*
G75*
G03*
X155000977Y-96012266I964181J1149066D01*
G01*
X74600000Y-70808000D02*
X74600000Y-72332000D01*
X74600000Y-72332000D02*
X75108000Y-72332000D01*
X74600000Y-72332000D02*
X79680000Y-72332000D01*
X78918000Y-72332000D02*
X78918000Y-70808000D01*
X79045000Y-72332000D02*
X79045000Y-70808000D01*
X79172000Y-70808000D02*
X79172000Y-72332000D01*
X79299000Y-72332000D02*
X79299000Y-70808000D01*
X79426000Y-70808000D02*
X79426000Y-72332000D01*
X79553000Y-72332000D02*
X79553000Y-70808000D01*
X79680000Y-70808000D02*
X74600000Y-70808000D01*
X79680000Y-72332000D02*
X79680000Y-70808000D01*
X165497693Y-94246119D02*
X167021693Y-94246119D01*
X167021693Y-94246119D02*
X167021693Y-93738119D01*
X167021693Y-94246119D02*
X167021693Y-89166119D01*
X167021693Y-89928119D02*
X165497693Y-89928119D01*
X167021693Y-89801119D02*
X165497693Y-89801119D01*
X165497693Y-89674119D02*
X167021693Y-89674119D01*
X167021693Y-89547119D02*
X165497693Y-89547119D01*
X165497693Y-89420119D02*
X167021693Y-89420119D01*
X167021693Y-89293119D02*
X165497693Y-89293119D01*
X165497693Y-89166119D02*
X165497693Y-94246119D01*
X167021693Y-89166119D02*
X165497693Y-89166119D01*
X171392798Y-98748176D02*
X172035585Y-99514220D01*
X170626753Y-99390963D02*
X171392798Y-98748176D01*
X160668176Y-107747202D02*
X161434220Y-107104415D01*
X161310963Y-108513247D02*
X160668176Y-107747202D01*
X166027038Y-109777619D02*
X166731454Y-109839247D01*
X166731454Y-109839247D02*
X168338423Y-111754359D01*
X166683077Y-114448766D02*
X166070242Y-114962996D01*
X170987902Y-111489293D02*
X173880447Y-114936493D01*
X170451671Y-111939244D02*
X170987902Y-111489293D01*
X179749037Y-108706753D02*
X180391824Y-109472798D01*
X180391824Y-109472798D02*
X179625780Y-110115585D01*
X173880447Y-114936493D02*
X173497424Y-115257886D01*
X170739664Y-117571922D02*
X170280038Y-117957594D01*
X170433247Y-117829037D02*
X169667202Y-118471824D01*
X170280038Y-117957594D02*
X167387493Y-114510394D01*
X169667202Y-118471824D02*
X169024415Y-117705780D01*
X167387492Y-114510395D02*
G75*
G03*
X166683078Y-114448767I-383021J-321393D01*
G01*
X168338424Y-111754358D02*
G75*
G03*
X170451670Y-111939243I1149066J964181D01*
G01*
X82500000Y-49000000D02*
X83500000Y-49000000D01*
X82500000Y-50000000D02*
X82500000Y-49000000D01*
X82500000Y-63000000D02*
X82500000Y-62000000D01*
X83500000Y-63000000D02*
X82500000Y-63000000D01*
X87500000Y-60200000D02*
X88000000Y-59700000D01*
X88000000Y-59700000D02*
X90500000Y-59700000D01*
X91500000Y-62700000D02*
X91500000Y-63500000D01*
X92000000Y-57500000D02*
X96500000Y-57500000D01*
X92000000Y-58200000D02*
X92000000Y-57500000D01*
X95500000Y-49000000D02*
X96500000Y-49000000D01*
X96500000Y-49000000D02*
X96500000Y-50000000D01*
X96500000Y-57500000D02*
X96500000Y-58000000D01*
X96500000Y-61600000D02*
X96500000Y-62200000D01*
X96500000Y-62000000D02*
X96500000Y-63000000D01*
X96500000Y-62200000D02*
X92000000Y-62200000D01*
X96500000Y-63000000D02*
X95500000Y-63000000D01*
X92000000Y-62200000D02*
G75*
G03*
X91500000Y-62700000I0J-500000D01*
G01*
X90500000Y-59700000D02*
G75*
G03*
X92000000Y-58200000I0J1500000D01*
G01*
X88790000Y-81448000D02*
X88790000Y-82972000D01*
X88790000Y-82972000D02*
X89298000Y-82972000D01*
X88790000Y-82972000D02*
X93870000Y-82972000D01*
X93108000Y-82972000D02*
X93108000Y-81448000D01*
X93235000Y-82972000D02*
X93235000Y-81448000D01*
X93362000Y-81448000D02*
X93362000Y-82972000D01*
X93489000Y-82972000D02*
X93489000Y-81448000D01*
X93616000Y-81448000D02*
X93616000Y-82972000D01*
X93743000Y-82972000D02*
X93743000Y-81448000D01*
X93870000Y-81448000D02*
X88790000Y-81448000D01*
X93870000Y-82972000D02*
X93870000Y-81448000D01*
X126521295Y-97300089D02*
X125759295Y-98619911D01*
X125759295Y-98619911D02*
X126199236Y-98873911D01*
X125759295Y-98619911D02*
X130158705Y-101159911D01*
X129498793Y-100778911D02*
X130260793Y-99459089D01*
X129608778Y-100842411D02*
X130370778Y-99522589D01*
X130480764Y-99586089D02*
X129718764Y-100905911D01*
X129828749Y-100969411D02*
X130590749Y-99649589D01*
X130700734Y-99713089D02*
X129938734Y-101032911D01*
X130048719Y-101096411D02*
X130810719Y-99776589D01*
X130920705Y-99840089D02*
X126521295Y-97300089D01*
X130158705Y-101159911D02*
X130920705Y-99840089D01*
X136500000Y-65000000D02*
X137500000Y-65000000D01*
X136500000Y-66000000D02*
X136500000Y-65000000D01*
X136500000Y-79000000D02*
X136500000Y-78000000D01*
X137500000Y-79000000D02*
X136500000Y-79000000D01*
X141500000Y-76200000D02*
X142000000Y-75700000D01*
X142000000Y-75700000D02*
X144500000Y-75700000D01*
X145500000Y-78700000D02*
X145500000Y-79500000D01*
X146000000Y-73500000D02*
X150500000Y-73500000D01*
X146000000Y-74200000D02*
X146000000Y-73500000D01*
X149500000Y-65000000D02*
X150500000Y-65000000D01*
X150500000Y-65000000D02*
X150500000Y-66000000D01*
X150500000Y-73500000D02*
X150500000Y-74000000D01*
X150500000Y-77600000D02*
X150500000Y-78200000D01*
X150500000Y-78000000D02*
X150500000Y-79000000D01*
X150500000Y-78200000D02*
X146000000Y-78200000D01*
X150500000Y-79000000D02*
X149500000Y-79000000D01*
X146000000Y-78200000D02*
G75*
G03*
X145500000Y-78700000I0J-500000D01*
G01*
X144500000Y-75700000D02*
G75*
G03*
X146000000Y-74200000I0J1500000D01*
G01*
X152932000Y-63000000D02*
X151408000Y-63000000D01*
X151408000Y-63000000D02*
X151408000Y-63508000D01*
X151408000Y-63000000D02*
X151408000Y-68080000D01*
X151408000Y-67318000D02*
X152932000Y-67318000D01*
X151408000Y-67445000D02*
X152932000Y-67445000D01*
X152932000Y-67572000D02*
X151408000Y-67572000D01*
X151408000Y-67699000D02*
X152932000Y-67699000D01*
X152932000Y-67826000D02*
X151408000Y-67826000D01*
X151408000Y-67953000D02*
X152932000Y-67953000D01*
X152932000Y-68080000D02*
X152932000Y-63000000D01*
X151408000Y-68080000D02*
X152932000Y-68080000D01*
X171252178Y-126107822D02*
X171752178Y-126973848D01*
X170386152Y-126607822D02*
X171252178Y-126107822D01*
X159127822Y-133107822D02*
X159993848Y-132607822D01*
X159627822Y-133973848D02*
X159127822Y-133107822D01*
X164052693Y-136037949D02*
X164735706Y-136220962D01*
X164735706Y-136220962D02*
X165985706Y-138386025D01*
X163887630Y-140752051D02*
X163194809Y-141152051D01*
X168640962Y-138585064D02*
X170890962Y-142482178D01*
X168034744Y-138935064D02*
X168640962Y-138585064D01*
X177752178Y-137366152D02*
X178252178Y-138232178D01*
X178252178Y-138232178D02*
X177386152Y-138732178D01*
X170890962Y-142482178D02*
X170457949Y-142732178D01*
X167340258Y-144532178D02*
X166820642Y-144832178D01*
X166993848Y-144732178D02*
X166127822Y-145232178D01*
X166820642Y-144832178D02*
X164570642Y-140935064D01*
X166127822Y-145232178D02*
X165627822Y-144366152D01*
X164570643Y-140935064D02*
G75*
G03*
X163887630Y-140752051I-433013J-250000D01*
G01*
X165985706Y-138386025D02*
G75*
G03*
X168034744Y-138935063I1299038J750000D01*
G01*
X92430000Y-63878000D02*
X92430000Y-65402000D01*
X92430000Y-65402000D02*
X92938000Y-65402000D01*
X92430000Y-65402000D02*
X97510000Y-65402000D01*
X96748000Y-65402000D02*
X96748000Y-63878000D01*
X96875000Y-65402000D02*
X96875000Y-63878000D01*
X97002000Y-63878000D02*
X97002000Y-65402000D01*
X97129000Y-65402000D02*
X97129000Y-63878000D01*
X97256000Y-63878000D02*
X97256000Y-65402000D01*
X97383000Y-65402000D02*
X97383000Y-63878000D01*
X97510000Y-63878000D02*
X92430000Y-63878000D01*
X97510000Y-65402000D02*
X97510000Y-63878000D01*
X100500000Y-41000000D02*
X101500000Y-41000000D01*
X100500000Y-42000000D02*
X100500000Y-41000000D01*
X100500000Y-55000000D02*
X100500000Y-54000000D01*
X101500000Y-55000000D02*
X100500000Y-55000000D01*
X105500000Y-52200000D02*
X106000000Y-51700000D01*
X106000000Y-51700000D02*
X108500000Y-51700000D01*
X109500000Y-54700000D02*
X109500000Y-55500000D01*
X110000000Y-49500000D02*
X114500000Y-49500000D01*
X110000000Y-50200000D02*
X110000000Y-49500000D01*
X113500000Y-41000000D02*
X114500000Y-41000000D01*
X114500000Y-41000000D02*
X114500000Y-42000000D01*
X114500000Y-49500000D02*
X114500000Y-50000000D01*
X114500000Y-53600000D02*
X114500000Y-54200000D01*
X114500000Y-54000000D02*
X114500000Y-55000000D01*
X114500000Y-54200000D02*
X110000000Y-54200000D01*
X114500000Y-55000000D02*
X113500000Y-55000000D01*
X110000000Y-54200000D02*
G75*
G03*
X109500000Y-54700000I0J-500000D01*
G01*
X108500000Y-51700000D02*
G75*
G03*
X110000000Y-50200000I0J1500000D01*
G01*
X100500000Y-58000000D02*
X101500000Y-58000000D01*
X100500000Y-59000000D02*
X100500000Y-58000000D01*
X100500000Y-72000000D02*
X100500000Y-71000000D01*
X101500000Y-72000000D02*
X100500000Y-72000000D01*
X105500000Y-69200000D02*
X106000000Y-68700000D01*
X106000000Y-68700000D02*
X108500000Y-68700000D01*
X109500000Y-71700000D02*
X109500000Y-72500000D01*
X110000000Y-66500000D02*
X114500000Y-66500000D01*
X110000000Y-67200000D02*
X110000000Y-66500000D01*
X113500000Y-58000000D02*
X114500000Y-58000000D01*
X114500000Y-58000000D02*
X114500000Y-59000000D01*
X114500000Y-66500000D02*
X114500000Y-67000000D01*
X114500000Y-70600000D02*
X114500000Y-71200000D01*
X114500000Y-71000000D02*
X114500000Y-72000000D01*
X114500000Y-71200000D02*
X110000000Y-71200000D01*
X114500000Y-72000000D02*
X113500000Y-72000000D01*
X110000000Y-71200000D02*
G75*
G03*
X109500000Y-71700000I0J-500000D01*
G01*
X108500000Y-68700000D02*
G75*
G03*
X110000000Y-67200000I0J1500000D01*
G01*
X104440000Y-73838000D02*
X104440000Y-75362000D01*
X104440000Y-75362000D02*
X104948000Y-75362000D01*
X104440000Y-75362000D02*
X109520000Y-75362000D01*
X108758000Y-75362000D02*
X108758000Y-73838000D01*
X108885000Y-75362000D02*
X108885000Y-73838000D01*
X109012000Y-73838000D02*
X109012000Y-75362000D01*
X109139000Y-75362000D02*
X109139000Y-73838000D01*
X109266000Y-73838000D02*
X109266000Y-75362000D01*
X109393000Y-75362000D02*
X109393000Y-73838000D01*
X109520000Y-73838000D02*
X104440000Y-73838000D01*
X109520000Y-75362000D02*
X109520000Y-73838000D01*
X151543594Y-109435949D02*
X152711045Y-110415557D01*
X152711045Y-110415557D02*
X153037581Y-110026406D01*
X152711045Y-110415557D02*
X155976406Y-106524051D01*
X155486602Y-107107777D02*
X154319151Y-106128169D01*
X155568236Y-107010489D02*
X154400785Y-106030881D01*
X154482419Y-105933594D02*
X155649870Y-106913202D01*
X155731504Y-106815914D02*
X154564053Y-105836306D01*
X154645687Y-105739018D02*
X155813138Y-106718627D01*
X155894772Y-106621339D02*
X154727321Y-105641731D01*
X154808955Y-105544443D02*
X151543594Y-109435949D01*
X155976406Y-106524051D02*
X154808955Y-105544443D01*
X64500000Y-56000000D02*
X65500000Y-56000000D01*
X64500000Y-57000000D02*
X64500000Y-56000000D01*
X64500000Y-70000000D02*
X64500000Y-69000000D01*
X65500000Y-70000000D02*
X64500000Y-70000000D01*
X69500000Y-67200000D02*
X70000000Y-66700000D01*
X70000000Y-66700000D02*
X72500000Y-66700000D01*
X73500000Y-69700000D02*
X73500000Y-70500000D01*
X74000000Y-64500000D02*
X78500000Y-64500000D01*
X74000000Y-65200000D02*
X74000000Y-64500000D01*
X77500000Y-56000000D02*
X78500000Y-56000000D01*
X78500000Y-56000000D02*
X78500000Y-57000000D01*
X78500000Y-64500000D02*
X78500000Y-65000000D01*
X78500000Y-68600000D02*
X78500000Y-69200000D01*
X78500000Y-69000000D02*
X78500000Y-70000000D01*
X78500000Y-69200000D02*
X74000000Y-69200000D01*
X78500000Y-70000000D02*
X77500000Y-70000000D01*
X74000000Y-69200000D02*
G75*
G03*
X73500000Y-69700000I0J-500000D01*
G01*
X72500000Y-66700000D02*
G75*
G03*
X74000000Y-65200000I0J1500000D01*
G01*
X136500000Y-48000000D02*
X137500000Y-48000000D01*
X136500000Y-49000000D02*
X136500000Y-48000000D01*
X136500000Y-62000000D02*
X136500000Y-61000000D01*
X137500000Y-62000000D02*
X136500000Y-62000000D01*
X141500000Y-59200000D02*
X142000000Y-58700000D01*
X142000000Y-58700000D02*
X144500000Y-58700000D01*
X145500000Y-61700000D02*
X145500000Y-62500000D01*
X146000000Y-56500000D02*
X150500000Y-56500000D01*
X146000000Y-57200000D02*
X146000000Y-56500000D01*
X149500000Y-48000000D02*
X150500000Y-48000000D01*
X150500000Y-48000000D02*
X150500000Y-49000000D01*
X150500000Y-56500000D02*
X150500000Y-57000000D01*
X150500000Y-60600000D02*
X150500000Y-61200000D01*
X150500000Y-61000000D02*
X150500000Y-62000000D01*
X150500000Y-61200000D02*
X146000000Y-61200000D01*
X150500000Y-62000000D02*
X149500000Y-62000000D01*
X146000000Y-61200000D02*
G75*
G03*
X145500000Y-61700000I0J-500000D01*
G01*
X144500000Y-58700000D02*
G75*
G03*
X146000000Y-57200000I0J1500000D01*
G01*
X118500000Y-45500000D02*
X119500000Y-45500000D01*
X118500000Y-46500000D02*
X118500000Y-45500000D01*
X118500000Y-59500000D02*
X118500000Y-58500000D01*
X119500000Y-59500000D02*
X118500000Y-59500000D01*
X123500000Y-56700000D02*
X124000000Y-56200000D01*
X124000000Y-56200000D02*
X126500000Y-56200000D01*
X127500000Y-59200000D02*
X127500000Y-60000000D01*
X128000000Y-54000000D02*
X132500000Y-54000000D01*
X128000000Y-54700000D02*
X128000000Y-54000000D01*
X131500000Y-45500000D02*
X132500000Y-45500000D01*
X132500000Y-45500000D02*
X132500000Y-46500000D01*
X132500000Y-54000000D02*
X132500000Y-54500000D01*
X132500000Y-58100000D02*
X132500000Y-58700000D01*
X132500000Y-58500000D02*
X132500000Y-59500000D01*
X132500000Y-58700000D02*
X128000000Y-58700000D01*
X132500000Y-59500000D02*
X131500000Y-59500000D01*
X128000000Y-58700000D02*
G75*
G03*
X127500000Y-59200000I0J-500000D01*
G01*
X126500000Y-56200000D02*
G75*
G03*
X128000000Y-54700000I0J1500000D01*
G01*
X179059295Y-118370089D02*
X179821295Y-119689911D01*
X179821295Y-119689911D02*
X180261236Y-119435911D01*
X179821295Y-119689911D02*
X184220705Y-117149911D01*
X183560793Y-117530911D02*
X182798793Y-116211089D01*
X183670778Y-117467411D02*
X182908778Y-116147589D01*
X183018764Y-116084089D02*
X183780764Y-117403911D01*
X183890749Y-117340411D02*
X183128749Y-116020589D01*
X183238734Y-115957089D02*
X184000734Y-117276911D01*
X184110719Y-117213411D02*
X183348719Y-115893589D01*
X183458705Y-115830089D02*
X179059295Y-118370089D01*
X184220705Y-117149911D02*
X183458705Y-115830089D01*
X175030000Y-75790000D02*
X172490000Y-75790000D01*
X175030000Y-45310000D02*
X175030000Y-75790000D01*
X172490000Y-75790000D02*
X172490000Y-45310000D01*
X172490000Y-45310000D02*
X175030000Y-45310000D01*
X159810000Y-75790000D02*
X157270000Y-75790000D01*
X159810000Y-45310000D02*
X159810000Y-75790000D01*
X157270000Y-75790000D02*
X157270000Y-45310000D01*
X157270000Y-45310000D02*
X159810000Y-45310000D01*
X118500000Y-62500000D02*
X119500000Y-62500000D01*
X118500000Y-63500000D02*
X118500000Y-62500000D01*
X118500000Y-76500000D02*
X118500000Y-75500000D01*
X119500000Y-76500000D02*
X118500000Y-76500000D01*
X123500000Y-73700000D02*
X124000000Y-73200000D01*
X124000000Y-73200000D02*
X126500000Y-73200000D01*
X127500000Y-76200000D02*
X127500000Y-77000000D01*
X128000000Y-71000000D02*
X132500000Y-71000000D01*
X128000000Y-71700000D02*
X128000000Y-71000000D01*
X131500000Y-62500000D02*
X132500000Y-62500000D01*
X132500000Y-62500000D02*
X132500000Y-63500000D01*
X132500000Y-71000000D02*
X132500000Y-71500000D01*
X132500000Y-75100000D02*
X132500000Y-75700000D01*
X132500000Y-75500000D02*
X132500000Y-76500000D01*
X132500000Y-75700000D02*
X128000000Y-75700000D01*
X132500000Y-76500000D02*
X131500000Y-76500000D01*
X128000000Y-75700000D02*
G75*
G03*
X127500000Y-76200000I0J-500000D01*
G01*
X126500000Y-73200000D02*
G75*
G03*
X128000000Y-71700000I0J1500000D01*
G01*
X173220000Y-79330000D02*
X161120000Y-79330000D01*
X173220000Y-79580000D02*
X175220000Y-79580000D01*
X175220000Y-85180000D02*
X175220000Y-79580000D01*
X173220000Y-85180000D02*
X175220000Y-85180000D01*
X173220000Y-85430000D02*
X173220000Y-79330000D01*
X173220000Y-85430000D02*
X161120000Y-85430000D01*
X161120000Y-85430000D02*
X161120000Y-79330000D01*
X104390000Y-40382000D02*
X104390000Y-38858000D01*
X104390000Y-38858000D02*
X103882000Y-38858000D01*
X104390000Y-38858000D02*
X99310000Y-38858000D01*
X100072000Y-38858000D02*
X100072000Y-40382000D01*
X99945000Y-38858000D02*
X99945000Y-40382000D01*
X99818000Y-40382000D02*
X99818000Y-38858000D01*
X99691000Y-38858000D02*
X99691000Y-40382000D01*
X99564000Y-40382000D02*
X99564000Y-38858000D01*
X99437000Y-38858000D02*
X99437000Y-40382000D01*
X99310000Y-40382000D02*
X104390000Y-40382000D01*
X99310000Y-38858000D02*
X99310000Y-40382000D01*
X128754682Y-80437822D02*
X129620708Y-80937822D01*
X128254682Y-81303848D02*
X128754682Y-80437822D01*
X121754682Y-92562178D02*
X122254682Y-91696152D01*
X122620708Y-93062178D02*
X121754682Y-92562178D01*
X127484809Y-92637307D02*
X128167822Y-92454294D01*
X128167822Y-92454294D02*
X130332885Y-93704294D01*
X129698911Y-96802370D02*
X129298911Y-97495191D01*
X132731924Y-92549038D02*
X136629038Y-94799038D01*
X132381924Y-93155256D02*
X132731924Y-92549038D01*
X140013012Y-86937822D02*
X140879038Y-87437822D01*
X140879038Y-87437822D02*
X140379038Y-88303848D01*
X136629038Y-94799038D02*
X136379038Y-95232051D01*
X134579038Y-98349742D02*
X134279038Y-98869358D01*
X134379038Y-98696152D02*
X133879038Y-99562178D01*
X134279038Y-98869358D02*
X130381924Y-96619358D01*
X133879038Y-99562178D02*
X133013012Y-99062178D01*
X130381924Y-96619357D02*
G75*
G03*
X129698911Y-96802370I-250000J-433013D01*
G01*
X130332885Y-93704294D02*
G75*
G03*
X132381923Y-93155256I750000J1299038D01*
G01*
X92380000Y-46668000D02*
X92380000Y-48192000D01*
X92380000Y-48192000D02*
X92888000Y-48192000D01*
X92380000Y-48192000D02*
X97460000Y-48192000D01*
X96698000Y-48192000D02*
X96698000Y-46668000D01*
X96825000Y-48192000D02*
X96825000Y-46668000D01*
X96952000Y-46668000D02*
X96952000Y-48192000D01*
X97079000Y-48192000D02*
X97079000Y-46668000D01*
X97206000Y-46668000D02*
X97206000Y-48192000D01*
X97333000Y-48192000D02*
X97333000Y-46668000D01*
X97460000Y-46668000D02*
X92380000Y-46668000D01*
X97460000Y-48192000D02*
X97460000Y-46668000D01*
X176194443Y-114138955D02*
X177174051Y-115306406D01*
X177174051Y-115306406D02*
X177563202Y-114979870D01*
X177174051Y-115306406D02*
X181065557Y-112041045D01*
X180481831Y-112530849D02*
X179502223Y-111363398D01*
X180579119Y-112449215D02*
X179599511Y-111281764D01*
X179696798Y-111200130D02*
X180676406Y-112367581D01*
X180773694Y-112285947D02*
X179794086Y-111118496D01*
X179891373Y-111036862D02*
X180870982Y-112204313D01*
X180968269Y-112122679D02*
X179988661Y-110955228D01*
X180085949Y-110873594D02*
X176194443Y-114138955D01*
X181065557Y-112041045D02*
X180085949Y-110873594D01*
X82500000Y-32000000D02*
X83500000Y-32000000D01*
X82500000Y-33000000D02*
X82500000Y-32000000D01*
X82500000Y-46000000D02*
X82500000Y-45000000D01*
X83500000Y-46000000D02*
X82500000Y-46000000D01*
X87500000Y-43200000D02*
X88000000Y-42700000D01*
X88000000Y-42700000D02*
X90500000Y-42700000D01*
X91500000Y-45700000D02*
X91500000Y-46500000D01*
X92000000Y-40500000D02*
X96500000Y-40500000D01*
X92000000Y-41200000D02*
X92000000Y-40500000D01*
X95500000Y-32000000D02*
X96500000Y-32000000D01*
X96500000Y-32000000D02*
X96500000Y-33000000D01*
X96500000Y-40500000D02*
X96500000Y-41000000D01*
X96500000Y-44600000D02*
X96500000Y-45200000D01*
X96500000Y-45000000D02*
X96500000Y-46000000D01*
X96500000Y-45200000D02*
X92000000Y-45200000D01*
X96500000Y-46000000D02*
X95500000Y-46000000D01*
X92000000Y-45200000D02*
G75*
G03*
X91500000Y-45700000I0J-500000D01*
G01*
X90500000Y-42700000D02*
G75*
G03*
X92000000Y-41200000I0J1500000D01*
G01*
X64500000Y-39000000D02*
X65500000Y-39000000D01*
X64500000Y-40000000D02*
X64500000Y-39000000D01*
X64500000Y-53000000D02*
X64500000Y-52000000D01*
X65500000Y-53000000D02*
X64500000Y-53000000D01*
X69500000Y-50200000D02*
X70000000Y-49700000D01*
X70000000Y-49700000D02*
X72500000Y-49700000D01*
X73500000Y-52700000D02*
X73500000Y-53500000D01*
X74000000Y-47500000D02*
X78500000Y-47500000D01*
X74000000Y-48200000D02*
X74000000Y-47500000D01*
X77500000Y-39000000D02*
X78500000Y-39000000D01*
X78500000Y-39000000D02*
X78500000Y-40000000D01*
X78500000Y-47500000D02*
X78500000Y-48000000D01*
X78500000Y-51600000D02*
X78500000Y-52200000D01*
X78500000Y-52000000D02*
X78500000Y-53000000D01*
X78500000Y-52200000D02*
X74000000Y-52200000D01*
X78500000Y-53000000D02*
X77500000Y-53000000D01*
X74000000Y-52200000D02*
G75*
G03*
X73500000Y-52700000I0J-500000D01*
G01*
X72500000Y-49700000D02*
G75*
G03*
X74000000Y-48200000I0J1500000D01*
G01*
X146095000Y-82517000D02*
X146095000Y-80993000D01*
X146095000Y-80993000D02*
X145587000Y-80993000D01*
X146095000Y-80993000D02*
X141015000Y-80993000D01*
X141777000Y-80993000D02*
X141777000Y-82517000D01*
X141650000Y-80993000D02*
X141650000Y-82517000D01*
X141523000Y-82517000D02*
X141523000Y-80993000D01*
X141396000Y-80993000D02*
X141396000Y-82517000D01*
X141269000Y-82517000D02*
X141269000Y-80993000D01*
X141142000Y-80993000D02*
X141142000Y-82517000D01*
X141015000Y-82517000D02*
X146095000Y-82517000D01*
X141015000Y-80993000D02*
X141015000Y-82517000D01*
X118500000Y-28500000D02*
X119500000Y-28500000D01*
X118500000Y-29500000D02*
X118500000Y-28500000D01*
X118500000Y-42500000D02*
X118500000Y-41500000D01*
X119500000Y-42500000D02*
X118500000Y-42500000D01*
X123500000Y-39700000D02*
X124000000Y-39200000D01*
X124000000Y-39200000D02*
X126500000Y-39200000D01*
X127500000Y-42200000D02*
X127500000Y-43000000D01*
X128000000Y-37000000D02*
X132500000Y-37000000D01*
X128000000Y-37700000D02*
X128000000Y-37000000D01*
X131500000Y-28500000D02*
X132500000Y-28500000D01*
X132500000Y-28500000D02*
X132500000Y-29500000D01*
X132500000Y-37000000D02*
X132500000Y-37500000D01*
X132500000Y-41100000D02*
X132500000Y-41700000D01*
X132500000Y-41500000D02*
X132500000Y-42500000D01*
X132500000Y-41700000D02*
X128000000Y-41700000D01*
X132500000Y-42500000D02*
X131500000Y-42500000D01*
X128000000Y-41700000D02*
G75*
G03*
X127500000Y-42200000I0J-500000D01*
G01*
X126500000Y-39200000D02*
G75*
G03*
X128000000Y-37700000I0J1500000D01*
G01*
X125370000Y-79982000D02*
X125370000Y-78458000D01*
X125370000Y-78458000D02*
X124862000Y-78458000D01*
X125370000Y-78458000D02*
X120290000Y-78458000D01*
X121052000Y-78458000D02*
X121052000Y-79982000D01*
X120925000Y-78458000D02*
X120925000Y-79982000D01*
X120798000Y-79982000D02*
X120798000Y-78458000D01*
X120671000Y-78458000D02*
X120671000Y-79982000D01*
X120544000Y-79982000D02*
X120544000Y-78458000D01*
X120417000Y-78458000D02*
X120417000Y-79982000D01*
X120290000Y-79982000D02*
X125370000Y-79982000D01*
X120290000Y-78458000D02*
X120290000Y-79982000D01*
X135272000Y-63330000D02*
X133748000Y-63330000D01*
X133748000Y-63330000D02*
X133748000Y-63838000D01*
X133748000Y-63330000D02*
X133748000Y-68410000D01*
X133748000Y-67648000D02*
X135272000Y-67648000D01*
X133748000Y-67775000D02*
X135272000Y-67775000D01*
X135272000Y-67902000D02*
X133748000Y-67902000D01*
X133748000Y-68029000D02*
X135272000Y-68029000D01*
X135272000Y-68156000D02*
X133748000Y-68156000D01*
X133748000Y-68283000D02*
X135272000Y-68283000D01*
X135272000Y-68410000D02*
X135272000Y-63330000D01*
X133748000Y-68410000D02*
X135272000Y-68410000D01*
X104470000Y-57292000D02*
X104470000Y-55768000D01*
X104470000Y-55768000D02*
X103962000Y-55768000D01*
X104470000Y-55768000D02*
X99390000Y-55768000D01*
X100152000Y-55768000D02*
X100152000Y-57292000D01*
X100025000Y-55768000D02*
X100025000Y-57292000D01*
X99898000Y-57292000D02*
X99898000Y-55768000D01*
X99771000Y-55768000D02*
X99771000Y-57292000D01*
X99644000Y-57292000D02*
X99644000Y-55768000D01*
X99517000Y-55768000D02*
X99517000Y-57292000D01*
X99390000Y-57292000D02*
X104470000Y-57292000D01*
X99390000Y-55768000D02*
X99390000Y-57292000D01*
X82500000Y-66000000D02*
X83500000Y-66000000D01*
X82500000Y-67000000D02*
X82500000Y-66000000D01*
X82500000Y-80000000D02*
X82500000Y-79000000D01*
X83500000Y-80000000D02*
X82500000Y-80000000D01*
X87500000Y-77200000D02*
X88000000Y-76700000D01*
X88000000Y-76700000D02*
X90500000Y-76700000D01*
X91500000Y-79700000D02*
X91500000Y-80500000D01*
X92000000Y-74500000D02*
X96500000Y-74500000D01*
X92000000Y-75200000D02*
X92000000Y-74500000D01*
X95500000Y-66000000D02*
X96500000Y-66000000D01*
X96500000Y-66000000D02*
X96500000Y-67000000D01*
X96500000Y-74500000D02*
X96500000Y-75000000D01*
X96500000Y-78600000D02*
X96500000Y-79200000D01*
X96500000Y-79000000D02*
X96500000Y-80000000D01*
X96500000Y-79200000D02*
X92000000Y-79200000D01*
X96500000Y-80000000D02*
X95500000Y-80000000D01*
X92000000Y-79200000D02*
G75*
G03*
X91500000Y-79700000I0J-500000D01*
G01*
X90500000Y-76700000D02*
G75*
G03*
X92000000Y-75200000I0J1500000D01*
G01*
X74610000Y-53748000D02*
X74610000Y-55272000D01*
X74610000Y-55272000D02*
X75118000Y-55272000D01*
X74610000Y-55272000D02*
X79690000Y-55272000D01*
X78928000Y-55272000D02*
X78928000Y-53748000D01*
X79055000Y-55272000D02*
X79055000Y-53748000D01*
X79182000Y-53748000D02*
X79182000Y-55272000D01*
X79309000Y-55272000D02*
X79309000Y-53748000D01*
X79436000Y-53748000D02*
X79436000Y-55272000D01*
X79563000Y-55272000D02*
X79563000Y-53748000D01*
X79690000Y-53748000D02*
X74610000Y-53748000D01*
X79690000Y-55272000D02*
X79690000Y-53748000D01*
X164064443Y-125188955D02*
X165044051Y-126356406D01*
X165044051Y-126356406D02*
X165433202Y-126029870D01*
X165044051Y-126356406D02*
X168935557Y-123091045D01*
X168351831Y-123580849D02*
X167372223Y-122413398D01*
X168449119Y-123499215D02*
X167469511Y-122331764D01*
X167566798Y-122250130D02*
X168546406Y-123417581D01*
X168643694Y-123335947D02*
X167664086Y-122168496D01*
X167761373Y-122086862D02*
X168740982Y-123254313D01*
X168838269Y-123172679D02*
X167858661Y-122005228D01*
X167955949Y-121923594D02*
X164064443Y-125188955D01*
X168935557Y-123091045D02*
X167955949Y-121923594D01*
X142707202Y-95898176D02*
X143473247Y-96540963D01*
X142064415Y-96664220D02*
X142707202Y-95898176D01*
X133708176Y-106622798D02*
X134350963Y-105856753D01*
X134474220Y-107265585D02*
X133708176Y-106622798D01*
X139338203Y-107691811D02*
X140042619Y-107630183D01*
X140042619Y-107630183D02*
X141957730Y-109237152D01*
X140795412Y-112178073D02*
X140281182Y-112790909D01*
X144520930Y-108516036D02*
X147968130Y-111408580D01*
X144070978Y-109052267D02*
X144520930Y-108516036D01*
X152665780Y-104254415D02*
X153431824Y-104897202D01*
X153431824Y-104897202D02*
X152789037Y-105663247D01*
X147968130Y-111408580D02*
X147646736Y-111791602D01*
X145332700Y-114549362D02*
X144947028Y-115008989D01*
X145075585Y-114855780D02*
X144432798Y-115621824D01*
X144947028Y-115008989D02*
X141499828Y-112116445D01*
X144432798Y-115621824D02*
X143666753Y-114979037D01*
X141499827Y-112116446D02*
G75*
G03*
X140795413Y-112178074I-321393J-383021D01*
G01*
X141957731Y-109237151D02*
G75*
G03*
X144070977Y-109052266I964181J1149066D01*
G01*
X158282798Y-109728176D02*
X158925585Y-110494220D01*
X157516753Y-110370963D02*
X158282798Y-109728176D01*
X147558176Y-118727202D02*
X148324220Y-118084415D01*
X148200963Y-119493247D02*
X147558176Y-118727202D01*
X152917038Y-120757619D02*
X153621454Y-120819247D01*
X153621454Y-120819247D02*
X155228423Y-122734359D01*
X153573077Y-125428766D02*
X152960242Y-125942996D01*
X157877902Y-122469293D02*
X160770447Y-125916493D01*
X157341671Y-122919244D02*
X157877902Y-122469293D01*
X166639037Y-119686753D02*
X167281824Y-120452798D01*
X167281824Y-120452798D02*
X166515780Y-121095585D01*
X160770447Y-125916493D02*
X160387424Y-126237886D01*
X157629664Y-128551922D02*
X157170038Y-128937594D01*
X157323247Y-128809037D02*
X156557202Y-129451824D01*
X157170038Y-128937594D02*
X154277493Y-125490394D01*
X156557202Y-129451824D02*
X155914415Y-128685780D01*
X154277492Y-125490395D02*
G75*
G03*
X153573078Y-125428767I-383021J-321393D01*
G01*
X155228424Y-122734358D02*
G75*
G03*
X157341670Y-122919243I1149066J964181D01*
G01*
D13*
X146293339Y-85335960D03*
D14*
X141279595Y-91311106D03*
D15*
X82230000Y-88740000D03*
D14*
X74430000Y-88740000D03*
D15*
X134580000Y-52930000D03*
D14*
X134580000Y-45130000D03*
D15*
X152470000Y-52090000D03*
D14*
X152470000Y-44290000D03*
D15*
X81040000Y-71570000D03*
D14*
X73240000Y-71570000D03*
D15*
X166259693Y-87806119D03*
D14*
X166259693Y-95606119D03*
D15*
X95230000Y-82210000D03*
D14*
X87430000Y-82210000D03*
D16*
X131717499Y-101180000D03*
D14*
X124962501Y-97280000D03*
D15*
X152170000Y-69440000D03*
D14*
X152170000Y-61640000D03*
D15*
X98870000Y-64640000D03*
D14*
X91070000Y-64640000D03*
D15*
X110880000Y-74600000D03*
D14*
X103080000Y-74600000D03*
D13*
X156266872Y-104992427D03*
D14*
X151253128Y-110967573D03*
D17*
X185017499Y-115810000D03*
D14*
X178262501Y-119710000D03*
D15*
X97950000Y-39620000D03*
D14*
X105750000Y-39620000D03*
D15*
X98820000Y-47430000D03*
D14*
X91020000Y-47430000D03*
D18*
X181617573Y-110583128D03*
D14*
X175642427Y-115596872D03*
D15*
X139655000Y-81755000D03*
D14*
X147455000Y-81755000D03*
D15*
X118930000Y-79220000D03*
D14*
X126730000Y-79220000D03*
D15*
X134510000Y-69770000D03*
D14*
X134510000Y-61970000D03*
D15*
X98030000Y-56530000D03*
D14*
X105830000Y-56530000D03*
D15*
X81050000Y-54510000D03*
D14*
X73250000Y-54510000D03*
D18*
X169487573Y-121633128D03*
D14*
X163512427Y-126646872D03*
%LPC*%
D19*
X66000000Y-80000000D03*
D20*
X66280000Y-75800000D03*
D21*
X71500000Y-80000000D03*
D22*
X71500000Y-85950000D03*
D20*
X76720000Y-75800000D03*
D19*
X77000000Y-80000000D03*
D23*
X66500000Y-83750000D03*
D24*
X68225000Y-85950000D03*
D23*
X76500000Y-83750000D03*
D24*
X79775000Y-83750000D03*
D19*
X180750000Y-122376860D03*
D20*
X184527307Y-120519347D03*
D21*
X183500000Y-127140000D03*
D22*
X178347149Y-130115000D03*
D20*
X189747307Y-129560653D03*
D19*
X186250000Y-131903140D03*
D23*
X177752405Y-124684873D03*
D25*
X176709649Y-127278767D03*
D23*
X182752405Y-133345127D03*
D25*
X184389905Y-136181360D03*
D26*
X168870000Y-87910000D03*
X168870000Y-94910000D03*
D27*
X144686370Y-87251071D03*
D13*
X146293339Y-85335960D03*
D14*
X141279595Y-91311106D03*
D27*
X142886564Y-89395995D03*
D19*
X138000000Y-38000000D03*
D20*
X138280000Y-33800000D03*
D21*
X143500000Y-38000000D03*
D22*
X143500000Y-43950000D03*
D20*
X148720000Y-33800000D03*
D19*
X149000000Y-38000000D03*
D23*
X138500000Y-41750000D03*
D24*
X140225000Y-43950000D03*
D23*
X148500000Y-41750000D03*
D24*
X151775000Y-41750000D03*
D28*
X79730000Y-88740000D03*
D15*
X82230000Y-88740000D03*
D14*
X74430000Y-88740000D03*
D28*
X76930000Y-88740000D03*
D29*
X179680000Y-137820000D03*
D19*
X102000000Y-31000000D03*
D20*
X102280000Y-26800000D03*
D21*
X107500000Y-31000000D03*
D22*
X107500000Y-36950000D03*
D20*
X112720000Y-26800000D03*
D19*
X113000000Y-31000000D03*
D23*
X102500000Y-34750000D03*
D24*
X104225000Y-36950000D03*
D23*
X112500000Y-34750000D03*
D24*
X115775000Y-34750000D03*
D30*
X134580000Y-50430000D03*
D15*
X134580000Y-52930000D03*
D14*
X134580000Y-45130000D03*
D30*
X134580000Y-47630000D03*
X152470000Y-49590000D03*
D15*
X152470000Y-52090000D03*
D14*
X152470000Y-44290000D03*
D30*
X152470000Y-46790000D03*
D19*
X150286756Y-89184668D03*
D20*
X153200956Y-86147262D03*
D21*
X154500000Y-92720000D03*
D22*
X150675414Y-97277964D03*
D20*
X161198460Y-92857965D03*
D19*
X158713244Y-96255332D03*
D23*
X148259324Y-92378729D03*
D31*
X148166618Y-95172835D03*
D23*
X155919769Y-98806605D03*
D31*
X158428564Y-100911734D03*
D28*
X78540000Y-71570000D03*
D15*
X81040000Y-71570000D03*
D14*
X73240000Y-71570000D03*
D28*
X75740000Y-71570000D03*
D30*
X166259693Y-90306119D03*
D15*
X166259693Y-87806119D03*
D14*
X166259693Y-95606119D03*
D30*
X166259693Y-93106119D03*
D19*
X166994668Y-104396756D03*
D20*
X170392035Y-101911540D03*
D21*
X170530000Y-108610000D03*
D22*
X165972036Y-112434586D03*
D20*
X177102738Y-109909044D03*
D19*
X174065332Y-112823244D03*
D23*
X164443395Y-107190231D03*
D32*
X163866906Y-109925791D03*
D23*
X170871271Y-114850676D03*
D32*
X172976401Y-117359471D03*
D19*
X84000000Y-56000000D03*
D20*
X84280000Y-51800000D03*
D21*
X89500000Y-56000000D03*
D22*
X89500000Y-61950000D03*
D20*
X94720000Y-51800000D03*
D19*
X95000000Y-56000000D03*
D23*
X84500000Y-59750000D03*
D24*
X86225000Y-61950000D03*
D23*
X94500000Y-59750000D03*
D24*
X97775000Y-59750000D03*
D28*
X92730000Y-82210000D03*
D15*
X95230000Y-82210000D03*
D14*
X87430000Y-82210000D03*
D28*
X89930000Y-82210000D03*
D33*
X129552436Y-99930000D03*
D16*
X131717499Y-101180000D03*
D14*
X124962501Y-97280000D03*
D33*
X127127564Y-98530000D03*
D19*
X138000000Y-72000000D03*
D20*
X138280000Y-67800000D03*
D21*
X143500000Y-72000000D03*
D22*
X143500000Y-77950000D03*
D20*
X148720000Y-67800000D03*
D19*
X149000000Y-72000000D03*
D23*
X138500000Y-75750000D03*
D24*
X140225000Y-77950000D03*
D23*
X148500000Y-75750000D03*
D24*
X151775000Y-75750000D03*
D30*
X152170000Y-66940000D03*
D15*
X152170000Y-69440000D03*
D14*
X152170000Y-61640000D03*
D30*
X152170000Y-64140000D03*
D29*
X153240000Y-32980000D03*
X63870000Y-71660000D03*
D19*
X165940000Y-130906860D03*
D20*
X169717307Y-129049347D03*
D21*
X168690000Y-135670000D03*
D22*
X163537149Y-138645000D03*
D20*
X174937307Y-138090653D03*
D19*
X171440000Y-140433140D03*
D23*
X162942405Y-133214873D03*
D25*
X161899649Y-135808767D03*
D23*
X167942405Y-141875127D03*
D25*
X169579905Y-144711360D03*
D29*
X173600000Y-97930000D03*
D28*
X96370000Y-64640000D03*
D15*
X98870000Y-64640000D03*
D14*
X91070000Y-64640000D03*
D28*
X93570000Y-64640000D03*
D19*
X102000000Y-48000000D03*
D20*
X102280000Y-43800000D03*
D21*
X107500000Y-48000000D03*
D22*
X107500000Y-53950000D03*
D20*
X112720000Y-43800000D03*
D19*
X113000000Y-48000000D03*
D23*
X102500000Y-51750000D03*
D24*
X104225000Y-53950000D03*
D23*
X112500000Y-51750000D03*
D24*
X115775000Y-51750000D03*
D19*
X102000000Y-65000000D03*
D20*
X102280000Y-60800000D03*
D21*
X107500000Y-65000000D03*
D22*
X107500000Y-70950000D03*
D20*
X112720000Y-60800000D03*
D19*
X113000000Y-65000000D03*
D23*
X102500000Y-68750000D03*
D24*
X104225000Y-70950000D03*
D23*
X112500000Y-68750000D03*
D24*
X115775000Y-68750000D03*
D28*
X108380000Y-74600000D03*
D15*
X110880000Y-74600000D03*
D14*
X103080000Y-74600000D03*
D28*
X105580000Y-74600000D03*
D27*
X154659903Y-106907538D03*
D13*
X156266872Y-104992427D03*
D14*
X151253128Y-110967573D03*
D27*
X152860097Y-109052462D03*
D19*
X66000000Y-63000000D03*
D20*
X66280000Y-58800000D03*
D21*
X71500000Y-63000000D03*
D22*
X71500000Y-68950000D03*
D20*
X76720000Y-58800000D03*
D19*
X77000000Y-63000000D03*
D23*
X66500000Y-66750000D03*
D24*
X68225000Y-68950000D03*
D23*
X76500000Y-66750000D03*
D24*
X79775000Y-66750000D03*
D19*
X138000000Y-55000000D03*
D20*
X138280000Y-50800000D03*
D21*
X143500000Y-55000000D03*
D22*
X143500000Y-60950000D03*
D20*
X148720000Y-50800000D03*
D19*
X149000000Y-55000000D03*
D23*
X138500000Y-58750000D03*
D24*
X140225000Y-60950000D03*
D23*
X148500000Y-58750000D03*
D24*
X151775000Y-58750000D03*
D19*
X120000000Y-52500000D03*
D20*
X120280000Y-48300000D03*
D21*
X125500000Y-52500000D03*
D22*
X125500000Y-58450000D03*
D20*
X130720000Y-48300000D03*
D19*
X131000000Y-52500000D03*
D23*
X120500000Y-56250000D03*
D24*
X122225000Y-58450000D03*
D23*
X130500000Y-56250000D03*
D24*
X133775000Y-56250000D03*
D34*
X182852436Y-117060000D03*
D17*
X185017499Y-115810000D03*
D14*
X178262501Y-119710000D03*
D34*
X180427564Y-118460000D03*
D35*
X172453600Y-47850000D03*
X172453600Y-50390000D03*
X172453600Y-52930000D03*
X172453600Y-55470000D03*
X172453600Y-58010000D03*
X172453600Y-60550000D03*
X172453600Y-63090000D03*
X172453600Y-65630000D03*
X172453600Y-68170000D03*
X172453600Y-70710000D03*
X172453600Y-73250000D03*
X172453600Y-75790000D03*
X157213600Y-75790000D03*
X157213600Y-73250000D03*
X157213600Y-70710000D03*
X157213600Y-68170000D03*
X157213600Y-65630000D03*
X157213600Y-63090000D03*
X157213600Y-60550000D03*
X157213600Y-58010000D03*
X157213600Y-55470000D03*
X157213600Y-52930000D03*
X157213600Y-50390000D03*
X157213600Y-47850000D03*
D19*
X120000000Y-69500000D03*
D20*
X120280000Y-65300000D03*
D21*
X125500000Y-69500000D03*
D22*
X125500000Y-75450000D03*
D20*
X130720000Y-65300000D03*
D19*
X131000000Y-69500000D03*
D23*
X120500000Y-73250000D03*
D24*
X122225000Y-75450000D03*
D23*
X130500000Y-73250000D03*
D24*
X133775000Y-73250000D03*
D29*
X83930000Y-82990000D03*
D36*
X171620000Y-82380000D03*
X164620000Y-82380000D03*
D37*
X161920000Y-80080000D03*
X163020000Y-84680000D03*
X167020000Y-84680000D03*
X170020000Y-84680000D03*
D28*
X100450000Y-39620000D03*
D15*
X97950000Y-39620000D03*
D14*
X105750000Y-39620000D03*
D28*
X103250000Y-39620000D03*
D19*
X126553720Y-87250000D03*
D20*
X128896207Y-83752693D03*
D21*
X131316860Y-90000000D03*
D22*
X128341860Y-95152851D03*
D20*
X137937513Y-88972693D03*
D19*
X136080000Y-92750000D03*
D23*
X125111733Y-90747595D03*
D38*
X125505627Y-93515351D03*
D23*
X133771987Y-95747595D03*
D38*
X136608220Y-97385095D03*
D28*
X96320000Y-47430000D03*
D15*
X98820000Y-47430000D03*
D14*
X91020000Y-47430000D03*
D28*
X93520000Y-47430000D03*
D39*
X179702462Y-112190097D03*
D18*
X181617573Y-110583128D03*
D14*
X175642427Y-115596872D03*
D39*
X177557538Y-113989903D03*
D19*
X84000000Y-39000000D03*
D20*
X84280000Y-34800000D03*
D21*
X89500000Y-39000000D03*
D22*
X89500000Y-44950000D03*
D20*
X94720000Y-34800000D03*
D19*
X95000000Y-39000000D03*
D23*
X84500000Y-42750000D03*
D24*
X86225000Y-44950000D03*
D23*
X94500000Y-42750000D03*
D24*
X97775000Y-42750000D03*
D19*
X66000000Y-46000000D03*
D20*
X66280000Y-41800000D03*
D21*
X71500000Y-46000000D03*
D22*
X71500000Y-51950000D03*
D20*
X76720000Y-41800000D03*
D19*
X77000000Y-46000000D03*
D23*
X66500000Y-49750000D03*
D24*
X68225000Y-51950000D03*
D23*
X76500000Y-49750000D03*
D24*
X79775000Y-49750000D03*
D28*
X142155000Y-81755000D03*
D15*
X139655000Y-81755000D03*
D14*
X147455000Y-81755000D03*
D28*
X144955000Y-81755000D03*
D19*
X120000000Y-35500000D03*
D20*
X120280000Y-31300000D03*
D21*
X125500000Y-35500000D03*
D22*
X125500000Y-41450000D03*
D20*
X130720000Y-31300000D03*
D19*
X131000000Y-35500000D03*
D23*
X120500000Y-39250000D03*
D24*
X122225000Y-41450000D03*
D23*
X130500000Y-39250000D03*
D24*
X133775000Y-39250000D03*
D28*
X121430000Y-79220000D03*
D15*
X118930000Y-79220000D03*
D14*
X126730000Y-79220000D03*
D28*
X124230000Y-79220000D03*
D30*
X134510000Y-67270000D03*
D15*
X134510000Y-69770000D03*
D14*
X134510000Y-61970000D03*
D30*
X134510000Y-64470000D03*
D28*
X100530000Y-56530000D03*
D15*
X98030000Y-56530000D03*
D14*
X105830000Y-56530000D03*
D28*
X103330000Y-56530000D03*
D19*
X84000000Y-73000000D03*
D20*
X84280000Y-68800000D03*
D21*
X89500000Y-73000000D03*
D22*
X89500000Y-78950000D03*
D20*
X94720000Y-68800000D03*
D19*
X95000000Y-73000000D03*
D23*
X84500000Y-76750000D03*
D24*
X86225000Y-78950000D03*
D23*
X94500000Y-76750000D03*
D24*
X97775000Y-76750000D03*
D28*
X78550000Y-54510000D03*
D15*
X81050000Y-54510000D03*
D14*
X73250000Y-54510000D03*
D28*
X75750000Y-54510000D03*
D39*
X167572462Y-123240097D03*
D18*
X169487573Y-121633128D03*
D14*
X163512427Y-126646872D03*
D39*
X165427538Y-125039903D03*
D29*
X63800000Y-40050000D03*
D19*
X139356756Y-102224668D03*
D20*
X142270956Y-99187262D03*
D21*
X143570000Y-105760000D03*
D22*
X139745414Y-110317964D03*
D20*
X150268460Y-105897965D03*
D19*
X147783244Y-109295332D03*
D23*
X137329324Y-105418729D03*
D31*
X137236618Y-108212835D03*
D23*
X144989769Y-111846605D03*
D31*
X147498564Y-113951734D03*
D19*
X153884668Y-115376756D03*
D20*
X157282035Y-112891540D03*
D21*
X157420000Y-119590000D03*
D22*
X152862036Y-123414586D03*
D20*
X163992738Y-120889044D03*
D19*
X160955332Y-123803244D03*
D23*
X151333395Y-118170231D03*
D32*
X150756906Y-120905791D03*
D23*
X157761271Y-125830676D03*
D32*
X159866401Y-128339471D03*
D36*
X164619997Y-80379999D03*
X171619997Y-80379999D03*
D37*
X161919997Y-82679999D03*
X163019997Y-78079999D03*
X167019997Y-78079999D03*
X170019997Y-78079999D03*
D40*
X79500000Y-37500000D02*
G75*
G03*
X80500000Y-36500000I0J1000000D01*
G01*
X61238061Y-88001939D02*
X61257107Y-38497107D01*
X174872893Y-42710000D02*
X157452107Y-42742893D01*
X195149465Y-131707616D02*
X166560366Y-148228728D01*
X155952107Y-41242893D02*
G75*
G03*
X157452107Y-42742893I1499993J-7D01*
G01*
X175872893Y-43710000D02*
X175880000Y-96460000D01*
X144380000Y-118530000D02*
X112830000Y-90550000D01*
X80500000Y-31500000D02*
X80500000Y-36500000D01*
X79500000Y-37500000D02*
X62257107Y-37497107D01*
X81500000Y-30500000D02*
G75*
G03*
X80500000Y-31500000I0J-1000000D01*
G01*
X195633153Y-130378690D02*
X175880000Y-96460000D01*
X133500000Y-27000000D02*
X117500000Y-27000000D01*
X112169983Y-90289083D02*
X63498061Y-90261939D01*
X116500000Y-23500000D02*
G75*
G03*
X115500000Y-22500000I-1000000J0D01*
G01*
X134500000Y-28500000D02*
G75*
G03*
X135500000Y-29500000I1000000J0D01*
G01*
X134500000Y-28500000D02*
X134500000Y-28000000D01*
X155952107Y-41242893D02*
X155987893Y-31477107D01*
X116500000Y-26000000D02*
X116500000Y-23500000D01*
X97500000Y-30500000D02*
X81500000Y-30500000D01*
X62257107Y-37497107D02*
G75*
G03*
X61257107Y-38497107I-7J-999993D01*
G01*
X134500000Y-28000000D02*
G75*
G03*
X133500000Y-27000000I-1000000J0D01*
G01*
X164471273Y-147860366D02*
G75*
G03*
X166560366Y-148228727I1228727J860366D01*
G01*
X155890000Y-132490000D02*
X164471272Y-147860366D01*
X115500000Y-22500000D02*
X99500000Y-22500000D01*
X112829999Y-90550001D02*
G75*
G03*
X112169983Y-90289084I-643599J-662799D01*
G01*
X144380000Y-118530000D02*
X155890000Y-132490000D01*
X195149469Y-131707625D02*
G75*
G03*
X195633153Y-130378690I-422669J906325D01*
G01*
X155987893Y-31477107D02*
G75*
G03*
X153987893Y-29477107I-1999993J7D01*
G01*
X153987893Y-29477107D02*
X135500000Y-29500000D01*
X116500000Y-26000000D02*
G75*
G03*
X117500000Y-27000000I1000000J0D01*
G01*
X175872900Y-43710000D02*
G75*
G03*
X174872893Y-42710000I-1000000J0D01*
G01*
X61238061Y-88001939D02*
G75*
G03*
X63498061Y-90261939I2260039J39D01*
G01*
X98500000Y-23500000D02*
X98500000Y-29500000D01*
X97500000Y-30500000D02*
G75*
G03*
X98500000Y-29500000I0J1000000D01*
G01*
X99500000Y-22500000D02*
G75*
G03*
X98500000Y-23500000I0J-1000000D01*
G01*
M02*
