%TF.GenerationSoftware,KiCad,Pcbnew,7.0.1-0*%
%TF.CreationDate,2023-07-03T15:42:27+02:00*%
%TF.ProjectId,helicoprion,68656c69-636f-4707-9269-6f6e2e6b6963,rev?*%
%TF.SameCoordinates,Original*%
%TF.FileFunction,Drillmap*%
%TF.FilePolarity,Positive*%
%FSLAX45Y45*%
G04 Gerber Fmt 4.5, Leading zero omitted, Abs format (unit mm)*
G04 Created by KiCad (PCBNEW 7.0.1-0) date 2023-07-03 15:42:27*
%MOMM*%
%LPD*%
G01*
G04 APERTURE LIST*
%ADD10C,0.100000*%
%ADD11C,0.200000*%
%ADD12C,0.040000*%
%ADD13C,0.081280*%
%ADD14C,0.090000*%
%ADD15C,0.130000*%
%ADD16C,0.300000*%
G04 APERTURE END LIST*
D10*
X7950000Y-3750000D02*
G75*
G03*
X8050000Y-3650000I0J100000D01*
G01*
X6123806Y-8800194D02*
X6125711Y-3849711D01*
X17487289Y-4271000D02*
X15745211Y-4274289D01*
X19514947Y-13170762D02*
X16656037Y-14822873D01*
X15595211Y-4124289D02*
G75*
G03*
X15745211Y-4274289I149999J-1D01*
G01*
X17587289Y-4371000D02*
X17588000Y-9646000D01*
X14438000Y-11853000D02*
X11283000Y-9055000D01*
X8050000Y-3150000D02*
X8050000Y-3650000D01*
X7950000Y-3750000D02*
X6225711Y-3749711D01*
X8150000Y-3050000D02*
G75*
G03*
X8050000Y-3150000I0J-100000D01*
G01*
X19563315Y-13037869D02*
X17588000Y-9646000D01*
X13350000Y-2700000D02*
X11750000Y-2700000D01*
X11216998Y-9028908D02*
X6349806Y-9026194D01*
X11650000Y-2350000D02*
G75*
G03*
X11550000Y-2250000I-100000J0D01*
G01*
X13450000Y-2850000D02*
G75*
G03*
X13550000Y-2950000I100000J0D01*
G01*
X13450000Y-2850000D02*
X13450000Y-2800000D01*
X15595211Y-4124289D02*
X15598789Y-3147711D01*
X11650000Y-2600000D02*
X11650000Y-2350000D01*
X9750000Y-3050000D02*
X8150000Y-3050000D01*
X6225711Y-3749711D02*
G75*
G03*
X6125711Y-3849711I-1J-99999D01*
G01*
X13450000Y-2800000D02*
G75*
G03*
X13350000Y-2700000I-100000J0D01*
G01*
X16447127Y-14786037D02*
G75*
G03*
X16656037Y-14822873I122873J86037D01*
G01*
X15589000Y-13249000D02*
X16447127Y-14786037D01*
X11550000Y-2250000D02*
X9950000Y-2250000D01*
X11283000Y-9055000D02*
G75*
G03*
X11216998Y-9028908I-64360J-66280D01*
G01*
X14438000Y-11853000D02*
X15589000Y-13249000D01*
X19514947Y-13170762D02*
G75*
G03*
X19563315Y-13037869I-42267J90633D01*
G01*
X15598789Y-3147711D02*
G75*
G03*
X15398789Y-2947711I-199999J1D01*
G01*
X15398789Y-2947711D02*
X13550000Y-2950000D01*
X11650000Y-2600000D02*
G75*
G03*
X11750000Y-2700000I100000J0D01*
G01*
X17587290Y-4371000D02*
G75*
G03*
X17487289Y-4271000I-100000J0D01*
G01*
X6123806Y-8800194D02*
G75*
G03*
X6349806Y-9026194I226004J4D01*
G01*
X9850000Y-2350000D02*
X9850000Y-2950000D01*
X9750000Y-3050000D02*
G75*
G03*
X9850000Y-2950000I0J100000D01*
G01*
X9950000Y-2250000D02*
G75*
G03*
X9850000Y-2350000I0J-100000D01*
G01*
D11*
D12*
X6617000Y-5672000D02*
X6657000Y-5712000D01*
X6657000Y-5672000D02*
X6617000Y-5712000D01*
X7516000Y-7424000D02*
X7556000Y-7464000D01*
X7556000Y-7424000D02*
X7516000Y-7464000D01*
X7954000Y-6453000D02*
X7994000Y-6493000D01*
X7994000Y-6453000D02*
X7954000Y-6493000D01*
X7956000Y-8118000D02*
X7996000Y-8158000D01*
X7996000Y-8118000D02*
X7956000Y-8158000D01*
X7960000Y-4711000D02*
X8000000Y-4751000D01*
X8000000Y-4711000D02*
X7960000Y-4751000D01*
X8517000Y-4971000D02*
X8557000Y-5011000D01*
X8557000Y-4971000D02*
X8517000Y-5011000D01*
X9611000Y-5738000D02*
X9651000Y-5778000D01*
X9651000Y-5738000D02*
X9611000Y-5778000D01*
X9615000Y-4027000D02*
X9655000Y-4067000D01*
X9655000Y-4027000D02*
X9615000Y-4067000D01*
X9777000Y-7422000D02*
X9817000Y-7462000D01*
X9817000Y-7422000D02*
X9777000Y-7462000D01*
X10115000Y-7103000D02*
X10155000Y-7143000D01*
X10155000Y-7103000D02*
X10115000Y-7143000D01*
X11153000Y-5875000D02*
X11193000Y-5915000D01*
X11193000Y-5875000D02*
X11153000Y-5915000D01*
X11554000Y-3215000D02*
X11594000Y-3255000D01*
X11594000Y-3215000D02*
X11554000Y-3255000D01*
X11558000Y-4955000D02*
X11598000Y-4995000D01*
X11598000Y-4955000D02*
X11558000Y-4995000D01*
X11562000Y-6629000D02*
X11602000Y-6669000D01*
X11602000Y-6629000D02*
X11562000Y-6669000D01*
X12153000Y-4961000D02*
X12193000Y-5001000D01*
X12193000Y-4961000D02*
X12153000Y-5001000D01*
X12329568Y-8612432D02*
X12369568Y-8652432D01*
X12369568Y-8612432D02*
X12329568Y-8652432D01*
X12834000Y-8531000D02*
X12874000Y-8571000D01*
X12874000Y-8531000D02*
X12834000Y-8571000D01*
X12846000Y-6098000D02*
X12886000Y-6138000D01*
X12886000Y-6098000D02*
X12846000Y-6138000D01*
X12862000Y-4378000D02*
X12902000Y-4418000D01*
X12902000Y-4378000D02*
X12862000Y-4418000D01*
X13163000Y-7563000D02*
X13203000Y-7603000D01*
X13203000Y-7563000D02*
X13163000Y-7603000D01*
X13267000Y-5397000D02*
X13307000Y-5437000D01*
X13307000Y-5397000D02*
X13267000Y-5437000D01*
X13268000Y-7067000D02*
X13308000Y-7107000D01*
X13308000Y-7067000D02*
X13268000Y-7107000D01*
X13351000Y-3683000D02*
X13391000Y-3723000D01*
X13391000Y-3683000D02*
X13351000Y-3723000D01*
X13636000Y-10183000D02*
X13676000Y-10223000D01*
X13676000Y-10183000D02*
X13636000Y-10223000D01*
X14324000Y-10940000D02*
X14364000Y-10980000D01*
X14364000Y-10940000D02*
X14324000Y-10980000D01*
X14652000Y-4637000D02*
X14692000Y-4677000D01*
X14692000Y-4637000D02*
X14652000Y-4677000D01*
X14665000Y-6336000D02*
X14705000Y-6376000D01*
X14705000Y-6336000D02*
X14665000Y-6376000D01*
X14702000Y-8850000D02*
X14742000Y-8890000D01*
X14742000Y-8850000D02*
X14702000Y-8890000D01*
X15098000Y-11439000D02*
X15138000Y-11479000D01*
X15138000Y-11439000D02*
X15098000Y-11479000D01*
X15141000Y-3941000D02*
X15181000Y-3981000D01*
X15181000Y-3941000D02*
X15141000Y-3981000D01*
X15142000Y-5625000D02*
X15182000Y-5665000D01*
X15182000Y-5625000D02*
X15142000Y-5665000D01*
X15153000Y-7336000D02*
X15193000Y-7376000D01*
X15193000Y-7336000D02*
X15153000Y-7376000D01*
X15388000Y-9665000D02*
X15428000Y-9705000D01*
X15428000Y-9665000D02*
X15388000Y-9705000D01*
X15583000Y-12304000D02*
X15623000Y-12344000D01*
X15623000Y-12304000D02*
X15583000Y-12344000D01*
X16302000Y-12983000D02*
X16342000Y-13023000D01*
X16342000Y-12983000D02*
X16302000Y-13023000D01*
X16370000Y-10276000D02*
X16410000Y-10316000D01*
X16410000Y-10276000D02*
X16370000Y-10316000D01*
X16564000Y-8127000D02*
X16604000Y-8167000D01*
X16604000Y-8127000D02*
X16564000Y-8167000D01*
X16566000Y-10919000D02*
X16606000Y-10959000D01*
X16606000Y-10919000D02*
X16566000Y-10959000D01*
X16600000Y-13847000D02*
X16640000Y-13887000D01*
X16640000Y-13847000D02*
X16600000Y-13887000D01*
X16786205Y-6542205D02*
X16826205Y-6582205D01*
X16826205Y-6542205D02*
X16786205Y-6582205D01*
X16798000Y-6272000D02*
X16838000Y-6312000D01*
X16838000Y-6272000D02*
X16798000Y-6312000D01*
X17439000Y-13595000D02*
X17479000Y-13635000D01*
X17479000Y-13595000D02*
X17439000Y-13635000D01*
X17723000Y-11750000D02*
X17763000Y-11790000D01*
X17763000Y-11750000D02*
X17723000Y-11790000D01*
X17796000Y-12137000D02*
X17836000Y-12177000D01*
X17836000Y-12137000D02*
X17796000Y-12177000D01*
X18037000Y-12977000D02*
X18077000Y-13017000D01*
X18077000Y-12977000D02*
X18037000Y-13017000D01*
D13*
X15762000Y-4785000D02*
G75*
G03*
X15762000Y-4785000I-40640J0D01*
G01*
X15762000Y-5039000D02*
G75*
G03*
X15762000Y-5039000I-40640J0D01*
G01*
X15762000Y-5293000D02*
G75*
G03*
X15762000Y-5293000I-40640J0D01*
G01*
X15762000Y-5547000D02*
G75*
G03*
X15762000Y-5547000I-40640J0D01*
G01*
X15762000Y-5801000D02*
G75*
G03*
X15762000Y-5801000I-40640J0D01*
G01*
X15762000Y-6055000D02*
G75*
G03*
X15762000Y-6055000I-40640J0D01*
G01*
X15762000Y-6309000D02*
G75*
G03*
X15762000Y-6309000I-40640J0D01*
G01*
X15762000Y-6563000D02*
G75*
G03*
X15762000Y-6563000I-40640J0D01*
G01*
X15762000Y-6817000D02*
G75*
G03*
X15762000Y-6817000I-40640J0D01*
G01*
X15762000Y-7071000D02*
G75*
G03*
X15762000Y-7071000I-40640J0D01*
G01*
X15762000Y-7325000D02*
G75*
G03*
X15762000Y-7325000I-40640J0D01*
G01*
X15762000Y-7579000D02*
G75*
G03*
X15762000Y-7579000I-40640J0D01*
G01*
X15894640Y-4658000D02*
G75*
G03*
X15894640Y-4658000I-40640J0D01*
G01*
X15894640Y-4912000D02*
G75*
G03*
X15894640Y-4912000I-40640J0D01*
G01*
X15894640Y-5166000D02*
G75*
G03*
X15894640Y-5166000I-40640J0D01*
G01*
X15894640Y-5420000D02*
G75*
G03*
X15894640Y-5420000I-40640J0D01*
G01*
X15894640Y-5674000D02*
G75*
G03*
X15894640Y-5674000I-40640J0D01*
G01*
X15894640Y-5928000D02*
G75*
G03*
X15894640Y-5928000I-40640J0D01*
G01*
X15894640Y-6182000D02*
G75*
G03*
X15894640Y-6182000I-40640J0D01*
G01*
X15894640Y-6436000D02*
G75*
G03*
X15894640Y-6436000I-40640J0D01*
G01*
X15894640Y-6690000D02*
G75*
G03*
X15894640Y-6690000I-40640J0D01*
G01*
X15894640Y-6944000D02*
G75*
G03*
X15894640Y-6944000I-40640J0D01*
G01*
X15894640Y-7198000D02*
G75*
G03*
X15894640Y-7198000I-40640J0D01*
G01*
X15894640Y-7452000D02*
G75*
G03*
X15894640Y-7452000I-40640J0D01*
G01*
X17286000Y-4785000D02*
G75*
G03*
X17286000Y-4785000I-40640J0D01*
G01*
X17286000Y-5039000D02*
G75*
G03*
X17286000Y-5039000I-40640J0D01*
G01*
X17286000Y-5293000D02*
G75*
G03*
X17286000Y-5293000I-40640J0D01*
G01*
X17286000Y-5547000D02*
G75*
G03*
X17286000Y-5547000I-40640J0D01*
G01*
X17286000Y-5801000D02*
G75*
G03*
X17286000Y-5801000I-40640J0D01*
G01*
X17286000Y-6055000D02*
G75*
G03*
X17286000Y-6055000I-40640J0D01*
G01*
X17286000Y-6309000D02*
G75*
G03*
X17286000Y-6309000I-40640J0D01*
G01*
X17286000Y-6563000D02*
G75*
G03*
X17286000Y-6563000I-40640J0D01*
G01*
X17286000Y-6817000D02*
G75*
G03*
X17286000Y-6817000I-40640J0D01*
G01*
X17286000Y-7071000D02*
G75*
G03*
X17286000Y-7071000I-40640J0D01*
G01*
X17286000Y-7325000D02*
G75*
G03*
X17286000Y-7325000I-40640J0D01*
G01*
X17286000Y-7579000D02*
G75*
G03*
X17286000Y-7579000I-40640J0D01*
G01*
X17416640Y-4658000D02*
G75*
G03*
X17416640Y-4658000I-40640J0D01*
G01*
X17416640Y-4912000D02*
G75*
G03*
X17416640Y-4912000I-40640J0D01*
G01*
X17416640Y-5166000D02*
G75*
G03*
X17416640Y-5166000I-40640J0D01*
G01*
X17416640Y-5420000D02*
G75*
G03*
X17416640Y-5420000I-40640J0D01*
G01*
X17416640Y-5674000D02*
G75*
G03*
X17416640Y-5674000I-40640J0D01*
G01*
X17416640Y-5928000D02*
G75*
G03*
X17416640Y-5928000I-40640J0D01*
G01*
X17416640Y-6182000D02*
G75*
G03*
X17416640Y-6182000I-40640J0D01*
G01*
X17416640Y-6436000D02*
G75*
G03*
X17416640Y-6436000I-40640J0D01*
G01*
X17416640Y-6690000D02*
G75*
G03*
X17416640Y-6690000I-40640J0D01*
G01*
X17416640Y-6944000D02*
G75*
G03*
X17416640Y-6944000I-40640J0D01*
G01*
X17416640Y-7198000D02*
G75*
G03*
X17416640Y-7198000I-40640J0D01*
G01*
X17416640Y-7452000D02*
G75*
G03*
X17416640Y-7452000I-40640J0D01*
G01*
D14*
X16192000Y-8223000D02*
X16192000Y-8313000D01*
X16147000Y-8268000D02*
X16237000Y-8268000D01*
D11*
X16172000Y-8313000D02*
X16212000Y-8313000D01*
X16212000Y-8313000D02*
G75*
G03*
X16212000Y-8223000I0J45000D01*
G01*
X16212000Y-8223000D02*
X16172000Y-8223000D01*
X16172000Y-8223000D02*
G75*
G03*
X16172000Y-8313000I0J-45000D01*
G01*
D14*
X16192000Y-7963000D02*
X16192000Y-8053000D01*
X16147000Y-8008000D02*
X16237000Y-8008000D01*
D11*
X16212000Y-7963000D02*
X16172000Y-7963000D01*
X16172000Y-7963000D02*
G75*
G03*
X16172000Y-8053000I0J-45000D01*
G01*
X16172000Y-8053000D02*
X16212000Y-8053000D01*
X16212000Y-8053000D02*
G75*
G03*
X16212000Y-7963000I0J45000D01*
G01*
D14*
X16302000Y-7763000D02*
X16302000Y-7853000D01*
X16257000Y-7808000D02*
X16347000Y-7808000D01*
D11*
X16282000Y-7853000D02*
X16322000Y-7853000D01*
X16322000Y-7853000D02*
G75*
G03*
X16322000Y-7763000I0J45000D01*
G01*
X16322000Y-7763000D02*
X16282000Y-7763000D01*
X16282000Y-7763000D02*
G75*
G03*
X16282000Y-7853000I0J-45000D01*
G01*
D14*
X16302000Y-8423000D02*
X16302000Y-8513000D01*
X16257000Y-8468000D02*
X16347000Y-8468000D01*
D11*
X16322000Y-8423000D02*
X16282000Y-8423000D01*
X16282000Y-8423000D02*
G75*
G03*
X16282000Y-8513000I0J-45000D01*
G01*
X16282000Y-8513000D02*
X16322000Y-8513000D01*
X16322000Y-8513000D02*
G75*
G03*
X16322000Y-8423000I0J45000D01*
G01*
D14*
X16702000Y-7763000D02*
X16702000Y-7853000D01*
X16657000Y-7808000D02*
X16747000Y-7808000D01*
D11*
X16682000Y-7853000D02*
X16722000Y-7853000D01*
X16722000Y-7853000D02*
G75*
G03*
X16722000Y-7763000I0J45000D01*
G01*
X16722000Y-7763000D02*
X16682000Y-7763000D01*
X16682000Y-7763000D02*
G75*
G03*
X16682000Y-7853000I0J-45000D01*
G01*
D14*
X16702000Y-8423000D02*
X16702000Y-8513000D01*
X16657000Y-8468000D02*
X16747000Y-8468000D01*
D11*
X16722000Y-8423000D02*
X16682000Y-8423000D01*
X16682000Y-8423000D02*
G75*
G03*
X16682000Y-8513000I0J-45000D01*
G01*
X16682000Y-8513000D02*
X16722000Y-8513000D01*
X16722000Y-8513000D02*
G75*
G03*
X16722000Y-8423000I0J45000D01*
G01*
D14*
X17002000Y-7763000D02*
X17002000Y-7853000D01*
X16957000Y-7808000D02*
X17047000Y-7808000D01*
D11*
X16982000Y-7853000D02*
X17022000Y-7853000D01*
X17022000Y-7853000D02*
G75*
G03*
X17022000Y-7763000I0J45000D01*
G01*
X17022000Y-7763000D02*
X16982000Y-7763000D01*
X16982000Y-7763000D02*
G75*
G03*
X16982000Y-7853000I0J-45000D01*
G01*
D14*
X17002000Y-8423000D02*
X17002000Y-8513000D01*
X16957000Y-8468000D02*
X17047000Y-8468000D01*
D11*
X17022000Y-8423000D02*
X16982000Y-8423000D01*
X16982000Y-8423000D02*
G75*
G03*
X16982000Y-8513000I0J-45000D01*
G01*
X16982000Y-8513000D02*
X17022000Y-8513000D01*
X17022000Y-8513000D02*
G75*
G03*
X17022000Y-8423000I0J45000D01*
G01*
D10*
X7359356Y-7192356D02*
X7359356Y-7121644D01*
X7288644Y-7121644D01*
X7288644Y-7192356D01*
X7359356Y-7192356D01*
X7360356Y-5486356D02*
X7360356Y-5415644D01*
X7289644Y-5415644D01*
X7289644Y-5486356D01*
X7360356Y-5486356D01*
X7478356Y-8909356D02*
X7478356Y-8838644D01*
X7407644Y-8838644D01*
X7407644Y-8909356D01*
X7478356Y-8909356D01*
X8139356Y-7192356D02*
X8139356Y-7121644D01*
X8068644Y-7121644D01*
X8068644Y-7192356D01*
X8139356Y-7192356D01*
X8140356Y-5486356D02*
X8140356Y-5415644D01*
X8069644Y-5415644D01*
X8069644Y-5486356D01*
X8140356Y-5486356D01*
X8258356Y-8909356D02*
X8258356Y-8838644D01*
X8187644Y-8838644D01*
X8187644Y-8909356D01*
X8258356Y-8909356D01*
X8778356Y-8256356D02*
X8778356Y-8185644D01*
X8707644Y-8185644D01*
X8707644Y-8256356D01*
X8778356Y-8256356D01*
X9137356Y-4778356D02*
X9137356Y-4707644D01*
X9066644Y-4707644D01*
X9066644Y-4778356D01*
X9137356Y-4778356D01*
X9142356Y-6499356D02*
X9142356Y-6428644D01*
X9071644Y-6428644D01*
X9071644Y-6499356D01*
X9142356Y-6499356D01*
X9558356Y-8256356D02*
X9558356Y-8185644D01*
X9487644Y-8185644D01*
X9487644Y-8256356D01*
X9558356Y-8256356D01*
X9830356Y-3997356D02*
X9830356Y-3926644D01*
X9759644Y-3926644D01*
X9759644Y-3997356D01*
X9830356Y-3997356D01*
X9838356Y-5688356D02*
X9838356Y-5617644D01*
X9767644Y-5617644D01*
X9767644Y-5688356D01*
X9838356Y-5688356D01*
X9917356Y-4778356D02*
X9917356Y-4707644D01*
X9846644Y-4707644D01*
X9846644Y-4778356D01*
X9917356Y-4778356D01*
X9922356Y-6499356D02*
X9922356Y-6428644D01*
X9851644Y-6428644D01*
X9851644Y-6499356D01*
X9922356Y-6499356D01*
X10343356Y-7495356D02*
X10343356Y-7424644D01*
X10272644Y-7424644D01*
X10272644Y-7495356D01*
X10343356Y-7495356D01*
X10610356Y-3997356D02*
X10610356Y-3926644D01*
X10539644Y-3926644D01*
X10539644Y-3997356D01*
X10610356Y-3997356D01*
X10618356Y-5688356D02*
X10618356Y-5617644D01*
X10547644Y-5617644D01*
X10547644Y-5688356D01*
X10618356Y-5688356D01*
X11123356Y-7495356D02*
X11123356Y-7424644D01*
X11052644Y-7424644D01*
X11052644Y-7495356D01*
X11123356Y-7495356D01*
X11928356Y-7957356D02*
X11928356Y-7886644D01*
X11857644Y-7886644D01*
X11857644Y-7957356D01*
X11928356Y-7957356D01*
X12531606Y-9763356D02*
X12531606Y-9692644D01*
X12460894Y-9692644D01*
X12460894Y-9763356D01*
X12531606Y-9763356D01*
X12708356Y-7957356D02*
X12708356Y-7886644D01*
X12637644Y-7886644D01*
X12637644Y-7957356D01*
X12708356Y-7957356D01*
X13207106Y-10153356D02*
X13207106Y-10082644D01*
X13136394Y-10082644D01*
X13136394Y-10153356D01*
X13207106Y-10153356D01*
X13486356Y-6232356D02*
X13486356Y-6161644D01*
X13415644Y-6161644D01*
X13415644Y-6232356D01*
X13486356Y-6232356D01*
X13486356Y-7012356D02*
X13486356Y-6941644D01*
X13415644Y-6941644D01*
X13415644Y-7012356D01*
X13486356Y-7012356D01*
X13493356Y-4548356D02*
X13493356Y-4477644D01*
X13422644Y-4477644D01*
X13422644Y-4548356D01*
X13493356Y-4548356D01*
X13493356Y-5328356D02*
X13493356Y-5257644D01*
X13422644Y-5257644D01*
X13422644Y-5328356D01*
X13493356Y-5328356D01*
X14000856Y-8210856D02*
X14000856Y-8140144D01*
X13930144Y-8140144D01*
X13930144Y-8210856D01*
X14000856Y-8210856D01*
X14163315Y-9166466D02*
X14163315Y-9095755D01*
X14092604Y-9095755D01*
X14092604Y-9166466D01*
X14163315Y-9166466D01*
X14664690Y-8568952D02*
X14664690Y-8498240D01*
X14593978Y-8498240D01*
X14593978Y-8568952D01*
X14664690Y-8568952D01*
X14780856Y-8210856D02*
X14780856Y-8140144D01*
X14710144Y-8140144D01*
X14710144Y-8210856D01*
X14780856Y-8210856D01*
X15160668Y-11132113D02*
X15160668Y-11061402D01*
X15089957Y-11061402D01*
X15089957Y-11132113D01*
X15160668Y-11132113D01*
X15252356Y-6199356D02*
X15252356Y-6128644D01*
X15181644Y-6128644D01*
X15181644Y-6199356D01*
X15252356Y-6199356D01*
X15252356Y-6979356D02*
X15252356Y-6908644D01*
X15181644Y-6908644D01*
X15181644Y-6979356D01*
X15252356Y-6979356D01*
X15282356Y-4464356D02*
X15282356Y-4393644D01*
X15211644Y-4393644D01*
X15211644Y-4464356D01*
X15282356Y-4464356D01*
X15282356Y-5244356D02*
X15282356Y-5173644D01*
X15211644Y-5173644D01*
X15211644Y-5244356D01*
X15282356Y-5244356D01*
X15662043Y-10534598D02*
X15662043Y-10463887D01*
X15591331Y-10463887D01*
X15591331Y-10534598D01*
X15662043Y-10534598D01*
X16386598Y-12700043D02*
X16386598Y-12629331D01*
X16315887Y-12629331D01*
X16315887Y-12700043D01*
X16386598Y-12700043D01*
X16661325Y-8815968D02*
X16661325Y-8745256D01*
X16590614Y-8745256D01*
X16590614Y-8815968D01*
X16661325Y-8815968D01*
X16661325Y-9595968D02*
X16661325Y-9525256D01*
X16590614Y-9525256D01*
X16590614Y-9595968D01*
X16661325Y-9595968D01*
X16984113Y-12198668D02*
X16984113Y-12127957D01*
X16913402Y-12127957D01*
X16913402Y-12198668D01*
X16984113Y-12198668D01*
X17172356Y-8926356D02*
X17172356Y-8855644D01*
X17101644Y-8855644D01*
X17101644Y-8926356D01*
X17172356Y-8926356D01*
X17172356Y-9426356D02*
X17172356Y-9355644D01*
X17101644Y-9355644D01*
X17101644Y-9426356D01*
X17172356Y-9426356D01*
X17599598Y-11595043D02*
X17599598Y-11524331D01*
X17528887Y-11524331D01*
X17528887Y-11595043D01*
X17599598Y-11595043D01*
X17861606Y-12006356D02*
X17861606Y-11935644D01*
X17790894Y-11935644D01*
X17790894Y-12006356D01*
X17861606Y-12006356D01*
X18197113Y-11093669D02*
X18197113Y-11022957D01*
X18126402Y-11022957D01*
X18126402Y-11093669D01*
X18197113Y-11093669D01*
X18537106Y-11616356D02*
X18537106Y-11545644D01*
X18466394Y-11545644D01*
X18466394Y-11616356D01*
X18537106Y-11616356D01*
D15*
X16887000Y-8856000D02*
X16952000Y-8791000D01*
X16887000Y-8726000D01*
X16822000Y-8791000D01*
X16887000Y-8856000D01*
X16887000Y-9556000D02*
X16952000Y-9491000D01*
X16887000Y-9426000D01*
X16822000Y-9491000D01*
X16887000Y-9556000D01*
D16*
X6500000Y-4825000D02*
X6800000Y-5125000D01*
X6800000Y-4825000D02*
X6500000Y-5125000D01*
X6800000Y-4975000D02*
G75*
G03*
X6800000Y-4975000I-150000J0D01*
G01*
X6500000Y-6525000D02*
X6800000Y-6825000D01*
X6800000Y-6525000D02*
X6500000Y-6825000D01*
X6800000Y-6675000D02*
G75*
G03*
X6800000Y-6675000I-150000J0D01*
G01*
X6500000Y-8225000D02*
X6800000Y-8525000D01*
X6800000Y-8225000D02*
X6500000Y-8525000D01*
X6800000Y-8375000D02*
G75*
G03*
X6800000Y-8375000I-150000J0D01*
G01*
X7500000Y-4825000D02*
X7800000Y-5125000D01*
X7800000Y-4825000D02*
X7500000Y-5125000D01*
X7800000Y-4975000D02*
G75*
G03*
X7800000Y-4975000I-150000J0D01*
G01*
X7500000Y-6525000D02*
X7800000Y-6825000D01*
X7800000Y-6525000D02*
X7500000Y-6825000D01*
X7800000Y-6675000D02*
G75*
G03*
X7800000Y-6675000I-150000J0D01*
G01*
X7500000Y-8225000D02*
X7800000Y-8525000D01*
X7800000Y-8225000D02*
X7500000Y-8525000D01*
X7800000Y-8375000D02*
G75*
G03*
X7800000Y-8375000I-150000J0D01*
G01*
X8300000Y-4125000D02*
X8600000Y-4425000D01*
X8600000Y-4125000D02*
X8300000Y-4425000D01*
X8600000Y-4275000D02*
G75*
G03*
X8600000Y-4275000I-150000J0D01*
G01*
X8300000Y-5825000D02*
X8600000Y-6125000D01*
X8600000Y-5825000D02*
X8300000Y-6125000D01*
X8600000Y-5975000D02*
G75*
G03*
X8600000Y-5975000I-150000J0D01*
G01*
X8300000Y-7525000D02*
X8600000Y-7825000D01*
X8600000Y-7525000D02*
X8300000Y-7825000D01*
X8600000Y-7675000D02*
G75*
G03*
X8600000Y-7675000I-150000J0D01*
G01*
X9300000Y-4125000D02*
X9600000Y-4425000D01*
X9600000Y-4125000D02*
X9300000Y-4425000D01*
X9600000Y-4275000D02*
G75*
G03*
X9600000Y-4275000I-150000J0D01*
G01*
X9300000Y-5825000D02*
X9600000Y-6125000D01*
X9600000Y-5825000D02*
X9300000Y-6125000D01*
X9600000Y-5975000D02*
G75*
G03*
X9600000Y-5975000I-150000J0D01*
G01*
X9300000Y-7525000D02*
X9600000Y-7825000D01*
X9600000Y-7525000D02*
X9300000Y-7825000D01*
X9600000Y-7675000D02*
G75*
G03*
X9600000Y-7675000I-150000J0D01*
G01*
X10100000Y-3325000D02*
X10400000Y-3625000D01*
X10400000Y-3325000D02*
X10100000Y-3625000D01*
X10400000Y-3475000D02*
G75*
G03*
X10400000Y-3475000I-150000J0D01*
G01*
X10100000Y-5025000D02*
X10400000Y-5325000D01*
X10400000Y-5025000D02*
X10100000Y-5325000D01*
X10400000Y-5175000D02*
G75*
G03*
X10400000Y-5175000I-150000J0D01*
G01*
X10100000Y-6725000D02*
X10400000Y-7025000D01*
X10400000Y-6725000D02*
X10100000Y-7025000D01*
X10400000Y-6875000D02*
G75*
G03*
X10400000Y-6875000I-150000J0D01*
G01*
X11100000Y-3325000D02*
X11400000Y-3625000D01*
X11400000Y-3325000D02*
X11100000Y-3625000D01*
X11400000Y-3475000D02*
G75*
G03*
X11400000Y-3475000I-150000J0D01*
G01*
X11100000Y-5025000D02*
X11400000Y-5325000D01*
X11400000Y-5025000D02*
X11100000Y-5325000D01*
X11400000Y-5175000D02*
G75*
G03*
X11400000Y-5175000I-150000J0D01*
G01*
X11100000Y-6725000D02*
X11400000Y-7025000D01*
X11400000Y-6725000D02*
X11100000Y-7025000D01*
X11400000Y-6875000D02*
G75*
G03*
X11400000Y-6875000I-150000J0D01*
G01*
X11900000Y-3775000D02*
X12200000Y-4075000D01*
X12200000Y-3775000D02*
X11900000Y-4075000D01*
X12200000Y-3925000D02*
G75*
G03*
X12200000Y-3925000I-150000J0D01*
G01*
X11900000Y-5475000D02*
X12200000Y-5775000D01*
X12200000Y-5475000D02*
X11900000Y-5775000D01*
X12200000Y-5625000D02*
G75*
G03*
X12200000Y-5625000I-150000J0D01*
G01*
X11900000Y-7175000D02*
X12200000Y-7475000D01*
X12200000Y-7175000D02*
X11900000Y-7475000D01*
X12200000Y-7325000D02*
G75*
G03*
X12200000Y-7325000I-150000J0D01*
G01*
X12361173Y-8924760D02*
X12661173Y-9224760D01*
X12661173Y-8924760D02*
X12361173Y-9224760D01*
X12661173Y-9074760D02*
G75*
G03*
X12661173Y-9074760I-150000J0D01*
G01*
X12900000Y-3775000D02*
X13200000Y-4075000D01*
X13200000Y-3775000D02*
X12900000Y-4075000D01*
X13200000Y-3925000D02*
G75*
G03*
X13200000Y-3925000I-150000J0D01*
G01*
X12900000Y-5475000D02*
X13200000Y-5775000D01*
X13200000Y-5475000D02*
X12900000Y-5775000D01*
X13200000Y-5625000D02*
G75*
G03*
X13200000Y-5625000I-150000J0D01*
G01*
X12900000Y-7175000D02*
X13200000Y-7475000D01*
X13200000Y-7175000D02*
X12900000Y-7475000D01*
X13200000Y-7325000D02*
G75*
G03*
X13200000Y-7325000I-150000J0D01*
G01*
X13227199Y-9424760D02*
X13527199Y-9724760D01*
X13527199Y-9424760D02*
X13227199Y-9724760D01*
X13527199Y-9574760D02*
G75*
G03*
X13527199Y-9574760I-150000J0D01*
G01*
X13582932Y-10391873D02*
X13882932Y-10691873D01*
X13882932Y-10391873D02*
X13582932Y-10691873D01*
X13882932Y-10541873D02*
G75*
G03*
X13882932Y-10541873I-150000J0D01*
G01*
X13700000Y-4025000D02*
X14000000Y-4325000D01*
X14000000Y-4025000D02*
X13700000Y-4325000D01*
X14000000Y-4175000D02*
G75*
G03*
X14000000Y-4175000I-150000J0D01*
G01*
X13700000Y-5725000D02*
X14000000Y-6025000D01*
X14000000Y-5725000D02*
X13700000Y-6025000D01*
X14000000Y-5875000D02*
G75*
G03*
X14000000Y-5875000I-150000J0D01*
G01*
X13700000Y-7425000D02*
X14000000Y-7725000D01*
X14000000Y-7425000D02*
X13700000Y-7725000D01*
X14000000Y-7575000D02*
G75*
G03*
X14000000Y-7575000I-150000J0D01*
G01*
X14348977Y-11034661D02*
X14648977Y-11334660D01*
X14648977Y-11034661D02*
X14348977Y-11334660D01*
X14648977Y-11184661D02*
G75*
G03*
X14648977Y-11184661I-150000J0D01*
G01*
X14675932Y-9087873D02*
X14975932Y-9387873D01*
X14975932Y-9087873D02*
X14675932Y-9387873D01*
X14975932Y-9237873D02*
G75*
G03*
X14975932Y-9237873I-150000J0D01*
G01*
X14700000Y-4025000D02*
X15000000Y-4325000D01*
X15000000Y-4025000D02*
X14700000Y-4325000D01*
X15000000Y-4175000D02*
G75*
G03*
X15000000Y-4175000I-150000J0D01*
G01*
X14700000Y-5725000D02*
X15000000Y-6025000D01*
X15000000Y-5725000D02*
X14700000Y-6025000D01*
X15000000Y-5875000D02*
G75*
G03*
X15000000Y-5875000I-150000J0D01*
G01*
X14700000Y-7425000D02*
X15000000Y-7725000D01*
X15000000Y-7425000D02*
X14700000Y-7725000D01*
X15000000Y-7575000D02*
G75*
G03*
X15000000Y-7575000I-150000J0D01*
G01*
X14983339Y-11667023D02*
X15283339Y-11967023D01*
X15283339Y-11667023D02*
X14983339Y-11967023D01*
X15283339Y-11817023D02*
G75*
G03*
X15283339Y-11817023I-150000J0D01*
G01*
X15441977Y-9730661D02*
X15741977Y-10030661D01*
X15741977Y-9730661D02*
X15441977Y-10030661D01*
X15741977Y-9880661D02*
G75*
G03*
X15741977Y-9880661I-150000J0D01*
G01*
X15626127Y-12433068D02*
X15926127Y-12733068D01*
X15926127Y-12433068D02*
X15626127Y-12733068D01*
X15926127Y-12583068D02*
G75*
G03*
X15926127Y-12583068I-150000J0D01*
G01*
X16144240Y-13171487D02*
X16444240Y-13471487D01*
X16444240Y-13171487D02*
X16144240Y-13471487D01*
X16444240Y-13321487D02*
G75*
G03*
X16444240Y-13321487I-150000J0D01*
G01*
X16294339Y-10569023D02*
X16594339Y-10869023D01*
X16594339Y-10569023D02*
X16294339Y-10869023D01*
X16594339Y-10719023D02*
G75*
G03*
X16594339Y-10719023I-150000J0D01*
G01*
X16644240Y-14037513D02*
X16944241Y-14337513D01*
X16944241Y-14037513D02*
X16644240Y-14337513D01*
X16944241Y-14187513D02*
G75*
G03*
X16944241Y-14187513I-150000J0D01*
G01*
X16937127Y-11335068D02*
X17237127Y-11635068D01*
X17237127Y-11335068D02*
X16937127Y-11635068D01*
X17237127Y-11485068D02*
G75*
G03*
X17237127Y-11485068I-150000J0D01*
G01*
X17625241Y-12318487D02*
X17925241Y-12618487D01*
X17925241Y-12318487D02*
X17625241Y-12618487D01*
X17925241Y-12468487D02*
G75*
G03*
X17925241Y-12468487I-150000J0D01*
G01*
X18125241Y-13184513D02*
X18425241Y-13484513D01*
X18425241Y-13184513D02*
X18125241Y-13484513D01*
X18425241Y-13334513D02*
G75*
G03*
X18425241Y-13334513I-150000J0D01*
G01*
D11*
X6366425Y-15167524D02*
X6366425Y-14967524D01*
X6366425Y-14967524D02*
X6414044Y-14967524D01*
X6414044Y-14967524D02*
X6442616Y-14977048D01*
X6442616Y-14977048D02*
X6461663Y-14996095D01*
X6461663Y-14996095D02*
X6471187Y-15015143D01*
X6471187Y-15015143D02*
X6480711Y-15053238D01*
X6480711Y-15053238D02*
X6480711Y-15081810D01*
X6480711Y-15081810D02*
X6471187Y-15119905D01*
X6471187Y-15119905D02*
X6461663Y-15138952D01*
X6461663Y-15138952D02*
X6442616Y-15158000D01*
X6442616Y-15158000D02*
X6414044Y-15167524D01*
X6414044Y-15167524D02*
X6366425Y-15167524D01*
X6566425Y-15167524D02*
X6566425Y-15034190D01*
X6566425Y-15072286D02*
X6575949Y-15053238D01*
X6575949Y-15053238D02*
X6585473Y-15043714D01*
X6585473Y-15043714D02*
X6604520Y-15034190D01*
X6604520Y-15034190D02*
X6623568Y-15034190D01*
X6690235Y-15167524D02*
X6690235Y-15034190D01*
X6690235Y-14967524D02*
X6680711Y-14977048D01*
X6680711Y-14977048D02*
X6690235Y-14986571D01*
X6690235Y-14986571D02*
X6699758Y-14977048D01*
X6699758Y-14977048D02*
X6690235Y-14967524D01*
X6690235Y-14967524D02*
X6690235Y-14986571D01*
X6814044Y-15167524D02*
X6794996Y-15158000D01*
X6794996Y-15158000D02*
X6785473Y-15138952D01*
X6785473Y-15138952D02*
X6785473Y-14967524D01*
X6918806Y-15167524D02*
X6899758Y-15158000D01*
X6899758Y-15158000D02*
X6890235Y-15138952D01*
X6890235Y-15138952D02*
X6890235Y-14967524D01*
X7147377Y-15167524D02*
X7147377Y-14967524D01*
X7147377Y-14967524D02*
X7214044Y-15110381D01*
X7214044Y-15110381D02*
X7280711Y-14967524D01*
X7280711Y-14967524D02*
X7280711Y-15167524D01*
X7461663Y-15167524D02*
X7461663Y-15062762D01*
X7461663Y-15062762D02*
X7452139Y-15043714D01*
X7452139Y-15043714D02*
X7433092Y-15034190D01*
X7433092Y-15034190D02*
X7394996Y-15034190D01*
X7394996Y-15034190D02*
X7375949Y-15043714D01*
X7461663Y-15158000D02*
X7442616Y-15167524D01*
X7442616Y-15167524D02*
X7394996Y-15167524D01*
X7394996Y-15167524D02*
X7375949Y-15158000D01*
X7375949Y-15158000D02*
X7366425Y-15138952D01*
X7366425Y-15138952D02*
X7366425Y-15119905D01*
X7366425Y-15119905D02*
X7375949Y-15100857D01*
X7375949Y-15100857D02*
X7394996Y-15091333D01*
X7394996Y-15091333D02*
X7442616Y-15091333D01*
X7442616Y-15091333D02*
X7461663Y-15081810D01*
X7556901Y-15034190D02*
X7556901Y-15234190D01*
X7556901Y-15043714D02*
X7575949Y-15034190D01*
X7575949Y-15034190D02*
X7614044Y-15034190D01*
X7614044Y-15034190D02*
X7633092Y-15043714D01*
X7633092Y-15043714D02*
X7642616Y-15053238D01*
X7642616Y-15053238D02*
X7652139Y-15072286D01*
X7652139Y-15072286D02*
X7652139Y-15129429D01*
X7652139Y-15129429D02*
X7642616Y-15148476D01*
X7642616Y-15148476D02*
X7633092Y-15158000D01*
X7633092Y-15158000D02*
X7614044Y-15167524D01*
X7614044Y-15167524D02*
X7575949Y-15167524D01*
X7575949Y-15167524D02*
X7556901Y-15158000D01*
X7737854Y-15148476D02*
X7747377Y-15158000D01*
X7747377Y-15158000D02*
X7737854Y-15167524D01*
X7737854Y-15167524D02*
X7728330Y-15158000D01*
X7728330Y-15158000D02*
X7737854Y-15148476D01*
X7737854Y-15148476D02*
X7737854Y-15167524D01*
X7737854Y-15043714D02*
X7747377Y-15053238D01*
X7747377Y-15053238D02*
X7737854Y-15062762D01*
X7737854Y-15062762D02*
X7728330Y-15053238D01*
X7728330Y-15053238D02*
X7737854Y-15043714D01*
X7737854Y-15043714D02*
X7737854Y-15062762D01*
D12*
X6078806Y-15475000D02*
X6118806Y-15515000D01*
X6118806Y-15475000D02*
X6078806Y-15515000D01*
D11*
X6404520Y-15387524D02*
X6423568Y-15387524D01*
X6423568Y-15387524D02*
X6442616Y-15397048D01*
X6442616Y-15397048D02*
X6452139Y-15406571D01*
X6452139Y-15406571D02*
X6461663Y-15425619D01*
X6461663Y-15425619D02*
X6471187Y-15463714D01*
X6471187Y-15463714D02*
X6471187Y-15511333D01*
X6471187Y-15511333D02*
X6461663Y-15549429D01*
X6461663Y-15549429D02*
X6452139Y-15568476D01*
X6452139Y-15568476D02*
X6442616Y-15578000D01*
X6442616Y-15578000D02*
X6423568Y-15587524D01*
X6423568Y-15587524D02*
X6404520Y-15587524D01*
X6404520Y-15587524D02*
X6385473Y-15578000D01*
X6385473Y-15578000D02*
X6375949Y-15568476D01*
X6375949Y-15568476D02*
X6366425Y-15549429D01*
X6366425Y-15549429D02*
X6356901Y-15511333D01*
X6356901Y-15511333D02*
X6356901Y-15463714D01*
X6356901Y-15463714D02*
X6366425Y-15425619D01*
X6366425Y-15425619D02*
X6375949Y-15406571D01*
X6375949Y-15406571D02*
X6385473Y-15397048D01*
X6385473Y-15397048D02*
X6404520Y-15387524D01*
X6556901Y-15568476D02*
X6566425Y-15578000D01*
X6566425Y-15578000D02*
X6556901Y-15587524D01*
X6556901Y-15587524D02*
X6547377Y-15578000D01*
X6547377Y-15578000D02*
X6556901Y-15568476D01*
X6556901Y-15568476D02*
X6556901Y-15587524D01*
X6737854Y-15454190D02*
X6737854Y-15587524D01*
X6690235Y-15378000D02*
X6642616Y-15520857D01*
X6642616Y-15520857D02*
X6766425Y-15520857D01*
X6880711Y-15387524D02*
X6899758Y-15387524D01*
X6899758Y-15387524D02*
X6918806Y-15397048D01*
X6918806Y-15397048D02*
X6928330Y-15406571D01*
X6928330Y-15406571D02*
X6937854Y-15425619D01*
X6937854Y-15425619D02*
X6947377Y-15463714D01*
X6947377Y-15463714D02*
X6947377Y-15511333D01*
X6947377Y-15511333D02*
X6937854Y-15549429D01*
X6937854Y-15549429D02*
X6928330Y-15568476D01*
X6928330Y-15568476D02*
X6918806Y-15578000D01*
X6918806Y-15578000D02*
X6899758Y-15587524D01*
X6899758Y-15587524D02*
X6880711Y-15587524D01*
X6880711Y-15587524D02*
X6861663Y-15578000D01*
X6861663Y-15578000D02*
X6852139Y-15568476D01*
X6852139Y-15568476D02*
X6842616Y-15549429D01*
X6842616Y-15549429D02*
X6833092Y-15511333D01*
X6833092Y-15511333D02*
X6833092Y-15463714D01*
X6833092Y-15463714D02*
X6842616Y-15425619D01*
X6842616Y-15425619D02*
X6852139Y-15406571D01*
X6852139Y-15406571D02*
X6861663Y-15397048D01*
X6861663Y-15397048D02*
X6880711Y-15387524D01*
X7071187Y-15387524D02*
X7090235Y-15387524D01*
X7090235Y-15387524D02*
X7109282Y-15397048D01*
X7109282Y-15397048D02*
X7118806Y-15406571D01*
X7118806Y-15406571D02*
X7128330Y-15425619D01*
X7128330Y-15425619D02*
X7137854Y-15463714D01*
X7137854Y-15463714D02*
X7137854Y-15511333D01*
X7137854Y-15511333D02*
X7128330Y-15549429D01*
X7128330Y-15549429D02*
X7118806Y-15568476D01*
X7118806Y-15568476D02*
X7109282Y-15578000D01*
X7109282Y-15578000D02*
X7090235Y-15587524D01*
X7090235Y-15587524D02*
X7071187Y-15587524D01*
X7071187Y-15587524D02*
X7052139Y-15578000D01*
X7052139Y-15578000D02*
X7042616Y-15568476D01*
X7042616Y-15568476D02*
X7033092Y-15549429D01*
X7033092Y-15549429D02*
X7023568Y-15511333D01*
X7023568Y-15511333D02*
X7023568Y-15463714D01*
X7023568Y-15463714D02*
X7033092Y-15425619D01*
X7033092Y-15425619D02*
X7042616Y-15406571D01*
X7042616Y-15406571D02*
X7052139Y-15397048D01*
X7052139Y-15397048D02*
X7071187Y-15387524D01*
X7223568Y-15587524D02*
X7223568Y-15454190D01*
X7223568Y-15473238D02*
X7233092Y-15463714D01*
X7233092Y-15463714D02*
X7252139Y-15454190D01*
X7252139Y-15454190D02*
X7280711Y-15454190D01*
X7280711Y-15454190D02*
X7299758Y-15463714D01*
X7299758Y-15463714D02*
X7309282Y-15482762D01*
X7309282Y-15482762D02*
X7309282Y-15587524D01*
X7309282Y-15482762D02*
X7318806Y-15463714D01*
X7318806Y-15463714D02*
X7337854Y-15454190D01*
X7337854Y-15454190D02*
X7366425Y-15454190D01*
X7366425Y-15454190D02*
X7385473Y-15463714D01*
X7385473Y-15463714D02*
X7394997Y-15482762D01*
X7394997Y-15482762D02*
X7394997Y-15587524D01*
X7490235Y-15587524D02*
X7490235Y-15454190D01*
X7490235Y-15473238D02*
X7499758Y-15463714D01*
X7499758Y-15463714D02*
X7518806Y-15454190D01*
X7518806Y-15454190D02*
X7547378Y-15454190D01*
X7547378Y-15454190D02*
X7566425Y-15463714D01*
X7566425Y-15463714D02*
X7575949Y-15482762D01*
X7575949Y-15482762D02*
X7575949Y-15587524D01*
X7575949Y-15482762D02*
X7585473Y-15463714D01*
X7585473Y-15463714D02*
X7604520Y-15454190D01*
X7604520Y-15454190D02*
X7633092Y-15454190D01*
X7633092Y-15454190D02*
X7652139Y-15463714D01*
X7652139Y-15463714D02*
X7661663Y-15482762D01*
X7661663Y-15482762D02*
X7661663Y-15587524D01*
X8052139Y-15378000D02*
X7880711Y-15635143D01*
X8309282Y-15387524D02*
X8328330Y-15387524D01*
X8328330Y-15387524D02*
X8347378Y-15397048D01*
X8347378Y-15397048D02*
X8356901Y-15406571D01*
X8356901Y-15406571D02*
X8366425Y-15425619D01*
X8366425Y-15425619D02*
X8375949Y-15463714D01*
X8375949Y-15463714D02*
X8375949Y-15511333D01*
X8375949Y-15511333D02*
X8366425Y-15549429D01*
X8366425Y-15549429D02*
X8356901Y-15568476D01*
X8356901Y-15568476D02*
X8347378Y-15578000D01*
X8347378Y-15578000D02*
X8328330Y-15587524D01*
X8328330Y-15587524D02*
X8309282Y-15587524D01*
X8309282Y-15587524D02*
X8290235Y-15578000D01*
X8290235Y-15578000D02*
X8280711Y-15568476D01*
X8280711Y-15568476D02*
X8271187Y-15549429D01*
X8271187Y-15549429D02*
X8261663Y-15511333D01*
X8261663Y-15511333D02*
X8261663Y-15463714D01*
X8261663Y-15463714D02*
X8271187Y-15425619D01*
X8271187Y-15425619D02*
X8280711Y-15406571D01*
X8280711Y-15406571D02*
X8290235Y-15397048D01*
X8290235Y-15397048D02*
X8309282Y-15387524D01*
X8461663Y-15568476D02*
X8471187Y-15578000D01*
X8471187Y-15578000D02*
X8461663Y-15587524D01*
X8461663Y-15587524D02*
X8452140Y-15578000D01*
X8452140Y-15578000D02*
X8461663Y-15568476D01*
X8461663Y-15568476D02*
X8461663Y-15587524D01*
X8594997Y-15387524D02*
X8614044Y-15387524D01*
X8614044Y-15387524D02*
X8633092Y-15397048D01*
X8633092Y-15397048D02*
X8642616Y-15406571D01*
X8642616Y-15406571D02*
X8652140Y-15425619D01*
X8652140Y-15425619D02*
X8661663Y-15463714D01*
X8661663Y-15463714D02*
X8661663Y-15511333D01*
X8661663Y-15511333D02*
X8652140Y-15549429D01*
X8652140Y-15549429D02*
X8642616Y-15568476D01*
X8642616Y-15568476D02*
X8633092Y-15578000D01*
X8633092Y-15578000D02*
X8614044Y-15587524D01*
X8614044Y-15587524D02*
X8594997Y-15587524D01*
X8594997Y-15587524D02*
X8575949Y-15578000D01*
X8575949Y-15578000D02*
X8566425Y-15568476D01*
X8566425Y-15568476D02*
X8556902Y-15549429D01*
X8556902Y-15549429D02*
X8547378Y-15511333D01*
X8547378Y-15511333D02*
X8547378Y-15463714D01*
X8547378Y-15463714D02*
X8556902Y-15425619D01*
X8556902Y-15425619D02*
X8566425Y-15406571D01*
X8566425Y-15406571D02*
X8575949Y-15397048D01*
X8575949Y-15397048D02*
X8594997Y-15387524D01*
X8852140Y-15587524D02*
X8737854Y-15587524D01*
X8794997Y-15587524D02*
X8794997Y-15387524D01*
X8794997Y-15387524D02*
X8775949Y-15416095D01*
X8775949Y-15416095D02*
X8756902Y-15435143D01*
X8756902Y-15435143D02*
X8737854Y-15444667D01*
X9033092Y-15387524D02*
X8937854Y-15387524D01*
X8937854Y-15387524D02*
X8928330Y-15482762D01*
X8928330Y-15482762D02*
X8937854Y-15473238D01*
X8937854Y-15473238D02*
X8956902Y-15463714D01*
X8956902Y-15463714D02*
X9004521Y-15463714D01*
X9004521Y-15463714D02*
X9023568Y-15473238D01*
X9023568Y-15473238D02*
X9033092Y-15482762D01*
X9033092Y-15482762D02*
X9042616Y-15501810D01*
X9042616Y-15501810D02*
X9042616Y-15549429D01*
X9042616Y-15549429D02*
X9033092Y-15568476D01*
X9033092Y-15568476D02*
X9023568Y-15578000D01*
X9023568Y-15578000D02*
X9004521Y-15587524D01*
X9004521Y-15587524D02*
X8956902Y-15587524D01*
X8956902Y-15587524D02*
X8937854Y-15578000D01*
X8937854Y-15578000D02*
X8928330Y-15568476D01*
X9109283Y-15387524D02*
X9242616Y-15387524D01*
X9242616Y-15387524D02*
X9156902Y-15587524D01*
X9309283Y-15387524D02*
X9309283Y-15425619D01*
X9385473Y-15387524D02*
X9385473Y-15425619D01*
X9680711Y-15663714D02*
X9671187Y-15654190D01*
X9671187Y-15654190D02*
X9652140Y-15625619D01*
X9652140Y-15625619D02*
X9642616Y-15606571D01*
X9642616Y-15606571D02*
X9633092Y-15578000D01*
X9633092Y-15578000D02*
X9623568Y-15530381D01*
X9623568Y-15530381D02*
X9623568Y-15492286D01*
X9623568Y-15492286D02*
X9633092Y-15444667D01*
X9633092Y-15444667D02*
X9642616Y-15416095D01*
X9642616Y-15416095D02*
X9652140Y-15397048D01*
X9652140Y-15397048D02*
X9671187Y-15368476D01*
X9671187Y-15368476D02*
X9680711Y-15358952D01*
X9842616Y-15454190D02*
X9842616Y-15587524D01*
X9794997Y-15378000D02*
X9747378Y-15520857D01*
X9747378Y-15520857D02*
X9871187Y-15520857D01*
X10042616Y-15387524D02*
X9947378Y-15387524D01*
X9947378Y-15387524D02*
X9937854Y-15482762D01*
X9937854Y-15482762D02*
X9947378Y-15473238D01*
X9947378Y-15473238D02*
X9966425Y-15463714D01*
X9966425Y-15463714D02*
X10014045Y-15463714D01*
X10014045Y-15463714D02*
X10033092Y-15473238D01*
X10033092Y-15473238D02*
X10042616Y-15482762D01*
X10042616Y-15482762D02*
X10052140Y-15501810D01*
X10052140Y-15501810D02*
X10052140Y-15549429D01*
X10052140Y-15549429D02*
X10042616Y-15568476D01*
X10042616Y-15568476D02*
X10033092Y-15578000D01*
X10033092Y-15578000D02*
X10014045Y-15587524D01*
X10014045Y-15587524D02*
X9966425Y-15587524D01*
X9966425Y-15587524D02*
X9947378Y-15578000D01*
X9947378Y-15578000D02*
X9937854Y-15568476D01*
X10290235Y-15587524D02*
X10290235Y-15387524D01*
X10375949Y-15587524D02*
X10375949Y-15482762D01*
X10375949Y-15482762D02*
X10366426Y-15463714D01*
X10366426Y-15463714D02*
X10347378Y-15454190D01*
X10347378Y-15454190D02*
X10318806Y-15454190D01*
X10318806Y-15454190D02*
X10299759Y-15463714D01*
X10299759Y-15463714D02*
X10290235Y-15473238D01*
X10499759Y-15587524D02*
X10480711Y-15578000D01*
X10480711Y-15578000D02*
X10471187Y-15568476D01*
X10471187Y-15568476D02*
X10461664Y-15549429D01*
X10461664Y-15549429D02*
X10461664Y-15492286D01*
X10461664Y-15492286D02*
X10471187Y-15473238D01*
X10471187Y-15473238D02*
X10480711Y-15463714D01*
X10480711Y-15463714D02*
X10499759Y-15454190D01*
X10499759Y-15454190D02*
X10528330Y-15454190D01*
X10528330Y-15454190D02*
X10547378Y-15463714D01*
X10547378Y-15463714D02*
X10556902Y-15473238D01*
X10556902Y-15473238D02*
X10566426Y-15492286D01*
X10566426Y-15492286D02*
X10566426Y-15549429D01*
X10566426Y-15549429D02*
X10556902Y-15568476D01*
X10556902Y-15568476D02*
X10547378Y-15578000D01*
X10547378Y-15578000D02*
X10528330Y-15587524D01*
X10528330Y-15587524D02*
X10499759Y-15587524D01*
X10680711Y-15587524D02*
X10661664Y-15578000D01*
X10661664Y-15578000D02*
X10652140Y-15558952D01*
X10652140Y-15558952D02*
X10652140Y-15387524D01*
X10833092Y-15578000D02*
X10814045Y-15587524D01*
X10814045Y-15587524D02*
X10775949Y-15587524D01*
X10775949Y-15587524D02*
X10756902Y-15578000D01*
X10756902Y-15578000D02*
X10747378Y-15558952D01*
X10747378Y-15558952D02*
X10747378Y-15482762D01*
X10747378Y-15482762D02*
X10756902Y-15463714D01*
X10756902Y-15463714D02*
X10775949Y-15454190D01*
X10775949Y-15454190D02*
X10814045Y-15454190D01*
X10814045Y-15454190D02*
X10833092Y-15463714D01*
X10833092Y-15463714D02*
X10842616Y-15482762D01*
X10842616Y-15482762D02*
X10842616Y-15501810D01*
X10842616Y-15501810D02*
X10747378Y-15520857D01*
X10918807Y-15578000D02*
X10937854Y-15587524D01*
X10937854Y-15587524D02*
X10975949Y-15587524D01*
X10975949Y-15587524D02*
X10994997Y-15578000D01*
X10994997Y-15578000D02*
X11004521Y-15558952D01*
X11004521Y-15558952D02*
X11004521Y-15549429D01*
X11004521Y-15549429D02*
X10994997Y-15530381D01*
X10994997Y-15530381D02*
X10975949Y-15520857D01*
X10975949Y-15520857D02*
X10947378Y-15520857D01*
X10947378Y-15520857D02*
X10928330Y-15511333D01*
X10928330Y-15511333D02*
X10918807Y-15492286D01*
X10918807Y-15492286D02*
X10918807Y-15482762D01*
X10918807Y-15482762D02*
X10928330Y-15463714D01*
X10928330Y-15463714D02*
X10947378Y-15454190D01*
X10947378Y-15454190D02*
X10975949Y-15454190D01*
X10975949Y-15454190D02*
X10994997Y-15463714D01*
X11071188Y-15663714D02*
X11080711Y-15654190D01*
X11080711Y-15654190D02*
X11099759Y-15625619D01*
X11099759Y-15625619D02*
X11109283Y-15606571D01*
X11109283Y-15606571D02*
X11118807Y-15578000D01*
X11118807Y-15578000D02*
X11128330Y-15530381D01*
X11128330Y-15530381D02*
X11128330Y-15492286D01*
X11128330Y-15492286D02*
X11118807Y-15444667D01*
X11118807Y-15444667D02*
X11109283Y-15416095D01*
X11109283Y-15416095D02*
X11099759Y-15397048D01*
X11099759Y-15397048D02*
X11080711Y-15368476D01*
X11080711Y-15368476D02*
X11071188Y-15358952D01*
D13*
X6118806Y-15759000D02*
G75*
G03*
X6118806Y-15759000I-40640J0D01*
G01*
D11*
X6404520Y-15651524D02*
X6423568Y-15651524D01*
X6423568Y-15651524D02*
X6442616Y-15661048D01*
X6442616Y-15661048D02*
X6452139Y-15670571D01*
X6452139Y-15670571D02*
X6461663Y-15689619D01*
X6461663Y-15689619D02*
X6471187Y-15727714D01*
X6471187Y-15727714D02*
X6471187Y-15775333D01*
X6471187Y-15775333D02*
X6461663Y-15813429D01*
X6461663Y-15813429D02*
X6452139Y-15832476D01*
X6452139Y-15832476D02*
X6442616Y-15842000D01*
X6442616Y-15842000D02*
X6423568Y-15851524D01*
X6423568Y-15851524D02*
X6404520Y-15851524D01*
X6404520Y-15851524D02*
X6385473Y-15842000D01*
X6385473Y-15842000D02*
X6375949Y-15832476D01*
X6375949Y-15832476D02*
X6366425Y-15813429D01*
X6366425Y-15813429D02*
X6356901Y-15775333D01*
X6356901Y-15775333D02*
X6356901Y-15727714D01*
X6356901Y-15727714D02*
X6366425Y-15689619D01*
X6366425Y-15689619D02*
X6375949Y-15670571D01*
X6375949Y-15670571D02*
X6385473Y-15661048D01*
X6385473Y-15661048D02*
X6404520Y-15651524D01*
X6556901Y-15832476D02*
X6566425Y-15842000D01*
X6566425Y-15842000D02*
X6556901Y-15851524D01*
X6556901Y-15851524D02*
X6547377Y-15842000D01*
X6547377Y-15842000D02*
X6556901Y-15832476D01*
X6556901Y-15832476D02*
X6556901Y-15851524D01*
X6680711Y-15737238D02*
X6661663Y-15727714D01*
X6661663Y-15727714D02*
X6652139Y-15718190D01*
X6652139Y-15718190D02*
X6642616Y-15699143D01*
X6642616Y-15699143D02*
X6642616Y-15689619D01*
X6642616Y-15689619D02*
X6652139Y-15670571D01*
X6652139Y-15670571D02*
X6661663Y-15661048D01*
X6661663Y-15661048D02*
X6680711Y-15651524D01*
X6680711Y-15651524D02*
X6718806Y-15651524D01*
X6718806Y-15651524D02*
X6737854Y-15661048D01*
X6737854Y-15661048D02*
X6747377Y-15670571D01*
X6747377Y-15670571D02*
X6756901Y-15689619D01*
X6756901Y-15689619D02*
X6756901Y-15699143D01*
X6756901Y-15699143D02*
X6747377Y-15718190D01*
X6747377Y-15718190D02*
X6737854Y-15727714D01*
X6737854Y-15727714D02*
X6718806Y-15737238D01*
X6718806Y-15737238D02*
X6680711Y-15737238D01*
X6680711Y-15737238D02*
X6661663Y-15746762D01*
X6661663Y-15746762D02*
X6652139Y-15756286D01*
X6652139Y-15756286D02*
X6642616Y-15775333D01*
X6642616Y-15775333D02*
X6642616Y-15813429D01*
X6642616Y-15813429D02*
X6652139Y-15832476D01*
X6652139Y-15832476D02*
X6661663Y-15842000D01*
X6661663Y-15842000D02*
X6680711Y-15851524D01*
X6680711Y-15851524D02*
X6718806Y-15851524D01*
X6718806Y-15851524D02*
X6737854Y-15842000D01*
X6737854Y-15842000D02*
X6747377Y-15832476D01*
X6747377Y-15832476D02*
X6756901Y-15813429D01*
X6756901Y-15813429D02*
X6756901Y-15775333D01*
X6756901Y-15775333D02*
X6747377Y-15756286D01*
X6747377Y-15756286D02*
X6737854Y-15746762D01*
X6737854Y-15746762D02*
X6718806Y-15737238D01*
X6947377Y-15851524D02*
X6833092Y-15851524D01*
X6890235Y-15851524D02*
X6890235Y-15651524D01*
X6890235Y-15651524D02*
X6871187Y-15680095D01*
X6871187Y-15680095D02*
X6852139Y-15699143D01*
X6852139Y-15699143D02*
X6833092Y-15708667D01*
X7014044Y-15651524D02*
X7137854Y-15651524D01*
X7137854Y-15651524D02*
X7071187Y-15727714D01*
X7071187Y-15727714D02*
X7099758Y-15727714D01*
X7099758Y-15727714D02*
X7118806Y-15737238D01*
X7118806Y-15737238D02*
X7128330Y-15746762D01*
X7128330Y-15746762D02*
X7137854Y-15765810D01*
X7137854Y-15765810D02*
X7137854Y-15813429D01*
X7137854Y-15813429D02*
X7128330Y-15832476D01*
X7128330Y-15832476D02*
X7118806Y-15842000D01*
X7118806Y-15842000D02*
X7099758Y-15851524D01*
X7099758Y-15851524D02*
X7042616Y-15851524D01*
X7042616Y-15851524D02*
X7023568Y-15842000D01*
X7023568Y-15842000D02*
X7014044Y-15832476D01*
X7223568Y-15851524D02*
X7223568Y-15718190D01*
X7223568Y-15737238D02*
X7233092Y-15727714D01*
X7233092Y-15727714D02*
X7252139Y-15718190D01*
X7252139Y-15718190D02*
X7280711Y-15718190D01*
X7280711Y-15718190D02*
X7299758Y-15727714D01*
X7299758Y-15727714D02*
X7309282Y-15746762D01*
X7309282Y-15746762D02*
X7309282Y-15851524D01*
X7309282Y-15746762D02*
X7318806Y-15727714D01*
X7318806Y-15727714D02*
X7337854Y-15718190D01*
X7337854Y-15718190D02*
X7366425Y-15718190D01*
X7366425Y-15718190D02*
X7385473Y-15727714D01*
X7385473Y-15727714D02*
X7394997Y-15746762D01*
X7394997Y-15746762D02*
X7394997Y-15851524D01*
X7490235Y-15851524D02*
X7490235Y-15718190D01*
X7490235Y-15737238D02*
X7499758Y-15727714D01*
X7499758Y-15727714D02*
X7518806Y-15718190D01*
X7518806Y-15718190D02*
X7547378Y-15718190D01*
X7547378Y-15718190D02*
X7566425Y-15727714D01*
X7566425Y-15727714D02*
X7575949Y-15746762D01*
X7575949Y-15746762D02*
X7575949Y-15851524D01*
X7575949Y-15746762D02*
X7585473Y-15727714D01*
X7585473Y-15727714D02*
X7604520Y-15718190D01*
X7604520Y-15718190D02*
X7633092Y-15718190D01*
X7633092Y-15718190D02*
X7652139Y-15727714D01*
X7652139Y-15727714D02*
X7661663Y-15746762D01*
X7661663Y-15746762D02*
X7661663Y-15851524D01*
X8052139Y-15642000D02*
X7880711Y-15899143D01*
X8309282Y-15651524D02*
X8328330Y-15651524D01*
X8328330Y-15651524D02*
X8347378Y-15661048D01*
X8347378Y-15661048D02*
X8356901Y-15670571D01*
X8356901Y-15670571D02*
X8366425Y-15689619D01*
X8366425Y-15689619D02*
X8375949Y-15727714D01*
X8375949Y-15727714D02*
X8375949Y-15775333D01*
X8375949Y-15775333D02*
X8366425Y-15813429D01*
X8366425Y-15813429D02*
X8356901Y-15832476D01*
X8356901Y-15832476D02*
X8347378Y-15842000D01*
X8347378Y-15842000D02*
X8328330Y-15851524D01*
X8328330Y-15851524D02*
X8309282Y-15851524D01*
X8309282Y-15851524D02*
X8290235Y-15842000D01*
X8290235Y-15842000D02*
X8280711Y-15832476D01*
X8280711Y-15832476D02*
X8271187Y-15813429D01*
X8271187Y-15813429D02*
X8261663Y-15775333D01*
X8261663Y-15775333D02*
X8261663Y-15727714D01*
X8261663Y-15727714D02*
X8271187Y-15689619D01*
X8271187Y-15689619D02*
X8280711Y-15670571D01*
X8280711Y-15670571D02*
X8290235Y-15661048D01*
X8290235Y-15661048D02*
X8309282Y-15651524D01*
X8461663Y-15832476D02*
X8471187Y-15842000D01*
X8471187Y-15842000D02*
X8461663Y-15851524D01*
X8461663Y-15851524D02*
X8452140Y-15842000D01*
X8452140Y-15842000D02*
X8461663Y-15832476D01*
X8461663Y-15832476D02*
X8461663Y-15851524D01*
X8594997Y-15651524D02*
X8614044Y-15651524D01*
X8614044Y-15651524D02*
X8633092Y-15661048D01*
X8633092Y-15661048D02*
X8642616Y-15670571D01*
X8642616Y-15670571D02*
X8652140Y-15689619D01*
X8652140Y-15689619D02*
X8661663Y-15727714D01*
X8661663Y-15727714D02*
X8661663Y-15775333D01*
X8661663Y-15775333D02*
X8652140Y-15813429D01*
X8652140Y-15813429D02*
X8642616Y-15832476D01*
X8642616Y-15832476D02*
X8633092Y-15842000D01*
X8633092Y-15842000D02*
X8614044Y-15851524D01*
X8614044Y-15851524D02*
X8594997Y-15851524D01*
X8594997Y-15851524D02*
X8575949Y-15842000D01*
X8575949Y-15842000D02*
X8566425Y-15832476D01*
X8566425Y-15832476D02*
X8556902Y-15813429D01*
X8556902Y-15813429D02*
X8547378Y-15775333D01*
X8547378Y-15775333D02*
X8547378Y-15727714D01*
X8547378Y-15727714D02*
X8556902Y-15689619D01*
X8556902Y-15689619D02*
X8566425Y-15670571D01*
X8566425Y-15670571D02*
X8575949Y-15661048D01*
X8575949Y-15661048D02*
X8594997Y-15651524D01*
X8728330Y-15651524D02*
X8852140Y-15651524D01*
X8852140Y-15651524D02*
X8785473Y-15727714D01*
X8785473Y-15727714D02*
X8814044Y-15727714D01*
X8814044Y-15727714D02*
X8833092Y-15737238D01*
X8833092Y-15737238D02*
X8842616Y-15746762D01*
X8842616Y-15746762D02*
X8852140Y-15765810D01*
X8852140Y-15765810D02*
X8852140Y-15813429D01*
X8852140Y-15813429D02*
X8842616Y-15832476D01*
X8842616Y-15832476D02*
X8833092Y-15842000D01*
X8833092Y-15842000D02*
X8814044Y-15851524D01*
X8814044Y-15851524D02*
X8756902Y-15851524D01*
X8756902Y-15851524D02*
X8737854Y-15842000D01*
X8737854Y-15842000D02*
X8728330Y-15832476D01*
X8928330Y-15670571D02*
X8937854Y-15661048D01*
X8937854Y-15661048D02*
X8956902Y-15651524D01*
X8956902Y-15651524D02*
X9004521Y-15651524D01*
X9004521Y-15651524D02*
X9023568Y-15661048D01*
X9023568Y-15661048D02*
X9033092Y-15670571D01*
X9033092Y-15670571D02*
X9042616Y-15689619D01*
X9042616Y-15689619D02*
X9042616Y-15708667D01*
X9042616Y-15708667D02*
X9033092Y-15737238D01*
X9033092Y-15737238D02*
X8918806Y-15851524D01*
X8918806Y-15851524D02*
X9042616Y-15851524D01*
X9166425Y-15651524D02*
X9185473Y-15651524D01*
X9185473Y-15651524D02*
X9204521Y-15661048D01*
X9204521Y-15661048D02*
X9214044Y-15670571D01*
X9214044Y-15670571D02*
X9223568Y-15689619D01*
X9223568Y-15689619D02*
X9233092Y-15727714D01*
X9233092Y-15727714D02*
X9233092Y-15775333D01*
X9233092Y-15775333D02*
X9223568Y-15813429D01*
X9223568Y-15813429D02*
X9214044Y-15832476D01*
X9214044Y-15832476D02*
X9204521Y-15842000D01*
X9204521Y-15842000D02*
X9185473Y-15851524D01*
X9185473Y-15851524D02*
X9166425Y-15851524D01*
X9166425Y-15851524D02*
X9147378Y-15842000D01*
X9147378Y-15842000D02*
X9137854Y-15832476D01*
X9137854Y-15832476D02*
X9128330Y-15813429D01*
X9128330Y-15813429D02*
X9118806Y-15775333D01*
X9118806Y-15775333D02*
X9118806Y-15727714D01*
X9118806Y-15727714D02*
X9128330Y-15689619D01*
X9128330Y-15689619D02*
X9137854Y-15670571D01*
X9137854Y-15670571D02*
X9147378Y-15661048D01*
X9147378Y-15661048D02*
X9166425Y-15651524D01*
X9309283Y-15651524D02*
X9309283Y-15689619D01*
X9385473Y-15651524D02*
X9385473Y-15689619D01*
X9680711Y-15927714D02*
X9671187Y-15918190D01*
X9671187Y-15918190D02*
X9652140Y-15889619D01*
X9652140Y-15889619D02*
X9642616Y-15870571D01*
X9642616Y-15870571D02*
X9633092Y-15842000D01*
X9633092Y-15842000D02*
X9623568Y-15794381D01*
X9623568Y-15794381D02*
X9623568Y-15756286D01*
X9623568Y-15756286D02*
X9633092Y-15708667D01*
X9633092Y-15708667D02*
X9642616Y-15680095D01*
X9642616Y-15680095D02*
X9652140Y-15661048D01*
X9652140Y-15661048D02*
X9671187Y-15632476D01*
X9671187Y-15632476D02*
X9680711Y-15622952D01*
X9842616Y-15718190D02*
X9842616Y-15851524D01*
X9794997Y-15642000D02*
X9747378Y-15784857D01*
X9747378Y-15784857D02*
X9871187Y-15784857D01*
X9975949Y-15737238D02*
X9956902Y-15727714D01*
X9956902Y-15727714D02*
X9947378Y-15718190D01*
X9947378Y-15718190D02*
X9937854Y-15699143D01*
X9937854Y-15699143D02*
X9937854Y-15689619D01*
X9937854Y-15689619D02*
X9947378Y-15670571D01*
X9947378Y-15670571D02*
X9956902Y-15661048D01*
X9956902Y-15661048D02*
X9975949Y-15651524D01*
X9975949Y-15651524D02*
X10014045Y-15651524D01*
X10014045Y-15651524D02*
X10033092Y-15661048D01*
X10033092Y-15661048D02*
X10042616Y-15670571D01*
X10042616Y-15670571D02*
X10052140Y-15689619D01*
X10052140Y-15689619D02*
X10052140Y-15699143D01*
X10052140Y-15699143D02*
X10042616Y-15718190D01*
X10042616Y-15718190D02*
X10033092Y-15727714D01*
X10033092Y-15727714D02*
X10014045Y-15737238D01*
X10014045Y-15737238D02*
X9975949Y-15737238D01*
X9975949Y-15737238D02*
X9956902Y-15746762D01*
X9956902Y-15746762D02*
X9947378Y-15756286D01*
X9947378Y-15756286D02*
X9937854Y-15775333D01*
X9937854Y-15775333D02*
X9937854Y-15813429D01*
X9937854Y-15813429D02*
X9947378Y-15832476D01*
X9947378Y-15832476D02*
X9956902Y-15842000D01*
X9956902Y-15842000D02*
X9975949Y-15851524D01*
X9975949Y-15851524D02*
X10014045Y-15851524D01*
X10014045Y-15851524D02*
X10033092Y-15842000D01*
X10033092Y-15842000D02*
X10042616Y-15832476D01*
X10042616Y-15832476D02*
X10052140Y-15813429D01*
X10052140Y-15813429D02*
X10052140Y-15775333D01*
X10052140Y-15775333D02*
X10042616Y-15756286D01*
X10042616Y-15756286D02*
X10033092Y-15746762D01*
X10033092Y-15746762D02*
X10014045Y-15737238D01*
X10290235Y-15851524D02*
X10290235Y-15651524D01*
X10375949Y-15851524D02*
X10375949Y-15746762D01*
X10375949Y-15746762D02*
X10366426Y-15727714D01*
X10366426Y-15727714D02*
X10347378Y-15718190D01*
X10347378Y-15718190D02*
X10318806Y-15718190D01*
X10318806Y-15718190D02*
X10299759Y-15727714D01*
X10299759Y-15727714D02*
X10290235Y-15737238D01*
X10499759Y-15851524D02*
X10480711Y-15842000D01*
X10480711Y-15842000D02*
X10471187Y-15832476D01*
X10471187Y-15832476D02*
X10461664Y-15813429D01*
X10461664Y-15813429D02*
X10461664Y-15756286D01*
X10461664Y-15756286D02*
X10471187Y-15737238D01*
X10471187Y-15737238D02*
X10480711Y-15727714D01*
X10480711Y-15727714D02*
X10499759Y-15718190D01*
X10499759Y-15718190D02*
X10528330Y-15718190D01*
X10528330Y-15718190D02*
X10547378Y-15727714D01*
X10547378Y-15727714D02*
X10556902Y-15737238D01*
X10556902Y-15737238D02*
X10566426Y-15756286D01*
X10566426Y-15756286D02*
X10566426Y-15813429D01*
X10566426Y-15813429D02*
X10556902Y-15832476D01*
X10556902Y-15832476D02*
X10547378Y-15842000D01*
X10547378Y-15842000D02*
X10528330Y-15851524D01*
X10528330Y-15851524D02*
X10499759Y-15851524D01*
X10680711Y-15851524D02*
X10661664Y-15842000D01*
X10661664Y-15842000D02*
X10652140Y-15822952D01*
X10652140Y-15822952D02*
X10652140Y-15651524D01*
X10833092Y-15842000D02*
X10814045Y-15851524D01*
X10814045Y-15851524D02*
X10775949Y-15851524D01*
X10775949Y-15851524D02*
X10756902Y-15842000D01*
X10756902Y-15842000D02*
X10747378Y-15822952D01*
X10747378Y-15822952D02*
X10747378Y-15746762D01*
X10747378Y-15746762D02*
X10756902Y-15727714D01*
X10756902Y-15727714D02*
X10775949Y-15718190D01*
X10775949Y-15718190D02*
X10814045Y-15718190D01*
X10814045Y-15718190D02*
X10833092Y-15727714D01*
X10833092Y-15727714D02*
X10842616Y-15746762D01*
X10842616Y-15746762D02*
X10842616Y-15765810D01*
X10842616Y-15765810D02*
X10747378Y-15784857D01*
X10918807Y-15842000D02*
X10937854Y-15851524D01*
X10937854Y-15851524D02*
X10975949Y-15851524D01*
X10975949Y-15851524D02*
X10994997Y-15842000D01*
X10994997Y-15842000D02*
X11004521Y-15822952D01*
X11004521Y-15822952D02*
X11004521Y-15813429D01*
X11004521Y-15813429D02*
X10994997Y-15794381D01*
X10994997Y-15794381D02*
X10975949Y-15784857D01*
X10975949Y-15784857D02*
X10947378Y-15784857D01*
X10947378Y-15784857D02*
X10928330Y-15775333D01*
X10928330Y-15775333D02*
X10918807Y-15756286D01*
X10918807Y-15756286D02*
X10918807Y-15746762D01*
X10918807Y-15746762D02*
X10928330Y-15727714D01*
X10928330Y-15727714D02*
X10947378Y-15718190D01*
X10947378Y-15718190D02*
X10975949Y-15718190D01*
X10975949Y-15718190D02*
X10994997Y-15727714D01*
X11071188Y-15927714D02*
X11080711Y-15918190D01*
X11080711Y-15918190D02*
X11099759Y-15889619D01*
X11099759Y-15889619D02*
X11109283Y-15870571D01*
X11109283Y-15870571D02*
X11118807Y-15842000D01*
X11118807Y-15842000D02*
X11128330Y-15794381D01*
X11128330Y-15794381D02*
X11128330Y-15756286D01*
X11128330Y-15756286D02*
X11118807Y-15708667D01*
X11118807Y-15708667D02*
X11109283Y-15680095D01*
X11109283Y-15680095D02*
X11099759Y-15661048D01*
X11099759Y-15661048D02*
X11080711Y-15632476D01*
X11080711Y-15632476D02*
X11071188Y-15622952D01*
D14*
X6073806Y-15978000D02*
X6073806Y-16068000D01*
X6028806Y-16023000D02*
X6118806Y-16023000D01*
D11*
X6404520Y-15915524D02*
X6423568Y-15915524D01*
X6423568Y-15915524D02*
X6442616Y-15925048D01*
X6442616Y-15925048D02*
X6452139Y-15934571D01*
X6452139Y-15934571D02*
X6461663Y-15953619D01*
X6461663Y-15953619D02*
X6471187Y-15991714D01*
X6471187Y-15991714D02*
X6471187Y-16039333D01*
X6471187Y-16039333D02*
X6461663Y-16077429D01*
X6461663Y-16077429D02*
X6452139Y-16096476D01*
X6452139Y-16096476D02*
X6442616Y-16106000D01*
X6442616Y-16106000D02*
X6423568Y-16115524D01*
X6423568Y-16115524D02*
X6404520Y-16115524D01*
X6404520Y-16115524D02*
X6385473Y-16106000D01*
X6385473Y-16106000D02*
X6375949Y-16096476D01*
X6375949Y-16096476D02*
X6366425Y-16077429D01*
X6366425Y-16077429D02*
X6356901Y-16039333D01*
X6356901Y-16039333D02*
X6356901Y-15991714D01*
X6356901Y-15991714D02*
X6366425Y-15953619D01*
X6366425Y-15953619D02*
X6375949Y-15934571D01*
X6375949Y-15934571D02*
X6385473Y-15925048D01*
X6385473Y-15925048D02*
X6404520Y-15915524D01*
X6556901Y-16096476D02*
X6566425Y-16106000D01*
X6566425Y-16106000D02*
X6556901Y-16115524D01*
X6556901Y-16115524D02*
X6547377Y-16106000D01*
X6547377Y-16106000D02*
X6556901Y-16096476D01*
X6556901Y-16096476D02*
X6556901Y-16115524D01*
X6661663Y-16115524D02*
X6699758Y-16115524D01*
X6699758Y-16115524D02*
X6718806Y-16106000D01*
X6718806Y-16106000D02*
X6728330Y-16096476D01*
X6728330Y-16096476D02*
X6747377Y-16067905D01*
X6747377Y-16067905D02*
X6756901Y-16029810D01*
X6756901Y-16029810D02*
X6756901Y-15953619D01*
X6756901Y-15953619D02*
X6747377Y-15934571D01*
X6747377Y-15934571D02*
X6737854Y-15925048D01*
X6737854Y-15925048D02*
X6718806Y-15915524D01*
X6718806Y-15915524D02*
X6680711Y-15915524D01*
X6680711Y-15915524D02*
X6661663Y-15925048D01*
X6661663Y-15925048D02*
X6652139Y-15934571D01*
X6652139Y-15934571D02*
X6642616Y-15953619D01*
X6642616Y-15953619D02*
X6642616Y-16001238D01*
X6642616Y-16001238D02*
X6652139Y-16020286D01*
X6652139Y-16020286D02*
X6661663Y-16029810D01*
X6661663Y-16029810D02*
X6680711Y-16039333D01*
X6680711Y-16039333D02*
X6718806Y-16039333D01*
X6718806Y-16039333D02*
X6737854Y-16029810D01*
X6737854Y-16029810D02*
X6747377Y-16020286D01*
X6747377Y-16020286D02*
X6756901Y-16001238D01*
X6880711Y-15915524D02*
X6899758Y-15915524D01*
X6899758Y-15915524D02*
X6918806Y-15925048D01*
X6918806Y-15925048D02*
X6928330Y-15934571D01*
X6928330Y-15934571D02*
X6937854Y-15953619D01*
X6937854Y-15953619D02*
X6947377Y-15991714D01*
X6947377Y-15991714D02*
X6947377Y-16039333D01*
X6947377Y-16039333D02*
X6937854Y-16077429D01*
X6937854Y-16077429D02*
X6928330Y-16096476D01*
X6928330Y-16096476D02*
X6918806Y-16106000D01*
X6918806Y-16106000D02*
X6899758Y-16115524D01*
X6899758Y-16115524D02*
X6880711Y-16115524D01*
X6880711Y-16115524D02*
X6861663Y-16106000D01*
X6861663Y-16106000D02*
X6852139Y-16096476D01*
X6852139Y-16096476D02*
X6842616Y-16077429D01*
X6842616Y-16077429D02*
X6833092Y-16039333D01*
X6833092Y-16039333D02*
X6833092Y-15991714D01*
X6833092Y-15991714D02*
X6842616Y-15953619D01*
X6842616Y-15953619D02*
X6852139Y-15934571D01*
X6852139Y-15934571D02*
X6861663Y-15925048D01*
X6861663Y-15925048D02*
X6880711Y-15915524D01*
X7071187Y-15915524D02*
X7090235Y-15915524D01*
X7090235Y-15915524D02*
X7109282Y-15925048D01*
X7109282Y-15925048D02*
X7118806Y-15934571D01*
X7118806Y-15934571D02*
X7128330Y-15953619D01*
X7128330Y-15953619D02*
X7137854Y-15991714D01*
X7137854Y-15991714D02*
X7137854Y-16039333D01*
X7137854Y-16039333D02*
X7128330Y-16077429D01*
X7128330Y-16077429D02*
X7118806Y-16096476D01*
X7118806Y-16096476D02*
X7109282Y-16106000D01*
X7109282Y-16106000D02*
X7090235Y-16115524D01*
X7090235Y-16115524D02*
X7071187Y-16115524D01*
X7071187Y-16115524D02*
X7052139Y-16106000D01*
X7052139Y-16106000D02*
X7042616Y-16096476D01*
X7042616Y-16096476D02*
X7033092Y-16077429D01*
X7033092Y-16077429D02*
X7023568Y-16039333D01*
X7023568Y-16039333D02*
X7023568Y-15991714D01*
X7023568Y-15991714D02*
X7033092Y-15953619D01*
X7033092Y-15953619D02*
X7042616Y-15934571D01*
X7042616Y-15934571D02*
X7052139Y-15925048D01*
X7052139Y-15925048D02*
X7071187Y-15915524D01*
X7223568Y-16115524D02*
X7223568Y-15982190D01*
X7223568Y-16001238D02*
X7233092Y-15991714D01*
X7233092Y-15991714D02*
X7252139Y-15982190D01*
X7252139Y-15982190D02*
X7280711Y-15982190D01*
X7280711Y-15982190D02*
X7299758Y-15991714D01*
X7299758Y-15991714D02*
X7309282Y-16010762D01*
X7309282Y-16010762D02*
X7309282Y-16115524D01*
X7309282Y-16010762D02*
X7318806Y-15991714D01*
X7318806Y-15991714D02*
X7337854Y-15982190D01*
X7337854Y-15982190D02*
X7366425Y-15982190D01*
X7366425Y-15982190D02*
X7385473Y-15991714D01*
X7385473Y-15991714D02*
X7394997Y-16010762D01*
X7394997Y-16010762D02*
X7394997Y-16115524D01*
X7490235Y-16115524D02*
X7490235Y-15982190D01*
X7490235Y-16001238D02*
X7499758Y-15991714D01*
X7499758Y-15991714D02*
X7518806Y-15982190D01*
X7518806Y-15982190D02*
X7547378Y-15982190D01*
X7547378Y-15982190D02*
X7566425Y-15991714D01*
X7566425Y-15991714D02*
X7575949Y-16010762D01*
X7575949Y-16010762D02*
X7575949Y-16115524D01*
X7575949Y-16010762D02*
X7585473Y-15991714D01*
X7585473Y-15991714D02*
X7604520Y-15982190D01*
X7604520Y-15982190D02*
X7633092Y-15982190D01*
X7633092Y-15982190D02*
X7652139Y-15991714D01*
X7652139Y-15991714D02*
X7661663Y-16010762D01*
X7661663Y-16010762D02*
X7661663Y-16115524D01*
X8052139Y-15906000D02*
X7880711Y-16163143D01*
X8309282Y-15915524D02*
X8328330Y-15915524D01*
X8328330Y-15915524D02*
X8347378Y-15925048D01*
X8347378Y-15925048D02*
X8356901Y-15934571D01*
X8356901Y-15934571D02*
X8366425Y-15953619D01*
X8366425Y-15953619D02*
X8375949Y-15991714D01*
X8375949Y-15991714D02*
X8375949Y-16039333D01*
X8375949Y-16039333D02*
X8366425Y-16077429D01*
X8366425Y-16077429D02*
X8356901Y-16096476D01*
X8356901Y-16096476D02*
X8347378Y-16106000D01*
X8347378Y-16106000D02*
X8328330Y-16115524D01*
X8328330Y-16115524D02*
X8309282Y-16115524D01*
X8309282Y-16115524D02*
X8290235Y-16106000D01*
X8290235Y-16106000D02*
X8280711Y-16096476D01*
X8280711Y-16096476D02*
X8271187Y-16077429D01*
X8271187Y-16077429D02*
X8261663Y-16039333D01*
X8261663Y-16039333D02*
X8261663Y-15991714D01*
X8261663Y-15991714D02*
X8271187Y-15953619D01*
X8271187Y-15953619D02*
X8280711Y-15934571D01*
X8280711Y-15934571D02*
X8290235Y-15925048D01*
X8290235Y-15925048D02*
X8309282Y-15915524D01*
X8461663Y-16096476D02*
X8471187Y-16106000D01*
X8471187Y-16106000D02*
X8461663Y-16115524D01*
X8461663Y-16115524D02*
X8452140Y-16106000D01*
X8452140Y-16106000D02*
X8461663Y-16096476D01*
X8461663Y-16096476D02*
X8461663Y-16115524D01*
X8594997Y-15915524D02*
X8614044Y-15915524D01*
X8614044Y-15915524D02*
X8633092Y-15925048D01*
X8633092Y-15925048D02*
X8642616Y-15934571D01*
X8642616Y-15934571D02*
X8652140Y-15953619D01*
X8652140Y-15953619D02*
X8661663Y-15991714D01*
X8661663Y-15991714D02*
X8661663Y-16039333D01*
X8661663Y-16039333D02*
X8652140Y-16077429D01*
X8652140Y-16077429D02*
X8642616Y-16096476D01*
X8642616Y-16096476D02*
X8633092Y-16106000D01*
X8633092Y-16106000D02*
X8614044Y-16115524D01*
X8614044Y-16115524D02*
X8594997Y-16115524D01*
X8594997Y-16115524D02*
X8575949Y-16106000D01*
X8575949Y-16106000D02*
X8566425Y-16096476D01*
X8566425Y-16096476D02*
X8556902Y-16077429D01*
X8556902Y-16077429D02*
X8547378Y-16039333D01*
X8547378Y-16039333D02*
X8547378Y-15991714D01*
X8547378Y-15991714D02*
X8556902Y-15953619D01*
X8556902Y-15953619D02*
X8566425Y-15934571D01*
X8566425Y-15934571D02*
X8575949Y-15925048D01*
X8575949Y-15925048D02*
X8594997Y-15915524D01*
X8728330Y-15915524D02*
X8852140Y-15915524D01*
X8852140Y-15915524D02*
X8785473Y-15991714D01*
X8785473Y-15991714D02*
X8814044Y-15991714D01*
X8814044Y-15991714D02*
X8833092Y-16001238D01*
X8833092Y-16001238D02*
X8842616Y-16010762D01*
X8842616Y-16010762D02*
X8852140Y-16029810D01*
X8852140Y-16029810D02*
X8852140Y-16077429D01*
X8852140Y-16077429D02*
X8842616Y-16096476D01*
X8842616Y-16096476D02*
X8833092Y-16106000D01*
X8833092Y-16106000D02*
X8814044Y-16115524D01*
X8814044Y-16115524D02*
X8756902Y-16115524D01*
X8756902Y-16115524D02*
X8737854Y-16106000D01*
X8737854Y-16106000D02*
X8728330Y-16096476D01*
X9033092Y-15915524D02*
X8937854Y-15915524D01*
X8937854Y-15915524D02*
X8928330Y-16010762D01*
X8928330Y-16010762D02*
X8937854Y-16001238D01*
X8937854Y-16001238D02*
X8956902Y-15991714D01*
X8956902Y-15991714D02*
X9004521Y-15991714D01*
X9004521Y-15991714D02*
X9023568Y-16001238D01*
X9023568Y-16001238D02*
X9033092Y-16010762D01*
X9033092Y-16010762D02*
X9042616Y-16029810D01*
X9042616Y-16029810D02*
X9042616Y-16077429D01*
X9042616Y-16077429D02*
X9033092Y-16096476D01*
X9033092Y-16096476D02*
X9023568Y-16106000D01*
X9023568Y-16106000D02*
X9004521Y-16115524D01*
X9004521Y-16115524D02*
X8956902Y-16115524D01*
X8956902Y-16115524D02*
X8937854Y-16106000D01*
X8937854Y-16106000D02*
X8928330Y-16096476D01*
X9214044Y-15982190D02*
X9214044Y-16115524D01*
X9166425Y-15906000D02*
X9118806Y-16048857D01*
X9118806Y-16048857D02*
X9242616Y-16048857D01*
X9309283Y-15915524D02*
X9309283Y-15953619D01*
X9385473Y-15915524D02*
X9385473Y-15953619D01*
X9680711Y-16191714D02*
X9671187Y-16182190D01*
X9671187Y-16182190D02*
X9652140Y-16153619D01*
X9652140Y-16153619D02*
X9642616Y-16134571D01*
X9642616Y-16134571D02*
X9633092Y-16106000D01*
X9633092Y-16106000D02*
X9623568Y-16058381D01*
X9623568Y-16058381D02*
X9623568Y-16020286D01*
X9623568Y-16020286D02*
X9633092Y-15972667D01*
X9633092Y-15972667D02*
X9642616Y-15944095D01*
X9642616Y-15944095D02*
X9652140Y-15925048D01*
X9652140Y-15925048D02*
X9671187Y-15896476D01*
X9671187Y-15896476D02*
X9680711Y-15886952D01*
X9794997Y-15915524D02*
X9814045Y-15915524D01*
X9814045Y-15915524D02*
X9833092Y-15925048D01*
X9833092Y-15925048D02*
X9842616Y-15934571D01*
X9842616Y-15934571D02*
X9852140Y-15953619D01*
X9852140Y-15953619D02*
X9861664Y-15991714D01*
X9861664Y-15991714D02*
X9861664Y-16039333D01*
X9861664Y-16039333D02*
X9852140Y-16077429D01*
X9852140Y-16077429D02*
X9842616Y-16096476D01*
X9842616Y-16096476D02*
X9833092Y-16106000D01*
X9833092Y-16106000D02*
X9814045Y-16115524D01*
X9814045Y-16115524D02*
X9794997Y-16115524D01*
X9794997Y-16115524D02*
X9775949Y-16106000D01*
X9775949Y-16106000D02*
X9766425Y-16096476D01*
X9766425Y-16096476D02*
X9756902Y-16077429D01*
X9756902Y-16077429D02*
X9747378Y-16039333D01*
X9747378Y-16039333D02*
X9747378Y-15991714D01*
X9747378Y-15991714D02*
X9756902Y-15953619D01*
X9756902Y-15953619D02*
X9766425Y-15934571D01*
X9766425Y-15934571D02*
X9775949Y-15925048D01*
X9775949Y-15925048D02*
X9794997Y-15915524D01*
X10099759Y-16115524D02*
X10099759Y-15915524D01*
X10185473Y-16115524D02*
X10185473Y-16010762D01*
X10185473Y-16010762D02*
X10175949Y-15991714D01*
X10175949Y-15991714D02*
X10156902Y-15982190D01*
X10156902Y-15982190D02*
X10128330Y-15982190D01*
X10128330Y-15982190D02*
X10109283Y-15991714D01*
X10109283Y-15991714D02*
X10099759Y-16001238D01*
X10309283Y-16115524D02*
X10290235Y-16106000D01*
X10290235Y-16106000D02*
X10280711Y-16096476D01*
X10280711Y-16096476D02*
X10271187Y-16077429D01*
X10271187Y-16077429D02*
X10271187Y-16020286D01*
X10271187Y-16020286D02*
X10280711Y-16001238D01*
X10280711Y-16001238D02*
X10290235Y-15991714D01*
X10290235Y-15991714D02*
X10309283Y-15982190D01*
X10309283Y-15982190D02*
X10337854Y-15982190D01*
X10337854Y-15982190D02*
X10356902Y-15991714D01*
X10356902Y-15991714D02*
X10366426Y-16001238D01*
X10366426Y-16001238D02*
X10375949Y-16020286D01*
X10375949Y-16020286D02*
X10375949Y-16077429D01*
X10375949Y-16077429D02*
X10366426Y-16096476D01*
X10366426Y-16096476D02*
X10356902Y-16106000D01*
X10356902Y-16106000D02*
X10337854Y-16115524D01*
X10337854Y-16115524D02*
X10309283Y-16115524D01*
X10490235Y-16115524D02*
X10471187Y-16106000D01*
X10471187Y-16106000D02*
X10461664Y-16086952D01*
X10461664Y-16086952D02*
X10461664Y-15915524D01*
X10642616Y-16106000D02*
X10623568Y-16115524D01*
X10623568Y-16115524D02*
X10585473Y-16115524D01*
X10585473Y-16115524D02*
X10566426Y-16106000D01*
X10566426Y-16106000D02*
X10556902Y-16086952D01*
X10556902Y-16086952D02*
X10556902Y-16010762D01*
X10556902Y-16010762D02*
X10566426Y-15991714D01*
X10566426Y-15991714D02*
X10585473Y-15982190D01*
X10585473Y-15982190D02*
X10623568Y-15982190D01*
X10623568Y-15982190D02*
X10642616Y-15991714D01*
X10642616Y-15991714D02*
X10652140Y-16010762D01*
X10652140Y-16010762D02*
X10652140Y-16029810D01*
X10652140Y-16029810D02*
X10556902Y-16048857D01*
X10728330Y-16106000D02*
X10747378Y-16115524D01*
X10747378Y-16115524D02*
X10785473Y-16115524D01*
X10785473Y-16115524D02*
X10804521Y-16106000D01*
X10804521Y-16106000D02*
X10814045Y-16086952D01*
X10814045Y-16086952D02*
X10814045Y-16077429D01*
X10814045Y-16077429D02*
X10804521Y-16058381D01*
X10804521Y-16058381D02*
X10785473Y-16048857D01*
X10785473Y-16048857D02*
X10756902Y-16048857D01*
X10756902Y-16048857D02*
X10737854Y-16039333D01*
X10737854Y-16039333D02*
X10728330Y-16020286D01*
X10728330Y-16020286D02*
X10728330Y-16010762D01*
X10728330Y-16010762D02*
X10737854Y-15991714D01*
X10737854Y-15991714D02*
X10756902Y-15982190D01*
X10756902Y-15982190D02*
X10785473Y-15982190D01*
X10785473Y-15982190D02*
X10804521Y-15991714D01*
X11052140Y-16039333D02*
X11204521Y-16039333D01*
X11128330Y-16115524D02*
X11128330Y-15963143D01*
X11480711Y-16001238D02*
X11461664Y-15991714D01*
X11461664Y-15991714D02*
X11452140Y-15982190D01*
X11452140Y-15982190D02*
X11442616Y-15963143D01*
X11442616Y-15963143D02*
X11442616Y-15953619D01*
X11442616Y-15953619D02*
X11452140Y-15934571D01*
X11452140Y-15934571D02*
X11461664Y-15925048D01*
X11461664Y-15925048D02*
X11480711Y-15915524D01*
X11480711Y-15915524D02*
X11518807Y-15915524D01*
X11518807Y-15915524D02*
X11537854Y-15925048D01*
X11537854Y-15925048D02*
X11547378Y-15934571D01*
X11547378Y-15934571D02*
X11556902Y-15953619D01*
X11556902Y-15953619D02*
X11556902Y-15963143D01*
X11556902Y-15963143D02*
X11547378Y-15982190D01*
X11547378Y-15982190D02*
X11537854Y-15991714D01*
X11537854Y-15991714D02*
X11518807Y-16001238D01*
X11518807Y-16001238D02*
X11480711Y-16001238D01*
X11480711Y-16001238D02*
X11461664Y-16010762D01*
X11461664Y-16010762D02*
X11452140Y-16020286D01*
X11452140Y-16020286D02*
X11442616Y-16039333D01*
X11442616Y-16039333D02*
X11442616Y-16077429D01*
X11442616Y-16077429D02*
X11452140Y-16096476D01*
X11452140Y-16096476D02*
X11461664Y-16106000D01*
X11461664Y-16106000D02*
X11480711Y-16115524D01*
X11480711Y-16115524D02*
X11518807Y-16115524D01*
X11518807Y-16115524D02*
X11537854Y-16106000D01*
X11537854Y-16106000D02*
X11547378Y-16096476D01*
X11547378Y-16096476D02*
X11556902Y-16077429D01*
X11556902Y-16077429D02*
X11556902Y-16039333D01*
X11556902Y-16039333D02*
X11547378Y-16020286D01*
X11547378Y-16020286D02*
X11537854Y-16010762D01*
X11537854Y-16010762D02*
X11518807Y-16001238D01*
X11785473Y-16106000D02*
X11804521Y-16115524D01*
X11804521Y-16115524D02*
X11842616Y-16115524D01*
X11842616Y-16115524D02*
X11861664Y-16106000D01*
X11861664Y-16106000D02*
X11871188Y-16086952D01*
X11871188Y-16086952D02*
X11871188Y-16077429D01*
X11871188Y-16077429D02*
X11861664Y-16058381D01*
X11861664Y-16058381D02*
X11842616Y-16048857D01*
X11842616Y-16048857D02*
X11814045Y-16048857D01*
X11814045Y-16048857D02*
X11794997Y-16039333D01*
X11794997Y-16039333D02*
X11785473Y-16020286D01*
X11785473Y-16020286D02*
X11785473Y-16010762D01*
X11785473Y-16010762D02*
X11794997Y-15991714D01*
X11794997Y-15991714D02*
X11814045Y-15982190D01*
X11814045Y-15982190D02*
X11842616Y-15982190D01*
X11842616Y-15982190D02*
X11861664Y-15991714D01*
X11985473Y-16115524D02*
X11966426Y-16106000D01*
X11966426Y-16106000D02*
X11956902Y-16086952D01*
X11956902Y-16086952D02*
X11956902Y-15915524D01*
X12090235Y-16115524D02*
X12071188Y-16106000D01*
X12071188Y-16106000D02*
X12061664Y-16096476D01*
X12061664Y-16096476D02*
X12052140Y-16077429D01*
X12052140Y-16077429D02*
X12052140Y-16020286D01*
X12052140Y-16020286D02*
X12061664Y-16001238D01*
X12061664Y-16001238D02*
X12071188Y-15991714D01*
X12071188Y-15991714D02*
X12090235Y-15982190D01*
X12090235Y-15982190D02*
X12118807Y-15982190D01*
X12118807Y-15982190D02*
X12137854Y-15991714D01*
X12137854Y-15991714D02*
X12147378Y-16001238D01*
X12147378Y-16001238D02*
X12156902Y-16020286D01*
X12156902Y-16020286D02*
X12156902Y-16077429D01*
X12156902Y-16077429D02*
X12147378Y-16096476D01*
X12147378Y-16096476D02*
X12137854Y-16106000D01*
X12137854Y-16106000D02*
X12118807Y-16115524D01*
X12118807Y-16115524D02*
X12090235Y-16115524D01*
X12214045Y-15982190D02*
X12290235Y-15982190D01*
X12242616Y-15915524D02*
X12242616Y-16086952D01*
X12242616Y-16086952D02*
X12252140Y-16106000D01*
X12252140Y-16106000D02*
X12271188Y-16115524D01*
X12271188Y-16115524D02*
X12290235Y-16115524D01*
X12347378Y-16106000D02*
X12366426Y-16115524D01*
X12366426Y-16115524D02*
X12404521Y-16115524D01*
X12404521Y-16115524D02*
X12423569Y-16106000D01*
X12423569Y-16106000D02*
X12433092Y-16086952D01*
X12433092Y-16086952D02*
X12433092Y-16077429D01*
X12433092Y-16077429D02*
X12423569Y-16058381D01*
X12423569Y-16058381D02*
X12404521Y-16048857D01*
X12404521Y-16048857D02*
X12375949Y-16048857D01*
X12375949Y-16048857D02*
X12356902Y-16039333D01*
X12356902Y-16039333D02*
X12347378Y-16020286D01*
X12347378Y-16020286D02*
X12347378Y-16010762D01*
X12347378Y-16010762D02*
X12356902Y-15991714D01*
X12356902Y-15991714D02*
X12375949Y-15982190D01*
X12375949Y-15982190D02*
X12404521Y-15982190D01*
X12404521Y-15982190D02*
X12423569Y-15991714D01*
X12499759Y-16191714D02*
X12509283Y-16182190D01*
X12509283Y-16182190D02*
X12528330Y-16153619D01*
X12528330Y-16153619D02*
X12537854Y-16134571D01*
X12537854Y-16134571D02*
X12547378Y-16106000D01*
X12547378Y-16106000D02*
X12556902Y-16058381D01*
X12556902Y-16058381D02*
X12556902Y-16020286D01*
X12556902Y-16020286D02*
X12547378Y-15972667D01*
X12547378Y-15972667D02*
X12537854Y-15944095D01*
X12537854Y-15944095D02*
X12528330Y-15925048D01*
X12528330Y-15925048D02*
X12509283Y-15896476D01*
X12509283Y-15896476D02*
X12499759Y-15886952D01*
D10*
X6104162Y-16322356D02*
X6104162Y-16251644D01*
X6033450Y-16251644D01*
X6033450Y-16322356D01*
X6104162Y-16322356D01*
D11*
X6471187Y-16379524D02*
X6356901Y-16379524D01*
X6414044Y-16379524D02*
X6414044Y-16179524D01*
X6414044Y-16179524D02*
X6394996Y-16208095D01*
X6394996Y-16208095D02*
X6375949Y-16227143D01*
X6375949Y-16227143D02*
X6356901Y-16236667D01*
X6556901Y-16360476D02*
X6566425Y-16370000D01*
X6566425Y-16370000D02*
X6556901Y-16379524D01*
X6556901Y-16379524D02*
X6547377Y-16370000D01*
X6547377Y-16370000D02*
X6556901Y-16360476D01*
X6556901Y-16360476D02*
X6556901Y-16379524D01*
X6690235Y-16179524D02*
X6709282Y-16179524D01*
X6709282Y-16179524D02*
X6728330Y-16189048D01*
X6728330Y-16189048D02*
X6737854Y-16198571D01*
X6737854Y-16198571D02*
X6747377Y-16217619D01*
X6747377Y-16217619D02*
X6756901Y-16255714D01*
X6756901Y-16255714D02*
X6756901Y-16303333D01*
X6756901Y-16303333D02*
X6747377Y-16341429D01*
X6747377Y-16341429D02*
X6737854Y-16360476D01*
X6737854Y-16360476D02*
X6728330Y-16370000D01*
X6728330Y-16370000D02*
X6709282Y-16379524D01*
X6709282Y-16379524D02*
X6690235Y-16379524D01*
X6690235Y-16379524D02*
X6671187Y-16370000D01*
X6671187Y-16370000D02*
X6661663Y-16360476D01*
X6661663Y-16360476D02*
X6652139Y-16341429D01*
X6652139Y-16341429D02*
X6642616Y-16303333D01*
X6642616Y-16303333D02*
X6642616Y-16255714D01*
X6642616Y-16255714D02*
X6652139Y-16217619D01*
X6652139Y-16217619D02*
X6661663Y-16198571D01*
X6661663Y-16198571D02*
X6671187Y-16189048D01*
X6671187Y-16189048D02*
X6690235Y-16179524D01*
X6880711Y-16179524D02*
X6899758Y-16179524D01*
X6899758Y-16179524D02*
X6918806Y-16189048D01*
X6918806Y-16189048D02*
X6928330Y-16198571D01*
X6928330Y-16198571D02*
X6937854Y-16217619D01*
X6937854Y-16217619D02*
X6947377Y-16255714D01*
X6947377Y-16255714D02*
X6947377Y-16303333D01*
X6947377Y-16303333D02*
X6937854Y-16341429D01*
X6937854Y-16341429D02*
X6928330Y-16360476D01*
X6928330Y-16360476D02*
X6918806Y-16370000D01*
X6918806Y-16370000D02*
X6899758Y-16379524D01*
X6899758Y-16379524D02*
X6880711Y-16379524D01*
X6880711Y-16379524D02*
X6861663Y-16370000D01*
X6861663Y-16370000D02*
X6852139Y-16360476D01*
X6852139Y-16360476D02*
X6842616Y-16341429D01*
X6842616Y-16341429D02*
X6833092Y-16303333D01*
X6833092Y-16303333D02*
X6833092Y-16255714D01*
X6833092Y-16255714D02*
X6842616Y-16217619D01*
X6842616Y-16217619D02*
X6852139Y-16198571D01*
X6852139Y-16198571D02*
X6861663Y-16189048D01*
X6861663Y-16189048D02*
X6880711Y-16179524D01*
X7071187Y-16179524D02*
X7090235Y-16179524D01*
X7090235Y-16179524D02*
X7109282Y-16189048D01*
X7109282Y-16189048D02*
X7118806Y-16198571D01*
X7118806Y-16198571D02*
X7128330Y-16217619D01*
X7128330Y-16217619D02*
X7137854Y-16255714D01*
X7137854Y-16255714D02*
X7137854Y-16303333D01*
X7137854Y-16303333D02*
X7128330Y-16341429D01*
X7128330Y-16341429D02*
X7118806Y-16360476D01*
X7118806Y-16360476D02*
X7109282Y-16370000D01*
X7109282Y-16370000D02*
X7090235Y-16379524D01*
X7090235Y-16379524D02*
X7071187Y-16379524D01*
X7071187Y-16379524D02*
X7052139Y-16370000D01*
X7052139Y-16370000D02*
X7042616Y-16360476D01*
X7042616Y-16360476D02*
X7033092Y-16341429D01*
X7033092Y-16341429D02*
X7023568Y-16303333D01*
X7023568Y-16303333D02*
X7023568Y-16255714D01*
X7023568Y-16255714D02*
X7033092Y-16217619D01*
X7033092Y-16217619D02*
X7042616Y-16198571D01*
X7042616Y-16198571D02*
X7052139Y-16189048D01*
X7052139Y-16189048D02*
X7071187Y-16179524D01*
X7223568Y-16379524D02*
X7223568Y-16246190D01*
X7223568Y-16265238D02*
X7233092Y-16255714D01*
X7233092Y-16255714D02*
X7252139Y-16246190D01*
X7252139Y-16246190D02*
X7280711Y-16246190D01*
X7280711Y-16246190D02*
X7299758Y-16255714D01*
X7299758Y-16255714D02*
X7309282Y-16274762D01*
X7309282Y-16274762D02*
X7309282Y-16379524D01*
X7309282Y-16274762D02*
X7318806Y-16255714D01*
X7318806Y-16255714D02*
X7337854Y-16246190D01*
X7337854Y-16246190D02*
X7366425Y-16246190D01*
X7366425Y-16246190D02*
X7385473Y-16255714D01*
X7385473Y-16255714D02*
X7394997Y-16274762D01*
X7394997Y-16274762D02*
X7394997Y-16379524D01*
X7490235Y-16379524D02*
X7490235Y-16246190D01*
X7490235Y-16265238D02*
X7499758Y-16255714D01*
X7499758Y-16255714D02*
X7518806Y-16246190D01*
X7518806Y-16246190D02*
X7547378Y-16246190D01*
X7547378Y-16246190D02*
X7566425Y-16255714D01*
X7566425Y-16255714D02*
X7575949Y-16274762D01*
X7575949Y-16274762D02*
X7575949Y-16379524D01*
X7575949Y-16274762D02*
X7585473Y-16255714D01*
X7585473Y-16255714D02*
X7604520Y-16246190D01*
X7604520Y-16246190D02*
X7633092Y-16246190D01*
X7633092Y-16246190D02*
X7652139Y-16255714D01*
X7652139Y-16255714D02*
X7661663Y-16274762D01*
X7661663Y-16274762D02*
X7661663Y-16379524D01*
X8052139Y-16170000D02*
X7880711Y-16427143D01*
X8309282Y-16179524D02*
X8328330Y-16179524D01*
X8328330Y-16179524D02*
X8347378Y-16189048D01*
X8347378Y-16189048D02*
X8356901Y-16198571D01*
X8356901Y-16198571D02*
X8366425Y-16217619D01*
X8366425Y-16217619D02*
X8375949Y-16255714D01*
X8375949Y-16255714D02*
X8375949Y-16303333D01*
X8375949Y-16303333D02*
X8366425Y-16341429D01*
X8366425Y-16341429D02*
X8356901Y-16360476D01*
X8356901Y-16360476D02*
X8347378Y-16370000D01*
X8347378Y-16370000D02*
X8328330Y-16379524D01*
X8328330Y-16379524D02*
X8309282Y-16379524D01*
X8309282Y-16379524D02*
X8290235Y-16370000D01*
X8290235Y-16370000D02*
X8280711Y-16360476D01*
X8280711Y-16360476D02*
X8271187Y-16341429D01*
X8271187Y-16341429D02*
X8261663Y-16303333D01*
X8261663Y-16303333D02*
X8261663Y-16255714D01*
X8261663Y-16255714D02*
X8271187Y-16217619D01*
X8271187Y-16217619D02*
X8280711Y-16198571D01*
X8280711Y-16198571D02*
X8290235Y-16189048D01*
X8290235Y-16189048D02*
X8309282Y-16179524D01*
X8461663Y-16360476D02*
X8471187Y-16370000D01*
X8471187Y-16370000D02*
X8461663Y-16379524D01*
X8461663Y-16379524D02*
X8452140Y-16370000D01*
X8452140Y-16370000D02*
X8461663Y-16360476D01*
X8461663Y-16360476D02*
X8461663Y-16379524D01*
X8594997Y-16179524D02*
X8614044Y-16179524D01*
X8614044Y-16179524D02*
X8633092Y-16189048D01*
X8633092Y-16189048D02*
X8642616Y-16198571D01*
X8642616Y-16198571D02*
X8652140Y-16217619D01*
X8652140Y-16217619D02*
X8661663Y-16255714D01*
X8661663Y-16255714D02*
X8661663Y-16303333D01*
X8661663Y-16303333D02*
X8652140Y-16341429D01*
X8652140Y-16341429D02*
X8642616Y-16360476D01*
X8642616Y-16360476D02*
X8633092Y-16370000D01*
X8633092Y-16370000D02*
X8614044Y-16379524D01*
X8614044Y-16379524D02*
X8594997Y-16379524D01*
X8594997Y-16379524D02*
X8575949Y-16370000D01*
X8575949Y-16370000D02*
X8566425Y-16360476D01*
X8566425Y-16360476D02*
X8556902Y-16341429D01*
X8556902Y-16341429D02*
X8547378Y-16303333D01*
X8547378Y-16303333D02*
X8547378Y-16255714D01*
X8547378Y-16255714D02*
X8556902Y-16217619D01*
X8556902Y-16217619D02*
X8566425Y-16198571D01*
X8566425Y-16198571D02*
X8575949Y-16189048D01*
X8575949Y-16189048D02*
X8594997Y-16179524D01*
X8728330Y-16179524D02*
X8852140Y-16179524D01*
X8852140Y-16179524D02*
X8785473Y-16255714D01*
X8785473Y-16255714D02*
X8814044Y-16255714D01*
X8814044Y-16255714D02*
X8833092Y-16265238D01*
X8833092Y-16265238D02*
X8842616Y-16274762D01*
X8842616Y-16274762D02*
X8852140Y-16293810D01*
X8852140Y-16293810D02*
X8852140Y-16341429D01*
X8852140Y-16341429D02*
X8842616Y-16360476D01*
X8842616Y-16360476D02*
X8833092Y-16370000D01*
X8833092Y-16370000D02*
X8814044Y-16379524D01*
X8814044Y-16379524D02*
X8756902Y-16379524D01*
X8756902Y-16379524D02*
X8737854Y-16370000D01*
X8737854Y-16370000D02*
X8728330Y-16360476D01*
X8947378Y-16379524D02*
X8985473Y-16379524D01*
X8985473Y-16379524D02*
X9004521Y-16370000D01*
X9004521Y-16370000D02*
X9014044Y-16360476D01*
X9014044Y-16360476D02*
X9033092Y-16331905D01*
X9033092Y-16331905D02*
X9042616Y-16293810D01*
X9042616Y-16293810D02*
X9042616Y-16217619D01*
X9042616Y-16217619D02*
X9033092Y-16198571D01*
X9033092Y-16198571D02*
X9023568Y-16189048D01*
X9023568Y-16189048D02*
X9004521Y-16179524D01*
X9004521Y-16179524D02*
X8966425Y-16179524D01*
X8966425Y-16179524D02*
X8947378Y-16189048D01*
X8947378Y-16189048D02*
X8937854Y-16198571D01*
X8937854Y-16198571D02*
X8928330Y-16217619D01*
X8928330Y-16217619D02*
X8928330Y-16265238D01*
X8928330Y-16265238D02*
X8937854Y-16284286D01*
X8937854Y-16284286D02*
X8947378Y-16293810D01*
X8947378Y-16293810D02*
X8966425Y-16303333D01*
X8966425Y-16303333D02*
X9004521Y-16303333D01*
X9004521Y-16303333D02*
X9023568Y-16293810D01*
X9023568Y-16293810D02*
X9033092Y-16284286D01*
X9033092Y-16284286D02*
X9042616Y-16265238D01*
X9214044Y-16246190D02*
X9214044Y-16379524D01*
X9166425Y-16170000D02*
X9118806Y-16312857D01*
X9118806Y-16312857D02*
X9242616Y-16312857D01*
X9309283Y-16179524D02*
X9309283Y-16217619D01*
X9385473Y-16179524D02*
X9385473Y-16217619D01*
X9680711Y-16455714D02*
X9671187Y-16446190D01*
X9671187Y-16446190D02*
X9652140Y-16417619D01*
X9652140Y-16417619D02*
X9642616Y-16398571D01*
X9642616Y-16398571D02*
X9633092Y-16370000D01*
X9633092Y-16370000D02*
X9623568Y-16322381D01*
X9623568Y-16322381D02*
X9623568Y-16284286D01*
X9623568Y-16284286D02*
X9633092Y-16236667D01*
X9633092Y-16236667D02*
X9642616Y-16208095D01*
X9642616Y-16208095D02*
X9652140Y-16189048D01*
X9652140Y-16189048D02*
X9671187Y-16160476D01*
X9671187Y-16160476D02*
X9680711Y-16150952D01*
X9842616Y-16246190D02*
X9842616Y-16379524D01*
X9794997Y-16170000D02*
X9747378Y-16312857D01*
X9747378Y-16312857D02*
X9871187Y-16312857D01*
X10033092Y-16179524D02*
X9994997Y-16179524D01*
X9994997Y-16179524D02*
X9975949Y-16189048D01*
X9975949Y-16189048D02*
X9966425Y-16198571D01*
X9966425Y-16198571D02*
X9947378Y-16227143D01*
X9947378Y-16227143D02*
X9937854Y-16265238D01*
X9937854Y-16265238D02*
X9937854Y-16341429D01*
X9937854Y-16341429D02*
X9947378Y-16360476D01*
X9947378Y-16360476D02*
X9956902Y-16370000D01*
X9956902Y-16370000D02*
X9975949Y-16379524D01*
X9975949Y-16379524D02*
X10014045Y-16379524D01*
X10014045Y-16379524D02*
X10033092Y-16370000D01*
X10033092Y-16370000D02*
X10042616Y-16360476D01*
X10042616Y-16360476D02*
X10052140Y-16341429D01*
X10052140Y-16341429D02*
X10052140Y-16293810D01*
X10052140Y-16293810D02*
X10042616Y-16274762D01*
X10042616Y-16274762D02*
X10033092Y-16265238D01*
X10033092Y-16265238D02*
X10014045Y-16255714D01*
X10014045Y-16255714D02*
X9975949Y-16255714D01*
X9975949Y-16255714D02*
X9956902Y-16265238D01*
X9956902Y-16265238D02*
X9947378Y-16274762D01*
X9947378Y-16274762D02*
X9937854Y-16293810D01*
X10290235Y-16379524D02*
X10290235Y-16179524D01*
X10375949Y-16379524D02*
X10375949Y-16274762D01*
X10375949Y-16274762D02*
X10366426Y-16255714D01*
X10366426Y-16255714D02*
X10347378Y-16246190D01*
X10347378Y-16246190D02*
X10318806Y-16246190D01*
X10318806Y-16246190D02*
X10299759Y-16255714D01*
X10299759Y-16255714D02*
X10290235Y-16265238D01*
X10499759Y-16379524D02*
X10480711Y-16370000D01*
X10480711Y-16370000D02*
X10471187Y-16360476D01*
X10471187Y-16360476D02*
X10461664Y-16341429D01*
X10461664Y-16341429D02*
X10461664Y-16284286D01*
X10461664Y-16284286D02*
X10471187Y-16265238D01*
X10471187Y-16265238D02*
X10480711Y-16255714D01*
X10480711Y-16255714D02*
X10499759Y-16246190D01*
X10499759Y-16246190D02*
X10528330Y-16246190D01*
X10528330Y-16246190D02*
X10547378Y-16255714D01*
X10547378Y-16255714D02*
X10556902Y-16265238D01*
X10556902Y-16265238D02*
X10566426Y-16284286D01*
X10566426Y-16284286D02*
X10566426Y-16341429D01*
X10566426Y-16341429D02*
X10556902Y-16360476D01*
X10556902Y-16360476D02*
X10547378Y-16370000D01*
X10547378Y-16370000D02*
X10528330Y-16379524D01*
X10528330Y-16379524D02*
X10499759Y-16379524D01*
X10680711Y-16379524D02*
X10661664Y-16370000D01*
X10661664Y-16370000D02*
X10652140Y-16350952D01*
X10652140Y-16350952D02*
X10652140Y-16179524D01*
X10833092Y-16370000D02*
X10814045Y-16379524D01*
X10814045Y-16379524D02*
X10775949Y-16379524D01*
X10775949Y-16379524D02*
X10756902Y-16370000D01*
X10756902Y-16370000D02*
X10747378Y-16350952D01*
X10747378Y-16350952D02*
X10747378Y-16274762D01*
X10747378Y-16274762D02*
X10756902Y-16255714D01*
X10756902Y-16255714D02*
X10775949Y-16246190D01*
X10775949Y-16246190D02*
X10814045Y-16246190D01*
X10814045Y-16246190D02*
X10833092Y-16255714D01*
X10833092Y-16255714D02*
X10842616Y-16274762D01*
X10842616Y-16274762D02*
X10842616Y-16293810D01*
X10842616Y-16293810D02*
X10747378Y-16312857D01*
X10918807Y-16370000D02*
X10937854Y-16379524D01*
X10937854Y-16379524D02*
X10975949Y-16379524D01*
X10975949Y-16379524D02*
X10994997Y-16370000D01*
X10994997Y-16370000D02*
X11004521Y-16350952D01*
X11004521Y-16350952D02*
X11004521Y-16341429D01*
X11004521Y-16341429D02*
X10994997Y-16322381D01*
X10994997Y-16322381D02*
X10975949Y-16312857D01*
X10975949Y-16312857D02*
X10947378Y-16312857D01*
X10947378Y-16312857D02*
X10928330Y-16303333D01*
X10928330Y-16303333D02*
X10918807Y-16284286D01*
X10918807Y-16284286D02*
X10918807Y-16274762D01*
X10918807Y-16274762D02*
X10928330Y-16255714D01*
X10928330Y-16255714D02*
X10947378Y-16246190D01*
X10947378Y-16246190D02*
X10975949Y-16246190D01*
X10975949Y-16246190D02*
X10994997Y-16255714D01*
X11071188Y-16455714D02*
X11080711Y-16446190D01*
X11080711Y-16446190D02*
X11099759Y-16417619D01*
X11099759Y-16417619D02*
X11109283Y-16398571D01*
X11109283Y-16398571D02*
X11118807Y-16370000D01*
X11118807Y-16370000D02*
X11128330Y-16322381D01*
X11128330Y-16322381D02*
X11128330Y-16284286D01*
X11128330Y-16284286D02*
X11118807Y-16236667D01*
X11118807Y-16236667D02*
X11109283Y-16208095D01*
X11109283Y-16208095D02*
X11099759Y-16189048D01*
X11099759Y-16189048D02*
X11080711Y-16160476D01*
X11080711Y-16160476D02*
X11071188Y-16150952D01*
D15*
X6053806Y-16616000D02*
X6118806Y-16551000D01*
X6053806Y-16486000D01*
X5988806Y-16551000D01*
X6053806Y-16616000D01*
D11*
X6471187Y-16643524D02*
X6356901Y-16643524D01*
X6414044Y-16643524D02*
X6414044Y-16443524D01*
X6414044Y-16443524D02*
X6394996Y-16472095D01*
X6394996Y-16472095D02*
X6375949Y-16491143D01*
X6375949Y-16491143D02*
X6356901Y-16500667D01*
X6556901Y-16624476D02*
X6566425Y-16634000D01*
X6566425Y-16634000D02*
X6556901Y-16643524D01*
X6556901Y-16643524D02*
X6547377Y-16634000D01*
X6547377Y-16634000D02*
X6556901Y-16624476D01*
X6556901Y-16624476D02*
X6556901Y-16643524D01*
X6633092Y-16443524D02*
X6756901Y-16443524D01*
X6756901Y-16443524D02*
X6690235Y-16519714D01*
X6690235Y-16519714D02*
X6718806Y-16519714D01*
X6718806Y-16519714D02*
X6737854Y-16529238D01*
X6737854Y-16529238D02*
X6747377Y-16538762D01*
X6747377Y-16538762D02*
X6756901Y-16557810D01*
X6756901Y-16557810D02*
X6756901Y-16605429D01*
X6756901Y-16605429D02*
X6747377Y-16624476D01*
X6747377Y-16624476D02*
X6737854Y-16634000D01*
X6737854Y-16634000D02*
X6718806Y-16643524D01*
X6718806Y-16643524D02*
X6661663Y-16643524D01*
X6661663Y-16643524D02*
X6642616Y-16634000D01*
X6642616Y-16634000D02*
X6633092Y-16624476D01*
X6880711Y-16443524D02*
X6899758Y-16443524D01*
X6899758Y-16443524D02*
X6918806Y-16453048D01*
X6918806Y-16453048D02*
X6928330Y-16462571D01*
X6928330Y-16462571D02*
X6937854Y-16481619D01*
X6937854Y-16481619D02*
X6947377Y-16519714D01*
X6947377Y-16519714D02*
X6947377Y-16567333D01*
X6947377Y-16567333D02*
X6937854Y-16605429D01*
X6937854Y-16605429D02*
X6928330Y-16624476D01*
X6928330Y-16624476D02*
X6918806Y-16634000D01*
X6918806Y-16634000D02*
X6899758Y-16643524D01*
X6899758Y-16643524D02*
X6880711Y-16643524D01*
X6880711Y-16643524D02*
X6861663Y-16634000D01*
X6861663Y-16634000D02*
X6852139Y-16624476D01*
X6852139Y-16624476D02*
X6842616Y-16605429D01*
X6842616Y-16605429D02*
X6833092Y-16567333D01*
X6833092Y-16567333D02*
X6833092Y-16519714D01*
X6833092Y-16519714D02*
X6842616Y-16481619D01*
X6842616Y-16481619D02*
X6852139Y-16462571D01*
X6852139Y-16462571D02*
X6861663Y-16453048D01*
X6861663Y-16453048D02*
X6880711Y-16443524D01*
X7071187Y-16443524D02*
X7090235Y-16443524D01*
X7090235Y-16443524D02*
X7109282Y-16453048D01*
X7109282Y-16453048D02*
X7118806Y-16462571D01*
X7118806Y-16462571D02*
X7128330Y-16481619D01*
X7128330Y-16481619D02*
X7137854Y-16519714D01*
X7137854Y-16519714D02*
X7137854Y-16567333D01*
X7137854Y-16567333D02*
X7128330Y-16605429D01*
X7128330Y-16605429D02*
X7118806Y-16624476D01*
X7118806Y-16624476D02*
X7109282Y-16634000D01*
X7109282Y-16634000D02*
X7090235Y-16643524D01*
X7090235Y-16643524D02*
X7071187Y-16643524D01*
X7071187Y-16643524D02*
X7052139Y-16634000D01*
X7052139Y-16634000D02*
X7042616Y-16624476D01*
X7042616Y-16624476D02*
X7033092Y-16605429D01*
X7033092Y-16605429D02*
X7023568Y-16567333D01*
X7023568Y-16567333D02*
X7023568Y-16519714D01*
X7023568Y-16519714D02*
X7033092Y-16481619D01*
X7033092Y-16481619D02*
X7042616Y-16462571D01*
X7042616Y-16462571D02*
X7052139Y-16453048D01*
X7052139Y-16453048D02*
X7071187Y-16443524D01*
X7223568Y-16643524D02*
X7223568Y-16510190D01*
X7223568Y-16529238D02*
X7233092Y-16519714D01*
X7233092Y-16519714D02*
X7252139Y-16510190D01*
X7252139Y-16510190D02*
X7280711Y-16510190D01*
X7280711Y-16510190D02*
X7299758Y-16519714D01*
X7299758Y-16519714D02*
X7309282Y-16538762D01*
X7309282Y-16538762D02*
X7309282Y-16643524D01*
X7309282Y-16538762D02*
X7318806Y-16519714D01*
X7318806Y-16519714D02*
X7337854Y-16510190D01*
X7337854Y-16510190D02*
X7366425Y-16510190D01*
X7366425Y-16510190D02*
X7385473Y-16519714D01*
X7385473Y-16519714D02*
X7394997Y-16538762D01*
X7394997Y-16538762D02*
X7394997Y-16643524D01*
X7490235Y-16643524D02*
X7490235Y-16510190D01*
X7490235Y-16529238D02*
X7499758Y-16519714D01*
X7499758Y-16519714D02*
X7518806Y-16510190D01*
X7518806Y-16510190D02*
X7547378Y-16510190D01*
X7547378Y-16510190D02*
X7566425Y-16519714D01*
X7566425Y-16519714D02*
X7575949Y-16538762D01*
X7575949Y-16538762D02*
X7575949Y-16643524D01*
X7575949Y-16538762D02*
X7585473Y-16519714D01*
X7585473Y-16519714D02*
X7604520Y-16510190D01*
X7604520Y-16510190D02*
X7633092Y-16510190D01*
X7633092Y-16510190D02*
X7652139Y-16519714D01*
X7652139Y-16519714D02*
X7661663Y-16538762D01*
X7661663Y-16538762D02*
X7661663Y-16643524D01*
X8052139Y-16434000D02*
X7880711Y-16691143D01*
X8309282Y-16443524D02*
X8328330Y-16443524D01*
X8328330Y-16443524D02*
X8347378Y-16453048D01*
X8347378Y-16453048D02*
X8356901Y-16462571D01*
X8356901Y-16462571D02*
X8366425Y-16481619D01*
X8366425Y-16481619D02*
X8375949Y-16519714D01*
X8375949Y-16519714D02*
X8375949Y-16567333D01*
X8375949Y-16567333D02*
X8366425Y-16605429D01*
X8366425Y-16605429D02*
X8356901Y-16624476D01*
X8356901Y-16624476D02*
X8347378Y-16634000D01*
X8347378Y-16634000D02*
X8328330Y-16643524D01*
X8328330Y-16643524D02*
X8309282Y-16643524D01*
X8309282Y-16643524D02*
X8290235Y-16634000D01*
X8290235Y-16634000D02*
X8280711Y-16624476D01*
X8280711Y-16624476D02*
X8271187Y-16605429D01*
X8271187Y-16605429D02*
X8261663Y-16567333D01*
X8261663Y-16567333D02*
X8261663Y-16519714D01*
X8261663Y-16519714D02*
X8271187Y-16481619D01*
X8271187Y-16481619D02*
X8280711Y-16462571D01*
X8280711Y-16462571D02*
X8290235Y-16453048D01*
X8290235Y-16453048D02*
X8309282Y-16443524D01*
X8461663Y-16624476D02*
X8471187Y-16634000D01*
X8471187Y-16634000D02*
X8461663Y-16643524D01*
X8461663Y-16643524D02*
X8452140Y-16634000D01*
X8452140Y-16634000D02*
X8461663Y-16624476D01*
X8461663Y-16624476D02*
X8461663Y-16643524D01*
X8594997Y-16443524D02*
X8614044Y-16443524D01*
X8614044Y-16443524D02*
X8633092Y-16453048D01*
X8633092Y-16453048D02*
X8642616Y-16462571D01*
X8642616Y-16462571D02*
X8652140Y-16481619D01*
X8652140Y-16481619D02*
X8661663Y-16519714D01*
X8661663Y-16519714D02*
X8661663Y-16567333D01*
X8661663Y-16567333D02*
X8652140Y-16605429D01*
X8652140Y-16605429D02*
X8642616Y-16624476D01*
X8642616Y-16624476D02*
X8633092Y-16634000D01*
X8633092Y-16634000D02*
X8614044Y-16643524D01*
X8614044Y-16643524D02*
X8594997Y-16643524D01*
X8594997Y-16643524D02*
X8575949Y-16634000D01*
X8575949Y-16634000D02*
X8566425Y-16624476D01*
X8566425Y-16624476D02*
X8556902Y-16605429D01*
X8556902Y-16605429D02*
X8547378Y-16567333D01*
X8547378Y-16567333D02*
X8547378Y-16519714D01*
X8547378Y-16519714D02*
X8556902Y-16481619D01*
X8556902Y-16481619D02*
X8566425Y-16462571D01*
X8566425Y-16462571D02*
X8575949Y-16453048D01*
X8575949Y-16453048D02*
X8594997Y-16443524D01*
X8842616Y-16443524D02*
X8747378Y-16443524D01*
X8747378Y-16443524D02*
X8737854Y-16538762D01*
X8737854Y-16538762D02*
X8747378Y-16529238D01*
X8747378Y-16529238D02*
X8766425Y-16519714D01*
X8766425Y-16519714D02*
X8814044Y-16519714D01*
X8814044Y-16519714D02*
X8833092Y-16529238D01*
X8833092Y-16529238D02*
X8842616Y-16538762D01*
X8842616Y-16538762D02*
X8852140Y-16557810D01*
X8852140Y-16557810D02*
X8852140Y-16605429D01*
X8852140Y-16605429D02*
X8842616Y-16624476D01*
X8842616Y-16624476D02*
X8833092Y-16634000D01*
X8833092Y-16634000D02*
X8814044Y-16643524D01*
X8814044Y-16643524D02*
X8766425Y-16643524D01*
X8766425Y-16643524D02*
X8747378Y-16634000D01*
X8747378Y-16634000D02*
X8737854Y-16624476D01*
X9042616Y-16643524D02*
X8928330Y-16643524D01*
X8985473Y-16643524D02*
X8985473Y-16443524D01*
X8985473Y-16443524D02*
X8966425Y-16472095D01*
X8966425Y-16472095D02*
X8947378Y-16491143D01*
X8947378Y-16491143D02*
X8928330Y-16500667D01*
X9118806Y-16462571D02*
X9128330Y-16453048D01*
X9128330Y-16453048D02*
X9147378Y-16443524D01*
X9147378Y-16443524D02*
X9194997Y-16443524D01*
X9194997Y-16443524D02*
X9214044Y-16453048D01*
X9214044Y-16453048D02*
X9223568Y-16462571D01*
X9223568Y-16462571D02*
X9233092Y-16481619D01*
X9233092Y-16481619D02*
X9233092Y-16500667D01*
X9233092Y-16500667D02*
X9223568Y-16529238D01*
X9223568Y-16529238D02*
X9109283Y-16643524D01*
X9109283Y-16643524D02*
X9233092Y-16643524D01*
X9309283Y-16443524D02*
X9309283Y-16481619D01*
X9385473Y-16443524D02*
X9385473Y-16481619D01*
X9680711Y-16719714D02*
X9671187Y-16710190D01*
X9671187Y-16710190D02*
X9652140Y-16681619D01*
X9652140Y-16681619D02*
X9642616Y-16662571D01*
X9642616Y-16662571D02*
X9633092Y-16634000D01*
X9633092Y-16634000D02*
X9623568Y-16586381D01*
X9623568Y-16586381D02*
X9623568Y-16548286D01*
X9623568Y-16548286D02*
X9633092Y-16500667D01*
X9633092Y-16500667D02*
X9642616Y-16472095D01*
X9642616Y-16472095D02*
X9652140Y-16453048D01*
X9652140Y-16453048D02*
X9671187Y-16424476D01*
X9671187Y-16424476D02*
X9680711Y-16414952D01*
X9747378Y-16462571D02*
X9756902Y-16453048D01*
X9756902Y-16453048D02*
X9775949Y-16443524D01*
X9775949Y-16443524D02*
X9823568Y-16443524D01*
X9823568Y-16443524D02*
X9842616Y-16453048D01*
X9842616Y-16453048D02*
X9852140Y-16462571D01*
X9852140Y-16462571D02*
X9861664Y-16481619D01*
X9861664Y-16481619D02*
X9861664Y-16500667D01*
X9861664Y-16500667D02*
X9852140Y-16529238D01*
X9852140Y-16529238D02*
X9737854Y-16643524D01*
X9737854Y-16643524D02*
X9861664Y-16643524D01*
X10099759Y-16643524D02*
X10099759Y-16443524D01*
X10185473Y-16643524D02*
X10185473Y-16538762D01*
X10185473Y-16538762D02*
X10175949Y-16519714D01*
X10175949Y-16519714D02*
X10156902Y-16510190D01*
X10156902Y-16510190D02*
X10128330Y-16510190D01*
X10128330Y-16510190D02*
X10109283Y-16519714D01*
X10109283Y-16519714D02*
X10099759Y-16529238D01*
X10309283Y-16643524D02*
X10290235Y-16634000D01*
X10290235Y-16634000D02*
X10280711Y-16624476D01*
X10280711Y-16624476D02*
X10271187Y-16605429D01*
X10271187Y-16605429D02*
X10271187Y-16548286D01*
X10271187Y-16548286D02*
X10280711Y-16529238D01*
X10280711Y-16529238D02*
X10290235Y-16519714D01*
X10290235Y-16519714D02*
X10309283Y-16510190D01*
X10309283Y-16510190D02*
X10337854Y-16510190D01*
X10337854Y-16510190D02*
X10356902Y-16519714D01*
X10356902Y-16519714D02*
X10366426Y-16529238D01*
X10366426Y-16529238D02*
X10375949Y-16548286D01*
X10375949Y-16548286D02*
X10375949Y-16605429D01*
X10375949Y-16605429D02*
X10366426Y-16624476D01*
X10366426Y-16624476D02*
X10356902Y-16634000D01*
X10356902Y-16634000D02*
X10337854Y-16643524D01*
X10337854Y-16643524D02*
X10309283Y-16643524D01*
X10490235Y-16643524D02*
X10471187Y-16634000D01*
X10471187Y-16634000D02*
X10461664Y-16614952D01*
X10461664Y-16614952D02*
X10461664Y-16443524D01*
X10642616Y-16634000D02*
X10623568Y-16643524D01*
X10623568Y-16643524D02*
X10585473Y-16643524D01*
X10585473Y-16643524D02*
X10566426Y-16634000D01*
X10566426Y-16634000D02*
X10556902Y-16614952D01*
X10556902Y-16614952D02*
X10556902Y-16538762D01*
X10556902Y-16538762D02*
X10566426Y-16519714D01*
X10566426Y-16519714D02*
X10585473Y-16510190D01*
X10585473Y-16510190D02*
X10623568Y-16510190D01*
X10623568Y-16510190D02*
X10642616Y-16519714D01*
X10642616Y-16519714D02*
X10652140Y-16538762D01*
X10652140Y-16538762D02*
X10652140Y-16557810D01*
X10652140Y-16557810D02*
X10556902Y-16576857D01*
X10728330Y-16634000D02*
X10747378Y-16643524D01*
X10747378Y-16643524D02*
X10785473Y-16643524D01*
X10785473Y-16643524D02*
X10804521Y-16634000D01*
X10804521Y-16634000D02*
X10814045Y-16614952D01*
X10814045Y-16614952D02*
X10814045Y-16605429D01*
X10814045Y-16605429D02*
X10804521Y-16586381D01*
X10804521Y-16586381D02*
X10785473Y-16576857D01*
X10785473Y-16576857D02*
X10756902Y-16576857D01*
X10756902Y-16576857D02*
X10737854Y-16567333D01*
X10737854Y-16567333D02*
X10728330Y-16548286D01*
X10728330Y-16548286D02*
X10728330Y-16538762D01*
X10728330Y-16538762D02*
X10737854Y-16519714D01*
X10737854Y-16519714D02*
X10756902Y-16510190D01*
X10756902Y-16510190D02*
X10785473Y-16510190D01*
X10785473Y-16510190D02*
X10804521Y-16519714D01*
X10880711Y-16719714D02*
X10890235Y-16710190D01*
X10890235Y-16710190D02*
X10909283Y-16681619D01*
X10909283Y-16681619D02*
X10918807Y-16662571D01*
X10918807Y-16662571D02*
X10928330Y-16634000D01*
X10928330Y-16634000D02*
X10937854Y-16586381D01*
X10937854Y-16586381D02*
X10937854Y-16548286D01*
X10937854Y-16548286D02*
X10928330Y-16500667D01*
X10928330Y-16500667D02*
X10918807Y-16472095D01*
X10918807Y-16472095D02*
X10909283Y-16453048D01*
X10909283Y-16453048D02*
X10890235Y-16424476D01*
X10890235Y-16424476D02*
X10880711Y-16414952D01*
X5918806Y-16715000D02*
X6118806Y-16915000D01*
X6118806Y-16715000D02*
X5918806Y-16915000D01*
X6118806Y-16815000D02*
G75*
G03*
X6118806Y-16815000I-100000J0D01*
G01*
X6347377Y-16707524D02*
X6471187Y-16707524D01*
X6471187Y-16707524D02*
X6404520Y-16783714D01*
X6404520Y-16783714D02*
X6433092Y-16783714D01*
X6433092Y-16783714D02*
X6452139Y-16793238D01*
X6452139Y-16793238D02*
X6461663Y-16802762D01*
X6461663Y-16802762D02*
X6471187Y-16821810D01*
X6471187Y-16821810D02*
X6471187Y-16869429D01*
X6471187Y-16869429D02*
X6461663Y-16888476D01*
X6461663Y-16888476D02*
X6452139Y-16898000D01*
X6452139Y-16898000D02*
X6433092Y-16907524D01*
X6433092Y-16907524D02*
X6375949Y-16907524D01*
X6375949Y-16907524D02*
X6356901Y-16898000D01*
X6356901Y-16898000D02*
X6347377Y-16888476D01*
X6556901Y-16888476D02*
X6566425Y-16898000D01*
X6566425Y-16898000D02*
X6556901Y-16907524D01*
X6556901Y-16907524D02*
X6547377Y-16898000D01*
X6547377Y-16898000D02*
X6556901Y-16888476D01*
X6556901Y-16888476D02*
X6556901Y-16907524D01*
X6690235Y-16707524D02*
X6709282Y-16707524D01*
X6709282Y-16707524D02*
X6728330Y-16717048D01*
X6728330Y-16717048D02*
X6737854Y-16726571D01*
X6737854Y-16726571D02*
X6747377Y-16745619D01*
X6747377Y-16745619D02*
X6756901Y-16783714D01*
X6756901Y-16783714D02*
X6756901Y-16831333D01*
X6756901Y-16831333D02*
X6747377Y-16869429D01*
X6747377Y-16869429D02*
X6737854Y-16888476D01*
X6737854Y-16888476D02*
X6728330Y-16898000D01*
X6728330Y-16898000D02*
X6709282Y-16907524D01*
X6709282Y-16907524D02*
X6690235Y-16907524D01*
X6690235Y-16907524D02*
X6671187Y-16898000D01*
X6671187Y-16898000D02*
X6661663Y-16888476D01*
X6661663Y-16888476D02*
X6652139Y-16869429D01*
X6652139Y-16869429D02*
X6642616Y-16831333D01*
X6642616Y-16831333D02*
X6642616Y-16783714D01*
X6642616Y-16783714D02*
X6652139Y-16745619D01*
X6652139Y-16745619D02*
X6661663Y-16726571D01*
X6661663Y-16726571D02*
X6671187Y-16717048D01*
X6671187Y-16717048D02*
X6690235Y-16707524D01*
X6880711Y-16707524D02*
X6899758Y-16707524D01*
X6899758Y-16707524D02*
X6918806Y-16717048D01*
X6918806Y-16717048D02*
X6928330Y-16726571D01*
X6928330Y-16726571D02*
X6937854Y-16745619D01*
X6937854Y-16745619D02*
X6947377Y-16783714D01*
X6947377Y-16783714D02*
X6947377Y-16831333D01*
X6947377Y-16831333D02*
X6937854Y-16869429D01*
X6937854Y-16869429D02*
X6928330Y-16888476D01*
X6928330Y-16888476D02*
X6918806Y-16898000D01*
X6918806Y-16898000D02*
X6899758Y-16907524D01*
X6899758Y-16907524D02*
X6880711Y-16907524D01*
X6880711Y-16907524D02*
X6861663Y-16898000D01*
X6861663Y-16898000D02*
X6852139Y-16888476D01*
X6852139Y-16888476D02*
X6842616Y-16869429D01*
X6842616Y-16869429D02*
X6833092Y-16831333D01*
X6833092Y-16831333D02*
X6833092Y-16783714D01*
X6833092Y-16783714D02*
X6842616Y-16745619D01*
X6842616Y-16745619D02*
X6852139Y-16726571D01*
X6852139Y-16726571D02*
X6861663Y-16717048D01*
X6861663Y-16717048D02*
X6880711Y-16707524D01*
X7071187Y-16707524D02*
X7090235Y-16707524D01*
X7090235Y-16707524D02*
X7109282Y-16717048D01*
X7109282Y-16717048D02*
X7118806Y-16726571D01*
X7118806Y-16726571D02*
X7128330Y-16745619D01*
X7128330Y-16745619D02*
X7137854Y-16783714D01*
X7137854Y-16783714D02*
X7137854Y-16831333D01*
X7137854Y-16831333D02*
X7128330Y-16869429D01*
X7128330Y-16869429D02*
X7118806Y-16888476D01*
X7118806Y-16888476D02*
X7109282Y-16898000D01*
X7109282Y-16898000D02*
X7090235Y-16907524D01*
X7090235Y-16907524D02*
X7071187Y-16907524D01*
X7071187Y-16907524D02*
X7052139Y-16898000D01*
X7052139Y-16898000D02*
X7042616Y-16888476D01*
X7042616Y-16888476D02*
X7033092Y-16869429D01*
X7033092Y-16869429D02*
X7023568Y-16831333D01*
X7023568Y-16831333D02*
X7023568Y-16783714D01*
X7023568Y-16783714D02*
X7033092Y-16745619D01*
X7033092Y-16745619D02*
X7042616Y-16726571D01*
X7042616Y-16726571D02*
X7052139Y-16717048D01*
X7052139Y-16717048D02*
X7071187Y-16707524D01*
X7223568Y-16907524D02*
X7223568Y-16774190D01*
X7223568Y-16793238D02*
X7233092Y-16783714D01*
X7233092Y-16783714D02*
X7252139Y-16774190D01*
X7252139Y-16774190D02*
X7280711Y-16774190D01*
X7280711Y-16774190D02*
X7299758Y-16783714D01*
X7299758Y-16783714D02*
X7309282Y-16802762D01*
X7309282Y-16802762D02*
X7309282Y-16907524D01*
X7309282Y-16802762D02*
X7318806Y-16783714D01*
X7318806Y-16783714D02*
X7337854Y-16774190D01*
X7337854Y-16774190D02*
X7366425Y-16774190D01*
X7366425Y-16774190D02*
X7385473Y-16783714D01*
X7385473Y-16783714D02*
X7394997Y-16802762D01*
X7394997Y-16802762D02*
X7394997Y-16907524D01*
X7490235Y-16907524D02*
X7490235Y-16774190D01*
X7490235Y-16793238D02*
X7499758Y-16783714D01*
X7499758Y-16783714D02*
X7518806Y-16774190D01*
X7518806Y-16774190D02*
X7547378Y-16774190D01*
X7547378Y-16774190D02*
X7566425Y-16783714D01*
X7566425Y-16783714D02*
X7575949Y-16802762D01*
X7575949Y-16802762D02*
X7575949Y-16907524D01*
X7575949Y-16802762D02*
X7585473Y-16783714D01*
X7585473Y-16783714D02*
X7604520Y-16774190D01*
X7604520Y-16774190D02*
X7633092Y-16774190D01*
X7633092Y-16774190D02*
X7652139Y-16783714D01*
X7652139Y-16783714D02*
X7661663Y-16802762D01*
X7661663Y-16802762D02*
X7661663Y-16907524D01*
X8052139Y-16698000D02*
X7880711Y-16955143D01*
X8309282Y-16707524D02*
X8328330Y-16707524D01*
X8328330Y-16707524D02*
X8347378Y-16717048D01*
X8347378Y-16717048D02*
X8356901Y-16726571D01*
X8356901Y-16726571D02*
X8366425Y-16745619D01*
X8366425Y-16745619D02*
X8375949Y-16783714D01*
X8375949Y-16783714D02*
X8375949Y-16831333D01*
X8375949Y-16831333D02*
X8366425Y-16869429D01*
X8366425Y-16869429D02*
X8356901Y-16888476D01*
X8356901Y-16888476D02*
X8347378Y-16898000D01*
X8347378Y-16898000D02*
X8328330Y-16907524D01*
X8328330Y-16907524D02*
X8309282Y-16907524D01*
X8309282Y-16907524D02*
X8290235Y-16898000D01*
X8290235Y-16898000D02*
X8280711Y-16888476D01*
X8280711Y-16888476D02*
X8271187Y-16869429D01*
X8271187Y-16869429D02*
X8261663Y-16831333D01*
X8261663Y-16831333D02*
X8261663Y-16783714D01*
X8261663Y-16783714D02*
X8271187Y-16745619D01*
X8271187Y-16745619D02*
X8280711Y-16726571D01*
X8280711Y-16726571D02*
X8290235Y-16717048D01*
X8290235Y-16717048D02*
X8309282Y-16707524D01*
X8461663Y-16888476D02*
X8471187Y-16898000D01*
X8471187Y-16898000D02*
X8461663Y-16907524D01*
X8461663Y-16907524D02*
X8452140Y-16898000D01*
X8452140Y-16898000D02*
X8461663Y-16888476D01*
X8461663Y-16888476D02*
X8461663Y-16907524D01*
X8661663Y-16907524D02*
X8547378Y-16907524D01*
X8604521Y-16907524D02*
X8604521Y-16707524D01*
X8604521Y-16707524D02*
X8585473Y-16736095D01*
X8585473Y-16736095D02*
X8566425Y-16755143D01*
X8566425Y-16755143D02*
X8547378Y-16764667D01*
X8852140Y-16907524D02*
X8737854Y-16907524D01*
X8794997Y-16907524D02*
X8794997Y-16707524D01*
X8794997Y-16707524D02*
X8775949Y-16736095D01*
X8775949Y-16736095D02*
X8756902Y-16755143D01*
X8756902Y-16755143D02*
X8737854Y-16764667D01*
X8966425Y-16793238D02*
X8947378Y-16783714D01*
X8947378Y-16783714D02*
X8937854Y-16774190D01*
X8937854Y-16774190D02*
X8928330Y-16755143D01*
X8928330Y-16755143D02*
X8928330Y-16745619D01*
X8928330Y-16745619D02*
X8937854Y-16726571D01*
X8937854Y-16726571D02*
X8947378Y-16717048D01*
X8947378Y-16717048D02*
X8966425Y-16707524D01*
X8966425Y-16707524D02*
X9004521Y-16707524D01*
X9004521Y-16707524D02*
X9023568Y-16717048D01*
X9023568Y-16717048D02*
X9033092Y-16726571D01*
X9033092Y-16726571D02*
X9042616Y-16745619D01*
X9042616Y-16745619D02*
X9042616Y-16755143D01*
X9042616Y-16755143D02*
X9033092Y-16774190D01*
X9033092Y-16774190D02*
X9023568Y-16783714D01*
X9023568Y-16783714D02*
X9004521Y-16793238D01*
X9004521Y-16793238D02*
X8966425Y-16793238D01*
X8966425Y-16793238D02*
X8947378Y-16802762D01*
X8947378Y-16802762D02*
X8937854Y-16812286D01*
X8937854Y-16812286D02*
X8928330Y-16831333D01*
X8928330Y-16831333D02*
X8928330Y-16869429D01*
X8928330Y-16869429D02*
X8937854Y-16888476D01*
X8937854Y-16888476D02*
X8947378Y-16898000D01*
X8947378Y-16898000D02*
X8966425Y-16907524D01*
X8966425Y-16907524D02*
X9004521Y-16907524D01*
X9004521Y-16907524D02*
X9023568Y-16898000D01*
X9023568Y-16898000D02*
X9033092Y-16888476D01*
X9033092Y-16888476D02*
X9042616Y-16869429D01*
X9042616Y-16869429D02*
X9042616Y-16831333D01*
X9042616Y-16831333D02*
X9033092Y-16812286D01*
X9033092Y-16812286D02*
X9023568Y-16802762D01*
X9023568Y-16802762D02*
X9004521Y-16793238D01*
X9233092Y-16907524D02*
X9118806Y-16907524D01*
X9175949Y-16907524D02*
X9175949Y-16707524D01*
X9175949Y-16707524D02*
X9156902Y-16736095D01*
X9156902Y-16736095D02*
X9137854Y-16755143D01*
X9137854Y-16755143D02*
X9118806Y-16764667D01*
X9309283Y-16707524D02*
X9309283Y-16745619D01*
X9385473Y-16707524D02*
X9385473Y-16745619D01*
X9680711Y-16983714D02*
X9671187Y-16974191D01*
X9671187Y-16974191D02*
X9652140Y-16945619D01*
X9652140Y-16945619D02*
X9642616Y-16926572D01*
X9642616Y-16926572D02*
X9633092Y-16898000D01*
X9633092Y-16898000D02*
X9623568Y-16850381D01*
X9623568Y-16850381D02*
X9623568Y-16812286D01*
X9623568Y-16812286D02*
X9633092Y-16764667D01*
X9633092Y-16764667D02*
X9642616Y-16736095D01*
X9642616Y-16736095D02*
X9652140Y-16717048D01*
X9652140Y-16717048D02*
X9671187Y-16688476D01*
X9671187Y-16688476D02*
X9680711Y-16678952D01*
X9842616Y-16774190D02*
X9842616Y-16907524D01*
X9794997Y-16698000D02*
X9747378Y-16840857D01*
X9747378Y-16840857D02*
X9871187Y-16840857D01*
X10033092Y-16774190D02*
X10033092Y-16907524D01*
X9985473Y-16698000D02*
X9937854Y-16840857D01*
X9937854Y-16840857D02*
X10061664Y-16840857D01*
X10290235Y-16907524D02*
X10290235Y-16707524D01*
X10375949Y-16907524D02*
X10375949Y-16802762D01*
X10375949Y-16802762D02*
X10366426Y-16783714D01*
X10366426Y-16783714D02*
X10347378Y-16774190D01*
X10347378Y-16774190D02*
X10318806Y-16774190D01*
X10318806Y-16774190D02*
X10299759Y-16783714D01*
X10299759Y-16783714D02*
X10290235Y-16793238D01*
X10499759Y-16907524D02*
X10480711Y-16898000D01*
X10480711Y-16898000D02*
X10471187Y-16888476D01*
X10471187Y-16888476D02*
X10461664Y-16869429D01*
X10461664Y-16869429D02*
X10461664Y-16812286D01*
X10461664Y-16812286D02*
X10471187Y-16793238D01*
X10471187Y-16793238D02*
X10480711Y-16783714D01*
X10480711Y-16783714D02*
X10499759Y-16774190D01*
X10499759Y-16774190D02*
X10528330Y-16774190D01*
X10528330Y-16774190D02*
X10547378Y-16783714D01*
X10547378Y-16783714D02*
X10556902Y-16793238D01*
X10556902Y-16793238D02*
X10566426Y-16812286D01*
X10566426Y-16812286D02*
X10566426Y-16869429D01*
X10566426Y-16869429D02*
X10556902Y-16888476D01*
X10556902Y-16888476D02*
X10547378Y-16898000D01*
X10547378Y-16898000D02*
X10528330Y-16907524D01*
X10528330Y-16907524D02*
X10499759Y-16907524D01*
X10680711Y-16907524D02*
X10661664Y-16898000D01*
X10661664Y-16898000D02*
X10652140Y-16878952D01*
X10652140Y-16878952D02*
X10652140Y-16707524D01*
X10833092Y-16898000D02*
X10814045Y-16907524D01*
X10814045Y-16907524D02*
X10775949Y-16907524D01*
X10775949Y-16907524D02*
X10756902Y-16898000D01*
X10756902Y-16898000D02*
X10747378Y-16878952D01*
X10747378Y-16878952D02*
X10747378Y-16802762D01*
X10747378Y-16802762D02*
X10756902Y-16783714D01*
X10756902Y-16783714D02*
X10775949Y-16774190D01*
X10775949Y-16774190D02*
X10814045Y-16774190D01*
X10814045Y-16774190D02*
X10833092Y-16783714D01*
X10833092Y-16783714D02*
X10842616Y-16802762D01*
X10842616Y-16802762D02*
X10842616Y-16821810D01*
X10842616Y-16821810D02*
X10747378Y-16840857D01*
X10918807Y-16898000D02*
X10937854Y-16907524D01*
X10937854Y-16907524D02*
X10975949Y-16907524D01*
X10975949Y-16907524D02*
X10994997Y-16898000D01*
X10994997Y-16898000D02*
X11004521Y-16878952D01*
X11004521Y-16878952D02*
X11004521Y-16869429D01*
X11004521Y-16869429D02*
X10994997Y-16850381D01*
X10994997Y-16850381D02*
X10975949Y-16840857D01*
X10975949Y-16840857D02*
X10947378Y-16840857D01*
X10947378Y-16840857D02*
X10928330Y-16831333D01*
X10928330Y-16831333D02*
X10918807Y-16812286D01*
X10918807Y-16812286D02*
X10918807Y-16802762D01*
X10918807Y-16802762D02*
X10928330Y-16783714D01*
X10928330Y-16783714D02*
X10947378Y-16774190D01*
X10947378Y-16774190D02*
X10975949Y-16774190D01*
X10975949Y-16774190D02*
X10994997Y-16783714D01*
X11071188Y-16983714D02*
X11080711Y-16974191D01*
X11080711Y-16974191D02*
X11099759Y-16945619D01*
X11099759Y-16945619D02*
X11109283Y-16926572D01*
X11109283Y-16926572D02*
X11118807Y-16898000D01*
X11118807Y-16898000D02*
X11128330Y-16850381D01*
X11128330Y-16850381D02*
X11128330Y-16812286D01*
X11128330Y-16812286D02*
X11118807Y-16764667D01*
X11118807Y-16764667D02*
X11109283Y-16736095D01*
X11109283Y-16736095D02*
X11099759Y-16717048D01*
X11099759Y-16717048D02*
X11080711Y-16688476D01*
X11080711Y-16688476D02*
X11071188Y-16678952D01*
M02*
